<svg xmlns="http://www.w3.org/2000/svg" xmlns:xlink="http://www.w3.org/1999/xlink" id="Layer_1" x="0px" y="0px" viewBox="0 0 390.6 100.6" style="enable-background:new 0 0 390.6 100.6;" xml:space="preserve"><style type="text/css">	.st0{clip-path:url(#SVGID_00000083771421125852383530000015407974512066769842_);}	.st1{clip-path:url(#SVGID_00000116234439589682022710000015072432573275975068_);}			.st2{clip-path:url(#SVGID_00000155117450056009800060000009314519981775411129_);fill-rule:evenodd;clip-rule:evenodd;fill:#E50B14;}			.st3{clip-path:url(#SVGID_00000155117450056009800060000009314519981775411129_);fill-rule:evenodd;clip-rule:evenodd;fill:#468AC7;}	.st4{fill:#BFC0C0;}	.st5{fill:#458AC8;}	.st6{fill:#E41E26;}	.st7{fill:#159AFD;}	.st8{fill-rule:evenodd;clip-rule:evenodd;fill:#159AFD;}	.st9{fill-rule:evenodd;clip-rule:evenodd;fill:#1B1A19;}	.st10{fill-rule:evenodd;clip-rule:evenodd;fill:#FFFFFF;}	.st11{fill:none;}	.st12{fill:#912682;}	.st13{fill:#016236;}	.st14{fill:#2E3281;}	.st15{fill:#AB7D4B;}	.st16{fill:#9E235C;}	.st17{fill:#C51D6A;}	.st18{fill:#FFCB07;}	.st19{fill:#B32A25;}	.st20{fill:#009CA3;}	.st21{fill:#185489;}	.st22{fill:#F39320;}	.st23{fill:#1B1A19;}	.st24{fill:#FFFFFF;}	.st25{clip-path:url(#SVGID_00000069355954434737487060000000099424257750880152_);}	.st26{clip-path:url(#SVGID_00000177452217190832944280000015268022241375668139_);}	.st27{opacity:0.4;clip-path:url(#SVGID_00000172434414069967158730000009860212368502672543_);}	.st28{clip-path:url(#SVGID_00000057829298792798352590000000933153716666238125_);}	.st29{clip-path:url(#SVGID_00000177452217190832944280000015268022241375668139_);fill:#1C1B1A;}			.st30{clip-path:url(#SVGID_00000060000375114807221760000017861618265035089056_);fill-rule:evenodd;clip-rule:evenodd;fill:#E50B14;}			.st31{clip-path:url(#SVGID_00000060000375114807221760000017861618265035089056_);fill-rule:evenodd;clip-rule:evenodd;fill:#468AC7;}			.st32{clip-path:url(#SVGID_00000046309504651408620730000013369868767624347068_);fill:none;stroke:#1C1B1A;stroke-width:0.25;stroke-miterlimit:10;}			.st33{clip-path:url(#SVGID_00000046309504651408620730000013369868767624347068_);fill:none;stroke:#1C1B1A;stroke-width:0.25;stroke-miterlimit:10;stroke-dasharray:4.928,4.928;}			.st34{clip-path:url(#SVGID_00000046309504651408620730000013369868767624347068_);fill:none;stroke:#1C1B1A;stroke-width:0.25;stroke-miterlimit:10;stroke-dasharray:4.708,4.708;}			.st35{clip-path:url(#SVGID_00000046309504651408620730000013369868767624347068_);fill-rule:evenodd;clip-rule:evenodd;fill:#468AC7;}	.st36{clip-path:url(#SVGID_00000046309504651408620730000013369868767624347068_);}			.st37{clip-path:url(#SVGID_00000010303400019597815250000005289565506455637430_);fill-rule:evenodd;clip-rule:evenodd;fill:#468AC7;}	.st38{clip-path:url(#SVGID_00000010303400019597815250000005289565506455637430_);fill:#468AC7;}	.st39{clip-path:url(#SVGID_00000010303400019597815250000005289565506455637430_);fill:#912583;}			.st40{clip-path:url(#SVGID_00000010303400019597815250000005289565506455637430_);fill:none;stroke:#1C1B1A;stroke-width:0.25;stroke-miterlimit:10;}			.st41{clip-path:url(#SVGID_00000010303400019597815250000005289565506455637430_);fill:none;stroke:#1C1B1A;stroke-width:0.25;stroke-miterlimit:10;stroke-dasharray:4.928,4.928;}			.st42{clip-path:url(#SVGID_00000010303400019597815250000005289565506455637430_);fill:none;stroke:#1C1B1A;stroke-width:0.25;stroke-miterlimit:10;stroke-dasharray:4.708,4.708;}			.st43{clip-path:url(#SVGID_00000121981086323856871110000017691788212081718154_);fill:none;stroke:#1C1B1A;stroke-width:0.25;stroke-miterlimit:10;}			.st44{clip-path:url(#SVGID_00000121981086323856871110000017691788212081718154_);fill:none;stroke:#1C1B1A;stroke-width:0.25;stroke-miterlimit:10;stroke-dasharray:4.928,4.928;}			.st45{clip-path:url(#SVGID_00000121981086323856871110000017691788212081718154_);fill:none;stroke:#1C1B1A;stroke-width:0.25;stroke-miterlimit:10;stroke-dasharray:4.708,4.708;}			.st46{clip-path:url(#SVGID_00000121981086323856871110000017691788212081718154_);fill-rule:evenodd;clip-rule:evenodd;fill:#468AC7;}	.st47{clip-path:url(#SVGID_00000121981086323856871110000017691788212081718154_);}			.st48{clip-path:url(#SVGID_00000128461944016919377260000009067768747698468507_);fill-rule:evenodd;clip-rule:evenodd;fill:#468AC7;}	.st49{clip-path:url(#SVGID_00000128461944016919377260000009067768747698468507_);fill:#468AC7;}	.st50{clip-path:url(#SVGID_00000128461944016919377260000009067768747698468507_);fill:#006236;}			.st51{clip-path:url(#SVGID_00000128461944016919377260000009067768747698468507_);fill:none;stroke:#1C1B1A;stroke-width:0.25;stroke-miterlimit:10;}			.st52{clip-path:url(#SVGID_00000128461944016919377260000009067768747698468507_);fill:none;stroke:#1C1B1A;stroke-width:0.25;stroke-miterlimit:10;stroke-dasharray:4.928,4.928;}			.st53{clip-path:url(#SVGID_00000128461944016919377260000009067768747698468507_);fill:none;stroke:#1C1B1A;stroke-width:0.25;stroke-miterlimit:10;stroke-dasharray:4.708,4.708;}			.st54{clip-path:url(#SVGID_00000101799290232036770100000001226450639181090975_);fill:none;stroke:#1C1B1A;stroke-width:0.25;stroke-miterlimit:10;}			.st55{clip-path:url(#SVGID_00000101799290232036770100000001226450639181090975_);fill:none;stroke:#1C1B1A;stroke-width:0.25;stroke-miterlimit:10;stroke-dasharray:4.928,4.928;}			.st56{clip-path:url(#SVGID_00000101799290232036770100000001226450639181090975_);fill:none;stroke:#1C1B1A;stroke-width:0.25;stroke-miterlimit:10;stroke-dasharray:4.708,4.708;}			.st57{clip-path:url(#SVGID_00000101799290232036770100000001226450639181090975_);fill-rule:evenodd;clip-rule:evenodd;fill:#468AC7;}	.st58{clip-path:url(#SVGID_00000101799290232036770100000001226450639181090975_);}			.st59{clip-path:url(#SVGID_00000023994160498185769310000010023811342847907724_);fill-rule:evenodd;clip-rule:evenodd;fill:#468AC7;}	.st60{clip-path:url(#SVGID_00000023994160498185769310000010023811342847907724_);fill:#468AC7;}	.st61{clip-path:url(#SVGID_00000023994160498185769310000010023811342847907724_);fill:#9E245C;}			.st62{clip-path:url(#SVGID_00000023994160498185769310000010023811342847907724_);fill:none;stroke:#1C1B1A;stroke-width:0.25;stroke-miterlimit:10;}			.st63{clip-path:url(#SVGID_00000023994160498185769310000010023811342847907724_);fill:none;stroke:#1C1B1A;stroke-width:0.25;stroke-miterlimit:10;stroke-dasharray:4.928,4.928;}			.st64{clip-path:url(#SVGID_00000023994160498185769310000010023811342847907724_);fill:none;stroke:#1C1B1A;stroke-width:0.25;stroke-miterlimit:10;stroke-dasharray:4.708,4.708;}			.st65{clip-path:url(#SVGID_00000069367724496842440850000005617676650609567380_);fill:none;stroke:#1C1B1A;stroke-width:0.25;stroke-miterlimit:10;}			.st66{clip-path:url(#SVGID_00000069367724496842440850000005617676650609567380_);fill:none;stroke:#1C1B1A;stroke-width:0.25;stroke-miterlimit:10;stroke-dasharray:4.928,4.928;}			.st67{clip-path:url(#SVGID_00000069367724496842440850000005617676650609567380_);fill:none;stroke:#1C1B1A;stroke-width:0.25;stroke-miterlimit:10;stroke-dasharray:4.708,4.708;}			.st68{clip-path:url(#SVGID_00000069367724496842440850000005617676650609567380_);fill-rule:evenodd;clip-rule:evenodd;fill:#468AC7;}	.st69{clip-path:url(#SVGID_00000069367724496842440850000005617676650609567380_);}			.st70{clip-path:url(#SVGID_00000017481659852441967670000011727651133898513835_);fill-rule:evenodd;clip-rule:evenodd;fill:#468AC7;}	.st71{clip-path:url(#SVGID_00000017481659852441967670000011727651133898513835_);fill:#468AC7;}	.st72{clip-path:url(#SVGID_00000017481659852441967670000011727651133898513835_);fill:#FECA00;}			.st73{clip-path:url(#SVGID_00000017481659852441967670000011727651133898513835_);fill:none;stroke:#1C1B1A;stroke-width:0.25;stroke-miterlimit:10;}			.st74{clip-path:url(#SVGID_00000017481659852441967670000011727651133898513835_);fill:none;stroke:#1C1B1A;stroke-width:0.25;stroke-miterlimit:10;stroke-dasharray:4.928,4.928;}			.st75{clip-path:url(#SVGID_00000017481659852441967670000011727651133898513835_);fill:none;stroke:#1C1B1A;stroke-width:0.25;stroke-miterlimit:10;stroke-dasharray:4.708,4.708;}			.st76{clip-path:url(#SVGID_00000148650228491505652290000006492083977252592824_);fill:none;stroke:#1C1B1A;stroke-width:0.25;stroke-miterlimit:10;}			.st77{clip-path:url(#SVGID_00000148650228491505652290000006492083977252592824_);fill:none;stroke:#1C1B1A;stroke-width:0.25;stroke-miterlimit:10;stroke-dasharray:4.928,4.928;}			.st78{clip-path:url(#SVGID_00000148650228491505652290000006492083977252592824_);fill:none;stroke:#1C1B1A;stroke-width:0.25;stroke-miterlimit:10;stroke-dasharray:4.708,4.708;}			.st79{clip-path:url(#SVGID_00000148650228491505652290000006492083977252592824_);fill-rule:evenodd;clip-rule:evenodd;fill:#468AC7;}	.st80{clip-path:url(#SVGID_00000148650228491505652290000006492083977252592824_);}			.st81{clip-path:url(#SVGID_00000062909665369950438210000000195443862391144880_);fill-rule:evenodd;clip-rule:evenodd;fill:#468AC7;}	.st82{clip-path:url(#SVGID_00000062909665369950438210000000195443862391144880_);fill:#468AC7;}	.st83{clip-path:url(#SVGID_00000062909665369950438210000000195443862391144880_);fill:#B42823;}			.st84{clip-path:url(#SVGID_00000062909665369950438210000000195443862391144880_);fill:none;stroke:#1C1B1A;stroke-width:0.25;stroke-miterlimit:10;}			.st85{clip-path:url(#SVGID_00000062909665369950438210000000195443862391144880_);fill:none;stroke:#1C1B1A;stroke-width:0.25;stroke-miterlimit:10;stroke-dasharray:4.928,4.928;}			.st86{clip-path:url(#SVGID_00000062909665369950438210000000195443862391144880_);fill:none;stroke:#1C1B1A;stroke-width:0.25;stroke-miterlimit:10;stroke-dasharray:4.708,4.708;}			.st87{clip-path:url(#SVGID_00000139272577571932463460000013588450996473304463_);fill:none;stroke:#1C1B1A;stroke-width:0.25;stroke-miterlimit:10;}			.st88{clip-path:url(#SVGID_00000139272577571932463460000013588450996473304463_);fill:none;stroke:#1C1B1A;stroke-width:0.25;stroke-miterlimit:10;stroke-dasharray:4.928,4.928;}			.st89{clip-path:url(#SVGID_00000139272577571932463460000013588450996473304463_);fill:none;stroke:#1C1B1A;stroke-width:0.25;stroke-miterlimit:10;stroke-dasharray:4.708,4.708;}			.st90{clip-path:url(#SVGID_00000139272577571932463460000013588450996473304463_);fill-rule:evenodd;clip-rule:evenodd;fill:#468AC7;}	.st91{clip-path:url(#SVGID_00000139272577571932463460000013588450996473304463_);}			.st92{clip-path:url(#SVGID_00000083085614358079971510000016258388252694172320_);fill-rule:evenodd;clip-rule:evenodd;fill:#468AC7;}	.st93{clip-path:url(#SVGID_00000083085614358079971510000016258388252694172320_);fill:#468AC7;}	.st94{clip-path:url(#SVGID_00000083085614358079971510000016258388252694172320_);fill:#009CA3;}			.st95{clip-path:url(#SVGID_00000083085614358079971510000016258388252694172320_);fill:none;stroke:#1C1B1A;stroke-width:0.25;stroke-miterlimit:10;}			.st96{clip-path:url(#SVGID_00000083085614358079971510000016258388252694172320_);fill:none;stroke:#1C1B1A;stroke-width:0.25;stroke-miterlimit:10;stroke-dasharray:4.928,4.928;}			.st97{clip-path:url(#SVGID_00000083085614358079971510000016258388252694172320_);fill:none;stroke:#1C1B1A;stroke-width:0.25;stroke-miterlimit:10;stroke-dasharray:4.708,4.708;}			.st98{clip-path:url(#SVGID_00000152978575515294354260000013356280000345309071_);fill:none;stroke:#1C1B1A;stroke-width:0.25;stroke-miterlimit:10;}			.st99{clip-path:url(#SVGID_00000152978575515294354260000013356280000345309071_);fill:none;stroke:#1C1B1A;stroke-width:0.25;stroke-miterlimit:10;stroke-dasharray:4.928,4.928;}			.st100{clip-path:url(#SVGID_00000152978575515294354260000013356280000345309071_);fill:none;stroke:#1C1B1A;stroke-width:0.25;stroke-miterlimit:10;stroke-dasharray:4.708,4.708;}			.st101{clip-path:url(#SVGID_00000152978575515294354260000013356280000345309071_);fill-rule:evenodd;clip-rule:evenodd;fill:#468AC7;}	.st102{clip-path:url(#SVGID_00000152978575515294354260000013356280000345309071_);}			.st103{clip-path:url(#SVGID_00000149351019581980905630000009101690712450302377_);fill-rule:evenodd;clip-rule:evenodd;fill:#468AC7;}	.st104{clip-path:url(#SVGID_00000149351019581980905630000009101690712450302377_);fill:#468AC7;}	.st105{clip-path:url(#SVGID_00000149351019581980905630000009101690712450302377_);fill:#C51C6A;}			.st106{clip-path:url(#SVGID_00000149351019581980905630000009101690712450302377_);fill:none;stroke:#1C1B1A;stroke-width:0.25;stroke-miterlimit:10;}			.st107{clip-path:url(#SVGID_00000149351019581980905630000009101690712450302377_);fill:none;stroke:#1C1B1A;stroke-width:0.25;stroke-miterlimit:10;stroke-dasharray:4.928,4.928;}			.st108{clip-path:url(#SVGID_00000149351019581980905630000009101690712450302377_);fill:none;stroke:#1C1B1A;stroke-width:0.25;stroke-miterlimit:10;stroke-dasharray:4.708,4.708;}			.st109{clip-path:url(#SVGID_00000073690710287937482850000008591039295988665480_);fill:none;stroke:#1C1B1A;stroke-width:0.25;stroke-miterlimit:10;}			.st110{clip-path:url(#SVGID_00000073690710287937482850000008591039295988665480_);fill:none;stroke:#1C1B1A;stroke-width:0.25;stroke-miterlimit:10;stroke-dasharray:4.928,4.928;}			.st111{clip-path:url(#SVGID_00000073690710287937482850000008591039295988665480_);fill:none;stroke:#1C1B1A;stroke-width:0.25;stroke-miterlimit:10;stroke-dasharray:4.708,4.708;}			.st112{clip-path:url(#SVGID_00000073690710287937482850000008591039295988665480_);fill-rule:evenodd;clip-rule:evenodd;fill:#468AC7;}	.st113{clip-path:url(#SVGID_00000073690710287937482850000008591039295988665480_);}			.st114{clip-path:url(#SVGID_00000003819965885331110550000001492155375619008412_);fill-rule:evenodd;clip-rule:evenodd;fill:#468AC7;}	.st115{clip-path:url(#SVGID_00000003819965885331110550000001492155375619008412_);fill:#468AC7;}	.st116{clip-path:url(#SVGID_00000003819965885331110550000001492155375619008412_);fill:#C51C6A;}			.st117{clip-path:url(#SVGID_00000003819965885331110550000001492155375619008412_);fill:none;stroke:#1C1B1A;stroke-width:0.25;stroke-miterlimit:10;}			.st118{clip-path:url(#SVGID_00000003819965885331110550000001492155375619008412_);fill:none;stroke:#1C1B1A;stroke-width:0.25;stroke-miterlimit:10;stroke-dasharray:4.928,4.928;}			.st119{clip-path:url(#SVGID_00000003819965885331110550000001492155375619008412_);fill:none;stroke:#1C1B1A;stroke-width:0.25;stroke-miterlimit:10;stroke-dasharray:4.708,4.708;}			.st120{clip-path:url(#SVGID_00000178922912928466340540000006630585749608231862_);fill:none;stroke:#1C1B1A;stroke-width:0.25;stroke-miterlimit:10;}			.st121{clip-path:url(#SVGID_00000178922912928466340540000006630585749608231862_);fill:none;stroke:#1C1B1A;stroke-width:0.25;stroke-miterlimit:10;stroke-dasharray:4.928,4.928;}			.st122{clip-path:url(#SVGID_00000178922912928466340540000006630585749608231862_);fill:none;stroke:#1C1B1A;stroke-width:0.25;stroke-miterlimit:10;stroke-dasharray:4.708,4.708;}			.st123{clip-path:url(#SVGID_00000178922912928466340540000006630585749608231862_);fill-rule:evenodd;clip-rule:evenodd;fill:#468AC7;}	.st124{clip-path:url(#SVGID_00000178922912928466340540000006630585749608231862_);}			.st125{clip-path:url(#SVGID_00000016755487785984709880000005682112614718741898_);fill-rule:evenodd;clip-rule:evenodd;fill:#468AC7;}	.st126{clip-path:url(#SVGID_00000016755487785984709880000005682112614718741898_);fill:#468AC7;}	.st127{clip-path:url(#SVGID_00000016755487785984709880000005682112614718741898_);fill:#232D84;}			.st128{clip-path:url(#SVGID_00000016755487785984709880000005682112614718741898_);fill:none;stroke:#1C1B1A;stroke-width:0.25;stroke-miterlimit:10;}			.st129{clip-path:url(#SVGID_00000016755487785984709880000005682112614718741898_);fill:none;stroke:#1C1B1A;stroke-width:0.25;stroke-miterlimit:10;stroke-dasharray:4.928,4.928;}			.st130{clip-path:url(#SVGID_00000016755487785984709880000005682112614718741898_);fill:none;stroke:#1C1B1A;stroke-width:0.25;stroke-miterlimit:10;stroke-dasharray:4.708,4.708;}			.st131{clip-path:url(#SVGID_00000030460494427300834330000005639044812447375247_);fill:none;stroke:#1C1B1A;stroke-width:0.25;stroke-miterlimit:10;}			.st132{clip-path:url(#SVGID_00000030460494427300834330000005639044812447375247_);fill:none;stroke:#1C1B1A;stroke-width:0.25;stroke-miterlimit:10;stroke-dasharray:4.928,4.928;}			.st133{clip-path:url(#SVGID_00000030460494427300834330000005639044812447375247_);fill:none;stroke:#1C1B1A;stroke-width:0.25;stroke-miterlimit:10;stroke-dasharray:4.708,4.708;}			.st134{clip-path:url(#SVGID_00000030460494427300834330000005639044812447375247_);fill-rule:evenodd;clip-rule:evenodd;fill:#468AC7;}	.st135{clip-path:url(#SVGID_00000030460494427300834330000005639044812447375247_);}			.st136{clip-path:url(#SVGID_00000096770391324910293430000000167170332721369216_);fill-rule:evenodd;clip-rule:evenodd;fill:#468AC7;}	.st137{clip-path:url(#SVGID_00000096770391324910293430000000167170332721369216_);fill:#468AC7;}	.st138{clip-path:url(#SVGID_00000096770391324910293430000000167170332721369216_);fill:#AB7D4C;}			.st139{clip-path:url(#SVGID_00000096770391324910293430000000167170332721369216_);fill:none;stroke:#1C1B1A;stroke-width:0.25;stroke-miterlimit:10;}			.st140{clip-path:url(#SVGID_00000096770391324910293430000000167170332721369216_);fill:none;stroke:#1C1B1A;stroke-width:0.25;stroke-miterlimit:10;stroke-dasharray:4.928,4.928;}			.st141{clip-path:url(#SVGID_00000096770391324910293430000000167170332721369216_);fill:none;stroke:#1C1B1A;stroke-width:0.25;stroke-miterlimit:10;stroke-dasharray:4.708,4.708;}			.st142{clip-path:url(#SVGID_00000183949161044841435060000018089913077783209402_);fill:none;stroke:#1C1B1A;stroke-width:0.25;stroke-miterlimit:10;}			.st143{clip-path:url(#SVGID_00000183949161044841435060000018089913077783209402_);fill:none;stroke:#1C1B1A;stroke-width:0.25;stroke-miterlimit:10;stroke-dasharray:4.928,4.928;}			.st144{clip-path:url(#SVGID_00000183949161044841435060000018089913077783209402_);fill:none;stroke:#1C1B1A;stroke-width:0.25;stroke-miterlimit:10;stroke-dasharray:4.708,4.708;}	.st145{clip-path:url(#SVGID_00000183949161044841435060000018089913077783209402_);}	.st146{clip-path:url(#SVGID_00000126304191170593885130000018174164699969970354_);fill:#468AC7;}	.st147{clip-path:url(#SVGID_00000126304191170593885130000018174164699969970354_);fill:#E50B14;}			.st148{clip-path:url(#SVGID_00000126304191170593885130000018174164699969970354_);fill-rule:evenodd;clip-rule:evenodd;fill:#468AC7;}			.st149{clip-path:url(#SVGID_00000126304191170593885130000018174164699969970354_);fill:none;stroke:#1C1B1A;stroke-width:0.25;stroke-miterlimit:10;}			.st150{clip-path:url(#SVGID_00000126304191170593885130000018174164699969970354_);fill:none;stroke:#1C1B1A;stroke-width:0.25;stroke-miterlimit:10;stroke-dasharray:4.928,4.928;}			.st151{clip-path:url(#SVGID_00000126304191170593885130000018174164699969970354_);fill:none;stroke:#1C1B1A;stroke-width:0.25;stroke-miterlimit:10;stroke-dasharray:4.708,4.708;}			.st152{clip-path:url(#SVGID_00000129206540661870675880000006727259485602085515_);fill:none;stroke:#1C1B1A;stroke-width:0.25;stroke-miterlimit:10;}			.st153{clip-path:url(#SVGID_00000129206540661870675880000006727259485602085515_);fill:none;stroke:#1C1B1A;stroke-width:0.25;stroke-miterlimit:10;stroke-dasharray:4.928,4.928;}			.st154{clip-path:url(#SVGID_00000129206540661870675880000006727259485602085515_);fill:none;stroke:#1C1B1A;stroke-width:0.25;stroke-miterlimit:10;stroke-dasharray:4.708,4.708;}	.st155{clip-path:url(#SVGID_00000129206540661870675880000006727259485602085515_);}			.st156{clip-path:url(#SVGID_00000178911176366500614290000012652406802125031061_);fill-rule:evenodd;clip-rule:evenodd;fill:#E50B14;}			.st157{clip-path:url(#SVGID_00000178911176366500614290000012652406802125031061_);fill-rule:evenodd;clip-rule:evenodd;fill:#468AC7;}			.st158{clip-path:url(#SVGID_00000172409025184537871630000009613448570202184627_);fill:none;stroke:#1C1B1A;stroke-width:0.25;stroke-miterlimit:10;}			.st159{clip-path:url(#SVGID_00000172409025184537871630000009613448570202184627_);fill:none;stroke:#1C1B1A;stroke-width:0.25;stroke-miterlimit:10;stroke-dasharray:4.928,4.928;}			.st160{clip-path:url(#SVGID_00000172409025184537871630000009613448570202184627_);fill:none;stroke:#1C1B1A;stroke-width:0.25;stroke-miterlimit:10;stroke-dasharray:4.708,4.708;}			.st161{clip-path:url(#SVGID_00000172409025184537871630000009613448570202184627_);fill-rule:evenodd;clip-rule:evenodd;fill:#E50B14;}			.st162{clip-path:url(#SVGID_00000172409025184537871630000009613448570202184627_);fill-rule:evenodd;clip-rule:evenodd;fill:#468AC7;}			.st163{clip-path:url(#SVGID_00000165219297256204874460000001034598956149177268_);fill:none;stroke:#1C1B1A;stroke-width:0.25;stroke-miterlimit:10;}			.st164{clip-path:url(#SVGID_00000165219297256204874460000001034598956149177268_);fill:none;stroke:#1C1B1A;stroke-width:0.25;stroke-miterlimit:10;stroke-dasharray:4.928,4.928;}			.st165{clip-path:url(#SVGID_00000165219297256204874460000001034598956149177268_);fill:none;stroke:#1C1B1A;stroke-width:0.25;stroke-miterlimit:10;stroke-dasharray:4.708,4.708;}			.st166{clip-path:url(#SVGID_00000165219297256204874460000001034598956149177268_);fill-rule:evenodd;clip-rule:evenodd;fill:#E50B14;}			.st167{clip-path:url(#SVGID_00000165219297256204874460000001034598956149177268_);fill-rule:evenodd;clip-rule:evenodd;fill:#468AC7;}			.st168{clip-path:url(#SVGID_00000050636288575033655710000004946388161974744244_);fill:none;stroke:#1C1B1A;stroke-width:0.25;stroke-miterlimit:10;}			.st169{clip-path:url(#SVGID_00000050636288575033655710000004946388161974744244_);fill:none;stroke:#1C1B1A;stroke-width:0.25;stroke-miterlimit:10;stroke-dasharray:4.928,4.928;}			.st170{clip-path:url(#SVGID_00000050636288575033655710000004946388161974744244_);fill:none;stroke:#1C1B1A;stroke-width:0.25;stroke-miterlimit:10;stroke-dasharray:4.708,4.708;}			.st171{clip-path:url(#SVGID_00000050636288575033655710000004946388161974744244_);fill-rule:evenodd;clip-rule:evenodd;fill:#E50B14;}			.st172{clip-path:url(#SVGID_00000050636288575033655710000004946388161974744244_);fill-rule:evenodd;clip-rule:evenodd;fill:#468AC7;}			.st173{clip-path:url(#SVGID_00000153694363668446340250000016747494882632184997_);fill:none;stroke:#1C1B1A;stroke-width:0.25;stroke-miterlimit:10;}			.st174{clip-path:url(#SVGID_00000153694363668446340250000016747494882632184997_);fill:none;stroke:#1C1B1A;stroke-width:0.25;stroke-miterlimit:10;stroke-dasharray:4.928,4.928;}			.st175{clip-path:url(#SVGID_00000153694363668446340250000016747494882632184997_);fill:none;stroke:#1C1B1A;stroke-width:0.25;stroke-miterlimit:10;stroke-dasharray:4.708,4.708;}			.st176{clip-path:url(#SVGID_00000153694363668446340250000016747494882632184997_);fill-rule:evenodd;clip-rule:evenodd;fill:#E50B14;}			.st177{clip-path:url(#SVGID_00000153694363668446340250000016747494882632184997_);fill-rule:evenodd;clip-rule:evenodd;fill:#468AC7;}			.st178{clip-path:url(#SVGID_00000129912041034281755480000006305181543817471640_);fill:none;stroke:#1C1B1A;stroke-width:0.25;stroke-miterlimit:10;}			.st179{clip-path:url(#SVGID_00000129912041034281755480000006305181543817471640_);fill:none;stroke:#1C1B1A;stroke-width:0.25;stroke-miterlimit:10;stroke-dasharray:4.928,4.928;}			.st180{clip-path:url(#SVGID_00000129912041034281755480000006305181543817471640_);fill:none;stroke:#1C1B1A;stroke-width:0.25;stroke-miterlimit:10;stroke-dasharray:4.708,4.708;}			.st181{clip-path:url(#SVGID_00000129912041034281755480000006305181543817471640_);fill-rule:evenodd;clip-rule:evenodd;fill:#E50B14;}			.st182{clip-path:url(#SVGID_00000129912041034281755480000006305181543817471640_);fill-rule:evenodd;clip-rule:evenodd;fill:#468AC7;}			.st183{clip-path:url(#SVGID_00000170257251918779381570000007238213778887200955_);fill:none;stroke:#1C1B1A;stroke-width:0.25;stroke-miterlimit:10;}			.st184{clip-path:url(#SVGID_00000170257251918779381570000007238213778887200955_);fill:none;stroke:#1C1B1A;stroke-width:0.25;stroke-miterlimit:10;stroke-dasharray:4.928,4.928;}			.st185{clip-path:url(#SVGID_00000170257251918779381570000007238213778887200955_);fill:none;stroke:#1C1B1A;stroke-width:0.25;stroke-miterlimit:10;stroke-dasharray:4.708,4.708;}			.st186{clip-path:url(#SVGID_00000170257251918779381570000007238213778887200955_);fill-rule:evenodd;clip-rule:evenodd;fill:#E50B14;}			.st187{clip-path:url(#SVGID_00000170257251918779381570000007238213778887200955_);fill-rule:evenodd;clip-rule:evenodd;fill:#468AC7;}			.st188{clip-path:url(#SVGID_00000027595578833216576960000001363142302472826003_);fill:none;stroke:#1C1B1A;stroke-width:0.25;stroke-miterlimit:10;}			.st189{clip-path:url(#SVGID_00000027595578833216576960000001363142302472826003_);fill:none;stroke:#1C1B1A;stroke-width:0.25;stroke-miterlimit:10;stroke-dasharray:4.928,4.928;}			.st190{clip-path:url(#SVGID_00000027595578833216576960000001363142302472826003_);fill:none;stroke:#1C1B1A;stroke-width:0.25;stroke-miterlimit:10;stroke-dasharray:4.708,4.708;}			.st191{clip-path:url(#SVGID_00000027595578833216576960000001363142302472826003_);fill-rule:evenodd;clip-rule:evenodd;fill:#E50B14;}			.st192{clip-path:url(#SVGID_00000027595578833216576960000001363142302472826003_);fill-rule:evenodd;clip-rule:evenodd;fill:#468AC7;}			.st193{clip-path:url(#SVGID_00000128455074271844381740000012330196502188619940_);fill:none;stroke:#1C1B1A;stroke-width:0.25;stroke-miterlimit:10;}			.st194{clip-path:url(#SVGID_00000128455074271844381740000012330196502188619940_);fill:none;stroke:#1C1B1A;stroke-width:0.25;stroke-miterlimit:10;stroke-dasharray:4.928,4.928;}			.st195{clip-path:url(#SVGID_00000128455074271844381740000012330196502188619940_);fill:none;stroke:#1C1B1A;stroke-width:0.25;stroke-miterlimit:10;stroke-dasharray:4.708,4.708;}			.st196{clip-path:url(#SVGID_00000128455074271844381740000012330196502188619940_);fill-rule:evenodd;clip-rule:evenodd;fill:#E50B14;}			.st197{clip-path:url(#SVGID_00000128455074271844381740000012330196502188619940_);fill-rule:evenodd;clip-rule:evenodd;fill:#468AC7;}			.st198{clip-path:url(#SVGID_00000106831897394278454090000001004306014740252056_);fill:none;stroke:#1C1B1A;stroke-width:0.25;stroke-miterlimit:10;}			.st199{clip-path:url(#SVGID_00000106831897394278454090000001004306014740252056_);fill:none;stroke:#1C1B1A;stroke-width:0.25;stroke-miterlimit:10;stroke-dasharray:4.928,4.928;}			.st200{clip-path:url(#SVGID_00000106831897394278454090000001004306014740252056_);fill:none;stroke:#1C1B1A;stroke-width:0.25;stroke-miterlimit:10;stroke-dasharray:4.708,4.708;}			.st201{clip-path:url(#SVGID_00000106831897394278454090000001004306014740252056_);fill-rule:evenodd;clip-rule:evenodd;fill:#E50B14;}			.st202{clip-path:url(#SVGID_00000106831897394278454090000001004306014740252056_);fill-rule:evenodd;clip-rule:evenodd;fill:#468AC7;}			.st203{clip-path:url(#SVGID_00000047021383135300293940000003995446806044896423_);fill:none;stroke:#1C1B1A;stroke-width:0.25;stroke-miterlimit:10;}			.st204{clip-path:url(#SVGID_00000047021383135300293940000003995446806044896423_);fill:none;stroke:#1C1B1A;stroke-width:0.25;stroke-miterlimit:10;stroke-dasharray:4.928,4.928;}			.st205{clip-path:url(#SVGID_00000047021383135300293940000003995446806044896423_);fill:none;stroke:#1C1B1A;stroke-width:0.25;stroke-miterlimit:10;stroke-dasharray:4.708,4.708;}			.st206{clip-path:url(#SVGID_00000047021383135300293940000003995446806044896423_);fill-rule:evenodd;clip-rule:evenodd;fill:#E50B14;}			.st207{clip-path:url(#SVGID_00000047021383135300293940000003995446806044896423_);fill-rule:evenodd;clip-rule:evenodd;fill:#468AC7;}			.st208{clip-path:url(#SVGID_00000096020064775860568720000013537408635303350948_);fill:none;stroke:#1C1B1A;stroke-width:0.25;stroke-miterlimit:10;}			.st209{clip-path:url(#SVGID_00000096020064775860568720000013537408635303350948_);fill:none;stroke:#1C1B1A;stroke-width:0.25;stroke-miterlimit:10;stroke-dasharray:4.928,4.928;}			.st210{clip-path:url(#SVGID_00000096020064775860568720000013537408635303350948_);fill:none;stroke:#1C1B1A;stroke-width:0.25;stroke-miterlimit:10;stroke-dasharray:4.708,4.708;}			.st211{clip-path:url(#SVGID_00000096020064775860568720000013537408635303350948_);fill-rule:evenodd;clip-rule:evenodd;fill:#E50B14;}			.st212{clip-path:url(#SVGID_00000096020064775860568720000013537408635303350948_);fill-rule:evenodd;clip-rule:evenodd;fill:#468AC7;}			.st213{clip-path:url(#SVGID_00000014605810610935275440000010665999656934594747_);fill:none;stroke:#1C1B1A;stroke-width:0.25;stroke-miterlimit:10;}			.st214{clip-path:url(#SVGID_00000014605810610935275440000010665999656934594747_);fill:none;stroke:#1C1B1A;stroke-width:0.25;stroke-miterlimit:10;stroke-dasharray:4.928,4.928;}			.st215{clip-path:url(#SVGID_00000014605810610935275440000010665999656934594747_);fill:none;stroke:#1C1B1A;stroke-width:0.25;stroke-miterlimit:10;stroke-dasharray:4.708,4.708;}			.st216{clip-path:url(#SVGID_00000014605810610935275440000010665999656934594747_);fill-rule:evenodd;clip-rule:evenodd;fill:#E50B14;}			.st217{clip-path:url(#SVGID_00000014605810610935275440000010665999656934594747_);fill-rule:evenodd;clip-rule:evenodd;fill:#468AC7;}			.st218{clip-path:url(#SVGID_00000115500882010020795110000001019513849786344852_);fill:none;stroke:#1C1B1A;stroke-width:0.25;stroke-miterlimit:10;}			.st219{clip-path:url(#SVGID_00000115500882010020795110000001019513849786344852_);fill:none;stroke:#1C1B1A;stroke-width:0.25;stroke-miterlimit:10;stroke-dasharray:4.928,4.928;}			.st220{clip-path:url(#SVGID_00000115500882010020795110000001019513849786344852_);fill:none;stroke:#1C1B1A;stroke-width:0.25;stroke-miterlimit:10;stroke-dasharray:4.708,4.708;}			.st221{clip-path:url(#SVGID_00000115500882010020795110000001019513849786344852_);fill-rule:evenodd;clip-rule:evenodd;fill:#E50B14;}			.st222{clip-path:url(#SVGID_00000115500882010020795110000001019513849786344852_);fill-rule:evenodd;clip-rule:evenodd;fill:#468AC7;}			.st223{clip-path:url(#SVGID_00000060732739751530718340000005665901113964114341_);fill:none;stroke:#1C1B1A;stroke-width:0.25;stroke-miterlimit:10;}			.st224{clip-path:url(#SVGID_00000060732739751530718340000005665901113964114341_);fill:none;stroke:#1C1B1A;stroke-width:0.25;stroke-miterlimit:10;stroke-dasharray:4.928,4.928;}			.st225{clip-path:url(#SVGID_00000060732739751530718340000005665901113964114341_);fill:none;stroke:#1C1B1A;stroke-width:0.25;stroke-miterlimit:10;stroke-dasharray:4.708,4.708;}			.st226{clip-path:url(#SVGID_00000060732739751530718340000005665901113964114341_);fill-rule:evenodd;clip-rule:evenodd;fill:#E50B14;}			.st227{clip-path:url(#SVGID_00000060732739751530718340000005665901113964114341_);fill-rule:evenodd;clip-rule:evenodd;fill:#468AC7;}			.st228{clip-path:url(#SVGID_00000090976976812972218660000016124064750516116620_);fill:none;stroke:#1C1B1A;stroke-width:0.25;stroke-miterlimit:10;}			.st229{clip-path:url(#SVGID_00000090976976812972218660000016124064750516116620_);fill:none;stroke:#1C1B1A;stroke-width:0.25;stroke-miterlimit:10;stroke-dasharray:4.928,4.928;}			.st230{clip-path:url(#SVGID_00000090976976812972218660000016124064750516116620_);fill:none;stroke:#1C1B1A;stroke-width:0.25;stroke-miterlimit:10;stroke-dasharray:4.708,4.708;}			.st231{clip-path:url(#SVGID_00000090976976812972218660000016124064750516116620_);fill-rule:evenodd;clip-rule:evenodd;fill:#468AC7;}	.st232{clip-path:url(#SVGID_00000090976976812972218660000016124064750516116620_);}			.st233{clip-path:url(#SVGID_00000129926100911850770380000015957738624215797401_);fill-rule:evenodd;clip-rule:evenodd;fill:#468AC7;}	.st234{clip-path:url(#SVGID_00000129926100911850770380000015957738624215797401_);fill:#468AC7;}	.st235{clip-path:url(#SVGID_00000129926100911850770380000015957738624215797401_);fill:#195489;}			.st236{clip-path:url(#SVGID_00000129926100911850770380000015957738624215797401_);fill:none;stroke:#1C1B1A;stroke-width:0.25;stroke-miterlimit:10;}			.st237{clip-path:url(#SVGID_00000129926100911850770380000015957738624215797401_);fill:none;stroke:#1C1B1A;stroke-width:0.25;stroke-miterlimit:10;stroke-dasharray:4.928,4.928;}			.st238{clip-path:url(#SVGID_00000129926100911850770380000015957738624215797401_);fill:none;stroke:#1C1B1A;stroke-width:0.25;stroke-miterlimit:10;stroke-dasharray:4.708,4.708;}			.st239{clip-path:url(#SVGID_00000067234868116897904910000014614231480815711371_);fill:none;stroke:#1C1B1A;stroke-width:0.25;stroke-miterlimit:10;}			.st240{clip-path:url(#SVGID_00000067234868116897904910000014614231480815711371_);fill:none;stroke:#1C1B1A;stroke-width:0.25;stroke-miterlimit:10;stroke-dasharray:4.928,4.928;}			.st241{clip-path:url(#SVGID_00000067234868116897904910000014614231480815711371_);fill:none;stroke:#1C1B1A;stroke-width:0.25;stroke-miterlimit:10;stroke-dasharray:4.708,4.708;}			.st242{clip-path:url(#SVGID_00000067234868116897904910000014614231480815711371_);fill-rule:evenodd;clip-rule:evenodd;fill:#468AC7;}	.st243{clip-path:url(#SVGID_00000067234868116897904910000014614231480815711371_);}			.st244{clip-path:url(#SVGID_00000049928352643068258650000012824971103600964483_);fill-rule:evenodd;clip-rule:evenodd;fill:#468AC7;}	.st245{clip-path:url(#SVGID_00000049928352643068258650000012824971103600964483_);fill:#468AC7;}	.st246{clip-path:url(#SVGID_00000049928352643068258650000012824971103600964483_);fill:#E50B14;}			.st247{clip-path:url(#SVGID_00000049928352643068258650000012824971103600964483_);fill:none;stroke:#1C1B1A;stroke-width:0.25;stroke-miterlimit:10;}			.st248{clip-path:url(#SVGID_00000049928352643068258650000012824971103600964483_);fill:none;stroke:#1C1B1A;stroke-width:0.25;stroke-miterlimit:10;stroke-dasharray:4.928,4.928;}			.st249{clip-path:url(#SVGID_00000049928352643068258650000012824971103600964483_);fill:none;stroke:#1C1B1A;stroke-width:0.25;stroke-miterlimit:10;stroke-dasharray:4.708,4.708;}			.st250{clip-path:url(#SVGID_00000166663939318513855580000013754202023709009545_);fill:none;stroke:#1C1B1A;stroke-width:0.25;stroke-miterlimit:10;}			.st251{clip-path:url(#SVGID_00000166663939318513855580000013754202023709009545_);fill:none;stroke:#1C1B1A;stroke-width:0.25;stroke-miterlimit:10;stroke-dasharray:4.928,4.928;}			.st252{clip-path:url(#SVGID_00000166663939318513855580000013754202023709009545_);fill:none;stroke:#1C1B1A;stroke-width:0.25;stroke-miterlimit:10;stroke-dasharray:4.708,4.708;}			.st253{clip-path:url(#SVGID_00000166663939318513855580000013754202023709009545_);fill-rule:evenodd;clip-rule:evenodd;fill:#468AC7;}	.st254{clip-path:url(#SVGID_00000166663939318513855580000013754202023709009545_);}			.st255{clip-path:url(#SVGID_00000176733637526564920560000004309993061096130229_);fill-rule:evenodd;clip-rule:evenodd;fill:#468AC7;}	.st256{clip-path:url(#SVGID_00000176733637526564920560000004309993061096130229_);fill:#468AC7;}	.st257{clip-path:url(#SVGID_00000176733637526564920560000004309993061096130229_);fill:#F49200;}			.st258{clip-path:url(#SVGID_00000176733637526564920560000004309993061096130229_);fill:none;stroke:#1C1B1A;stroke-width:0.25;stroke-miterlimit:10;}			.st259{clip-path:url(#SVGID_00000176733637526564920560000004309993061096130229_);fill:none;stroke:#1C1B1A;stroke-width:0.25;stroke-miterlimit:10;stroke-dasharray:4.928,4.928;}			.st260{clip-path:url(#SVGID_00000176733637526564920560000004309993061096130229_);fill:none;stroke:#1C1B1A;stroke-width:0.25;stroke-miterlimit:10;stroke-dasharray:4.708,4.708;}</style><g>	<path class="st7" d="M66.3,82.8l1.5,1.5l-1.3,1.2L65,83.9c-1.2,0.8-2.5,1.2-4,1.2c-2,0-3.7-0.7-5.1-2.1s-2.1-3.1-2.1-5.1  c0-2,0.7-3.7,2.1-5.1s3.1-2.1,5.1-2.1c2,0,3.7,0.7,5.1,2.1s2.1,3.1,2.1,5.1C68.3,79.8,67.6,81.4,66.3,82.8z M63.7,82.6l-2.8-2.8  l1.3-1.1l2.9,2.9c0.9-1,1.4-2.2,1.4-3.7c0-1.5-0.5-2.8-1.6-3.9c-1-1.1-2.3-1.6-3.8-1.6c-1.5,0-2.8,0.5-3.8,1.6  c-1,1.1-1.6,2.3-1.6,3.9c0,1.5,0.5,2.8,1.6,3.9c1.1,1.1,2.3,1.6,3.8,1.6C62,83.3,62.9,83.1,63.7,82.6z"></path>	<path class="st7" d="M77.5,74.8h1.7v10h-1.7v-1.4c-0.7,1.1-1.8,1.7-3.2,1.7c-2.3,0-3.9-1.6-3.9-4.1v-6.1h1.7v6  c0,1.6,0.9,2.6,2.5,2.6c1.7,0,2.9-1.1,2.9-3.3V74.8z"></path>	<path class="st7" d="M90.1,74.8h1.7v10h-1.7v-1.7c-0.9,1.3-2.1,2-3.8,2c-1.4,0-2.6-0.5-3.6-1.5c-1-1-1.5-2.3-1.5-3.7  s0.5-2.7,1.5-3.7s2.2-1.5,3.6-1.5c1.7,0,2.9,0.7,3.8,2V74.8z M89.1,82.4c0.7-0.7,1-1.5,1-2.6s-0.3-1.9-1-2.5c-0.7-0.7-1.5-1-2.5-1  c-1,0-1.8,0.3-2.5,1c-0.7,0.7-1,1.5-1,2.5s0.3,1.9,1,2.6c0.7,0.7,1.5,1,2.5,1C87.6,83.4,88.4,83.1,89.1,82.4z M87.1,73.5  c0-0.9,0-1.1,0.4-1.4c0,0,0.3-0.2,0.3-0.2c0.1-0.1,0.4-0.2,0.4-0.5c0-0.2-0.2-0.3-0.5-0.3c-0.4,0-0.8,0.1-0.9,0.6l-1.1-0.5  c0.4-0.9,1.2-1.3,2-1.3c0.9,0,1.7,0.5,1.7,1.5c0,0.8-0.4,1.2-0.7,1.4c-0.3,0.1-0.4,0.2-0.4,0.7H87.1z"></path>	<path class="st7" d="M103.3,78.7v6.1h-1.7v-6c0-1.6-0.9-2.6-2.5-2.6c-1.7,0-2.9,1.1-2.9,3.3v5.3h-1.7v-10h1.7v1.4  c0.7-1.1,1.8-1.7,3.2-1.7C101.8,74.6,103.3,76.2,103.3,78.7z"></path>	<path class="st7" d="M110.7,84.8V70.2h1.7v14.6H110.7z"></path>	<path class="st7" d="M122.1,74.8h1.9l-4.1,10.6c-0.9,2.3-2.4,3.5-4.4,3.4v-1.6c1.2,0.1,2.1-0.6,2.7-2l0.2-0.4l-4.4-10h1.9l3.4,7.8  L122.1,74.8z M121.6,70.8l-2,2.6h-1.7l1.6-2.6H121.6z"></path>	<path class="st7" d="M131.3,83.6c-1-1-1.5-2.3-1.5-3.8s0.5-2.7,1.5-3.7c1-1,2.3-1.5,3.8-1.5c2,0,3.6,1,4.4,2.6L138,78  c-0.5-1.1-1.6-1.8-3-1.8c-1,0-1.8,0.3-2.5,1c-0.7,0.7-1,1.5-1,2.5c0,1,0.3,1.8,1,2.5c0.7,0.7,1.5,1,2.5,1c1.3,0,2.5-0.7,3-1.7  l1.5,0.9c-0.9,1.6-2.6,2.6-4.5,2.6C133.6,85.1,132.3,84.6,131.3,83.6z"></path>	<path class="st7" d="M150.2,78.7v6.1h-1.7v-6c0-1.6-0.9-2.6-2.5-2.6c-1.7,0-2.9,1.1-2.9,3.3v5.3h-1.7v-14h1.7v5.4  c0.7-1.1,1.8-1.7,3.2-1.7C148.6,74.6,150.2,76.2,150.2,78.7z"></path>	<path class="st7" d="M160.9,74.8h1.7v10h-1.7v-1.7c-0.9,1.3-2.1,2-3.8,2c-1.4,0-2.6-0.5-3.6-1.5c-1-1-1.5-2.3-1.5-3.7  s0.5-2.7,1.5-3.7s2.2-1.5,3.6-1.5c1.7,0,2.9,0.7,3.8,2V74.8z M159.8,82.4c0.7-0.7,1-1.5,1-2.6s-0.3-1.9-1-2.5c-0.7-0.7-1.5-1-2.5-1  c-1,0-1.8,0.3-2.5,1c-0.7,0.7-1,1.5-1,2.5s0.3,1.9,1,2.6c0.7,0.7,1.5,1,2.5,1C158.3,83.4,159.2,83.1,159.8,82.4z M155.3,71h1.6  c0,0.9,0.5,1.3,1.4,1.3s1.4-0.4,1.4-1.3h1.6c0,1.7-1.1,2.7-3,2.7C156.5,73.7,155.3,72.7,155.3,71z"></path>	<path class="st7" d="M179.8,78.6v6.2H178v-6.2c0-1.5-0.9-2.4-2.2-2.4c-1.5,0-2.5,1-2.5,3v5.6h-1.7v-6.2c0-1.5-0.8-2.4-2.1-2.4  c-1.5,0-2.6,1-2.6,3v5.6h-1.7v-10h1.7v1.3c0.7-1.1,1.7-1.6,3-1.6c1.3,0,2.3,0.6,2.9,1.7c0.7-1.1,1.7-1.7,3.1-1.7  C178.3,74.6,179.8,76.1,179.8,78.6z"></path>	<path class="st7" d="M190.7,79c1.6,0.3,3.6,0.9,3.6,3.1c0,0.9-0.4,1.6-1.1,2.2c-0.7,0.5-1.6,0.8-2.7,0.8c-1.9,0-3.4-0.9-4-2.3  l1.5-0.9c0.3,1,1.3,1.6,2.5,1.6c1.1,0,2-0.4,2-1.4c0-0.8-0.9-1.2-2-1.5c-1.6-0.4-3.6-0.9-3.6-3.1c0-0.9,0.3-1.6,1-2.1  c0.7-0.6,1.5-0.8,2.5-0.8c1.6,0,3,0.8,3.6,2.1l-1.5,0.8c-0.4-0.9-1.1-1.3-2.1-1.3c-1,0-1.8,0.5-1.8,1.3  C188.7,78.3,189.6,78.7,190.7,79z"></path>	<path class="st7" d="M204.6,83.6c-1,1-2.3,1.5-3.7,1.5c-1.5,0-2.7-0.5-3.7-1.5c-1-1-1.5-2.3-1.5-3.7s0.5-2.7,1.5-3.7  c1-1,2.3-1.5,3.7-1.5c1.5,0,2.7,0.5,3.7,1.5c1,1,1.5,2.3,1.5,3.7S205.7,82.6,204.6,83.6z M200.9,83.4c1,0,1.8-0.3,2.5-1  c0.7-0.7,1-1.5,1-2.5s-0.3-1.9-1-2.5c-0.7-0.7-1.5-1-2.5-1c-1,0-1.8,0.3-2.5,1c-0.7,0.7-1,1.5-1,2.5s0.3,1.9,1,2.5  C199.1,83.1,199.9,83.4,200.9,83.4z M200,73.4h1.7l2-2.6h-2.1L200,73.4z"></path>	<path class="st7" d="M209.1,83.6c-1-1-1.5-2.3-1.5-3.8s0.5-2.7,1.5-3.7c1-1,2.3-1.5,3.8-1.5c2,0,3.6,1,4.4,2.6l-1.5,0.8  c-0.5-1.1-1.6-1.8-3-1.8c-1,0-1.8,0.3-2.5,1c-0.7,0.7-1,1.5-1,2.5c0,1,0.3,1.8,1,2.5c0.7,0.7,1.5,1,2.5,1c1.3,0,2.5-0.7,3-1.7  l1.5,0.9c-0.9,1.6-2.6,2.6-4.5,2.6C211.4,85.1,210.1,84.6,209.1,83.6z"></path>	<path class="st7" d="M232.6,84.8h-2.2l-4.6-4.7v4.7h-1.7v-14h1.7v8.4l4.3-4.4h2.2l-4.8,4.8L232.6,84.8z"></path>	<path class="st7" d="M243,78.7v6.1h-1.7v-6c0-1.6-0.9-2.6-2.5-2.6c-1.7,0-2.9,1.1-2.9,3.3v5.3h-1.7v-14h1.7v5.4  c0.7-1.1,1.8-1.7,3.2-1.7C241.4,74.6,243,76.2,243,78.7z"></path>	<path class="st7" d="M253.7,74.8h1.7v10h-1.7v-1.7c-0.9,1.3-2.1,2-3.8,2c-1.4,0-2.6-0.5-3.6-1.5c-1-1-1.5-2.3-1.5-3.7  s0.5-2.7,1.5-3.7s2.2-1.5,3.6-1.5c1.7,0,2.9,0.7,3.8,2V74.8z M252.6,82.4c0.7-0.7,1-1.5,1-2.6s-0.3-1.9-1-2.5c-0.7-0.7-1.5-1-2.5-1  c-1,0-1.8,0.3-2.5,1c-0.7,0.7-1,1.5-1,2.5s0.3,1.9,1,2.6c0.7,0.7,1.5,1,2.5,1C251.1,83.4,252,83.1,252.6,82.4z M253.5,70.8l-2,2.6  h-1.7l1.6-2.6H253.5z"></path>	<path class="st7" d="M259,83.6c-1-1-1.5-2.3-1.5-3.8s0.5-2.7,1.5-3.7c1-1,2.3-1.5,3.8-1.5c2,0,3.6,1,4.4,2.6l-1.5,0.8  c-0.5-1.1-1.6-1.8-3-1.8c-1,0-1.8,0.3-2.5,1c-0.7,0.7-1,1.5-1,2.5c0,1,0.3,1.8,1,2.5c0.7,0.7,1.5,1,2.5,1c1.3,0,2.5-0.7,3-1.7  l1.5,0.9c-0.9,1.6-2.6,2.6-4.5,2.6C261.2,85.1,260,84.6,259,83.6z"></path>	<path class="st7" d="M277.8,78.7v6.1h-1.7v-6c0-1.6-0.9-2.6-2.5-2.6c-1.7,0-2.9,1.1-2.9,3.3v5.3h-1.7v-14h1.7v5.4  c0.7-1.1,1.8-1.7,3.2-1.7C276.3,74.6,277.8,76.2,277.8,78.7z"></path>	<path class="st7" d="M294.1,78.7v6.1h-1.7v-6c0-1.6-0.9-2.6-2.5-2.6c-1.7,0-2.9,1.1-2.9,3.3v5.3h-1.7v-14h1.7v5.4  c0.7-1.1,1.8-1.7,3.2-1.7C292.5,74.6,294.1,76.2,294.1,78.7z"></path>	<path class="st7" d="M304.8,74.8h1.7v10h-1.7v-1.7c-0.9,1.3-2.1,2-3.8,2c-1.4,0-2.6-0.5-3.6-1.5c-1-1-1.5-2.3-1.5-3.7  s0.5-2.7,1.5-3.7s2.2-1.5,3.6-1.5c1.7,0,2.9,0.7,3.8,2V74.8z M303.8,82.4c0.7-0.7,1-1.5,1-2.6s-0.3-1.9-1-2.5c-0.7-0.7-1.5-1-2.5-1  c-1,0-1.8,0.3-2.5,1c-0.7,0.7-1,1.5-1,2.5s0.3,1.9,1,2.6c0.7,0.7,1.5,1,2.5,1C302.2,83.4,303.1,83.1,303.8,82.4z M303.5,73.5h-1.7  l-2-2.6h2.1L303.5,73.5z"></path>	<path class="st7" d="M318,78.7v6.1h-1.7v-6c0-1.6-0.9-2.6-2.5-2.6c-1.7,0-2.9,1.1-2.9,3.3v5.3h-1.7v-10h1.7v1.4  c0.7-1.1,1.8-1.7,3.2-1.7C316.4,74.6,318,76.2,318,78.7z"></path>	<path class="st7" d="M328.7,74.8h1.7v9.6c0,1.5-0.5,2.6-1.5,3.4c-1,0.8-2.2,1.2-3.6,1.2c-2.2,0-3.9-0.9-4.7-2.4l1.5-0.9  c0.5,1.1,1.6,1.7,3.3,1.7c2.1,0,3.3-1.2,3.3-3.1V83c-0.9,1.3-2.1,2-3.8,2c-1.4,0-2.6-0.5-3.6-1.5s-1.5-2.2-1.5-3.7  c0-1.5,0.5-2.7,1.5-3.7c1-1,2.2-1.5,3.6-1.5c1.6,0,2.9,0.7,3.8,2V74.8z M327.7,77.3c-0.7-0.7-1.5-1-2.5-1c-1,0-1.9,0.3-2.5,1  c-0.7,0.7-1,1.5-1,2.5c0,1,0.3,1.9,1,2.5s1.5,1,2.5,1c1,0,1.9-0.3,2.5-1c0.7-0.7,1-1.5,1-2.5C328.7,78.8,328.4,77.9,327.7,77.3z"></path></g><g>	<path class="st6" d="M259.6,50.9c-4.1-4.2-6.2-9.4-6.2-15.5s2-11.4,6.2-15.5c4.1-4.2,9.4-6.3,15.7-6.3c7.6,0,14.5,3.8,18.1,9.9  l-7.1,4.1c-2.1-3.8-6.1-6-10.9-6c-4.1,0-7.4,1.3-9.9,3.8c-2.5,2.6-3.7,5.9-3.7,10c0,4,1.3,7.3,3.7,9.9c2.5,2.6,5.8,3.8,9.9,3.8  c4.8,0,8.9-2.3,10.9-5.9l7.1,4.1c-3.6,6.1-10.4,9.9-18.1,9.9C269,57.2,263.8,55.1,259.6,50.9z"></path>	<path class="st6" d="M320.7,56.4l-8.5-14.6h-6.3v14.6h-8.3v-42h16.8c3.9,0,7.2,1.4,9.9,4.1c2.7,2.7,4.1,6,4.1,9.8  c0,5.2-3.2,10-8.1,12.2l9.3,15.8H320.7z M305.9,22.1v12.4h8.5c3.1,0,5.7-2.8,5.7-6.2s-2.6-6.2-5.7-6.2H305.9z"></path>	<path class="st6" d="M375.1,14.4v42h-8.2V29.1l-11.8,19.5h-1l-11.8-19.4v27.2H334v-42h8.5l12.1,19.9l12-19.9H375.1z"></path></g><g>	<path class="st8" d="M23.8,42.8h15.1l-7.6-19.1L23.8,42.8z M44.8,57.9l-3.3-8.5H21.2l-3.3,8.5H9.3l17.3-42.3H36l17.2,42.3H44.8z"></path></g><g>	<path class="st8" d="M59.9,52.4c-4.7-4.2-7.1-9.4-7.1-15.7c0-6.2,2.4-11.4,7.1-15.6c4.7-4.2,10.7-6.4,17.8-6.4  c8.6,0,16.4,3.9,20.5,10.1l-6.8,3.5c-2.5-4.2-7.7-6.8-13.7-6.8c-5.1,0-9.2,1.5-12.4,4.3c-3.1,2.8-4.7,6.5-4.7,10.9  c0,4.4,1.6,8,4.7,10.9c3.2,2.8,7.3,4.3,12.4,4.3c6,0,11.2-2.7,13.7-6.8l6.8,3.4c-2,3.1-4.8,5.6-8.5,7.4c-3.6,1.8-7.6,2.7-12,2.7  C70.6,58.7,64.6,56.6,59.9,52.4"></path></g><g>	<polygon class="st8" points="134,15.6 134,22.2 120.5,22.2 120.5,57.9 112.7,57.9 112.7,22.2 99.2,22.2 99.2,15.6  "></polygon></g><g>	<path class="st8" d="M157.5,40.2c-1-4.9-4.9-7.4-9.7-7.4c-5.4,0-9.3,2.8-10.3,7.4H157.5z M137.6,45.6c1.1,4.6,5.2,7.1,10.9,7.1  c3.9,0,6.8-1.3,8.8-3.8l6.1,3.1c-3.3,4.4-8.3,6.6-14.9,6.6c-5.5,0-10-1.5-13.4-4.5c-3.4-3-5.1-6.8-5.1-11.4c0-4.5,1.7-8.3,5-11.3  c3.3-3.1,7.7-4.6,12.9-4.6c5,0,9.1,1.6,12.2,4.7c3.2,3.1,4.8,6.9,4.8,11.3c0,0.7-0.1,1.6-0.3,2.7H137.6z"></path></g><g>	<path class="st8" d="M173.2,54.1c-3.4-3.1-5.1-6.8-5.1-11.3c0-4.5,1.7-8.3,5.1-11.3c3.5-3.1,7.8-4.6,12.9-4.6  c6.6,0,12.5,3,15.2,7.8l-6.3,3.3c-1.6-2.9-4.8-4.7-8.9-4.7c-3,0-5.5,0.9-7.6,2.7c-2,1.8-3,4.1-3,6.8c0,2.7,1,5,3,6.8  c2,1.8,4.6,2.7,7.6,2.7c4,0,7.4-1.8,9.1-4.7l6.3,3.2c-2.9,4.8-8.7,7.9-15.3,7.9C181,58.7,176.7,57.2,173.2,54.1"></path></g><g>	<path class="st8" d="M236.5,39.3v18.6h-7.3V40c0-4.5-2.9-7-7.6-7c-5.2,0-8.6,2.8-8.6,8.7v16.2h-7.3V15.6h7.3v16  c2.2-3.1,5.7-4.7,10.5-4.7C231.3,26.9,236.5,31.6,236.5,39.3"></path></g></svg>