<svg xmlns="http://www.w3.org/2000/svg" xmlns:xlink="http://www.w3.org/1999/xlink" id="Layer_1" x="0px" y="0px" viewBox="0 0 390.6 100.6" style="enable-background:new 0 0 390.6 100.6;" xml:space="preserve"><style type="text/css">	.st0{clip-path:url(#SVGID_00000146495340066386182650000002625241279009712005_);}	.st1{clip-path:url(#SVGID_00000000937990075071953880000008414775188670245510_);}			.st2{clip-path:url(#SVGID_00000170247766849032463680000009895618752957969057_);fill-rule:evenodd;clip-rule:evenodd;fill:#E50B14;}			.st3{clip-path:url(#SVGID_00000170247766849032463680000009895618752957969057_);fill-rule:evenodd;clip-rule:evenodd;fill:#468AC7;}	.st4{fill:#BFC0C0;}	.st5{fill:#458AC8;}	.st6{fill:#E41E26;}	.st7{fill:#159AFD;}	.st8{fill-rule:evenodd;clip-rule:evenodd;fill:#159AFD;}	.st9{fill-rule:evenodd;clip-rule:evenodd;fill:#1B1A19;}	.st10{fill-rule:evenodd;clip-rule:evenodd;fill:#FFFFFF;}	.st11{fill:none;}	.st12{fill:#912682;}	.st13{fill:#016236;}	.st14{fill:#2E3281;}	.st15{fill:#AB7D4B;}	.st16{fill:#9E235C;}	.st17{fill:#C51D6A;}	.st18{fill:#FFCB07;}	.st19{fill:#B32A25;}	.st20{fill:#009CA3;}	.st21{fill:#185489;}	.st22{fill:#F39320;}	.st23{fill:#1B1A19;}	.st24{fill:#FFFFFF;}	.st25{clip-path:url(#SVGID_00000125604310333870105820000010242632546739665030_);}	.st26{clip-path:url(#SVGID_00000006706077097858578230000014235596144203645833_);}	.st27{opacity:0.4;clip-path:url(#SVGID_00000083066002190446423370000014293067710010279837_);}	.st28{clip-path:url(#SVGID_00000044888632917425194320000008455612813867182771_);}	.st29{clip-path:url(#SVGID_00000006706077097858578230000014235596144203645833_);fill:#1C1B1A;}			.st30{clip-path:url(#SVGID_00000175306986404859437700000016669909326119639445_);fill-rule:evenodd;clip-rule:evenodd;fill:#E50B14;}			.st31{clip-path:url(#SVGID_00000175306986404859437700000016669909326119639445_);fill-rule:evenodd;clip-rule:evenodd;fill:#468AC7;}			.st32{clip-path:url(#SVGID_00000169535793523394695010000000652479904225345669_);fill:none;stroke:#1C1B1A;stroke-width:0.25;stroke-miterlimit:10;}			.st33{clip-path:url(#SVGID_00000169535793523394695010000000652479904225345669_);fill:none;stroke:#1C1B1A;stroke-width:0.25;stroke-miterlimit:10;stroke-dasharray:4.928,4.928;}			.st34{clip-path:url(#SVGID_00000169535793523394695010000000652479904225345669_);fill:none;stroke:#1C1B1A;stroke-width:0.25;stroke-miterlimit:10;stroke-dasharray:4.708,4.708;}			.st35{clip-path:url(#SVGID_00000169535793523394695010000000652479904225345669_);fill-rule:evenodd;clip-rule:evenodd;fill:#468AC7;}	.st36{clip-path:url(#SVGID_00000169535793523394695010000000652479904225345669_);}			.st37{clip-path:url(#SVGID_00000054263664000958974340000008369711757983476921_);fill-rule:evenodd;clip-rule:evenodd;fill:#468AC7;}	.st38{clip-path:url(#SVGID_00000054263664000958974340000008369711757983476921_);fill:#468AC7;}	.st39{clip-path:url(#SVGID_00000054263664000958974340000008369711757983476921_);fill:#912583;}			.st40{clip-path:url(#SVGID_00000054263664000958974340000008369711757983476921_);fill:none;stroke:#1C1B1A;stroke-width:0.25;stroke-miterlimit:10;}			.st41{clip-path:url(#SVGID_00000054263664000958974340000008369711757983476921_);fill:none;stroke:#1C1B1A;stroke-width:0.25;stroke-miterlimit:10;stroke-dasharray:4.928,4.928;}			.st42{clip-path:url(#SVGID_00000054263664000958974340000008369711757983476921_);fill:none;stroke:#1C1B1A;stroke-width:0.25;stroke-miterlimit:10;stroke-dasharray:4.708,4.708;}			.st43{clip-path:url(#SVGID_00000173143820948608014060000008141045864082460570_);fill:none;stroke:#1C1B1A;stroke-width:0.25;stroke-miterlimit:10;}			.st44{clip-path:url(#SVGID_00000173143820948608014060000008141045864082460570_);fill:none;stroke:#1C1B1A;stroke-width:0.25;stroke-miterlimit:10;stroke-dasharray:4.928,4.928;}			.st45{clip-path:url(#SVGID_00000173143820948608014060000008141045864082460570_);fill:none;stroke:#1C1B1A;stroke-width:0.25;stroke-miterlimit:10;stroke-dasharray:4.708,4.708;}			.st46{clip-path:url(#SVGID_00000173143820948608014060000008141045864082460570_);fill-rule:evenodd;clip-rule:evenodd;fill:#468AC7;}	.st47{clip-path:url(#SVGID_00000173143820948608014060000008141045864082460570_);}			.st48{clip-path:url(#SVGID_00000117666716694139118330000007209962606543418549_);fill-rule:evenodd;clip-rule:evenodd;fill:#468AC7;}	.st49{clip-path:url(#SVGID_00000117666716694139118330000007209962606543418549_);fill:#468AC7;}	.st50{clip-path:url(#SVGID_00000117666716694139118330000007209962606543418549_);fill:#006236;}			.st51{clip-path:url(#SVGID_00000117666716694139118330000007209962606543418549_);fill:none;stroke:#1C1B1A;stroke-width:0.25;stroke-miterlimit:10;}			.st52{clip-path:url(#SVGID_00000117666716694139118330000007209962606543418549_);fill:none;stroke:#1C1B1A;stroke-width:0.25;stroke-miterlimit:10;stroke-dasharray:4.928,4.928;}			.st53{clip-path:url(#SVGID_00000117666716694139118330000007209962606543418549_);fill:none;stroke:#1C1B1A;stroke-width:0.25;stroke-miterlimit:10;stroke-dasharray:4.708,4.708;}			.st54{clip-path:url(#SVGID_00000029023125094959733030000017002677121452562313_);fill:none;stroke:#1C1B1A;stroke-width:0.25;stroke-miterlimit:10;}			.st55{clip-path:url(#SVGID_00000029023125094959733030000017002677121452562313_);fill:none;stroke:#1C1B1A;stroke-width:0.25;stroke-miterlimit:10;stroke-dasharray:4.928,4.928;}			.st56{clip-path:url(#SVGID_00000029023125094959733030000017002677121452562313_);fill:none;stroke:#1C1B1A;stroke-width:0.25;stroke-miterlimit:10;stroke-dasharray:4.708,4.708;}			.st57{clip-path:url(#SVGID_00000029023125094959733030000017002677121452562313_);fill-rule:evenodd;clip-rule:evenodd;fill:#468AC7;}	.st58{clip-path:url(#SVGID_00000029023125094959733030000017002677121452562313_);}			.st59{clip-path:url(#SVGID_00000110449038962315710400000007438962460858559421_);fill-rule:evenodd;clip-rule:evenodd;fill:#468AC7;}	.st60{clip-path:url(#SVGID_00000110449038962315710400000007438962460858559421_);fill:#468AC7;}	.st61{clip-path:url(#SVGID_00000110449038962315710400000007438962460858559421_);fill:#9E245C;}			.st62{clip-path:url(#SVGID_00000110449038962315710400000007438962460858559421_);fill:none;stroke:#1C1B1A;stroke-width:0.25;stroke-miterlimit:10;}			.st63{clip-path:url(#SVGID_00000110449038962315710400000007438962460858559421_);fill:none;stroke:#1C1B1A;stroke-width:0.25;stroke-miterlimit:10;stroke-dasharray:4.928,4.928;}			.st64{clip-path:url(#SVGID_00000110449038962315710400000007438962460858559421_);fill:none;stroke:#1C1B1A;stroke-width:0.25;stroke-miterlimit:10;stroke-dasharray:4.708,4.708;}			.st65{clip-path:url(#SVGID_00000065795875745542462390000013565844704554648493_);fill:none;stroke:#1C1B1A;stroke-width:0.25;stroke-miterlimit:10;}			.st66{clip-path:url(#SVGID_00000065795875745542462390000013565844704554648493_);fill:none;stroke:#1C1B1A;stroke-width:0.25;stroke-miterlimit:10;stroke-dasharray:4.928,4.928;}			.st67{clip-path:url(#SVGID_00000065795875745542462390000013565844704554648493_);fill:none;stroke:#1C1B1A;stroke-width:0.25;stroke-miterlimit:10;stroke-dasharray:4.708,4.708;}			.st68{clip-path:url(#SVGID_00000065795875745542462390000013565844704554648493_);fill-rule:evenodd;clip-rule:evenodd;fill:#468AC7;}	.st69{clip-path:url(#SVGID_00000065795875745542462390000013565844704554648493_);}			.st70{clip-path:url(#SVGID_00000037675015880463417390000008689475518424371878_);fill-rule:evenodd;clip-rule:evenodd;fill:#468AC7;}	.st71{clip-path:url(#SVGID_00000037675015880463417390000008689475518424371878_);fill:#468AC7;}	.st72{clip-path:url(#SVGID_00000037675015880463417390000008689475518424371878_);fill:#FECA00;}			.st73{clip-path:url(#SVGID_00000037675015880463417390000008689475518424371878_);fill:none;stroke:#1C1B1A;stroke-width:0.25;stroke-miterlimit:10;}			.st74{clip-path:url(#SVGID_00000037675015880463417390000008689475518424371878_);fill:none;stroke:#1C1B1A;stroke-width:0.25;stroke-miterlimit:10;stroke-dasharray:4.928,4.928;}			.st75{clip-path:url(#SVGID_00000037675015880463417390000008689475518424371878_);fill:none;stroke:#1C1B1A;stroke-width:0.25;stroke-miterlimit:10;stroke-dasharray:4.708,4.708;}			.st76{clip-path:url(#SVGID_00000006671143873626257820000008063704239777370801_);fill:none;stroke:#1C1B1A;stroke-width:0.25;stroke-miterlimit:10;}			.st77{clip-path:url(#SVGID_00000006671143873626257820000008063704239777370801_);fill:none;stroke:#1C1B1A;stroke-width:0.25;stroke-miterlimit:10;stroke-dasharray:4.928,4.928;}			.st78{clip-path:url(#SVGID_00000006671143873626257820000008063704239777370801_);fill:none;stroke:#1C1B1A;stroke-width:0.25;stroke-miterlimit:10;stroke-dasharray:4.708,4.708;}			.st79{clip-path:url(#SVGID_00000006671143873626257820000008063704239777370801_);fill-rule:evenodd;clip-rule:evenodd;fill:#468AC7;}	.st80{clip-path:url(#SVGID_00000006671143873626257820000008063704239777370801_);}			.st81{clip-path:url(#SVGID_00000089571435109895538200000012771915081622516154_);fill-rule:evenodd;clip-rule:evenodd;fill:#468AC7;}	.st82{clip-path:url(#SVGID_00000089571435109895538200000012771915081622516154_);fill:#468AC7;}	.st83{clip-path:url(#SVGID_00000089571435109895538200000012771915081622516154_);fill:#B42823;}			.st84{clip-path:url(#SVGID_00000089571435109895538200000012771915081622516154_);fill:none;stroke:#1C1B1A;stroke-width:0.25;stroke-miterlimit:10;}			.st85{clip-path:url(#SVGID_00000089571435109895538200000012771915081622516154_);fill:none;stroke:#1C1B1A;stroke-width:0.25;stroke-miterlimit:10;stroke-dasharray:4.928,4.928;}			.st86{clip-path:url(#SVGID_00000089571435109895538200000012771915081622516154_);fill:none;stroke:#1C1B1A;stroke-width:0.25;stroke-miterlimit:10;stroke-dasharray:4.708,4.708;}			.st87{clip-path:url(#SVGID_00000173130771021079862970000015990295742748964530_);fill:none;stroke:#1C1B1A;stroke-width:0.25;stroke-miterlimit:10;}			.st88{clip-path:url(#SVGID_00000173130771021079862970000015990295742748964530_);fill:none;stroke:#1C1B1A;stroke-width:0.25;stroke-miterlimit:10;stroke-dasharray:4.928,4.928;}			.st89{clip-path:url(#SVGID_00000173130771021079862970000015990295742748964530_);fill:none;stroke:#1C1B1A;stroke-width:0.25;stroke-miterlimit:10;stroke-dasharray:4.708,4.708;}			.st90{clip-path:url(#SVGID_00000173130771021079862970000015990295742748964530_);fill-rule:evenodd;clip-rule:evenodd;fill:#468AC7;}	.st91{clip-path:url(#SVGID_00000173130771021079862970000015990295742748964530_);}			.st92{clip-path:url(#SVGID_00000165919014261122308720000013077603850665654447_);fill-rule:evenodd;clip-rule:evenodd;fill:#468AC7;}	.st93{clip-path:url(#SVGID_00000165919014261122308720000013077603850665654447_);fill:#468AC7;}	.st94{clip-path:url(#SVGID_00000165919014261122308720000013077603850665654447_);fill:#009CA3;}			.st95{clip-path:url(#SVGID_00000165919014261122308720000013077603850665654447_);fill:none;stroke:#1C1B1A;stroke-width:0.25;stroke-miterlimit:10;}			.st96{clip-path:url(#SVGID_00000165919014261122308720000013077603850665654447_);fill:none;stroke:#1C1B1A;stroke-width:0.25;stroke-miterlimit:10;stroke-dasharray:4.928,4.928;}			.st97{clip-path:url(#SVGID_00000165919014261122308720000013077603850665654447_);fill:none;stroke:#1C1B1A;stroke-width:0.25;stroke-miterlimit:10;stroke-dasharray:4.708,4.708;}			.st98{clip-path:url(#SVGID_00000067948622399458237490000000304684782570133889_);fill:none;stroke:#1C1B1A;stroke-width:0.25;stroke-miterlimit:10;}			.st99{clip-path:url(#SVGID_00000067948622399458237490000000304684782570133889_);fill:none;stroke:#1C1B1A;stroke-width:0.25;stroke-miterlimit:10;stroke-dasharray:4.928,4.928;}			.st100{clip-path:url(#SVGID_00000067948622399458237490000000304684782570133889_);fill:none;stroke:#1C1B1A;stroke-width:0.25;stroke-miterlimit:10;stroke-dasharray:4.708,4.708;}			.st101{clip-path:url(#SVGID_00000067948622399458237490000000304684782570133889_);fill-rule:evenodd;clip-rule:evenodd;fill:#468AC7;}	.st102{clip-path:url(#SVGID_00000067948622399458237490000000304684782570133889_);}			.st103{clip-path:url(#SVGID_00000008838566340226615720000008369666534263799949_);fill-rule:evenodd;clip-rule:evenodd;fill:#468AC7;}	.st104{clip-path:url(#SVGID_00000008838566340226615720000008369666534263799949_);fill:#468AC7;}	.st105{clip-path:url(#SVGID_00000008838566340226615720000008369666534263799949_);fill:#C51C6A;}			.st106{clip-path:url(#SVGID_00000008838566340226615720000008369666534263799949_);fill:none;stroke:#1C1B1A;stroke-width:0.25;stroke-miterlimit:10;}			.st107{clip-path:url(#SVGID_00000008838566340226615720000008369666534263799949_);fill:none;stroke:#1C1B1A;stroke-width:0.25;stroke-miterlimit:10;stroke-dasharray:4.928,4.928;}			.st108{clip-path:url(#SVGID_00000008838566340226615720000008369666534263799949_);fill:none;stroke:#1C1B1A;stroke-width:0.25;stroke-miterlimit:10;stroke-dasharray:4.708,4.708;}			.st109{clip-path:url(#SVGID_00000114052031998647463500000005115712903352101792_);fill:none;stroke:#1C1B1A;stroke-width:0.25;stroke-miterlimit:10;}			.st110{clip-path:url(#SVGID_00000114052031998647463500000005115712903352101792_);fill:none;stroke:#1C1B1A;stroke-width:0.25;stroke-miterlimit:10;stroke-dasharray:4.928,4.928;}			.st111{clip-path:url(#SVGID_00000114052031998647463500000005115712903352101792_);fill:none;stroke:#1C1B1A;stroke-width:0.25;stroke-miterlimit:10;stroke-dasharray:4.708,4.708;}			.st112{clip-path:url(#SVGID_00000114052031998647463500000005115712903352101792_);fill-rule:evenodd;clip-rule:evenodd;fill:#468AC7;}	.st113{clip-path:url(#SVGID_00000114052031998647463500000005115712903352101792_);}			.st114{clip-path:url(#SVGID_00000049908058848764566680000003769138701805543596_);fill-rule:evenodd;clip-rule:evenodd;fill:#468AC7;}	.st115{clip-path:url(#SVGID_00000049908058848764566680000003769138701805543596_);fill:#468AC7;}	.st116{clip-path:url(#SVGID_00000049908058848764566680000003769138701805543596_);fill:#C51C6A;}			.st117{clip-path:url(#SVGID_00000049908058848764566680000003769138701805543596_);fill:none;stroke:#1C1B1A;stroke-width:0.25;stroke-miterlimit:10;}			.st118{clip-path:url(#SVGID_00000049908058848764566680000003769138701805543596_);fill:none;stroke:#1C1B1A;stroke-width:0.25;stroke-miterlimit:10;stroke-dasharray:4.928,4.928;}			.st119{clip-path:url(#SVGID_00000049908058848764566680000003769138701805543596_);fill:none;stroke:#1C1B1A;stroke-width:0.25;stroke-miterlimit:10;stroke-dasharray:4.708,4.708;}			.st120{clip-path:url(#SVGID_00000105427271184956184860000010967652073436697749_);fill:none;stroke:#1C1B1A;stroke-width:0.25;stroke-miterlimit:10;}			.st121{clip-path:url(#SVGID_00000105427271184956184860000010967652073436697749_);fill:none;stroke:#1C1B1A;stroke-width:0.25;stroke-miterlimit:10;stroke-dasharray:4.928,4.928;}			.st122{clip-path:url(#SVGID_00000105427271184956184860000010967652073436697749_);fill:none;stroke:#1C1B1A;stroke-width:0.25;stroke-miterlimit:10;stroke-dasharray:4.708,4.708;}			.st123{clip-path:url(#SVGID_00000105427271184956184860000010967652073436697749_);fill-rule:evenodd;clip-rule:evenodd;fill:#468AC7;}	.st124{clip-path:url(#SVGID_00000105427271184956184860000010967652073436697749_);}			.st125{clip-path:url(#SVGID_00000136385675753391230030000017108010180899789739_);fill-rule:evenodd;clip-rule:evenodd;fill:#468AC7;}	.st126{clip-path:url(#SVGID_00000136385675753391230030000017108010180899789739_);fill:#468AC7;}	.st127{clip-path:url(#SVGID_00000136385675753391230030000017108010180899789739_);fill:#232D84;}			.st128{clip-path:url(#SVGID_00000136385675753391230030000017108010180899789739_);fill:none;stroke:#1C1B1A;stroke-width:0.25;stroke-miterlimit:10;}			.st129{clip-path:url(#SVGID_00000136385675753391230030000017108010180899789739_);fill:none;stroke:#1C1B1A;stroke-width:0.25;stroke-miterlimit:10;stroke-dasharray:4.928,4.928;}			.st130{clip-path:url(#SVGID_00000136385675753391230030000017108010180899789739_);fill:none;stroke:#1C1B1A;stroke-width:0.25;stroke-miterlimit:10;stroke-dasharray:4.708,4.708;}			.st131{clip-path:url(#SVGID_00000097464140245693444480000018220551860700842938_);fill:none;stroke:#1C1B1A;stroke-width:0.25;stroke-miterlimit:10;}			.st132{clip-path:url(#SVGID_00000097464140245693444480000018220551860700842938_);fill:none;stroke:#1C1B1A;stroke-width:0.25;stroke-miterlimit:10;stroke-dasharray:4.928,4.928;}			.st133{clip-path:url(#SVGID_00000097464140245693444480000018220551860700842938_);fill:none;stroke:#1C1B1A;stroke-width:0.25;stroke-miterlimit:10;stroke-dasharray:4.708,4.708;}			.st134{clip-path:url(#SVGID_00000097464140245693444480000018220551860700842938_);fill-rule:evenodd;clip-rule:evenodd;fill:#468AC7;}	.st135{clip-path:url(#SVGID_00000097464140245693444480000018220551860700842938_);}			.st136{clip-path:url(#SVGID_00000122001110461221672400000007130172964060452491_);fill-rule:evenodd;clip-rule:evenodd;fill:#468AC7;}	.st137{clip-path:url(#SVGID_00000122001110461221672400000007130172964060452491_);fill:#468AC7;}	.st138{clip-path:url(#SVGID_00000122001110461221672400000007130172964060452491_);fill:#AB7D4C;}			.st139{clip-path:url(#SVGID_00000122001110461221672400000007130172964060452491_);fill:none;stroke:#1C1B1A;stroke-width:0.25;stroke-miterlimit:10;}			.st140{clip-path:url(#SVGID_00000122001110461221672400000007130172964060452491_);fill:none;stroke:#1C1B1A;stroke-width:0.25;stroke-miterlimit:10;stroke-dasharray:4.928,4.928;}			.st141{clip-path:url(#SVGID_00000122001110461221672400000007130172964060452491_);fill:none;stroke:#1C1B1A;stroke-width:0.25;stroke-miterlimit:10;stroke-dasharray:4.708,4.708;}			.st142{clip-path:url(#SVGID_00000038411727620268011060000005167864081008441781_);fill:none;stroke:#1C1B1A;stroke-width:0.25;stroke-miterlimit:10;}			.st143{clip-path:url(#SVGID_00000038411727620268011060000005167864081008441781_);fill:none;stroke:#1C1B1A;stroke-width:0.25;stroke-miterlimit:10;stroke-dasharray:4.928,4.928;}			.st144{clip-path:url(#SVGID_00000038411727620268011060000005167864081008441781_);fill:none;stroke:#1C1B1A;stroke-width:0.25;stroke-miterlimit:10;stroke-dasharray:4.708,4.708;}	.st145{clip-path:url(#SVGID_00000038411727620268011060000005167864081008441781_);}	.st146{clip-path:url(#SVGID_00000018212889727109100760000008303034464133694881_);fill:#468AC7;}	.st147{clip-path:url(#SVGID_00000018212889727109100760000008303034464133694881_);fill:#E50B14;}			.st148{clip-path:url(#SVGID_00000018212889727109100760000008303034464133694881_);fill-rule:evenodd;clip-rule:evenodd;fill:#468AC7;}			.st149{clip-path:url(#SVGID_00000018212889727109100760000008303034464133694881_);fill:none;stroke:#1C1B1A;stroke-width:0.25;stroke-miterlimit:10;}			.st150{clip-path:url(#SVGID_00000018212889727109100760000008303034464133694881_);fill:none;stroke:#1C1B1A;stroke-width:0.25;stroke-miterlimit:10;stroke-dasharray:4.928,4.928;}			.st151{clip-path:url(#SVGID_00000018212889727109100760000008303034464133694881_);fill:none;stroke:#1C1B1A;stroke-width:0.25;stroke-miterlimit:10;stroke-dasharray:4.708,4.708;}			.st152{clip-path:url(#SVGID_00000172428314971544589700000015799326870254223758_);fill:none;stroke:#1C1B1A;stroke-width:0.25;stroke-miterlimit:10;}			.st153{clip-path:url(#SVGID_00000172428314971544589700000015799326870254223758_);fill:none;stroke:#1C1B1A;stroke-width:0.25;stroke-miterlimit:10;stroke-dasharray:4.928,4.928;}			.st154{clip-path:url(#SVGID_00000172428314971544589700000015799326870254223758_);fill:none;stroke:#1C1B1A;stroke-width:0.25;stroke-miterlimit:10;stroke-dasharray:4.708,4.708;}	.st155{clip-path:url(#SVGID_00000172428314971544589700000015799326870254223758_);}			.st156{clip-path:url(#SVGID_00000137125166880305711020000012399248728378699705_);fill-rule:evenodd;clip-rule:evenodd;fill:#E50B14;}			.st157{clip-path:url(#SVGID_00000137125166880305711020000012399248728378699705_);fill-rule:evenodd;clip-rule:evenodd;fill:#468AC7;}			.st158{clip-path:url(#SVGID_00000140716305668792063070000000613139574204999846_);fill:none;stroke:#1C1B1A;stroke-width:0.25;stroke-miterlimit:10;}			.st159{clip-path:url(#SVGID_00000140716305668792063070000000613139574204999846_);fill:none;stroke:#1C1B1A;stroke-width:0.25;stroke-miterlimit:10;stroke-dasharray:4.928,4.928;}			.st160{clip-path:url(#SVGID_00000140716305668792063070000000613139574204999846_);fill:none;stroke:#1C1B1A;stroke-width:0.25;stroke-miterlimit:10;stroke-dasharray:4.708,4.708;}			.st161{clip-path:url(#SVGID_00000140716305668792063070000000613139574204999846_);fill-rule:evenodd;clip-rule:evenodd;fill:#E50B14;}			.st162{clip-path:url(#SVGID_00000140716305668792063070000000613139574204999846_);fill-rule:evenodd;clip-rule:evenodd;fill:#468AC7;}			.st163{clip-path:url(#SVGID_00000023277230671188876280000009211805155211780779_);fill:none;stroke:#1C1B1A;stroke-width:0.25;stroke-miterlimit:10;}			.st164{clip-path:url(#SVGID_00000023277230671188876280000009211805155211780779_);fill:none;stroke:#1C1B1A;stroke-width:0.25;stroke-miterlimit:10;stroke-dasharray:4.928,4.928;}			.st165{clip-path:url(#SVGID_00000023277230671188876280000009211805155211780779_);fill:none;stroke:#1C1B1A;stroke-width:0.25;stroke-miterlimit:10;stroke-dasharray:4.708,4.708;}			.st166{clip-path:url(#SVGID_00000023277230671188876280000009211805155211780779_);fill-rule:evenodd;clip-rule:evenodd;fill:#E50B14;}			.st167{clip-path:url(#SVGID_00000023277230671188876280000009211805155211780779_);fill-rule:evenodd;clip-rule:evenodd;fill:#468AC7;}			.st168{clip-path:url(#SVGID_00000030452277511968497230000007468427045596041628_);fill:none;stroke:#1C1B1A;stroke-width:0.25;stroke-miterlimit:10;}			.st169{clip-path:url(#SVGID_00000030452277511968497230000007468427045596041628_);fill:none;stroke:#1C1B1A;stroke-width:0.25;stroke-miterlimit:10;stroke-dasharray:4.928,4.928;}			.st170{clip-path:url(#SVGID_00000030452277511968497230000007468427045596041628_);fill:none;stroke:#1C1B1A;stroke-width:0.25;stroke-miterlimit:10;stroke-dasharray:4.708,4.708;}			.st171{clip-path:url(#SVGID_00000030452277511968497230000007468427045596041628_);fill-rule:evenodd;clip-rule:evenodd;fill:#E50B14;}			.st172{clip-path:url(#SVGID_00000030452277511968497230000007468427045596041628_);fill-rule:evenodd;clip-rule:evenodd;fill:#468AC7;}			.st173{clip-path:url(#SVGID_00000050661670285077285680000004536433198240846221_);fill:none;stroke:#1C1B1A;stroke-width:0.25;stroke-miterlimit:10;}			.st174{clip-path:url(#SVGID_00000050661670285077285680000004536433198240846221_);fill:none;stroke:#1C1B1A;stroke-width:0.25;stroke-miterlimit:10;stroke-dasharray:4.928,4.928;}			.st175{clip-path:url(#SVGID_00000050661670285077285680000004536433198240846221_);fill:none;stroke:#1C1B1A;stroke-width:0.25;stroke-miterlimit:10;stroke-dasharray:4.708,4.708;}			.st176{clip-path:url(#SVGID_00000050661670285077285680000004536433198240846221_);fill-rule:evenodd;clip-rule:evenodd;fill:#E50B14;}			.st177{clip-path:url(#SVGID_00000050661670285077285680000004536433198240846221_);fill-rule:evenodd;clip-rule:evenodd;fill:#468AC7;}			.st178{clip-path:url(#SVGID_00000091695061907990042230000011383753458656534423_);fill:none;stroke:#1C1B1A;stroke-width:0.25;stroke-miterlimit:10;}			.st179{clip-path:url(#SVGID_00000091695061907990042230000011383753458656534423_);fill:none;stroke:#1C1B1A;stroke-width:0.25;stroke-miterlimit:10;stroke-dasharray:4.928,4.928;}			.st180{clip-path:url(#SVGID_00000091695061907990042230000011383753458656534423_);fill:none;stroke:#1C1B1A;stroke-width:0.25;stroke-miterlimit:10;stroke-dasharray:4.708,4.708;}			.st181{clip-path:url(#SVGID_00000091695061907990042230000011383753458656534423_);fill-rule:evenodd;clip-rule:evenodd;fill:#E50B14;}			.st182{clip-path:url(#SVGID_00000091695061907990042230000011383753458656534423_);fill-rule:evenodd;clip-rule:evenodd;fill:#468AC7;}			.st183{clip-path:url(#SVGID_00000106130617058707536940000018133875643123370904_);fill:none;stroke:#1C1B1A;stroke-width:0.25;stroke-miterlimit:10;}			.st184{clip-path:url(#SVGID_00000106130617058707536940000018133875643123370904_);fill:none;stroke:#1C1B1A;stroke-width:0.25;stroke-miterlimit:10;stroke-dasharray:4.928,4.928;}			.st185{clip-path:url(#SVGID_00000106130617058707536940000018133875643123370904_);fill:none;stroke:#1C1B1A;stroke-width:0.25;stroke-miterlimit:10;stroke-dasharray:4.708,4.708;}			.st186{clip-path:url(#SVGID_00000106130617058707536940000018133875643123370904_);fill-rule:evenodd;clip-rule:evenodd;fill:#E50B14;}			.st187{clip-path:url(#SVGID_00000106130617058707536940000018133875643123370904_);fill-rule:evenodd;clip-rule:evenodd;fill:#468AC7;}			.st188{clip-path:url(#SVGID_00000003102211243302460880000002031161564467327666_);fill:none;stroke:#1C1B1A;stroke-width:0.25;stroke-miterlimit:10;}			.st189{clip-path:url(#SVGID_00000003102211243302460880000002031161564467327666_);fill:none;stroke:#1C1B1A;stroke-width:0.25;stroke-miterlimit:10;stroke-dasharray:4.928,4.928;}			.st190{clip-path:url(#SVGID_00000003102211243302460880000002031161564467327666_);fill:none;stroke:#1C1B1A;stroke-width:0.25;stroke-miterlimit:10;stroke-dasharray:4.708,4.708;}			.st191{clip-path:url(#SVGID_00000003102211243302460880000002031161564467327666_);fill-rule:evenodd;clip-rule:evenodd;fill:#E50B14;}			.st192{clip-path:url(#SVGID_00000003102211243302460880000002031161564467327666_);fill-rule:evenodd;clip-rule:evenodd;fill:#468AC7;}			.st193{clip-path:url(#SVGID_00000074419770532718648230000012748267617515843772_);fill:none;stroke:#1C1B1A;stroke-width:0.25;stroke-miterlimit:10;}			.st194{clip-path:url(#SVGID_00000074419770532718648230000012748267617515843772_);fill:none;stroke:#1C1B1A;stroke-width:0.25;stroke-miterlimit:10;stroke-dasharray:4.928,4.928;}			.st195{clip-path:url(#SVGID_00000074419770532718648230000012748267617515843772_);fill:none;stroke:#1C1B1A;stroke-width:0.25;stroke-miterlimit:10;stroke-dasharray:4.708,4.708;}			.st196{clip-path:url(#SVGID_00000074419770532718648230000012748267617515843772_);fill-rule:evenodd;clip-rule:evenodd;fill:#E50B14;}			.st197{clip-path:url(#SVGID_00000074419770532718648230000012748267617515843772_);fill-rule:evenodd;clip-rule:evenodd;fill:#468AC7;}			.st198{clip-path:url(#SVGID_00000163760970623008526680000013901938834273367443_);fill:none;stroke:#1C1B1A;stroke-width:0.25;stroke-miterlimit:10;}			.st199{clip-path:url(#SVGID_00000163760970623008526680000013901938834273367443_);fill:none;stroke:#1C1B1A;stroke-width:0.25;stroke-miterlimit:10;stroke-dasharray:4.928,4.928;}			.st200{clip-path:url(#SVGID_00000163760970623008526680000013901938834273367443_);fill:none;stroke:#1C1B1A;stroke-width:0.25;stroke-miterlimit:10;stroke-dasharray:4.708,4.708;}			.st201{clip-path:url(#SVGID_00000163760970623008526680000013901938834273367443_);fill-rule:evenodd;clip-rule:evenodd;fill:#E50B14;}			.st202{clip-path:url(#SVGID_00000163760970623008526680000013901938834273367443_);fill-rule:evenodd;clip-rule:evenodd;fill:#468AC7;}			.st203{clip-path:url(#SVGID_00000151531362727189348030000006684560451683122310_);fill:none;stroke:#1C1B1A;stroke-width:0.25;stroke-miterlimit:10;}			.st204{clip-path:url(#SVGID_00000151531362727189348030000006684560451683122310_);fill:none;stroke:#1C1B1A;stroke-width:0.25;stroke-miterlimit:10;stroke-dasharray:4.928,4.928;}			.st205{clip-path:url(#SVGID_00000151531362727189348030000006684560451683122310_);fill:none;stroke:#1C1B1A;stroke-width:0.25;stroke-miterlimit:10;stroke-dasharray:4.708,4.708;}			.st206{clip-path:url(#SVGID_00000151531362727189348030000006684560451683122310_);fill-rule:evenodd;clip-rule:evenodd;fill:#E50B14;}			.st207{clip-path:url(#SVGID_00000151531362727189348030000006684560451683122310_);fill-rule:evenodd;clip-rule:evenodd;fill:#468AC7;}			.st208{clip-path:url(#SVGID_00000083086753409652613430000002336677993523313087_);fill:none;stroke:#1C1B1A;stroke-width:0.25;stroke-miterlimit:10;}			.st209{clip-path:url(#SVGID_00000083086753409652613430000002336677993523313087_);fill:none;stroke:#1C1B1A;stroke-width:0.25;stroke-miterlimit:10;stroke-dasharray:4.928,4.928;}			.st210{clip-path:url(#SVGID_00000083086753409652613430000002336677993523313087_);fill:none;stroke:#1C1B1A;stroke-width:0.25;stroke-miterlimit:10;stroke-dasharray:4.708,4.708;}			.st211{clip-path:url(#SVGID_00000083086753409652613430000002336677993523313087_);fill-rule:evenodd;clip-rule:evenodd;fill:#E50B14;}			.st212{clip-path:url(#SVGID_00000083086753409652613430000002336677993523313087_);fill-rule:evenodd;clip-rule:evenodd;fill:#468AC7;}			.st213{clip-path:url(#SVGID_00000018922261070755156730000012602337159874470039_);fill:none;stroke:#1C1B1A;stroke-width:0.25;stroke-miterlimit:10;}			.st214{clip-path:url(#SVGID_00000018922261070755156730000012602337159874470039_);fill:none;stroke:#1C1B1A;stroke-width:0.25;stroke-miterlimit:10;stroke-dasharray:4.928,4.928;}			.st215{clip-path:url(#SVGID_00000018922261070755156730000012602337159874470039_);fill:none;stroke:#1C1B1A;stroke-width:0.25;stroke-miterlimit:10;stroke-dasharray:4.708,4.708;}			.st216{clip-path:url(#SVGID_00000018922261070755156730000012602337159874470039_);fill-rule:evenodd;clip-rule:evenodd;fill:#E50B14;}			.st217{clip-path:url(#SVGID_00000018922261070755156730000012602337159874470039_);fill-rule:evenodd;clip-rule:evenodd;fill:#468AC7;}			.st218{clip-path:url(#SVGID_00000003812717935125897550000016346849100910755473_);fill:none;stroke:#1C1B1A;stroke-width:0.25;stroke-miterlimit:10;}			.st219{clip-path:url(#SVGID_00000003812717935125897550000016346849100910755473_);fill:none;stroke:#1C1B1A;stroke-width:0.25;stroke-miterlimit:10;stroke-dasharray:4.928,4.928;}			.st220{clip-path:url(#SVGID_00000003812717935125897550000016346849100910755473_);fill:none;stroke:#1C1B1A;stroke-width:0.25;stroke-miterlimit:10;stroke-dasharray:4.708,4.708;}			.st221{clip-path:url(#SVGID_00000003812717935125897550000016346849100910755473_);fill-rule:evenodd;clip-rule:evenodd;fill:#E50B14;}			.st222{clip-path:url(#SVGID_00000003812717935125897550000016346849100910755473_);fill-rule:evenodd;clip-rule:evenodd;fill:#468AC7;}			.st223{clip-path:url(#SVGID_00000101792298946308317100000000794505439159008158_);fill:none;stroke:#1C1B1A;stroke-width:0.25;stroke-miterlimit:10;}			.st224{clip-path:url(#SVGID_00000101792298946308317100000000794505439159008158_);fill:none;stroke:#1C1B1A;stroke-width:0.25;stroke-miterlimit:10;stroke-dasharray:4.928,4.928;}			.st225{clip-path:url(#SVGID_00000101792298946308317100000000794505439159008158_);fill:none;stroke:#1C1B1A;stroke-width:0.25;stroke-miterlimit:10;stroke-dasharray:4.708,4.708;}			.st226{clip-path:url(#SVGID_00000101792298946308317100000000794505439159008158_);fill-rule:evenodd;clip-rule:evenodd;fill:#E50B14;}			.st227{clip-path:url(#SVGID_00000101792298946308317100000000794505439159008158_);fill-rule:evenodd;clip-rule:evenodd;fill:#468AC7;}			.st228{clip-path:url(#SVGID_00000076572555779626637040000009082237275090051499_);fill:none;stroke:#1C1B1A;stroke-width:0.25;stroke-miterlimit:10;}			.st229{clip-path:url(#SVGID_00000076572555779626637040000009082237275090051499_);fill:none;stroke:#1C1B1A;stroke-width:0.25;stroke-miterlimit:10;stroke-dasharray:4.928,4.928;}			.st230{clip-path:url(#SVGID_00000076572555779626637040000009082237275090051499_);fill:none;stroke:#1C1B1A;stroke-width:0.25;stroke-miterlimit:10;stroke-dasharray:4.708,4.708;}			.st231{clip-path:url(#SVGID_00000076572555779626637040000009082237275090051499_);fill-rule:evenodd;clip-rule:evenodd;fill:#468AC7;}	.st232{clip-path:url(#SVGID_00000076572555779626637040000009082237275090051499_);}			.st233{clip-path:url(#SVGID_00000049942603620243442770000001375973032428711843_);fill-rule:evenodd;clip-rule:evenodd;fill:#468AC7;}	.st234{clip-path:url(#SVGID_00000049942603620243442770000001375973032428711843_);fill:#468AC7;}	.st235{clip-path:url(#SVGID_00000049942603620243442770000001375973032428711843_);fill:#195489;}			.st236{clip-path:url(#SVGID_00000049942603620243442770000001375973032428711843_);fill:none;stroke:#1C1B1A;stroke-width:0.25;stroke-miterlimit:10;}			.st237{clip-path:url(#SVGID_00000049942603620243442770000001375973032428711843_);fill:none;stroke:#1C1B1A;stroke-width:0.25;stroke-miterlimit:10;stroke-dasharray:4.928,4.928;}			.st238{clip-path:url(#SVGID_00000049942603620243442770000001375973032428711843_);fill:none;stroke:#1C1B1A;stroke-width:0.25;stroke-miterlimit:10;stroke-dasharray:4.708,4.708;}			.st239{clip-path:url(#SVGID_00000086692443138679616280000001249196313280880772_);fill:none;stroke:#1C1B1A;stroke-width:0.25;stroke-miterlimit:10;}			.st240{clip-path:url(#SVGID_00000086692443138679616280000001249196313280880772_);fill:none;stroke:#1C1B1A;stroke-width:0.25;stroke-miterlimit:10;stroke-dasharray:4.928,4.928;}			.st241{clip-path:url(#SVGID_00000086692443138679616280000001249196313280880772_);fill:none;stroke:#1C1B1A;stroke-width:0.25;stroke-miterlimit:10;stroke-dasharray:4.708,4.708;}			.st242{clip-path:url(#SVGID_00000086692443138679616280000001249196313280880772_);fill-rule:evenodd;clip-rule:evenodd;fill:#468AC7;}	.st243{clip-path:url(#SVGID_00000086692443138679616280000001249196313280880772_);}			.st244{clip-path:url(#SVGID_00000164513061981686584010000018376347062428129926_);fill-rule:evenodd;clip-rule:evenodd;fill:#468AC7;}	.st245{clip-path:url(#SVGID_00000164513061981686584010000018376347062428129926_);fill:#468AC7;}	.st246{clip-path:url(#SVGID_00000164513061981686584010000018376347062428129926_);fill:#E50B14;}			.st247{clip-path:url(#SVGID_00000164513061981686584010000018376347062428129926_);fill:none;stroke:#1C1B1A;stroke-width:0.25;stroke-miterlimit:10;}			.st248{clip-path:url(#SVGID_00000164513061981686584010000018376347062428129926_);fill:none;stroke:#1C1B1A;stroke-width:0.25;stroke-miterlimit:10;stroke-dasharray:4.928,4.928;}			.st249{clip-path:url(#SVGID_00000164513061981686584010000018376347062428129926_);fill:none;stroke:#1C1B1A;stroke-width:0.25;stroke-miterlimit:10;stroke-dasharray:4.708,4.708;}			.st250{clip-path:url(#SVGID_00000167384733763073520450000009677476432259594634_);fill:none;stroke:#1C1B1A;stroke-width:0.25;stroke-miterlimit:10;}			.st251{clip-path:url(#SVGID_00000167384733763073520450000009677476432259594634_);fill:none;stroke:#1C1B1A;stroke-width:0.25;stroke-miterlimit:10;stroke-dasharray:4.928,4.928;}			.st252{clip-path:url(#SVGID_00000167384733763073520450000009677476432259594634_);fill:none;stroke:#1C1B1A;stroke-width:0.25;stroke-miterlimit:10;stroke-dasharray:4.708,4.708;}			.st253{clip-path:url(#SVGID_00000167384733763073520450000009677476432259594634_);fill-rule:evenodd;clip-rule:evenodd;fill:#468AC7;}	.st254{clip-path:url(#SVGID_00000167384733763073520450000009677476432259594634_);}			.st255{clip-path:url(#SVGID_00000052814205119995213850000000040453518602457770_);fill-rule:evenodd;clip-rule:evenodd;fill:#468AC7;}	.st256{clip-path:url(#SVGID_00000052814205119995213850000000040453518602457770_);fill:#468AC7;}	.st257{clip-path:url(#SVGID_00000052814205119995213850000000040453518602457770_);fill:#F49200;}			.st258{clip-path:url(#SVGID_00000052814205119995213850000000040453518602457770_);fill:none;stroke:#1C1B1A;stroke-width:0.25;stroke-miterlimit:10;}			.st259{clip-path:url(#SVGID_00000052814205119995213850000000040453518602457770_);fill:none;stroke:#1C1B1A;stroke-width:0.25;stroke-miterlimit:10;stroke-dasharray:4.928,4.928;}			.st260{clip-path:url(#SVGID_00000052814205119995213850000000040453518602457770_);fill:none;stroke:#1C1B1A;stroke-width:0.25;stroke-miterlimit:10;stroke-dasharray:4.708,4.708;}</style><g>	<path class="st8" d="M25.6,43h15.1l-7.6-19.1L25.6,43z M46.6,58l-3.3-8.5H23L19.6,58h-8.5l17.3-42.3h9.4L55,58H46.6z"></path></g><g>	<path class="st8" d="M61.7,52.5c-4.7-4.2-7.1-9.4-7.1-15.7c0-6.2,2.4-11.4,7.1-15.6c4.7-4.2,10.7-6.4,17.8-6.4  c8.6,0,16.4,3.9,20.5,10.1l-6.8,3.5c-2.5-4.2-7.7-6.8-13.7-6.8c-5.1,0-9.2,1.5-12.4,4.3c-3.1,2.8-4.7,6.5-4.7,10.9  c0,4.4,1.6,8,4.7,10.9c3.2,2.8,7.3,4.3,12.4,4.3c6,0,11.2-2.7,13.7-6.8l6.8,3.4c-2,3.1-4.8,5.6-8.5,7.4c-3.6,1.8-7.6,2.7-12,2.7  C72.4,58.8,66.4,56.7,61.7,52.5"></path></g><g>	<polygon class="st8" points="135.7,15.7 135.7,22.3 122.3,22.3 122.3,58 114.5,58 114.5,22.3 101,22.3 101,15.7  "></polygon></g><g>	<path class="st8" d="M159.3,40.4c-1-4.9-4.9-7.4-9.7-7.4c-5.4,0-9.3,2.8-10.3,7.4H159.3z M139.3,45.7c1.1,4.6,5.2,7.1,10.9,7.1  c3.9,0,6.8-1.3,8.8-3.8l6.1,3.1c-3.3,4.4-8.3,6.6-14.9,6.6c-5.5,0-10-1.5-13.4-4.5c-3.4-3-5.1-6.8-5.1-11.4c0-4.5,1.7-8.3,5-11.3  c3.3-3.1,7.7-4.6,12.9-4.6c5,0,9.1,1.6,12.2,4.7c3.2,3.1,4.8,6.9,4.8,11.3c0,0.7-0.1,1.6-0.3,2.7H139.3z"></path></g><g>	<path class="st8" d="M175,54.2c-3.4-3.1-5.1-6.8-5.1-11.3c0-4.5,1.7-8.3,5.1-11.3c3.5-3.1,7.8-4.6,12.9-4.6c6.6,0,12.5,3,15.2,7.8  l-6.3,3.3c-1.6-2.9-4.8-4.7-8.9-4.7c-3,0-5.5,0.9-7.6,2.7c-2,1.8-3,4.1-3,6.8c0,2.7,1,5,3,6.8c2,1.8,4.6,2.7,7.6,2.7  c4,0,7.4-1.8,9.1-4.7l6.3,3.2c-2.9,4.8-8.7,7.9-15.3,7.9C182.8,58.8,178.5,57.3,175,54.2"></path></g><g>	<path class="st8" d="M238.3,39.5V58h-7.3V40.1c0-4.5-2.9-7-7.6-7c-5.2,0-8.6,2.8-8.6,8.7V58h-7.3V15.7h7.3v16  c2.2-3.1,5.7-4.7,10.5-4.7C233.1,27,238.3,31.7,238.3,39.5"></path></g><g>	<path class="st7" d="M105.1,83.7l1.5,1.5l-1.3,1.2l-1.6-1.6c-1.2,0.8-2.5,1.2-4,1.2c-2,0-3.7-0.7-5.1-2.1s-2.1-3.1-2.1-5.1  c0-2,0.7-3.7,2.1-5.1s3.1-2.1,5.1-2.1s3.7,0.7,5.1,2.1s2.1,3.1,2.1,5.1C107.1,80.7,106.4,82.3,105.1,83.7z M102.4,83.5l-2.8-2.8  l1.3-1.1l2.9,2.9c0.9-1,1.4-2.2,1.4-3.7c0-1.5-0.5-2.8-1.6-3.9c-1-1.1-2.3-1.6-3.8-1.6s-2.8,0.5-3.8,1.6c-1,1.1-1.6,2.3-1.6,3.9  c0,1.5,0.5,2.8,1.6,3.9c1.1,1.1,2.3,1.6,3.8,1.6C100.8,84.2,101.6,84,102.4,83.5z"></path>	<path class="st7" d="M116.3,75.7h1.7v10h-1.7v-1.4c-0.7,1.1-1.8,1.7-3.2,1.7c-2.3,0-3.9-1.6-3.9-4.1v-6.1h1.7v6  c0,1.6,0.9,2.6,2.5,2.6c1.7,0,2.9-1.1,2.9-3.3V75.7z"></path>	<path class="st7" d="M128.9,75.7h1.7v10h-1.7V84c-0.9,1.3-2.1,2-3.8,2c-1.4,0-2.6-0.5-3.6-1.5c-1-1-1.5-2.3-1.5-3.7  s0.5-2.7,1.5-3.7c1-1,2.2-1.5,3.6-1.5c1.7,0,2.9,0.7,3.8,2V75.7z M127.9,83.3c0.7-0.7,1-1.5,1-2.6s-0.3-1.9-1-2.5  c-0.7-0.7-1.5-1-2.5-1c-1,0-1.8,0.3-2.5,1c-0.7,0.7-1,1.5-1,2.5s0.3,1.9,1,2.6c0.7,0.7,1.5,1,2.5,1C126.3,84.3,127.2,84,127.9,83.3  z M125.9,74.4c0-0.9,0-1.1,0.4-1.4c0,0,0.3-0.2,0.3-0.2c0.1-0.1,0.4-0.2,0.4-0.5c0-0.2-0.2-0.3-0.5-0.3c-0.4,0-0.8,0.1-0.9,0.6  l-1.1-0.5c0.4-0.9,1.2-1.3,2-1.3c0.9,0,1.7,0.5,1.7,1.5c0,0.8-0.4,1.2-0.7,1.4c-0.3,0.1-0.4,0.2-0.4,0.7H125.9z"></path>	<path class="st7" d="M142.1,79.6v6.1h-1.7v-6c0-1.6-0.9-2.6-2.5-2.6c-1.7,0-2.9,1.1-2.9,3.3v5.3h-1.7v-10h1.7v1.4  c0.7-1.1,1.8-1.7,3.2-1.7C140.6,75.5,142.1,77.1,142.1,79.6z"></path>	<path class="st7" d="M149.5,85.7V71.1h1.7v14.6H149.5z"></path>	<path class="st7" d="M160.8,75.7h1.9l-4.1,10.6c-0.9,2.3-2.4,3.5-4.4,3.4v-1.6c1.2,0.1,2.1-0.6,2.7-2l0.2-0.4l-4.4-10h1.9l3.4,7.8  L160.8,75.7z M160.3,71.7l-2,2.6h-1.7l1.6-2.6H160.3z"></path>	<path class="st7" d="M174.6,77.4h-2.7v5.4c0,1.5,0.9,1.4,2.7,1.3v1.6c-3,0.4-4.4-0.4-4.4-2.9v-5.4h-2v-1.7h2v-2.3l1.7-0.5v2.8h2.7  V77.4z"></path>	<path class="st7" d="M185.3,79.6v6.1h-1.7v-6c0-1.6-0.9-2.6-2.5-2.6c-1.7,0-2.9,1.1-2.9,3.3v5.3h-1.7v-14h1.7v5.4  c0.7-1.1,1.8-1.7,3.2-1.7C183.7,75.5,185.3,77.1,185.3,79.6z"></path>	<path class="st7" d="M187.4,73.3c0-0.6,0.5-1.2,1.2-1.2c0.6,0,1.2,0.5,1.2,1.2c0,0.6-0.5,1.2-1.2,1.2  C187.9,74.5,187.4,74,187.4,73.3z M187.7,85.7v-10h1.7v10H187.7z"></path>	<path class="st7" d="M193.2,81.5c0.3,1.8,1.7,2.8,3.6,2.8c1.3,0,2.3-0.5,2.9-1.5l1.5,0.8c-1,1.5-2.4,2.3-4.4,2.3  c-1.6,0-2.9-0.5-3.9-1.5c-1-1-1.5-2.3-1.5-3.8c0-1.5,0.5-2.8,1.5-3.8c1-1,2.2-1.5,3.8-1.5c1.5,0,2.7,0.5,3.6,1.6  c0.9,1,1.4,2.3,1.4,3.7c0,0.3,0,0.5-0.1,0.8H193.2z M193.2,80h6.7c-0.3-1.9-1.6-2.9-3.2-2.9C194.8,77.1,193.5,78.3,193.2,80z   M196.7,72.9l-1.1,1.5h-1.7l2-2.5h1.8l2,2.5h-1.7L196.7,72.9z M200.2,70.1h2l-1.9,2.5h-1.6L200.2,70.1z"></path>	<path class="st7" d="M208.9,77.4h-2.7v5.4c0,1.5,0.9,1.4,2.7,1.3v1.6c-3,0.4-4.4-0.4-4.4-2.9v-5.4h-2v-1.7h2v-2.3l1.7-0.5v2.8h2.7  V77.4z"></path>	<path class="st7" d="M225.1,77c1,1,1.5,2.3,1.5,3.7s-0.5,2.7-1.5,3.7c-1,1-2.2,1.5-3.6,1.5c-1.7,0-2.9-0.7-3.8-2v1.7H216v-14h1.7  v5.7c0.9-1.3,2.1-2,3.8-2C222.9,75.5,224.1,76,225.1,77z M223.8,83.3c0.7-0.7,1-1.5,1-2.6s-0.3-1.9-1-2.5c-0.7-0.7-1.5-1-2.5-1  c-1,0-1.9,0.3-2.5,1c-0.7,0.7-1,1.5-1,2.5s0.3,1.9,1,2.6c0.7,0.7,1.5,1,2.5,1C222.3,84.3,223.1,84,223.8,83.3z"></path>	<path class="st7" d="M228.2,88.6c0-0.6,0.5-1.2,1.2-1.2c0.6,0,1.2,0.5,1.2,1.2c0,0.6-0.5,1.2-1.2,1.2  C228.8,89.8,228.2,89.3,228.2,88.6z M228.3,73.3c0-0.6,0.5-1.2,1.2-1.2c0.6,0,1.2,0.5,1.2,1.2c0,0.6-0.5,1.2-1.2,1.2  C228.8,74.5,228.3,74,228.3,73.3z M228.6,85.7v-10h1.7v10H228.6z"></path>	<path class="st7" d="M243.4,77.4h-2.7v5.4c0,1.5,0.9,1.4,2.7,1.3v1.6c-3,0.4-4.4-0.4-4.4-2.9v-5.4h-2v-1.7h2v-2.3l1.7-0.5v2.8h2.7  V77.4z"></path>	<path class="st7" d="M253.3,75.7h1.7v10h-1.7V84c-0.9,1.3-2.1,2-3.8,2c-1.4,0-2.6-0.5-3.6-1.5c-1-1-1.5-2.3-1.5-3.7  s0.5-2.7,1.5-3.7s2.2-1.5,3.6-1.5c1.7,0,2.9,0.7,3.8,2V75.7z M252.3,83.3c0.7-0.7,1-1.5,1-2.6s-0.3-1.9-1-2.5c-0.7-0.7-1.5-1-2.5-1  c-1,0-1.8,0.3-2.5,1c-0.7,0.7-1,1.5-1,2.5s0.3,1.9,1,2.6c0.7,0.7,1.5,1,2.5,1C250.7,84.3,251.6,84,252.3,83.3z M252,74.4h-1.7  l-2-2.6h2.1L252,74.4z"></path>	<path class="st7" d="M257.3,73.3c0-0.6,0.5-1.2,1.2-1.2c0.6,0,1.2,0.5,1.2,1.2c0,0.6-0.5,1.2-1.2,1.2  C257.9,74.5,257.3,74,257.3,73.3z M257.6,85.7v-10h1.7v10H257.6z"></path>	<path class="st7" d="M270.5,79.9c1.6,0.3,3.6,0.9,3.6,3.1c0,0.9-0.4,1.6-1.1,2.2c-0.7,0.5-1.6,0.8-2.7,0.8c-1.9,0-3.4-0.9-4-2.3  l1.5-0.9c0.3,1,1.3,1.6,2.5,1.6c1.1,0,2-0.4,2-1.4c0-0.8-0.9-1.2-2-1.5c-1.6-0.4-3.6-0.9-3.6-3.1c0-0.9,0.3-1.6,1-2.1  c0.7-0.6,1.5-0.8,2.5-0.8c1.6,0,3,0.8,3.6,2.1l-1.5,0.8c-0.4-0.9-1.1-1.3-2.1-1.3c-1,0-1.8,0.5-1.8,1.3  C268.5,79.2,269.4,79.6,270.5,79.9z"></path>	<path class="st7" d="M284.3,75.7h1.7v10h-1.7V84c-0.9,1.3-2.1,2-3.8,2c-1.4,0-2.6-0.5-3.6-1.5c-1-1-1.5-2.3-1.5-3.7S276,78,277,77  s2.2-1.5,3.6-1.5c1.7,0,2.9,0.7,3.8,2V75.7z M283.3,83.3c0.7-0.7,1-1.5,1-2.6s-0.3-1.9-1-2.5c-0.7-0.7-1.5-1-2.5-1  c-1,0-1.8,0.3-2.5,1c-0.7,0.7-1,1.5-1,2.5s0.3,1.9,1,2.6c0.7,0.7,1.5,1,2.5,1C281.8,84.3,282.6,84,283.3,83.3z M281.3,74.4  c0-0.9,0-1.1,0.4-1.4c0,0,0.3-0.2,0.3-0.2c0.1-0.1,0.4-0.2,0.4-0.5c0-0.2-0.2-0.3-0.5-0.3c-0.4,0-0.8,0.1-0.9,0.6l-1.1-0.5  c0.4-0.9,1.2-1.3,2-1.3c0.9,0,1.7,0.5,1.7,1.5c0,0.8-0.4,1.2-0.7,1.4c-0.3,0.1-0.4,0.2-0.4,0.7H281.3z"></path>	<path class="st7" d="M297.5,79.6v6.1h-1.7v-6c0-1.6-0.9-2.6-2.5-2.6c-1.7,0-2.9,1.1-2.9,3.3v5.3h-1.7v-10h1.7v1.4  c0.7-1.1,1.8-1.7,3.2-1.7C296,75.5,297.5,77.1,297.5,79.6z"></path></g><g>	<path class="st19" d="M285.4,57.3l-2.5-7.6h-16.7l-2.5,7.6h-8.9l14.7-42h10.3l14.8,42H285.4z M268.8,42h11.5l-5.8-17.2L268.8,42z"></path>	<path class="st19" d="M339.4,15.3v42h-8.2V30l-11.8,19.5h-1l-11.8-19.4v27.2h-8.3v-42h8.5l12.1,19.9l12-19.9H339.4z"></path>	<path class="st19" d="M344.2,47.7l7.1-4.1c1.6,4.3,4.9,6.4,9.7,6.4c4.6,0,6.7-1.9,6.7-4.4c0-1.5-0.7-2.6-2-3.4  c-1.3-0.8-3.7-1.7-7.1-2.7c-3.8-1.1-6.1-2-8.7-3.9c-2.6-1.9-4-4.8-4-8.6c0-3.8,1.3-6.8,4-9.1c2.7-2.3,6-3.4,9.8-3.4  c6.8,0,12.1,3.5,15,9.4l-7,4c-1.7-3.6-4.4-5.4-8-5.4c-3.4,0-5.5,1.7-5.5,4.2c0,1.3,0.5,2.4,1.6,3.2c1.1,0.8,3.2,1.7,6.4,2.6l2.9,1  c0.7,0.2,1.6,0.5,2.7,1c1.1,0.4,2,0.8,2.6,1.3c1.3,0.8,3.2,2.3,4,3.7c0.9,1.4,1.6,3.5,1.6,5.9c0,3.9-1.4,7-4.3,9.2  c-2.8,2.3-6.5,3.4-11,3.4C352.4,58.1,346.5,54.2,344.2,47.7z"></path></g></svg>