<svg xmlns="http://www.w3.org/2000/svg" xmlns:xlink="http://www.w3.org/1999/xlink" id="Layer_1" x="0px" y="0px" viewBox="0 0 390.6 100.6" style="enable-background:new 0 0 390.6 100.6;" xml:space="preserve"><style type="text/css">	.st0{clip-path:url(#SVGID_00000033346542469798777640000017242199602408082844_);}	.st1{clip-path:url(#SVGID_00000114073999721049654110000017641688037935914935_);}			.st2{clip-path:url(#SVGID_00000075137580151042764350000004672528615566535827_);fill-rule:evenodd;clip-rule:evenodd;fill:#E50B14;}			.st3{clip-path:url(#SVGID_00000075137580151042764350000004672528615566535827_);fill-rule:evenodd;clip-rule:evenodd;fill:#468AC7;}	.st4{fill:#BFC0C0;}	.st5{fill:#458AC8;}	.st6{fill:#E41E26;}	.st7{fill:#159AFD;}	.st8{fill-rule:evenodd;clip-rule:evenodd;fill:#159AFD;}	.st9{fill-rule:evenodd;clip-rule:evenodd;fill:#1B1A19;}	.st10{fill-rule:evenodd;clip-rule:evenodd;fill:#FFFFFF;}	.st11{fill:none;}	.st12{fill:#912682;}	.st13{fill:#016236;}	.st14{fill:#2E3281;}	.st15{fill:#AB7D4B;}	.st16{fill:#9E235C;}	.st17{fill:#C51D6A;}	.st18{fill:#FFCB07;}	.st19{fill:#B32A25;}	.st20{fill:#009CA3;}	.st21{fill:#185489;}	.st22{fill:#F39320;}	.st23{fill:#1B1A19;}	.st24{fill:#FFFFFF;}	.st25{clip-path:url(#SVGID_00000021828687326687454640000000188885081379042470_);}	.st26{clip-path:url(#SVGID_00000023248125607295568440000004397246446930325410_);}	.st27{opacity:0.4;clip-path:url(#SVGID_00000073695502026063199870000017423035711095329930_);}	.st28{clip-path:url(#SVGID_00000003077201157289745650000014343669330604256414_);}	.st29{clip-path:url(#SVGID_00000023248125607295568440000004397246446930325410_);fill:#1C1B1A;}			.st30{clip-path:url(#SVGID_00000082358081723993187550000017618569088130949264_);fill-rule:evenodd;clip-rule:evenodd;fill:#E50B14;}			.st31{clip-path:url(#SVGID_00000082358081723993187550000017618569088130949264_);fill-rule:evenodd;clip-rule:evenodd;fill:#468AC7;}			.st32{clip-path:url(#SVGID_00000132782607990736224690000009154012079426542502_);fill:none;stroke:#1C1B1A;stroke-width:0.25;stroke-miterlimit:10;}			.st33{clip-path:url(#SVGID_00000132782607990736224690000009154012079426542502_);fill:none;stroke:#1C1B1A;stroke-width:0.25;stroke-miterlimit:10;stroke-dasharray:4.928,4.928;}			.st34{clip-path:url(#SVGID_00000132782607990736224690000009154012079426542502_);fill:none;stroke:#1C1B1A;stroke-width:0.25;stroke-miterlimit:10;stroke-dasharray:4.708,4.708;}			.st35{clip-path:url(#SVGID_00000132782607990736224690000009154012079426542502_);fill-rule:evenodd;clip-rule:evenodd;fill:#468AC7;}	.st36{clip-path:url(#SVGID_00000132782607990736224690000009154012079426542502_);}			.st37{clip-path:url(#SVGID_00000049927734728155151440000007935390037245200785_);fill-rule:evenodd;clip-rule:evenodd;fill:#468AC7;}	.st38{clip-path:url(#SVGID_00000049927734728155151440000007935390037245200785_);fill:#468AC7;}	.st39{clip-path:url(#SVGID_00000049927734728155151440000007935390037245200785_);fill:#912583;}			.st40{clip-path:url(#SVGID_00000049927734728155151440000007935390037245200785_);fill:none;stroke:#1C1B1A;stroke-width:0.25;stroke-miterlimit:10;}			.st41{clip-path:url(#SVGID_00000049927734728155151440000007935390037245200785_);fill:none;stroke:#1C1B1A;stroke-width:0.25;stroke-miterlimit:10;stroke-dasharray:4.928,4.928;}			.st42{clip-path:url(#SVGID_00000049927734728155151440000007935390037245200785_);fill:none;stroke:#1C1B1A;stroke-width:0.25;stroke-miterlimit:10;stroke-dasharray:4.708,4.708;}			.st43{clip-path:url(#SVGID_00000065069007474786655090000016132321925542658476_);fill:none;stroke:#1C1B1A;stroke-width:0.25;stroke-miterlimit:10;}			.st44{clip-path:url(#SVGID_00000065069007474786655090000016132321925542658476_);fill:none;stroke:#1C1B1A;stroke-width:0.25;stroke-miterlimit:10;stroke-dasharray:4.928,4.928;}			.st45{clip-path:url(#SVGID_00000065069007474786655090000016132321925542658476_);fill:none;stroke:#1C1B1A;stroke-width:0.25;stroke-miterlimit:10;stroke-dasharray:4.708,4.708;}			.st46{clip-path:url(#SVGID_00000065069007474786655090000016132321925542658476_);fill-rule:evenodd;clip-rule:evenodd;fill:#468AC7;}	.st47{clip-path:url(#SVGID_00000065069007474786655090000016132321925542658476_);}			.st48{clip-path:url(#SVGID_00000145742237795662008790000001159802978419295900_);fill-rule:evenodd;clip-rule:evenodd;fill:#468AC7;}	.st49{clip-path:url(#SVGID_00000145742237795662008790000001159802978419295900_);fill:#468AC7;}	.st50{clip-path:url(#SVGID_00000145742237795662008790000001159802978419295900_);fill:#006236;}			.st51{clip-path:url(#SVGID_00000145742237795662008790000001159802978419295900_);fill:none;stroke:#1C1B1A;stroke-width:0.25;stroke-miterlimit:10;}			.st52{clip-path:url(#SVGID_00000145742237795662008790000001159802978419295900_);fill:none;stroke:#1C1B1A;stroke-width:0.25;stroke-miterlimit:10;stroke-dasharray:4.928,4.928;}			.st53{clip-path:url(#SVGID_00000145742237795662008790000001159802978419295900_);fill:none;stroke:#1C1B1A;stroke-width:0.25;stroke-miterlimit:10;stroke-dasharray:4.708,4.708;}			.st54{clip-path:url(#SVGID_00000022554854111997739040000011250898812807860912_);fill:none;stroke:#1C1B1A;stroke-width:0.25;stroke-miterlimit:10;}			.st55{clip-path:url(#SVGID_00000022554854111997739040000011250898812807860912_);fill:none;stroke:#1C1B1A;stroke-width:0.25;stroke-miterlimit:10;stroke-dasharray:4.928,4.928;}			.st56{clip-path:url(#SVGID_00000022554854111997739040000011250898812807860912_);fill:none;stroke:#1C1B1A;stroke-width:0.25;stroke-miterlimit:10;stroke-dasharray:4.708,4.708;}			.st57{clip-path:url(#SVGID_00000022554854111997739040000011250898812807860912_);fill-rule:evenodd;clip-rule:evenodd;fill:#468AC7;}	.st58{clip-path:url(#SVGID_00000022554854111997739040000011250898812807860912_);}			.st59{clip-path:url(#SVGID_00000114753537782785714970000003065397545700169398_);fill-rule:evenodd;clip-rule:evenodd;fill:#468AC7;}	.st60{clip-path:url(#SVGID_00000114753537782785714970000003065397545700169398_);fill:#468AC7;}	.st61{clip-path:url(#SVGID_00000114753537782785714970000003065397545700169398_);fill:#9E245C;}			.st62{clip-path:url(#SVGID_00000114753537782785714970000003065397545700169398_);fill:none;stroke:#1C1B1A;stroke-width:0.25;stroke-miterlimit:10;}			.st63{clip-path:url(#SVGID_00000114753537782785714970000003065397545700169398_);fill:none;stroke:#1C1B1A;stroke-width:0.25;stroke-miterlimit:10;stroke-dasharray:4.928,4.928;}			.st64{clip-path:url(#SVGID_00000114753537782785714970000003065397545700169398_);fill:none;stroke:#1C1B1A;stroke-width:0.25;stroke-miterlimit:10;stroke-dasharray:4.708,4.708;}			.st65{clip-path:url(#SVGID_00000135656551563355417780000004105709513623929484_);fill:none;stroke:#1C1B1A;stroke-width:0.25;stroke-miterlimit:10;}			.st66{clip-path:url(#SVGID_00000135656551563355417780000004105709513623929484_);fill:none;stroke:#1C1B1A;stroke-width:0.25;stroke-miterlimit:10;stroke-dasharray:4.928,4.928;}			.st67{clip-path:url(#SVGID_00000135656551563355417780000004105709513623929484_);fill:none;stroke:#1C1B1A;stroke-width:0.25;stroke-miterlimit:10;stroke-dasharray:4.708,4.708;}			.st68{clip-path:url(#SVGID_00000135656551563355417780000004105709513623929484_);fill-rule:evenodd;clip-rule:evenodd;fill:#468AC7;}	.st69{clip-path:url(#SVGID_00000135656551563355417780000004105709513623929484_);}			.st70{clip-path:url(#SVGID_00000139996111340320463380000017105534113174642563_);fill-rule:evenodd;clip-rule:evenodd;fill:#468AC7;}	.st71{clip-path:url(#SVGID_00000139996111340320463380000017105534113174642563_);fill:#468AC7;}	.st72{clip-path:url(#SVGID_00000139996111340320463380000017105534113174642563_);fill:#FECA00;}			.st73{clip-path:url(#SVGID_00000139996111340320463380000017105534113174642563_);fill:none;stroke:#1C1B1A;stroke-width:0.25;stroke-miterlimit:10;}			.st74{clip-path:url(#SVGID_00000139996111340320463380000017105534113174642563_);fill:none;stroke:#1C1B1A;stroke-width:0.25;stroke-miterlimit:10;stroke-dasharray:4.928,4.928;}			.st75{clip-path:url(#SVGID_00000139996111340320463380000017105534113174642563_);fill:none;stroke:#1C1B1A;stroke-width:0.25;stroke-miterlimit:10;stroke-dasharray:4.708,4.708;}			.st76{clip-path:url(#SVGID_00000078014235372382640820000011922427201685965209_);fill:none;stroke:#1C1B1A;stroke-width:0.25;stroke-miterlimit:10;}			.st77{clip-path:url(#SVGID_00000078014235372382640820000011922427201685965209_);fill:none;stroke:#1C1B1A;stroke-width:0.25;stroke-miterlimit:10;stroke-dasharray:4.928,4.928;}			.st78{clip-path:url(#SVGID_00000078014235372382640820000011922427201685965209_);fill:none;stroke:#1C1B1A;stroke-width:0.25;stroke-miterlimit:10;stroke-dasharray:4.708,4.708;}			.st79{clip-path:url(#SVGID_00000078014235372382640820000011922427201685965209_);fill-rule:evenodd;clip-rule:evenodd;fill:#468AC7;}	.st80{clip-path:url(#SVGID_00000078014235372382640820000011922427201685965209_);}			.st81{clip-path:url(#SVGID_00000121991792204118047600000018003692534530017951_);fill-rule:evenodd;clip-rule:evenodd;fill:#468AC7;}	.st82{clip-path:url(#SVGID_00000121991792204118047600000018003692534530017951_);fill:#468AC7;}	.st83{clip-path:url(#SVGID_00000121991792204118047600000018003692534530017951_);fill:#B42823;}			.st84{clip-path:url(#SVGID_00000121991792204118047600000018003692534530017951_);fill:none;stroke:#1C1B1A;stroke-width:0.25;stroke-miterlimit:10;}			.st85{clip-path:url(#SVGID_00000121991792204118047600000018003692534530017951_);fill:none;stroke:#1C1B1A;stroke-width:0.25;stroke-miterlimit:10;stroke-dasharray:4.928,4.928;}			.st86{clip-path:url(#SVGID_00000121991792204118047600000018003692534530017951_);fill:none;stroke:#1C1B1A;stroke-width:0.25;stroke-miterlimit:10;stroke-dasharray:4.708,4.708;}			.st87{clip-path:url(#SVGID_00000010272265354113509600000003581555391577042316_);fill:none;stroke:#1C1B1A;stroke-width:0.25;stroke-miterlimit:10;}			.st88{clip-path:url(#SVGID_00000010272265354113509600000003581555391577042316_);fill:none;stroke:#1C1B1A;stroke-width:0.25;stroke-miterlimit:10;stroke-dasharray:4.928,4.928;}			.st89{clip-path:url(#SVGID_00000010272265354113509600000003581555391577042316_);fill:none;stroke:#1C1B1A;stroke-width:0.25;stroke-miterlimit:10;stroke-dasharray:4.708,4.708;}			.st90{clip-path:url(#SVGID_00000010272265354113509600000003581555391577042316_);fill-rule:evenodd;clip-rule:evenodd;fill:#468AC7;}	.st91{clip-path:url(#SVGID_00000010272265354113509600000003581555391577042316_);}			.st92{clip-path:url(#SVGID_00000147924210429312508720000007440766004747861418_);fill-rule:evenodd;clip-rule:evenodd;fill:#468AC7;}	.st93{clip-path:url(#SVGID_00000147924210429312508720000007440766004747861418_);fill:#468AC7;}	.st94{clip-path:url(#SVGID_00000147924210429312508720000007440766004747861418_);fill:#009CA3;}			.st95{clip-path:url(#SVGID_00000147924210429312508720000007440766004747861418_);fill:none;stroke:#1C1B1A;stroke-width:0.25;stroke-miterlimit:10;}			.st96{clip-path:url(#SVGID_00000147924210429312508720000007440766004747861418_);fill:none;stroke:#1C1B1A;stroke-width:0.25;stroke-miterlimit:10;stroke-dasharray:4.928,4.928;}			.st97{clip-path:url(#SVGID_00000147924210429312508720000007440766004747861418_);fill:none;stroke:#1C1B1A;stroke-width:0.25;stroke-miterlimit:10;stroke-dasharray:4.708,4.708;}			.st98{clip-path:url(#SVGID_00000115481494458471983280000004255790360499569557_);fill:none;stroke:#1C1B1A;stroke-width:0.25;stroke-miterlimit:10;}			.st99{clip-path:url(#SVGID_00000115481494458471983280000004255790360499569557_);fill:none;stroke:#1C1B1A;stroke-width:0.25;stroke-miterlimit:10;stroke-dasharray:4.928,4.928;}			.st100{clip-path:url(#SVGID_00000115481494458471983280000004255790360499569557_);fill:none;stroke:#1C1B1A;stroke-width:0.25;stroke-miterlimit:10;stroke-dasharray:4.708,4.708;}			.st101{clip-path:url(#SVGID_00000115481494458471983280000004255790360499569557_);fill-rule:evenodd;clip-rule:evenodd;fill:#468AC7;}	.st102{clip-path:url(#SVGID_00000115481494458471983280000004255790360499569557_);}			.st103{clip-path:url(#SVGID_00000116934454681406767220000003932539366958157711_);fill-rule:evenodd;clip-rule:evenodd;fill:#468AC7;}	.st104{clip-path:url(#SVGID_00000116934454681406767220000003932539366958157711_);fill:#468AC7;}	.st105{clip-path:url(#SVGID_00000116934454681406767220000003932539366958157711_);fill:#C51C6A;}			.st106{clip-path:url(#SVGID_00000116934454681406767220000003932539366958157711_);fill:none;stroke:#1C1B1A;stroke-width:0.25;stroke-miterlimit:10;}			.st107{clip-path:url(#SVGID_00000116934454681406767220000003932539366958157711_);fill:none;stroke:#1C1B1A;stroke-width:0.25;stroke-miterlimit:10;stroke-dasharray:4.928,4.928;}			.st108{clip-path:url(#SVGID_00000116934454681406767220000003932539366958157711_);fill:none;stroke:#1C1B1A;stroke-width:0.25;stroke-miterlimit:10;stroke-dasharray:4.708,4.708;}			.st109{clip-path:url(#SVGID_00000152968259813180153730000016799180662197777546_);fill:none;stroke:#1C1B1A;stroke-width:0.25;stroke-miterlimit:10;}			.st110{clip-path:url(#SVGID_00000152968259813180153730000016799180662197777546_);fill:none;stroke:#1C1B1A;stroke-width:0.25;stroke-miterlimit:10;stroke-dasharray:4.928,4.928;}			.st111{clip-path:url(#SVGID_00000152968259813180153730000016799180662197777546_);fill:none;stroke:#1C1B1A;stroke-width:0.25;stroke-miterlimit:10;stroke-dasharray:4.708,4.708;}			.st112{clip-path:url(#SVGID_00000152968259813180153730000016799180662197777546_);fill-rule:evenodd;clip-rule:evenodd;fill:#468AC7;}	.st113{clip-path:url(#SVGID_00000152968259813180153730000016799180662197777546_);}			.st114{clip-path:url(#SVGID_00000060739433036536269590000008591656817355556272_);fill-rule:evenodd;clip-rule:evenodd;fill:#468AC7;}	.st115{clip-path:url(#SVGID_00000060739433036536269590000008591656817355556272_);fill:#468AC7;}	.st116{clip-path:url(#SVGID_00000060739433036536269590000008591656817355556272_);fill:#C51C6A;}			.st117{clip-path:url(#SVGID_00000060739433036536269590000008591656817355556272_);fill:none;stroke:#1C1B1A;stroke-width:0.25;stroke-miterlimit:10;}			.st118{clip-path:url(#SVGID_00000060739433036536269590000008591656817355556272_);fill:none;stroke:#1C1B1A;stroke-width:0.25;stroke-miterlimit:10;stroke-dasharray:4.928,4.928;}			.st119{clip-path:url(#SVGID_00000060739433036536269590000008591656817355556272_);fill:none;stroke:#1C1B1A;stroke-width:0.25;stroke-miterlimit:10;stroke-dasharray:4.708,4.708;}			.st120{clip-path:url(#SVGID_00000003071433501420271420000011662529663367939221_);fill:none;stroke:#1C1B1A;stroke-width:0.25;stroke-miterlimit:10;}			.st121{clip-path:url(#SVGID_00000003071433501420271420000011662529663367939221_);fill:none;stroke:#1C1B1A;stroke-width:0.25;stroke-miterlimit:10;stroke-dasharray:4.928,4.928;}			.st122{clip-path:url(#SVGID_00000003071433501420271420000011662529663367939221_);fill:none;stroke:#1C1B1A;stroke-width:0.25;stroke-miterlimit:10;stroke-dasharray:4.708,4.708;}			.st123{clip-path:url(#SVGID_00000003071433501420271420000011662529663367939221_);fill-rule:evenodd;clip-rule:evenodd;fill:#468AC7;}	.st124{clip-path:url(#SVGID_00000003071433501420271420000011662529663367939221_);}			.st125{clip-path:url(#SVGID_00000008850558156376496880000017132686337519901370_);fill-rule:evenodd;clip-rule:evenodd;fill:#468AC7;}	.st126{clip-path:url(#SVGID_00000008850558156376496880000017132686337519901370_);fill:#468AC7;}	.st127{clip-path:url(#SVGID_00000008850558156376496880000017132686337519901370_);fill:#232D84;}			.st128{clip-path:url(#SVGID_00000008850558156376496880000017132686337519901370_);fill:none;stroke:#1C1B1A;stroke-width:0.25;stroke-miterlimit:10;}			.st129{clip-path:url(#SVGID_00000008850558156376496880000017132686337519901370_);fill:none;stroke:#1C1B1A;stroke-width:0.25;stroke-miterlimit:10;stroke-dasharray:4.928,4.928;}			.st130{clip-path:url(#SVGID_00000008850558156376496880000017132686337519901370_);fill:none;stroke:#1C1B1A;stroke-width:0.25;stroke-miterlimit:10;stroke-dasharray:4.708,4.708;}			.st131{clip-path:url(#SVGID_00000034788770979945958960000005444403576822668725_);fill:none;stroke:#1C1B1A;stroke-width:0.25;stroke-miterlimit:10;}			.st132{clip-path:url(#SVGID_00000034788770979945958960000005444403576822668725_);fill:none;stroke:#1C1B1A;stroke-width:0.25;stroke-miterlimit:10;stroke-dasharray:4.928,4.928;}			.st133{clip-path:url(#SVGID_00000034788770979945958960000005444403576822668725_);fill:none;stroke:#1C1B1A;stroke-width:0.25;stroke-miterlimit:10;stroke-dasharray:4.708,4.708;}			.st134{clip-path:url(#SVGID_00000034788770979945958960000005444403576822668725_);fill-rule:evenodd;clip-rule:evenodd;fill:#468AC7;}	.st135{clip-path:url(#SVGID_00000034788770979945958960000005444403576822668725_);}			.st136{clip-path:url(#SVGID_00000158031189993145877830000010407115658058272136_);fill-rule:evenodd;clip-rule:evenodd;fill:#468AC7;}	.st137{clip-path:url(#SVGID_00000158031189993145877830000010407115658058272136_);fill:#468AC7;}	.st138{clip-path:url(#SVGID_00000158031189993145877830000010407115658058272136_);fill:#AB7D4C;}			.st139{clip-path:url(#SVGID_00000158031189993145877830000010407115658058272136_);fill:none;stroke:#1C1B1A;stroke-width:0.25;stroke-miterlimit:10;}			.st140{clip-path:url(#SVGID_00000158031189993145877830000010407115658058272136_);fill:none;stroke:#1C1B1A;stroke-width:0.25;stroke-miterlimit:10;stroke-dasharray:4.928,4.928;}			.st141{clip-path:url(#SVGID_00000158031189993145877830000010407115658058272136_);fill:none;stroke:#1C1B1A;stroke-width:0.25;stroke-miterlimit:10;stroke-dasharray:4.708,4.708;}			.st142{clip-path:url(#SVGID_00000009585992144905521640000009928671321775789739_);fill:none;stroke:#1C1B1A;stroke-width:0.25;stroke-miterlimit:10;}			.st143{clip-path:url(#SVGID_00000009585992144905521640000009928671321775789739_);fill:none;stroke:#1C1B1A;stroke-width:0.25;stroke-miterlimit:10;stroke-dasharray:4.928,4.928;}			.st144{clip-path:url(#SVGID_00000009585992144905521640000009928671321775789739_);fill:none;stroke:#1C1B1A;stroke-width:0.25;stroke-miterlimit:10;stroke-dasharray:4.708,4.708;}	.st145{clip-path:url(#SVGID_00000009585992144905521640000009928671321775789739_);}	.st146{clip-path:url(#SVGID_00000067206436107468594320000013111470193030759049_);fill:#468AC7;}	.st147{clip-path:url(#SVGID_00000067206436107468594320000013111470193030759049_);fill:#E50B14;}			.st148{clip-path:url(#SVGID_00000067206436107468594320000013111470193030759049_);fill-rule:evenodd;clip-rule:evenodd;fill:#468AC7;}			.st149{clip-path:url(#SVGID_00000067206436107468594320000013111470193030759049_);fill:none;stroke:#1C1B1A;stroke-width:0.25;stroke-miterlimit:10;}			.st150{clip-path:url(#SVGID_00000067206436107468594320000013111470193030759049_);fill:none;stroke:#1C1B1A;stroke-width:0.25;stroke-miterlimit:10;stroke-dasharray:4.928,4.928;}			.st151{clip-path:url(#SVGID_00000067206436107468594320000013111470193030759049_);fill:none;stroke:#1C1B1A;stroke-width:0.25;stroke-miterlimit:10;stroke-dasharray:4.708,4.708;}			.st152{clip-path:url(#SVGID_00000034086642727394859270000014213518910098814130_);fill:none;stroke:#1C1B1A;stroke-width:0.25;stroke-miterlimit:10;}			.st153{clip-path:url(#SVGID_00000034086642727394859270000014213518910098814130_);fill:none;stroke:#1C1B1A;stroke-width:0.25;stroke-miterlimit:10;stroke-dasharray:4.928,4.928;}			.st154{clip-path:url(#SVGID_00000034086642727394859270000014213518910098814130_);fill:none;stroke:#1C1B1A;stroke-width:0.25;stroke-miterlimit:10;stroke-dasharray:4.708,4.708;}	.st155{clip-path:url(#SVGID_00000034086642727394859270000014213518910098814130_);}			.st156{clip-path:url(#SVGID_00000173145255035560243490000009370531584509062558_);fill-rule:evenodd;clip-rule:evenodd;fill:#E50B14;}			.st157{clip-path:url(#SVGID_00000173145255035560243490000009370531584509062558_);fill-rule:evenodd;clip-rule:evenodd;fill:#468AC7;}			.st158{clip-path:url(#SVGID_00000160895744058769516390000014704019436954660745_);fill:none;stroke:#1C1B1A;stroke-width:0.25;stroke-miterlimit:10;}			.st159{clip-path:url(#SVGID_00000160895744058769516390000014704019436954660745_);fill:none;stroke:#1C1B1A;stroke-width:0.25;stroke-miterlimit:10;stroke-dasharray:4.928,4.928;}			.st160{clip-path:url(#SVGID_00000160895744058769516390000014704019436954660745_);fill:none;stroke:#1C1B1A;stroke-width:0.25;stroke-miterlimit:10;stroke-dasharray:4.708,4.708;}			.st161{clip-path:url(#SVGID_00000160895744058769516390000014704019436954660745_);fill-rule:evenodd;clip-rule:evenodd;fill:#E50B14;}			.st162{clip-path:url(#SVGID_00000160895744058769516390000014704019436954660745_);fill-rule:evenodd;clip-rule:evenodd;fill:#468AC7;}			.st163{clip-path:url(#SVGID_00000043417510165747350440000001756280948557121944_);fill:none;stroke:#1C1B1A;stroke-width:0.25;stroke-miterlimit:10;}			.st164{clip-path:url(#SVGID_00000043417510165747350440000001756280948557121944_);fill:none;stroke:#1C1B1A;stroke-width:0.25;stroke-miterlimit:10;stroke-dasharray:4.928,4.928;}			.st165{clip-path:url(#SVGID_00000043417510165747350440000001756280948557121944_);fill:none;stroke:#1C1B1A;stroke-width:0.25;stroke-miterlimit:10;stroke-dasharray:4.708,4.708;}			.st166{clip-path:url(#SVGID_00000043417510165747350440000001756280948557121944_);fill-rule:evenodd;clip-rule:evenodd;fill:#E50B14;}			.st167{clip-path:url(#SVGID_00000043417510165747350440000001756280948557121944_);fill-rule:evenodd;clip-rule:evenodd;fill:#468AC7;}			.st168{clip-path:url(#SVGID_00000170960195898154470310000013342842329560342436_);fill:none;stroke:#1C1B1A;stroke-width:0.25;stroke-miterlimit:10;}			.st169{clip-path:url(#SVGID_00000170960195898154470310000013342842329560342436_);fill:none;stroke:#1C1B1A;stroke-width:0.25;stroke-miterlimit:10;stroke-dasharray:4.928,4.928;}			.st170{clip-path:url(#SVGID_00000170960195898154470310000013342842329560342436_);fill:none;stroke:#1C1B1A;stroke-width:0.25;stroke-miterlimit:10;stroke-dasharray:4.708,4.708;}			.st171{clip-path:url(#SVGID_00000170960195898154470310000013342842329560342436_);fill-rule:evenodd;clip-rule:evenodd;fill:#E50B14;}			.st172{clip-path:url(#SVGID_00000170960195898154470310000013342842329560342436_);fill-rule:evenodd;clip-rule:evenodd;fill:#468AC7;}			.st173{clip-path:url(#SVGID_00000096030579394857745330000011892389169554539681_);fill:none;stroke:#1C1B1A;stroke-width:0.25;stroke-miterlimit:10;}			.st174{clip-path:url(#SVGID_00000096030579394857745330000011892389169554539681_);fill:none;stroke:#1C1B1A;stroke-width:0.25;stroke-miterlimit:10;stroke-dasharray:4.928,4.928;}			.st175{clip-path:url(#SVGID_00000096030579394857745330000011892389169554539681_);fill:none;stroke:#1C1B1A;stroke-width:0.25;stroke-miterlimit:10;stroke-dasharray:4.708,4.708;}			.st176{clip-path:url(#SVGID_00000096030579394857745330000011892389169554539681_);fill-rule:evenodd;clip-rule:evenodd;fill:#E50B14;}			.st177{clip-path:url(#SVGID_00000096030579394857745330000011892389169554539681_);fill-rule:evenodd;clip-rule:evenodd;fill:#468AC7;}			.st178{clip-path:url(#SVGID_00000012431351689922843030000005583932016189521037_);fill:none;stroke:#1C1B1A;stroke-width:0.25;stroke-miterlimit:10;}			.st179{clip-path:url(#SVGID_00000012431351689922843030000005583932016189521037_);fill:none;stroke:#1C1B1A;stroke-width:0.25;stroke-miterlimit:10;stroke-dasharray:4.928,4.928;}			.st180{clip-path:url(#SVGID_00000012431351689922843030000005583932016189521037_);fill:none;stroke:#1C1B1A;stroke-width:0.25;stroke-miterlimit:10;stroke-dasharray:4.708,4.708;}			.st181{clip-path:url(#SVGID_00000012431351689922843030000005583932016189521037_);fill-rule:evenodd;clip-rule:evenodd;fill:#E50B14;}			.st182{clip-path:url(#SVGID_00000012431351689922843030000005583932016189521037_);fill-rule:evenodd;clip-rule:evenodd;fill:#468AC7;}			.st183{clip-path:url(#SVGID_00000122711145477936197390000011862271745887969975_);fill:none;stroke:#1C1B1A;stroke-width:0.25;stroke-miterlimit:10;}			.st184{clip-path:url(#SVGID_00000122711145477936197390000011862271745887969975_);fill:none;stroke:#1C1B1A;stroke-width:0.25;stroke-miterlimit:10;stroke-dasharray:4.928,4.928;}			.st185{clip-path:url(#SVGID_00000122711145477936197390000011862271745887969975_);fill:none;stroke:#1C1B1A;stroke-width:0.25;stroke-miterlimit:10;stroke-dasharray:4.708,4.708;}			.st186{clip-path:url(#SVGID_00000122711145477936197390000011862271745887969975_);fill-rule:evenodd;clip-rule:evenodd;fill:#E50B14;}			.st187{clip-path:url(#SVGID_00000122711145477936197390000011862271745887969975_);fill-rule:evenodd;clip-rule:evenodd;fill:#468AC7;}			.st188{clip-path:url(#SVGID_00000144303651188464980850000007096794979233665423_);fill:none;stroke:#1C1B1A;stroke-width:0.25;stroke-miterlimit:10;}			.st189{clip-path:url(#SVGID_00000144303651188464980850000007096794979233665423_);fill:none;stroke:#1C1B1A;stroke-width:0.25;stroke-miterlimit:10;stroke-dasharray:4.928,4.928;}			.st190{clip-path:url(#SVGID_00000144303651188464980850000007096794979233665423_);fill:none;stroke:#1C1B1A;stroke-width:0.25;stroke-miterlimit:10;stroke-dasharray:4.708,4.708;}			.st191{clip-path:url(#SVGID_00000144303651188464980850000007096794979233665423_);fill-rule:evenodd;clip-rule:evenodd;fill:#E50B14;}			.st192{clip-path:url(#SVGID_00000144303651188464980850000007096794979233665423_);fill-rule:evenodd;clip-rule:evenodd;fill:#468AC7;}			.st193{clip-path:url(#SVGID_00000155106612523306099310000008676063741847578786_);fill:none;stroke:#1C1B1A;stroke-width:0.25;stroke-miterlimit:10;}			.st194{clip-path:url(#SVGID_00000155106612523306099310000008676063741847578786_);fill:none;stroke:#1C1B1A;stroke-width:0.25;stroke-miterlimit:10;stroke-dasharray:4.928,4.928;}			.st195{clip-path:url(#SVGID_00000155106612523306099310000008676063741847578786_);fill:none;stroke:#1C1B1A;stroke-width:0.25;stroke-miterlimit:10;stroke-dasharray:4.708,4.708;}			.st196{clip-path:url(#SVGID_00000155106612523306099310000008676063741847578786_);fill-rule:evenodd;clip-rule:evenodd;fill:#E50B14;}			.st197{clip-path:url(#SVGID_00000155106612523306099310000008676063741847578786_);fill-rule:evenodd;clip-rule:evenodd;fill:#468AC7;}			.st198{clip-path:url(#SVGID_00000103250642445803196980000011446264776810250631_);fill:none;stroke:#1C1B1A;stroke-width:0.25;stroke-miterlimit:10;}			.st199{clip-path:url(#SVGID_00000103250642445803196980000011446264776810250631_);fill:none;stroke:#1C1B1A;stroke-width:0.25;stroke-miterlimit:10;stroke-dasharray:4.928,4.928;}			.st200{clip-path:url(#SVGID_00000103250642445803196980000011446264776810250631_);fill:none;stroke:#1C1B1A;stroke-width:0.25;stroke-miterlimit:10;stroke-dasharray:4.708,4.708;}			.st201{clip-path:url(#SVGID_00000103250642445803196980000011446264776810250631_);fill-rule:evenodd;clip-rule:evenodd;fill:#E50B14;}			.st202{clip-path:url(#SVGID_00000103250642445803196980000011446264776810250631_);fill-rule:evenodd;clip-rule:evenodd;fill:#468AC7;}			.st203{clip-path:url(#SVGID_00000164474148049870760450000001367398570132965017_);fill:none;stroke:#1C1B1A;stroke-width:0.25;stroke-miterlimit:10;}			.st204{clip-path:url(#SVGID_00000164474148049870760450000001367398570132965017_);fill:none;stroke:#1C1B1A;stroke-width:0.25;stroke-miterlimit:10;stroke-dasharray:4.928,4.928;}			.st205{clip-path:url(#SVGID_00000164474148049870760450000001367398570132965017_);fill:none;stroke:#1C1B1A;stroke-width:0.25;stroke-miterlimit:10;stroke-dasharray:4.708,4.708;}			.st206{clip-path:url(#SVGID_00000164474148049870760450000001367398570132965017_);fill-rule:evenodd;clip-rule:evenodd;fill:#E50B14;}			.st207{clip-path:url(#SVGID_00000164474148049870760450000001367398570132965017_);fill-rule:evenodd;clip-rule:evenodd;fill:#468AC7;}			.st208{clip-path:url(#SVGID_00000081639942942863082400000012632528799449253821_);fill:none;stroke:#1C1B1A;stroke-width:0.25;stroke-miterlimit:10;}			.st209{clip-path:url(#SVGID_00000081639942942863082400000012632528799449253821_);fill:none;stroke:#1C1B1A;stroke-width:0.25;stroke-miterlimit:10;stroke-dasharray:4.928,4.928;}			.st210{clip-path:url(#SVGID_00000081639942942863082400000012632528799449253821_);fill:none;stroke:#1C1B1A;stroke-width:0.25;stroke-miterlimit:10;stroke-dasharray:4.708,4.708;}			.st211{clip-path:url(#SVGID_00000081639942942863082400000012632528799449253821_);fill-rule:evenodd;clip-rule:evenodd;fill:#E50B14;}			.st212{clip-path:url(#SVGID_00000081639942942863082400000012632528799449253821_);fill-rule:evenodd;clip-rule:evenodd;fill:#468AC7;}			.st213{clip-path:url(#SVGID_00000048490657717012618060000018212809679177952135_);fill:none;stroke:#1C1B1A;stroke-width:0.25;stroke-miterlimit:10;}			.st214{clip-path:url(#SVGID_00000048490657717012618060000018212809679177952135_);fill:none;stroke:#1C1B1A;stroke-width:0.25;stroke-miterlimit:10;stroke-dasharray:4.928,4.928;}			.st215{clip-path:url(#SVGID_00000048490657717012618060000018212809679177952135_);fill:none;stroke:#1C1B1A;stroke-width:0.25;stroke-miterlimit:10;stroke-dasharray:4.708,4.708;}			.st216{clip-path:url(#SVGID_00000048490657717012618060000018212809679177952135_);fill-rule:evenodd;clip-rule:evenodd;fill:#E50B14;}			.st217{clip-path:url(#SVGID_00000048490657717012618060000018212809679177952135_);fill-rule:evenodd;clip-rule:evenodd;fill:#468AC7;}			.st218{clip-path:url(#SVGID_00000098935811187033628520000017741197781589370271_);fill:none;stroke:#1C1B1A;stroke-width:0.25;stroke-miterlimit:10;}			.st219{clip-path:url(#SVGID_00000098935811187033628520000017741197781589370271_);fill:none;stroke:#1C1B1A;stroke-width:0.25;stroke-miterlimit:10;stroke-dasharray:4.928,4.928;}			.st220{clip-path:url(#SVGID_00000098935811187033628520000017741197781589370271_);fill:none;stroke:#1C1B1A;stroke-width:0.25;stroke-miterlimit:10;stroke-dasharray:4.708,4.708;}			.st221{clip-path:url(#SVGID_00000098935811187033628520000017741197781589370271_);fill-rule:evenodd;clip-rule:evenodd;fill:#E50B14;}			.st222{clip-path:url(#SVGID_00000098935811187033628520000017741197781589370271_);fill-rule:evenodd;clip-rule:evenodd;fill:#468AC7;}			.st223{clip-path:url(#SVGID_00000040555114702500644990000014391947585725595282_);fill:none;stroke:#1C1B1A;stroke-width:0.25;stroke-miterlimit:10;}			.st224{clip-path:url(#SVGID_00000040555114702500644990000014391947585725595282_);fill:none;stroke:#1C1B1A;stroke-width:0.25;stroke-miterlimit:10;stroke-dasharray:4.928,4.928;}			.st225{clip-path:url(#SVGID_00000040555114702500644990000014391947585725595282_);fill:none;stroke:#1C1B1A;stroke-width:0.25;stroke-miterlimit:10;stroke-dasharray:4.708,4.708;}			.st226{clip-path:url(#SVGID_00000040555114702500644990000014391947585725595282_);fill-rule:evenodd;clip-rule:evenodd;fill:#E50B14;}			.st227{clip-path:url(#SVGID_00000040555114702500644990000014391947585725595282_);fill-rule:evenodd;clip-rule:evenodd;fill:#468AC7;}			.st228{clip-path:url(#SVGID_00000136406714405703393190000013172242459034271146_);fill:none;stroke:#1C1B1A;stroke-width:0.25;stroke-miterlimit:10;}			.st229{clip-path:url(#SVGID_00000136406714405703393190000013172242459034271146_);fill:none;stroke:#1C1B1A;stroke-width:0.25;stroke-miterlimit:10;stroke-dasharray:4.928,4.928;}			.st230{clip-path:url(#SVGID_00000136406714405703393190000013172242459034271146_);fill:none;stroke:#1C1B1A;stroke-width:0.25;stroke-miterlimit:10;stroke-dasharray:4.708,4.708;}			.st231{clip-path:url(#SVGID_00000136406714405703393190000013172242459034271146_);fill-rule:evenodd;clip-rule:evenodd;fill:#468AC7;}	.st232{clip-path:url(#SVGID_00000136406714405703393190000013172242459034271146_);}			.st233{clip-path:url(#SVGID_00000020365939069620100500000016722883031131176067_);fill-rule:evenodd;clip-rule:evenodd;fill:#468AC7;}	.st234{clip-path:url(#SVGID_00000020365939069620100500000016722883031131176067_);fill:#468AC7;}	.st235{clip-path:url(#SVGID_00000020365939069620100500000016722883031131176067_);fill:#195489;}			.st236{clip-path:url(#SVGID_00000020365939069620100500000016722883031131176067_);fill:none;stroke:#1C1B1A;stroke-width:0.25;stroke-miterlimit:10;}			.st237{clip-path:url(#SVGID_00000020365939069620100500000016722883031131176067_);fill:none;stroke:#1C1B1A;stroke-width:0.25;stroke-miterlimit:10;stroke-dasharray:4.928,4.928;}			.st238{clip-path:url(#SVGID_00000020365939069620100500000016722883031131176067_);fill:none;stroke:#1C1B1A;stroke-width:0.25;stroke-miterlimit:10;stroke-dasharray:4.708,4.708;}			.st239{clip-path:url(#SVGID_00000041997647761425447370000006261901481622972325_);fill:none;stroke:#1C1B1A;stroke-width:0.25;stroke-miterlimit:10;}			.st240{clip-path:url(#SVGID_00000041997647761425447370000006261901481622972325_);fill:none;stroke:#1C1B1A;stroke-width:0.25;stroke-miterlimit:10;stroke-dasharray:4.928,4.928;}			.st241{clip-path:url(#SVGID_00000041997647761425447370000006261901481622972325_);fill:none;stroke:#1C1B1A;stroke-width:0.25;stroke-miterlimit:10;stroke-dasharray:4.708,4.708;}			.st242{clip-path:url(#SVGID_00000041997647761425447370000006261901481622972325_);fill-rule:evenodd;clip-rule:evenodd;fill:#468AC7;}	.st243{clip-path:url(#SVGID_00000041997647761425447370000006261901481622972325_);}			.st244{clip-path:url(#SVGID_00000083079285224994384380000003168210881101845183_);fill-rule:evenodd;clip-rule:evenodd;fill:#468AC7;}	.st245{clip-path:url(#SVGID_00000083079285224994384380000003168210881101845183_);fill:#468AC7;}	.st246{clip-path:url(#SVGID_00000083079285224994384380000003168210881101845183_);fill:#E50B14;}			.st247{clip-path:url(#SVGID_00000083079285224994384380000003168210881101845183_);fill:none;stroke:#1C1B1A;stroke-width:0.25;stroke-miterlimit:10;}			.st248{clip-path:url(#SVGID_00000083079285224994384380000003168210881101845183_);fill:none;stroke:#1C1B1A;stroke-width:0.25;stroke-miterlimit:10;stroke-dasharray:4.928,4.928;}			.st249{clip-path:url(#SVGID_00000083079285224994384380000003168210881101845183_);fill:none;stroke:#1C1B1A;stroke-width:0.25;stroke-miterlimit:10;stroke-dasharray:4.708,4.708;}			.st250{clip-path:url(#SVGID_00000023962646585930628680000004798990739499294081_);fill:none;stroke:#1C1B1A;stroke-width:0.25;stroke-miterlimit:10;}			.st251{clip-path:url(#SVGID_00000023962646585930628680000004798990739499294081_);fill:none;stroke:#1C1B1A;stroke-width:0.25;stroke-miterlimit:10;stroke-dasharray:4.928,4.928;}			.st252{clip-path:url(#SVGID_00000023962646585930628680000004798990739499294081_);fill:none;stroke:#1C1B1A;stroke-width:0.25;stroke-miterlimit:10;stroke-dasharray:4.708,4.708;}			.st253{clip-path:url(#SVGID_00000023962646585930628680000004798990739499294081_);fill-rule:evenodd;clip-rule:evenodd;fill:#468AC7;}	.st254{clip-path:url(#SVGID_00000023962646585930628680000004798990739499294081_);}			.st255{clip-path:url(#SVGID_00000178909149876337272090000006472201971383470737_);fill-rule:evenodd;clip-rule:evenodd;fill:#468AC7;}	.st256{clip-path:url(#SVGID_00000178909149876337272090000006472201971383470737_);fill:#468AC7;}	.st257{clip-path:url(#SVGID_00000178909149876337272090000006472201971383470737_);fill:#F49200;}			.st258{clip-path:url(#SVGID_00000178909149876337272090000006472201971383470737_);fill:none;stroke:#1C1B1A;stroke-width:0.25;stroke-miterlimit:10;}			.st259{clip-path:url(#SVGID_00000178909149876337272090000006472201971383470737_);fill:none;stroke:#1C1B1A;stroke-width:0.25;stroke-miterlimit:10;stroke-dasharray:4.928,4.928;}			.st260{clip-path:url(#SVGID_00000178909149876337272090000006472201971383470737_);fill:none;stroke:#1C1B1A;stroke-width:0.25;stroke-miterlimit:10;stroke-dasharray:4.708,4.708;}</style><g>	<path class="st8" d="M26.1,43h15.1l-7.6-19.1L26.1,43z M47.1,58l-3.3-8.5H23.5L20.2,58h-8.5L29,15.7h9.4L55.6,58H47.1z"></path></g><g>	<path class="st8" d="M62.3,52.5c-4.7-4.2-7.1-9.4-7.1-15.7c0-6.2,2.4-11.4,7.1-15.6c4.7-4.2,10.7-6.4,17.8-6.4  c8.6,0,16.4,3.9,20.5,10.1l-6.8,3.5c-2.5-4.2-7.7-6.8-13.7-6.8c-5.1,0-9.2,1.5-12.4,4.3c-3.1,2.8-4.7,6.5-4.7,10.9  c0,4.4,1.6,8,4.7,10.9C70.9,50.6,75,52,80.1,52c6,0,11.2-2.7,13.7-6.8l6.8,3.4c-2,3.1-4.8,5.6-8.5,7.4c-3.6,1.8-7.6,2.7-12,2.7  C72.9,58.8,67,56.7,62.3,52.5"></path></g><g>	<polygon class="st8" points="136.3,15.7 136.3,22.3 122.9,22.3 122.9,58 115.1,58 115.1,22.3 101.6,22.3 101.6,15.7  "></polygon></g><g>	<path class="st8" d="M159.8,40.4c-1-4.9-4.9-7.4-9.7-7.4c-5.4,0-9.3,2.8-10.3,7.4H159.8z M139.9,45.7c1.1,4.6,5.2,7.1,10.9,7.1  c3.9,0,6.8-1.3,8.8-3.8l6.1,3.1c-3.3,4.4-8.3,6.6-14.9,6.6c-5.5,0-10-1.5-13.4-4.5c-3.4-3-5.1-6.8-5.1-11.4c0-4.5,1.7-8.3,5-11.3  c3.3-3.1,7.7-4.6,12.9-4.6c5,0,9.1,1.6,12.2,4.7c3.2,3.1,4.8,6.9,4.8,11.3c0,0.7-0.1,1.6-0.3,2.7H139.9z"></path></g><g>	<path class="st8" d="M175.6,54.2c-3.4-3.1-5.1-6.8-5.1-11.3c0-4.5,1.7-8.3,5.1-11.3c3.5-3.1,7.8-4.6,12.9-4.6  c6.6,0,12.5,3,15.2,7.8l-6.3,3.3c-1.6-2.9-4.8-4.7-8.9-4.7c-3,0-5.5,0.9-7.6,2.7c-2,1.8-3,4.1-3,6.8c0,2.7,1,5,3,6.8  c2,1.8,4.6,2.7,7.6,2.7c4,0,7.4-1.8,9.1-4.7l6.3,3.2c-2.9,4.8-8.7,7.9-15.3,7.9C183.3,58.8,179,57.3,175.6,54.2"></path></g><g>	<path class="st8" d="M238.9,39.5V58h-7.3V40.1c0-4.5-2.9-7-7.6-7c-5.2,0-8.6,2.8-8.6,8.7V58h-7.3V15.7h7.3v16  c2.2-3.1,5.7-4.7,10.5-4.7C233.6,27,238.9,31.7,238.9,39.5"></path></g><g>	<path class="st7" d="M86.2,83.7l1.5,1.5l-1.3,1.2l-1.6-1.6c-1.2,0.8-2.5,1.2-4,1.2c-2,0-3.7-0.7-5.1-2.1c-1.4-1.4-2.1-3.1-2.1-5.1  c0-2,0.7-3.7,2.1-5.1c1.4-1.4,3.1-2.1,5.1-2.1c2,0,3.7,0.7,5.1,2.1c1.4,1.4,2.1,3.1,2.1,5.1C88.2,80.7,87.5,82.3,86.2,83.7z   M83.6,83.5l-2.8-2.8l1.3-1.1l2.9,2.9c0.9-1,1.4-2.2,1.4-3.7c0-1.5-0.5-2.8-1.6-3.9c-1-1.1-2.3-1.6-3.8-1.6c-1.5,0-2.8,0.5-3.8,1.6  c-1,1.1-1.6,2.3-1.6,3.9c0,1.5,0.5,2.8,1.6,3.9c1.1,1.1,2.3,1.6,3.8,1.6C81.9,84.2,82.8,84,83.6,83.5z"></path>	<path class="st7" d="M97.4,75.7h1.7v10h-1.7v-1.4c-0.7,1.1-1.8,1.7-3.2,1.7c-2.3,0-3.9-1.6-3.9-4.1v-6.1h1.7v6  c0,1.6,0.9,2.6,2.5,2.6c1.7,0,2.9-1.1,2.9-3.3V75.7z"></path>	<path class="st7" d="M110,75.7h1.7v10H110V84c-0.9,1.3-2.1,2-3.8,2c-1.4,0-2.6-0.5-3.6-1.5c-1-1-1.5-2.3-1.5-3.7s0.5-2.7,1.5-3.7  c1-1,2.2-1.5,3.6-1.5c1.7,0,2.9,0.7,3.8,2V75.7z M109,83.3c0.7-0.7,1-1.5,1-2.6s-0.3-1.9-1-2.5c-0.7-0.7-1.5-1-2.5-1  c-1,0-1.8,0.3-2.5,1c-0.7,0.7-1,1.5-1,2.5s0.3,1.9,1,2.6c0.7,0.7,1.5,1,2.5,1C107.5,84.3,108.3,84,109,83.3z M107.1,74.4  c0-0.9,0-1.1,0.4-1.4c0,0,0.3-0.2,0.3-0.2c0.1-0.1,0.4-0.2,0.4-0.5c0-0.2-0.2-0.3-0.5-0.3c-0.4,0-0.8,0.1-0.9,0.6l-1.1-0.5  c0.4-0.9,1.2-1.3,2-1.3c0.9,0,1.7,0.5,1.7,1.5c0,0.8-0.4,1.2-0.7,1.4c-0.3,0.1-0.4,0.2-0.4,0.7H107.1z"></path>	<path class="st7" d="M123.2,79.6v6.1h-1.7v-6c0-1.6-0.9-2.6-2.5-2.6c-1.7,0-2.9,1.1-2.9,3.3v5.3h-1.7v-10h1.7v1.4  c0.7-1.1,1.8-1.7,3.2-1.7C121.7,75.5,123.2,77.1,123.2,79.6z"></path>	<path class="st7" d="M130.7,85.7V71.1h1.7v14.6H130.7z"></path>	<path class="st7" d="M142,75.7h1.9l-4.1,10.6c-0.9,2.3-2.4,3.5-4.4,3.4v-1.6c1.2,0.1,2.1-0.6,2.7-2l0.2-0.4l-4.4-10h1.9l3.4,7.8  L142,75.7z M141.5,71.7l-2,2.6h-1.7l1.6-2.6H141.5z"></path>	<path class="st7" d="M158.6,75.7h1.7v14h-1.7V84c-0.9,1.3-2.1,2-3.8,2c-1.4,0-2.6-0.5-3.6-1.5c-1-1-1.5-2.3-1.5-3.7  s0.5-2.7,1.5-3.7c1-1,2.2-1.5,3.6-1.5c1.7,0,2.9,0.7,3.8,2V75.7z M157.6,83.3c0.7-0.7,1-1.5,1-2.6s-0.3-1.9-1-2.5  c-0.7-0.7-1.5-1-2.5-1c-1,0-1.8,0.3-2.5,1c-0.7,0.7-1,1.5-1,2.5s0.3,1.9,1,2.6c0.7,0.7,1.5,1,2.5,1C156,84.3,156.9,84,157.6,83.3z"></path>	<path class="st7" d="M169.9,75.7h1.7v10h-1.7v-1.4c-0.7,1.1-1.8,1.7-3.2,1.7c-2.3,0-3.9-1.6-3.9-4.1v-6.1h1.7v6  c0,1.6,0.9,2.6,2.5,2.6c1.7,0,2.9-1.1,2.9-3.3V75.7z"></path>	<path class="st7" d="M181.2,75.7h1.9L179,86.4c-0.9,2.3-2.4,3.5-4.4,3.4v-1.6c1.2,0.1,2.1-0.6,2.7-2l0.2-0.4l-4.4-10h1.9l3.4,7.8  L181.2,75.7z"></path>	<path class="st7" d="M195,77.4h-2.7v5.4c0,1.5,0.9,1.4,2.7,1.3v1.6c-3,0.4-4.4-0.4-4.4-2.9v-5.4h-2v-1.7h2v-2.3l1.7-0.5v2.8h2.7  V77.4z"></path>	<path class="st7" d="M198.6,77.4c0.6-1.2,1.6-1.9,3.1-1.9v1.8c-0.9,0-1.6,0.2-2.2,0.7s-0.9,1.3-0.9,2.4v5.3h-1.7v-10h1.7V77.4z"></path>	<path class="st7" d="M203.7,74.4l-1.3-2.7h2l1,2.7H203.7z M205,75.7h-1.7v10h1.7V75.7z"></path>	<path class="st7" d="M216.4,79.6v6.1h-1.7v-6c0-1.6-0.9-2.6-2.5-2.6c-1.7,0-2.9,1.1-2.9,3.3v5.3h-1.7v-10h1.7v1.4  c0.7-1.1,1.8-1.7,3.2-1.7C214.9,75.5,216.4,77.1,216.4,79.6z"></path>	<path class="st7" d="M227.7,79.6v6.1H226v-6c0-1.6-0.9-2.6-2.5-2.6c-1.7,0-2.9,1.1-2.9,3.3v5.3h-1.7v-14h1.7v5.4  c0.7-1.1,1.8-1.7,3.2-1.7C226.2,75.5,227.7,77.1,227.7,79.6z"></path>	<path class="st7" d="M238.6,79.9c1.6,0.3,3.6,0.9,3.6,3.1c0,0.9-0.4,1.6-1.1,2.2c-0.7,0.5-1.6,0.8-2.7,0.8c-1.9,0-3.4-0.9-4-2.3  l1.5-0.9c0.3,1,1.3,1.6,2.5,1.6c1.1,0,2-0.4,2-1.4c0-0.8-0.9-1.2-2-1.5c-1.6-0.4-3.6-0.9-3.6-3.1c0-0.9,0.3-1.6,1-2.1  c0.7-0.6,1.5-0.8,2.5-0.8c1.6,0,3,0.8,3.6,2.1l-1.5,0.8c-0.4-0.9-1.1-1.3-2.1-1.3c-1,0-1.8,0.5-1.8,1.3  C236.7,79.2,237.5,79.6,238.6,79.9z"></path>	<path class="st7" d="M252.4,75.7h1.7v10h-1.7V84c-0.9,1.3-2.1,2-3.8,2c-1.4,0-2.6-0.5-3.6-1.5c-1-1-1.5-2.3-1.5-3.7  s0.5-2.7,1.5-3.7s2.2-1.5,3.6-1.5c1.7,0,2.9,0.7,3.8,2V75.7z M251.4,83.3c0.7-0.7,1-1.5,1-2.6s-0.3-1.9-1-2.5c-0.7-0.7-1.5-1-2.5-1  c-1,0-1.8,0.3-2.5,1c-0.7,0.7-1,1.5-1,2.5s0.3,1.9,1,2.6c0.7,0.7,1.5,1,2.5,1C249.9,84.3,250.7,84,251.4,83.3z M249.5,74.4  c0-0.9,0-1.1,0.4-1.4c0,0,0.3-0.2,0.3-0.2c0.1-0.1,0.4-0.2,0.4-0.5c0-0.2-0.2-0.3-0.5-0.3c-0.4,0-0.8,0.1-0.9,0.6l-1.1-0.5  c0.4-0.9,1.2-1.3,2-1.3c0.9,0,1.7,0.5,1.7,1.5c0,0.8-0.4,1.2-0.7,1.4c-0.3,0.1-0.4,0.2-0.4,0.7H249.5z"></path>	<path class="st7" d="M265.6,79.6v6.1h-1.7v-6c0-1.6-0.9-2.6-2.5-2.6c-1.7,0-2.9,1.1-2.9,3.3v5.3h-1.7v-10h1.7v1.4  c0.7-1.1,1.8-1.7,3.2-1.7C264.1,75.5,265.6,77.1,265.6,79.6z"></path>	<path class="st7" d="M281.7,85.7h-2l-2.8-3.8l-2.8,3.8h-2l3.8-5.1l-3.6-4.9h2.1l2.6,3.5l2.6-3.5h2l-3.6,4.8L281.7,85.7z"></path>	<path class="st7" d="M290.1,75.7h1.7v10h-1.7v-1.4c-0.7,1.1-1.8,1.7-3.2,1.7c-2.3,0-3.9-1.6-3.9-4.1v-6.1h1.7v6  c0,1.6,0.9,2.6,2.5,2.6c1.7,0,2.9-1.1,2.9-3.3V75.7z"></path>	<path class="st7" d="M302.7,75.7h1.7v10h-1.7V84c-0.9,1.3-2.1,2-3.8,2c-1.4,0-2.6-0.5-3.6-1.5c-1-1-1.5-2.3-1.5-3.7  s0.5-2.7,1.5-3.7c1-1,2.2-1.5,3.6-1.5c1.7,0,2.9,0.7,3.8,2V75.7z M301.7,83.3c0.7-0.7,1-1.5,1-2.6s-0.3-1.9-1-2.5  c-0.7-0.7-1.5-1-2.5-1c-1,0-1.8,0.3-2.5,1c-0.7,0.7-1,1.5-1,2.5s0.3,1.9,1,2.6c0.7,0.7,1.5,1,2.5,1C300.2,84.3,301,84,301.7,83.3z   M300.1,72.9l-1.1,1.5h-1.7l2-2.5h1.8l2,2.5h-1.7L300.1,72.9z M303.5,70.1h2l-1.9,2.5h-1.6L303.5,70.1z"></path>	<path class="st7" d="M312.4,77.4h-2.7v5.4c0,1.5,0.9,1.4,2.7,1.3v1.6c-3,0.4-4.4-0.4-4.4-2.9v-5.4h-2v-1.7h2v-2.3l1.7-0.5v2.8h2.7  V77.4z"></path></g><g>	<path class="st13" d="M300.1,15.3v42h-8.2V30L280,49.5h-1l-11.8-19.4v27.2H259v-42h8.5l12.1,19.9l12-19.9H300.1z"></path>	<path class="st13" d="M330.5,57.3l-8.5-14.6h-6.3v14.6h-8.3v-42h16.8c3.9,0,7.2,1.4,9.9,4.1c2.7,2.7,4.1,6,4.1,9.8  c0,5.2-3.2,10-8.1,12.2l9.3,15.8H330.5z M315.8,23v12.4h8.5c3.1,0,5.7-2.8,5.7-6.2s-2.6-6.2-5.7-6.2H315.8z"></path>	<path class="st13" d="M359.5,15.3c4,0,7.4,1.4,10.2,4.1c2.8,2.7,4.1,6.1,4.1,10c0,4-1.4,7.3-4.1,10c-2.8,2.7-6.2,4.1-10.2,4.1h-7.4  v13.8h-8.3v-42H359.5z M359.5,35.7c3.5,0,6.1-2.8,6.1-6.4c0-3.7-2.6-6.4-6.1-6.4h-7.4v12.7H359.5z"></path></g></svg>