<svg xmlns="http://www.w3.org/2000/svg" xmlns:xlink="http://www.w3.org/1999/xlink" id="Layer_1" x="0px" y="0px" viewBox="0 0 557.1 100.6" style="enable-background:new 0 0 557.1 100.6;" xml:space="preserve"><style type="text/css">	.st0{clip-path:url(#SVGID_00000038413281715424661840000017974081308481874308_);}	.st1{clip-path:url(#SVGID_00000008125656910033677500000010541004230006977715_);}			.st2{clip-path:url(#SVGID_00000133490234198664866800000009911003969876506008_);fill-rule:evenodd;clip-rule:evenodd;fill:#E50B14;}			.st3{clip-path:url(#SVGID_00000133490234198664866800000009911003969876506008_);fill-rule:evenodd;clip-rule:evenodd;fill:#468AC7;}	.st4{fill:#BFC0C0;}	.st5{fill:#458AC8;}	.st6{fill:#E41E26;}	.st7{fill:#159AFD;}	.st8{fill-rule:evenodd;clip-rule:evenodd;fill:#159AFD;}	.st9{fill-rule:evenodd;clip-rule:evenodd;fill:#1B1A19;}	.st10{fill-rule:evenodd;clip-rule:evenodd;fill:#FFFFFF;}	.st11{fill:none;}	.st12{fill:#912682;}	.st13{fill:#016236;}	.st14{fill:#2E3281;}	.st15{fill:#AB7D4B;}	.st16{fill:#9E235C;}	.st17{fill:#C51D6A;}	.st18{fill:#FFCB07;}	.st19{fill:#B32A25;}	.st20{fill:#009CA3;}	.st21{fill:#185489;}	.st22{fill:#F39320;}	.st23{fill:#1B1A19;}	.st24{fill:#FFFFFF;}	.st25{clip-path:url(#SVGID_00000106140851799513767380000016995713668493930938_);}	.st26{clip-path:url(#SVGID_00000016036733250977582220000000036348845294309267_);}	.st27{opacity:0.4;clip-path:url(#SVGID_00000154397903955261460450000016634312439983081088_);}	.st28{clip-path:url(#SVGID_00000020389190946018282480000011256528991035489680_);}	.st29{clip-path:url(#SVGID_00000016036733250977582220000000036348845294309267_);fill:#1C1B1A;}			.st30{clip-path:url(#SVGID_00000044159862563575650830000014783526341824011964_);fill-rule:evenodd;clip-rule:evenodd;fill:#E50B14;}			.st31{clip-path:url(#SVGID_00000044159862563575650830000014783526341824011964_);fill-rule:evenodd;clip-rule:evenodd;fill:#468AC7;}			.st32{clip-path:url(#SVGID_00000152240089027834229880000012003215975871707277_);fill:none;stroke:#1C1B1A;stroke-width:0.25;stroke-miterlimit:10;}			.st33{clip-path:url(#SVGID_00000152240089027834229880000012003215975871707277_);fill:none;stroke:#1C1B1A;stroke-width:0.25;stroke-miterlimit:10;stroke-dasharray:4.928,4.928;}			.st34{clip-path:url(#SVGID_00000152240089027834229880000012003215975871707277_);fill:none;stroke:#1C1B1A;stroke-width:0.25;stroke-miterlimit:10;stroke-dasharray:4.708,4.708;}			.st35{clip-path:url(#SVGID_00000152240089027834229880000012003215975871707277_);fill-rule:evenodd;clip-rule:evenodd;fill:#468AC7;}	.st36{clip-path:url(#SVGID_00000152240089027834229880000012003215975871707277_);}			.st37{clip-path:url(#SVGID_00000145048073043294117630000010634801945771855281_);fill-rule:evenodd;clip-rule:evenodd;fill:#468AC7;}	.st38{clip-path:url(#SVGID_00000145048073043294117630000010634801945771855281_);fill:#468AC7;}	.st39{clip-path:url(#SVGID_00000145048073043294117630000010634801945771855281_);fill:#912583;}			.st40{clip-path:url(#SVGID_00000145048073043294117630000010634801945771855281_);fill:none;stroke:#1C1B1A;stroke-width:0.25;stroke-miterlimit:10;}			.st41{clip-path:url(#SVGID_00000145048073043294117630000010634801945771855281_);fill:none;stroke:#1C1B1A;stroke-width:0.25;stroke-miterlimit:10;stroke-dasharray:4.928,4.928;}			.st42{clip-path:url(#SVGID_00000145048073043294117630000010634801945771855281_);fill:none;stroke:#1C1B1A;stroke-width:0.25;stroke-miterlimit:10;stroke-dasharray:4.708,4.708;}			.st43{clip-path:url(#SVGID_00000170964725075414813020000005432771840805648812_);fill:none;stroke:#1C1B1A;stroke-width:0.25;stroke-miterlimit:10;}			.st44{clip-path:url(#SVGID_00000170964725075414813020000005432771840805648812_);fill:none;stroke:#1C1B1A;stroke-width:0.25;stroke-miterlimit:10;stroke-dasharray:4.928,4.928;}			.st45{clip-path:url(#SVGID_00000170964725075414813020000005432771840805648812_);fill:none;stroke:#1C1B1A;stroke-width:0.25;stroke-miterlimit:10;stroke-dasharray:4.708,4.708;}			.st46{clip-path:url(#SVGID_00000170964725075414813020000005432771840805648812_);fill-rule:evenodd;clip-rule:evenodd;fill:#468AC7;}	.st47{clip-path:url(#SVGID_00000170964725075414813020000005432771840805648812_);}			.st48{clip-path:url(#SVGID_00000079452867877975046710000018434015316731975848_);fill-rule:evenodd;clip-rule:evenodd;fill:#468AC7;}	.st49{clip-path:url(#SVGID_00000079452867877975046710000018434015316731975848_);fill:#468AC7;}	.st50{clip-path:url(#SVGID_00000079452867877975046710000018434015316731975848_);fill:#006236;}			.st51{clip-path:url(#SVGID_00000079452867877975046710000018434015316731975848_);fill:none;stroke:#1C1B1A;stroke-width:0.25;stroke-miterlimit:10;}			.st52{clip-path:url(#SVGID_00000079452867877975046710000018434015316731975848_);fill:none;stroke:#1C1B1A;stroke-width:0.25;stroke-miterlimit:10;stroke-dasharray:4.928,4.928;}			.st53{clip-path:url(#SVGID_00000079452867877975046710000018434015316731975848_);fill:none;stroke:#1C1B1A;stroke-width:0.25;stroke-miterlimit:10;stroke-dasharray:4.708,4.708;}			.st54{clip-path:url(#SVGID_00000085936909990472472540000006757419946706397848_);fill:none;stroke:#1C1B1A;stroke-width:0.25;stroke-miterlimit:10;}			.st55{clip-path:url(#SVGID_00000085936909990472472540000006757419946706397848_);fill:none;stroke:#1C1B1A;stroke-width:0.25;stroke-miterlimit:10;stroke-dasharray:4.928,4.928;}			.st56{clip-path:url(#SVGID_00000085936909990472472540000006757419946706397848_);fill:none;stroke:#1C1B1A;stroke-width:0.25;stroke-miterlimit:10;stroke-dasharray:4.708,4.708;}			.st57{clip-path:url(#SVGID_00000085936909990472472540000006757419946706397848_);fill-rule:evenodd;clip-rule:evenodd;fill:#468AC7;}	.st58{clip-path:url(#SVGID_00000085936909990472472540000006757419946706397848_);}			.st59{clip-path:url(#SVGID_00000103949061924390850710000002758858093350511026_);fill-rule:evenodd;clip-rule:evenodd;fill:#468AC7;}	.st60{clip-path:url(#SVGID_00000103949061924390850710000002758858093350511026_);fill:#468AC7;}	.st61{clip-path:url(#SVGID_00000103949061924390850710000002758858093350511026_);fill:#9E245C;}			.st62{clip-path:url(#SVGID_00000103949061924390850710000002758858093350511026_);fill:none;stroke:#1C1B1A;stroke-width:0.25;stroke-miterlimit:10;}			.st63{clip-path:url(#SVGID_00000103949061924390850710000002758858093350511026_);fill:none;stroke:#1C1B1A;stroke-width:0.25;stroke-miterlimit:10;stroke-dasharray:4.928,4.928;}			.st64{clip-path:url(#SVGID_00000103949061924390850710000002758858093350511026_);fill:none;stroke:#1C1B1A;stroke-width:0.25;stroke-miterlimit:10;stroke-dasharray:4.708,4.708;}			.st65{clip-path:url(#SVGID_00000012453993690582761470000001364312039113232293_);fill:none;stroke:#1C1B1A;stroke-width:0.25;stroke-miterlimit:10;}			.st66{clip-path:url(#SVGID_00000012453993690582761470000001364312039113232293_);fill:none;stroke:#1C1B1A;stroke-width:0.25;stroke-miterlimit:10;stroke-dasharray:4.928,4.928;}			.st67{clip-path:url(#SVGID_00000012453993690582761470000001364312039113232293_);fill:none;stroke:#1C1B1A;stroke-width:0.25;stroke-miterlimit:10;stroke-dasharray:4.708,4.708;}			.st68{clip-path:url(#SVGID_00000012453993690582761470000001364312039113232293_);fill-rule:evenodd;clip-rule:evenodd;fill:#468AC7;}	.st69{clip-path:url(#SVGID_00000012453993690582761470000001364312039113232293_);}			.st70{clip-path:url(#SVGID_00000021840957232543668930000011283149663063023236_);fill-rule:evenodd;clip-rule:evenodd;fill:#468AC7;}	.st71{clip-path:url(#SVGID_00000021840957232543668930000011283149663063023236_);fill:#468AC7;}	.st72{clip-path:url(#SVGID_00000021840957232543668930000011283149663063023236_);fill:#FECA00;}			.st73{clip-path:url(#SVGID_00000021840957232543668930000011283149663063023236_);fill:none;stroke:#1C1B1A;stroke-width:0.25;stroke-miterlimit:10;}			.st74{clip-path:url(#SVGID_00000021840957232543668930000011283149663063023236_);fill:none;stroke:#1C1B1A;stroke-width:0.25;stroke-miterlimit:10;stroke-dasharray:4.928,4.928;}			.st75{clip-path:url(#SVGID_00000021840957232543668930000011283149663063023236_);fill:none;stroke:#1C1B1A;stroke-width:0.25;stroke-miterlimit:10;stroke-dasharray:4.708,4.708;}			.st76{clip-path:url(#SVGID_00000117646419355632336200000012000408983832699274_);fill:none;stroke:#1C1B1A;stroke-width:0.25;stroke-miterlimit:10;}			.st77{clip-path:url(#SVGID_00000117646419355632336200000012000408983832699274_);fill:none;stroke:#1C1B1A;stroke-width:0.25;stroke-miterlimit:10;stroke-dasharray:4.928,4.928;}			.st78{clip-path:url(#SVGID_00000117646419355632336200000012000408983832699274_);fill:none;stroke:#1C1B1A;stroke-width:0.25;stroke-miterlimit:10;stroke-dasharray:4.708,4.708;}			.st79{clip-path:url(#SVGID_00000117646419355632336200000012000408983832699274_);fill-rule:evenodd;clip-rule:evenodd;fill:#468AC7;}	.st80{clip-path:url(#SVGID_00000117646419355632336200000012000408983832699274_);}			.st81{clip-path:url(#SVGID_00000114051473178025529190000008960321787326944696_);fill-rule:evenodd;clip-rule:evenodd;fill:#468AC7;}	.st82{clip-path:url(#SVGID_00000114051473178025529190000008960321787326944696_);fill:#468AC7;}	.st83{clip-path:url(#SVGID_00000114051473178025529190000008960321787326944696_);fill:#B42823;}			.st84{clip-path:url(#SVGID_00000114051473178025529190000008960321787326944696_);fill:none;stroke:#1C1B1A;stroke-width:0.25;stroke-miterlimit:10;}			.st85{clip-path:url(#SVGID_00000114051473178025529190000008960321787326944696_);fill:none;stroke:#1C1B1A;stroke-width:0.25;stroke-miterlimit:10;stroke-dasharray:4.928,4.928;}			.st86{clip-path:url(#SVGID_00000114051473178025529190000008960321787326944696_);fill:none;stroke:#1C1B1A;stroke-width:0.25;stroke-miterlimit:10;stroke-dasharray:4.708,4.708;}			.st87{clip-path:url(#SVGID_00000181781902624836095030000014693686874824748416_);fill:none;stroke:#1C1B1A;stroke-width:0.25;stroke-miterlimit:10;}			.st88{clip-path:url(#SVGID_00000181781902624836095030000014693686874824748416_);fill:none;stroke:#1C1B1A;stroke-width:0.25;stroke-miterlimit:10;stroke-dasharray:4.928,4.928;}			.st89{clip-path:url(#SVGID_00000181781902624836095030000014693686874824748416_);fill:none;stroke:#1C1B1A;stroke-width:0.25;stroke-miterlimit:10;stroke-dasharray:4.708,4.708;}			.st90{clip-path:url(#SVGID_00000181781902624836095030000014693686874824748416_);fill-rule:evenodd;clip-rule:evenodd;fill:#468AC7;}	.st91{clip-path:url(#SVGID_00000181781902624836095030000014693686874824748416_);}			.st92{clip-path:url(#SVGID_00000178162949294839003990000006781115257510656433_);fill-rule:evenodd;clip-rule:evenodd;fill:#468AC7;}	.st93{clip-path:url(#SVGID_00000178162949294839003990000006781115257510656433_);fill:#468AC7;}	.st94{clip-path:url(#SVGID_00000178162949294839003990000006781115257510656433_);fill:#009CA3;}			.st95{clip-path:url(#SVGID_00000178162949294839003990000006781115257510656433_);fill:none;stroke:#1C1B1A;stroke-width:0.25;stroke-miterlimit:10;}			.st96{clip-path:url(#SVGID_00000178162949294839003990000006781115257510656433_);fill:none;stroke:#1C1B1A;stroke-width:0.25;stroke-miterlimit:10;stroke-dasharray:4.928,4.928;}			.st97{clip-path:url(#SVGID_00000178162949294839003990000006781115257510656433_);fill:none;stroke:#1C1B1A;stroke-width:0.25;stroke-miterlimit:10;stroke-dasharray:4.708,4.708;}			.st98{clip-path:url(#SVGID_00000003823944569887850690000000547302486482789041_);fill:none;stroke:#1C1B1A;stroke-width:0.25;stroke-miterlimit:10;}			.st99{clip-path:url(#SVGID_00000003823944569887850690000000547302486482789041_);fill:none;stroke:#1C1B1A;stroke-width:0.25;stroke-miterlimit:10;stroke-dasharray:4.928,4.928;}			.st100{clip-path:url(#SVGID_00000003823944569887850690000000547302486482789041_);fill:none;stroke:#1C1B1A;stroke-width:0.25;stroke-miterlimit:10;stroke-dasharray:4.708,4.708;}			.st101{clip-path:url(#SVGID_00000003823944569887850690000000547302486482789041_);fill-rule:evenodd;clip-rule:evenodd;fill:#468AC7;}	.st102{clip-path:url(#SVGID_00000003823944569887850690000000547302486482789041_);}			.st103{clip-path:url(#SVGID_00000113348891947012786140000009461055281577938053_);fill-rule:evenodd;clip-rule:evenodd;fill:#468AC7;}	.st104{clip-path:url(#SVGID_00000113348891947012786140000009461055281577938053_);fill:#468AC7;}	.st105{clip-path:url(#SVGID_00000113348891947012786140000009461055281577938053_);fill:#C51C6A;}			.st106{clip-path:url(#SVGID_00000113348891947012786140000009461055281577938053_);fill:none;stroke:#1C1B1A;stroke-width:0.25;stroke-miterlimit:10;}			.st107{clip-path:url(#SVGID_00000113348891947012786140000009461055281577938053_);fill:none;stroke:#1C1B1A;stroke-width:0.25;stroke-miterlimit:10;stroke-dasharray:4.928,4.928;}			.st108{clip-path:url(#SVGID_00000113348891947012786140000009461055281577938053_);fill:none;stroke:#1C1B1A;stroke-width:0.25;stroke-miterlimit:10;stroke-dasharray:4.708,4.708;}			.st109{clip-path:url(#SVGID_00000081629810071079639430000005870227215633321662_);fill:none;stroke:#1C1B1A;stroke-width:0.25;stroke-miterlimit:10;}			.st110{clip-path:url(#SVGID_00000081629810071079639430000005870227215633321662_);fill:none;stroke:#1C1B1A;stroke-width:0.25;stroke-miterlimit:10;stroke-dasharray:4.928,4.928;}			.st111{clip-path:url(#SVGID_00000081629810071079639430000005870227215633321662_);fill:none;stroke:#1C1B1A;stroke-width:0.25;stroke-miterlimit:10;stroke-dasharray:4.708,4.708;}			.st112{clip-path:url(#SVGID_00000081629810071079639430000005870227215633321662_);fill-rule:evenodd;clip-rule:evenodd;fill:#468AC7;}	.st113{clip-path:url(#SVGID_00000081629810071079639430000005870227215633321662_);}			.st114{clip-path:url(#SVGID_00000181089149323374483610000006740082548629827714_);fill-rule:evenodd;clip-rule:evenodd;fill:#468AC7;}	.st115{clip-path:url(#SVGID_00000181089149323374483610000006740082548629827714_);fill:#468AC7;}	.st116{clip-path:url(#SVGID_00000181089149323374483610000006740082548629827714_);fill:#C51C6A;}			.st117{clip-path:url(#SVGID_00000181089149323374483610000006740082548629827714_);fill:none;stroke:#1C1B1A;stroke-width:0.25;stroke-miterlimit:10;}			.st118{clip-path:url(#SVGID_00000181089149323374483610000006740082548629827714_);fill:none;stroke:#1C1B1A;stroke-width:0.25;stroke-miterlimit:10;stroke-dasharray:4.928,4.928;}			.st119{clip-path:url(#SVGID_00000181089149323374483610000006740082548629827714_);fill:none;stroke:#1C1B1A;stroke-width:0.25;stroke-miterlimit:10;stroke-dasharray:4.708,4.708;}			.st120{clip-path:url(#SVGID_00000071522940647572190480000010090442228914461373_);fill:none;stroke:#1C1B1A;stroke-width:0.25;stroke-miterlimit:10;}			.st121{clip-path:url(#SVGID_00000071522940647572190480000010090442228914461373_);fill:none;stroke:#1C1B1A;stroke-width:0.25;stroke-miterlimit:10;stroke-dasharray:4.928,4.928;}			.st122{clip-path:url(#SVGID_00000071522940647572190480000010090442228914461373_);fill:none;stroke:#1C1B1A;stroke-width:0.25;stroke-miterlimit:10;stroke-dasharray:4.708,4.708;}			.st123{clip-path:url(#SVGID_00000071522940647572190480000010090442228914461373_);fill-rule:evenodd;clip-rule:evenodd;fill:#468AC7;}	.st124{clip-path:url(#SVGID_00000071522940647572190480000010090442228914461373_);}			.st125{clip-path:url(#SVGID_00000004533711707364132980000014711406589302516404_);fill-rule:evenodd;clip-rule:evenodd;fill:#468AC7;}	.st126{clip-path:url(#SVGID_00000004533711707364132980000014711406589302516404_);fill:#468AC7;}	.st127{clip-path:url(#SVGID_00000004533711707364132980000014711406589302516404_);fill:#232D84;}			.st128{clip-path:url(#SVGID_00000004533711707364132980000014711406589302516404_);fill:none;stroke:#1C1B1A;stroke-width:0.25;stroke-miterlimit:10;}			.st129{clip-path:url(#SVGID_00000004533711707364132980000014711406589302516404_);fill:none;stroke:#1C1B1A;stroke-width:0.25;stroke-miterlimit:10;stroke-dasharray:4.928,4.928;}			.st130{clip-path:url(#SVGID_00000004533711707364132980000014711406589302516404_);fill:none;stroke:#1C1B1A;stroke-width:0.25;stroke-miterlimit:10;stroke-dasharray:4.708,4.708;}			.st131{clip-path:url(#SVGID_00000165235728823704442230000016071703031937516456_);fill:none;stroke:#1C1B1A;stroke-width:0.25;stroke-miterlimit:10;}			.st132{clip-path:url(#SVGID_00000165235728823704442230000016071703031937516456_);fill:none;stroke:#1C1B1A;stroke-width:0.25;stroke-miterlimit:10;stroke-dasharray:4.928,4.928;}			.st133{clip-path:url(#SVGID_00000165235728823704442230000016071703031937516456_);fill:none;stroke:#1C1B1A;stroke-width:0.25;stroke-miterlimit:10;stroke-dasharray:4.708,4.708;}			.st134{clip-path:url(#SVGID_00000165235728823704442230000016071703031937516456_);fill-rule:evenodd;clip-rule:evenodd;fill:#468AC7;}	.st135{clip-path:url(#SVGID_00000165235728823704442230000016071703031937516456_);}			.st136{clip-path:url(#SVGID_00000169552402772099553960000009193680803426078597_);fill-rule:evenodd;clip-rule:evenodd;fill:#468AC7;}	.st137{clip-path:url(#SVGID_00000169552402772099553960000009193680803426078597_);fill:#468AC7;}	.st138{clip-path:url(#SVGID_00000169552402772099553960000009193680803426078597_);fill:#AB7D4C;}			.st139{clip-path:url(#SVGID_00000169552402772099553960000009193680803426078597_);fill:none;stroke:#1C1B1A;stroke-width:0.25;stroke-miterlimit:10;}			.st140{clip-path:url(#SVGID_00000169552402772099553960000009193680803426078597_);fill:none;stroke:#1C1B1A;stroke-width:0.25;stroke-miterlimit:10;stroke-dasharray:4.928,4.928;}			.st141{clip-path:url(#SVGID_00000169552402772099553960000009193680803426078597_);fill:none;stroke:#1C1B1A;stroke-width:0.25;stroke-miterlimit:10;stroke-dasharray:4.708,4.708;}			.st142{clip-path:url(#SVGID_00000013188683397244513190000011289663731389120660_);fill:none;stroke:#1C1B1A;stroke-width:0.25;stroke-miterlimit:10;}			.st143{clip-path:url(#SVGID_00000013188683397244513190000011289663731389120660_);fill:none;stroke:#1C1B1A;stroke-width:0.25;stroke-miterlimit:10;stroke-dasharray:4.928,4.928;}			.st144{clip-path:url(#SVGID_00000013188683397244513190000011289663731389120660_);fill:none;stroke:#1C1B1A;stroke-width:0.25;stroke-miterlimit:10;stroke-dasharray:4.708,4.708;}	.st145{clip-path:url(#SVGID_00000013188683397244513190000011289663731389120660_);}	.st146{clip-path:url(#SVGID_00000168806058970932238970000015162628247259869364_);fill:#468AC7;}	.st147{clip-path:url(#SVGID_00000168806058970932238970000015162628247259869364_);fill:#E50B14;}			.st148{clip-path:url(#SVGID_00000168806058970932238970000015162628247259869364_);fill-rule:evenodd;clip-rule:evenodd;fill:#468AC7;}			.st149{clip-path:url(#SVGID_00000168806058970932238970000015162628247259869364_);fill:none;stroke:#1C1B1A;stroke-width:0.25;stroke-miterlimit:10;}			.st150{clip-path:url(#SVGID_00000168806058970932238970000015162628247259869364_);fill:none;stroke:#1C1B1A;stroke-width:0.25;stroke-miterlimit:10;stroke-dasharray:4.928,4.928;}			.st151{clip-path:url(#SVGID_00000168806058970932238970000015162628247259869364_);fill:none;stroke:#1C1B1A;stroke-width:0.25;stroke-miterlimit:10;stroke-dasharray:4.708,4.708;}			.st152{clip-path:url(#SVGID_00000154402238869494805010000013332096554726012336_);fill:none;stroke:#1C1B1A;stroke-width:0.25;stroke-miterlimit:10;}			.st153{clip-path:url(#SVGID_00000154402238869494805010000013332096554726012336_);fill:none;stroke:#1C1B1A;stroke-width:0.25;stroke-miterlimit:10;stroke-dasharray:4.928,4.928;}			.st154{clip-path:url(#SVGID_00000154402238869494805010000013332096554726012336_);fill:none;stroke:#1C1B1A;stroke-width:0.25;stroke-miterlimit:10;stroke-dasharray:4.708,4.708;}	.st155{clip-path:url(#SVGID_00000154402238869494805010000013332096554726012336_);}			.st156{clip-path:url(#SVGID_00000128463991905861586370000000396847712578575750_);fill-rule:evenodd;clip-rule:evenodd;fill:#E50B14;}			.st157{clip-path:url(#SVGID_00000128463991905861586370000000396847712578575750_);fill-rule:evenodd;clip-rule:evenodd;fill:#468AC7;}			.st158{clip-path:url(#SVGID_00000052065560386206176780000017126761492175220878_);fill:none;stroke:#1C1B1A;stroke-width:0.25;stroke-miterlimit:10;}			.st159{clip-path:url(#SVGID_00000052065560386206176780000017126761492175220878_);fill:none;stroke:#1C1B1A;stroke-width:0.25;stroke-miterlimit:10;stroke-dasharray:4.928,4.928;}			.st160{clip-path:url(#SVGID_00000052065560386206176780000017126761492175220878_);fill:none;stroke:#1C1B1A;stroke-width:0.25;stroke-miterlimit:10;stroke-dasharray:4.708,4.708;}			.st161{clip-path:url(#SVGID_00000052065560386206176780000017126761492175220878_);fill-rule:evenodd;clip-rule:evenodd;fill:#E50B14;}			.st162{clip-path:url(#SVGID_00000052065560386206176780000017126761492175220878_);fill-rule:evenodd;clip-rule:evenodd;fill:#468AC7;}			.st163{clip-path:url(#SVGID_00000001647230244936087170000009366390674527176357_);fill:none;stroke:#1C1B1A;stroke-width:0.25;stroke-miterlimit:10;}			.st164{clip-path:url(#SVGID_00000001647230244936087170000009366390674527176357_);fill:none;stroke:#1C1B1A;stroke-width:0.25;stroke-miterlimit:10;stroke-dasharray:4.928,4.928;}			.st165{clip-path:url(#SVGID_00000001647230244936087170000009366390674527176357_);fill:none;stroke:#1C1B1A;stroke-width:0.25;stroke-miterlimit:10;stroke-dasharray:4.708,4.708;}			.st166{clip-path:url(#SVGID_00000001647230244936087170000009366390674527176357_);fill-rule:evenodd;clip-rule:evenodd;fill:#E50B14;}			.st167{clip-path:url(#SVGID_00000001647230244936087170000009366390674527176357_);fill-rule:evenodd;clip-rule:evenodd;fill:#468AC7;}			.st168{clip-path:url(#SVGID_00000016033157618658188290000002266634060050215332_);fill:none;stroke:#1C1B1A;stroke-width:0.25;stroke-miterlimit:10;}			.st169{clip-path:url(#SVGID_00000016033157618658188290000002266634060050215332_);fill:none;stroke:#1C1B1A;stroke-width:0.25;stroke-miterlimit:10;stroke-dasharray:4.928,4.928;}			.st170{clip-path:url(#SVGID_00000016033157618658188290000002266634060050215332_);fill:none;stroke:#1C1B1A;stroke-width:0.25;stroke-miterlimit:10;stroke-dasharray:4.708,4.708;}			.st171{clip-path:url(#SVGID_00000016033157618658188290000002266634060050215332_);fill-rule:evenodd;clip-rule:evenodd;fill:#E50B14;}			.st172{clip-path:url(#SVGID_00000016033157618658188290000002266634060050215332_);fill-rule:evenodd;clip-rule:evenodd;fill:#468AC7;}			.st173{clip-path:url(#SVGID_00000183944393610392787910000010469002276627512212_);fill:none;stroke:#1C1B1A;stroke-width:0.25;stroke-miterlimit:10;}			.st174{clip-path:url(#SVGID_00000183944393610392787910000010469002276627512212_);fill:none;stroke:#1C1B1A;stroke-width:0.25;stroke-miterlimit:10;stroke-dasharray:4.928,4.928;}			.st175{clip-path:url(#SVGID_00000183944393610392787910000010469002276627512212_);fill:none;stroke:#1C1B1A;stroke-width:0.25;stroke-miterlimit:10;stroke-dasharray:4.708,4.708;}			.st176{clip-path:url(#SVGID_00000183944393610392787910000010469002276627512212_);fill-rule:evenodd;clip-rule:evenodd;fill:#E50B14;}			.st177{clip-path:url(#SVGID_00000183944393610392787910000010469002276627512212_);fill-rule:evenodd;clip-rule:evenodd;fill:#468AC7;}			.st178{clip-path:url(#SVGID_00000178916552535923348060000003783477203650946208_);fill:none;stroke:#1C1B1A;stroke-width:0.25;stroke-miterlimit:10;}			.st179{clip-path:url(#SVGID_00000178916552535923348060000003783477203650946208_);fill:none;stroke:#1C1B1A;stroke-width:0.25;stroke-miterlimit:10;stroke-dasharray:4.928,4.928;}			.st180{clip-path:url(#SVGID_00000178916552535923348060000003783477203650946208_);fill:none;stroke:#1C1B1A;stroke-width:0.25;stroke-miterlimit:10;stroke-dasharray:4.708,4.708;}			.st181{clip-path:url(#SVGID_00000178916552535923348060000003783477203650946208_);fill-rule:evenodd;clip-rule:evenodd;fill:#E50B14;}			.st182{clip-path:url(#SVGID_00000178916552535923348060000003783477203650946208_);fill-rule:evenodd;clip-rule:evenodd;fill:#468AC7;}			.st183{clip-path:url(#SVGID_00000133511079591450993820000006934125768305398659_);fill:none;stroke:#1C1B1A;stroke-width:0.25;stroke-miterlimit:10;}			.st184{clip-path:url(#SVGID_00000133511079591450993820000006934125768305398659_);fill:none;stroke:#1C1B1A;stroke-width:0.25;stroke-miterlimit:10;stroke-dasharray:4.928,4.928;}			.st185{clip-path:url(#SVGID_00000133511079591450993820000006934125768305398659_);fill:none;stroke:#1C1B1A;stroke-width:0.25;stroke-miterlimit:10;stroke-dasharray:4.708,4.708;}			.st186{clip-path:url(#SVGID_00000133511079591450993820000006934125768305398659_);fill-rule:evenodd;clip-rule:evenodd;fill:#E50B14;}			.st187{clip-path:url(#SVGID_00000133511079591450993820000006934125768305398659_);fill-rule:evenodd;clip-rule:evenodd;fill:#468AC7;}			.st188{clip-path:url(#SVGID_00000137825433815841556910000013647148641830284721_);fill:none;stroke:#1C1B1A;stroke-width:0.25;stroke-miterlimit:10;}			.st189{clip-path:url(#SVGID_00000137825433815841556910000013647148641830284721_);fill:none;stroke:#1C1B1A;stroke-width:0.25;stroke-miterlimit:10;stroke-dasharray:4.928,4.928;}			.st190{clip-path:url(#SVGID_00000137825433815841556910000013647148641830284721_);fill:none;stroke:#1C1B1A;stroke-width:0.25;stroke-miterlimit:10;stroke-dasharray:4.708,4.708;}			.st191{clip-path:url(#SVGID_00000137825433815841556910000013647148641830284721_);fill-rule:evenodd;clip-rule:evenodd;fill:#E50B14;}			.st192{clip-path:url(#SVGID_00000137825433815841556910000013647148641830284721_);fill-rule:evenodd;clip-rule:evenodd;fill:#468AC7;}			.st193{clip-path:url(#SVGID_00000102542474268197368170000017214468721580524701_);fill:none;stroke:#1C1B1A;stroke-width:0.25;stroke-miterlimit:10;}			.st194{clip-path:url(#SVGID_00000102542474268197368170000017214468721580524701_);fill:none;stroke:#1C1B1A;stroke-width:0.25;stroke-miterlimit:10;stroke-dasharray:4.928,4.928;}			.st195{clip-path:url(#SVGID_00000102542474268197368170000017214468721580524701_);fill:none;stroke:#1C1B1A;stroke-width:0.25;stroke-miterlimit:10;stroke-dasharray:4.708,4.708;}			.st196{clip-path:url(#SVGID_00000102542474268197368170000017214468721580524701_);fill-rule:evenodd;clip-rule:evenodd;fill:#E50B14;}			.st197{clip-path:url(#SVGID_00000102542474268197368170000017214468721580524701_);fill-rule:evenodd;clip-rule:evenodd;fill:#468AC7;}			.st198{clip-path:url(#SVGID_00000102513797345199701530000014615516172439162272_);fill:none;stroke:#1C1B1A;stroke-width:0.25;stroke-miterlimit:10;}			.st199{clip-path:url(#SVGID_00000102513797345199701530000014615516172439162272_);fill:none;stroke:#1C1B1A;stroke-width:0.25;stroke-miterlimit:10;stroke-dasharray:4.928,4.928;}			.st200{clip-path:url(#SVGID_00000102513797345199701530000014615516172439162272_);fill:none;stroke:#1C1B1A;stroke-width:0.25;stroke-miterlimit:10;stroke-dasharray:4.708,4.708;}			.st201{clip-path:url(#SVGID_00000102513797345199701530000014615516172439162272_);fill-rule:evenodd;clip-rule:evenodd;fill:#E50B14;}			.st202{clip-path:url(#SVGID_00000102513797345199701530000014615516172439162272_);fill-rule:evenodd;clip-rule:evenodd;fill:#468AC7;}			.st203{clip-path:url(#SVGID_00000177481274363032675090000015592071448236181647_);fill:none;stroke:#1C1B1A;stroke-width:0.25;stroke-miterlimit:10;}			.st204{clip-path:url(#SVGID_00000177481274363032675090000015592071448236181647_);fill:none;stroke:#1C1B1A;stroke-width:0.25;stroke-miterlimit:10;stroke-dasharray:4.928,4.928;}			.st205{clip-path:url(#SVGID_00000177481274363032675090000015592071448236181647_);fill:none;stroke:#1C1B1A;stroke-width:0.25;stroke-miterlimit:10;stroke-dasharray:4.708,4.708;}			.st206{clip-path:url(#SVGID_00000177481274363032675090000015592071448236181647_);fill-rule:evenodd;clip-rule:evenodd;fill:#E50B14;}			.st207{clip-path:url(#SVGID_00000177481274363032675090000015592071448236181647_);fill-rule:evenodd;clip-rule:evenodd;fill:#468AC7;}			.st208{clip-path:url(#SVGID_00000089531980348310483240000009757164111781941422_);fill:none;stroke:#1C1B1A;stroke-width:0.25;stroke-miterlimit:10;}			.st209{clip-path:url(#SVGID_00000089531980348310483240000009757164111781941422_);fill:none;stroke:#1C1B1A;stroke-width:0.25;stroke-miterlimit:10;stroke-dasharray:4.928,4.928;}			.st210{clip-path:url(#SVGID_00000089531980348310483240000009757164111781941422_);fill:none;stroke:#1C1B1A;stroke-width:0.25;stroke-miterlimit:10;stroke-dasharray:4.708,4.708;}			.st211{clip-path:url(#SVGID_00000089531980348310483240000009757164111781941422_);fill-rule:evenodd;clip-rule:evenodd;fill:#E50B14;}			.st212{clip-path:url(#SVGID_00000089531980348310483240000009757164111781941422_);fill-rule:evenodd;clip-rule:evenodd;fill:#468AC7;}			.st213{clip-path:url(#SVGID_00000155830261952127445530000014508585969340237452_);fill:none;stroke:#1C1B1A;stroke-width:0.25;stroke-miterlimit:10;}			.st214{clip-path:url(#SVGID_00000155830261952127445530000014508585969340237452_);fill:none;stroke:#1C1B1A;stroke-width:0.25;stroke-miterlimit:10;stroke-dasharray:4.928,4.928;}			.st215{clip-path:url(#SVGID_00000155830261952127445530000014508585969340237452_);fill:none;stroke:#1C1B1A;stroke-width:0.25;stroke-miterlimit:10;stroke-dasharray:4.708,4.708;}			.st216{clip-path:url(#SVGID_00000155830261952127445530000014508585969340237452_);fill-rule:evenodd;clip-rule:evenodd;fill:#E50B14;}			.st217{clip-path:url(#SVGID_00000155830261952127445530000014508585969340237452_);fill-rule:evenodd;clip-rule:evenodd;fill:#468AC7;}			.st218{clip-path:url(#SVGID_00000176034914813162793820000001129162277039118982_);fill:none;stroke:#1C1B1A;stroke-width:0.25;stroke-miterlimit:10;}			.st219{clip-path:url(#SVGID_00000176034914813162793820000001129162277039118982_);fill:none;stroke:#1C1B1A;stroke-width:0.25;stroke-miterlimit:10;stroke-dasharray:4.928,4.928;}			.st220{clip-path:url(#SVGID_00000176034914813162793820000001129162277039118982_);fill:none;stroke:#1C1B1A;stroke-width:0.25;stroke-miterlimit:10;stroke-dasharray:4.708,4.708;}			.st221{clip-path:url(#SVGID_00000176034914813162793820000001129162277039118982_);fill-rule:evenodd;clip-rule:evenodd;fill:#E50B14;}			.st222{clip-path:url(#SVGID_00000176034914813162793820000001129162277039118982_);fill-rule:evenodd;clip-rule:evenodd;fill:#468AC7;}			.st223{clip-path:url(#SVGID_00000011006865093691394020000002610385391340715147_);fill:none;stroke:#1C1B1A;stroke-width:0.25;stroke-miterlimit:10;}			.st224{clip-path:url(#SVGID_00000011006865093691394020000002610385391340715147_);fill:none;stroke:#1C1B1A;stroke-width:0.25;stroke-miterlimit:10;stroke-dasharray:4.928,4.928;}			.st225{clip-path:url(#SVGID_00000011006865093691394020000002610385391340715147_);fill:none;stroke:#1C1B1A;stroke-width:0.25;stroke-miterlimit:10;stroke-dasharray:4.708,4.708;}			.st226{clip-path:url(#SVGID_00000011006865093691394020000002610385391340715147_);fill-rule:evenodd;clip-rule:evenodd;fill:#E50B14;}			.st227{clip-path:url(#SVGID_00000011006865093691394020000002610385391340715147_);fill-rule:evenodd;clip-rule:evenodd;fill:#468AC7;}			.st228{clip-path:url(#SVGID_00000075864688495424988590000008161682083105714329_);fill:none;stroke:#1C1B1A;stroke-width:0.25;stroke-miterlimit:10;}			.st229{clip-path:url(#SVGID_00000075864688495424988590000008161682083105714329_);fill:none;stroke:#1C1B1A;stroke-width:0.25;stroke-miterlimit:10;stroke-dasharray:4.928,4.928;}			.st230{clip-path:url(#SVGID_00000075864688495424988590000008161682083105714329_);fill:none;stroke:#1C1B1A;stroke-width:0.25;stroke-miterlimit:10;stroke-dasharray:4.708,4.708;}			.st231{clip-path:url(#SVGID_00000075864688495424988590000008161682083105714329_);fill-rule:evenodd;clip-rule:evenodd;fill:#468AC7;}	.st232{clip-path:url(#SVGID_00000075864688495424988590000008161682083105714329_);}			.st233{clip-path:url(#SVGID_00000093875400936020358420000014752883814320347062_);fill-rule:evenodd;clip-rule:evenodd;fill:#468AC7;}	.st234{clip-path:url(#SVGID_00000093875400936020358420000014752883814320347062_);fill:#468AC7;}	.st235{clip-path:url(#SVGID_00000093875400936020358420000014752883814320347062_);fill:#195489;}			.st236{clip-path:url(#SVGID_00000093875400936020358420000014752883814320347062_);fill:none;stroke:#1C1B1A;stroke-width:0.25;stroke-miterlimit:10;}			.st237{clip-path:url(#SVGID_00000093875400936020358420000014752883814320347062_);fill:none;stroke:#1C1B1A;stroke-width:0.25;stroke-miterlimit:10;stroke-dasharray:4.928,4.928;}			.st238{clip-path:url(#SVGID_00000093875400936020358420000014752883814320347062_);fill:none;stroke:#1C1B1A;stroke-width:0.25;stroke-miterlimit:10;stroke-dasharray:4.708,4.708;}			.st239{clip-path:url(#SVGID_00000031926400851639177960000016483183881525595033_);fill:none;stroke:#1C1B1A;stroke-width:0.25;stroke-miterlimit:10;}			.st240{clip-path:url(#SVGID_00000031926400851639177960000016483183881525595033_);fill:none;stroke:#1C1B1A;stroke-width:0.25;stroke-miterlimit:10;stroke-dasharray:4.928,4.928;}			.st241{clip-path:url(#SVGID_00000031926400851639177960000016483183881525595033_);fill:none;stroke:#1C1B1A;stroke-width:0.25;stroke-miterlimit:10;stroke-dasharray:4.708,4.708;}			.st242{clip-path:url(#SVGID_00000031926400851639177960000016483183881525595033_);fill-rule:evenodd;clip-rule:evenodd;fill:#468AC7;}	.st243{clip-path:url(#SVGID_00000031926400851639177960000016483183881525595033_);}			.st244{clip-path:url(#SVGID_00000005265185203544310670000017683537307926254258_);fill-rule:evenodd;clip-rule:evenodd;fill:#468AC7;}	.st245{clip-path:url(#SVGID_00000005265185203544310670000017683537307926254258_);fill:#468AC7;}	.st246{clip-path:url(#SVGID_00000005265185203544310670000017683537307926254258_);fill:#E50B14;}			.st247{clip-path:url(#SVGID_00000005265185203544310670000017683537307926254258_);fill:none;stroke:#1C1B1A;stroke-width:0.25;stroke-miterlimit:10;}			.st248{clip-path:url(#SVGID_00000005265185203544310670000017683537307926254258_);fill:none;stroke:#1C1B1A;stroke-width:0.25;stroke-miterlimit:10;stroke-dasharray:4.928,4.928;}			.st249{clip-path:url(#SVGID_00000005265185203544310670000017683537307926254258_);fill:none;stroke:#1C1B1A;stroke-width:0.25;stroke-miterlimit:10;stroke-dasharray:4.708,4.708;}			.st250{clip-path:url(#SVGID_00000124875249198091253500000004075722151175413152_);fill:none;stroke:#1C1B1A;stroke-width:0.25;stroke-miterlimit:10;}			.st251{clip-path:url(#SVGID_00000124875249198091253500000004075722151175413152_);fill:none;stroke:#1C1B1A;stroke-width:0.25;stroke-miterlimit:10;stroke-dasharray:4.928,4.928;}			.st252{clip-path:url(#SVGID_00000124875249198091253500000004075722151175413152_);fill:none;stroke:#1C1B1A;stroke-width:0.25;stroke-miterlimit:10;stroke-dasharray:4.708,4.708;}			.st253{clip-path:url(#SVGID_00000124875249198091253500000004075722151175413152_);fill-rule:evenodd;clip-rule:evenodd;fill:#468AC7;}	.st254{clip-path:url(#SVGID_00000124875249198091253500000004075722151175413152_);}			.st255{clip-path:url(#SVGID_00000179621965983338359320000014449428285517851578_);fill-rule:evenodd;clip-rule:evenodd;fill:#468AC7;}	.st256{clip-path:url(#SVGID_00000179621965983338359320000014449428285517851578_);fill:#468AC7;}	.st257{clip-path:url(#SVGID_00000179621965983338359320000014449428285517851578_);fill:#F49200;}			.st258{clip-path:url(#SVGID_00000179621965983338359320000014449428285517851578_);fill:none;stroke:#1C1B1A;stroke-width:0.25;stroke-miterlimit:10;}			.st259{clip-path:url(#SVGID_00000179621965983338359320000014449428285517851578_);fill:none;stroke:#1C1B1A;stroke-width:0.25;stroke-miterlimit:10;stroke-dasharray:4.928,4.928;}			.st260{clip-path:url(#SVGID_00000179621965983338359320000014449428285517851578_);fill:none;stroke:#1C1B1A;stroke-width:0.25;stroke-miterlimit:10;stroke-dasharray:4.708,4.708;}</style><g>	<path class="st8" d="M21.9,43H37l-7.6-19.1L21.9,43z M42.9,58l-3.3-8.5H19.3L16,58H7.5l17.3-42.3h9.4L51.4,58H42.9z"></path></g><g>	<path class="st8" d="M58,52.5c-4.7-4.2-7.1-9.4-7.1-15.7c0-6.2,2.4-11.4,7.1-15.6c4.7-4.2,10.7-6.4,17.8-6.4  c8.6,0,16.4,3.9,20.5,10.1l-6.8,3.5c-2.5-4.2-7.7-6.8-13.7-6.8c-5.1,0-9.2,1.5-12.4,4.3c-3.1,2.8-4.7,6.5-4.7,10.9  c0,4.4,1.6,8,4.7,10.9c3.2,2.8,7.3,4.3,12.4,4.3c6,0,11.2-2.7,13.7-6.8l6.8,3.4c-2,3.1-4.8,5.6-8.5,7.4c-3.6,1.8-7.6,2.7-12,2.7  C68.7,58.8,62.7,56.7,58,52.5"></path></g><g>	<polygon class="st8" points="132.1,15.7 132.1,22.3 118.7,22.3 118.7,58 110.8,58 110.8,22.3 97.4,22.3 97.4,15.7  "></polygon></g><g>	<path class="st8" d="M155.6,40.4c-1-4.9-4.9-7.4-9.7-7.4c-5.4,0-9.3,2.8-10.3,7.4H155.6z M135.7,45.7c1.1,4.6,5.2,7.1,10.9,7.1  c3.9,0,6.8-1.3,8.8-3.8l6.1,3.1c-3.3,4.4-8.3,6.6-14.9,6.6c-5.5,0-10-1.5-13.4-4.5c-3.4-3-5.1-6.8-5.1-11.4c0-4.5,1.7-8.3,5-11.3  c3.3-3.1,7.7-4.6,12.9-4.6c5,0,9.1,1.6,12.2,4.7c3.2,3.1,4.8,6.9,4.8,11.3c0,0.7-0.1,1.6-0.3,2.7H135.7z"></path></g><g>	<path class="st8" d="M171.4,54.2c-3.4-3.1-5.1-6.8-5.1-11.3c0-4.5,1.7-8.3,5.1-11.3c3.5-3.1,7.8-4.6,12.9-4.6  c6.6,0,12.5,3,15.2,7.8l-6.3,3.3c-1.6-2.9-4.8-4.7-8.9-4.7c-3,0-5.5,0.9-7.6,2.7c-2,1.8-3,4.1-3,6.8c0,2.7,1,5,3,6.8  c2,1.8,4.6,2.7,7.6,2.7c4,0,7.4-1.8,9.1-4.7l6.3,3.2c-2.9,4.8-8.7,7.9-15.3,7.9C179.1,58.8,174.8,57.3,171.4,54.2"></path></g><g>	<path class="st8" d="M234.6,39.5V58h-7.3V40.1c0-4.5-2.9-7-7.6-7c-5.2,0-8.6,2.8-8.6,8.7V58h-7.3V15.7h7.3v16  c2.2-3.1,5.7-4.7,10.5-4.7C229.4,27,234.6,31.7,234.6,39.5"></path></g><g>	<path class="st7" d="M205,83.7l1.5,1.5l-1.3,1.2l-1.6-1.6c-1.2,0.8-2.5,1.2-4,1.2c-2,0-3.7-0.7-5.1-2.1c-1.4-1.4-2.1-3.1-2.1-5.1  c0-2,0.7-3.7,2.1-5.1c1.4-1.4,3.1-2.1,5.1-2.1c2,0,3.7,0.7,5.1,2.1c1.4,1.4,2.1,3.1,2.1,5.1C206.9,80.7,206.3,82.3,205,83.7z   M202.3,83.5l-2.8-2.8l1.3-1.1l2.9,2.9c0.9-1,1.4-2.2,1.4-3.7c0-1.5-0.5-2.8-1.6-3.9c-1-1.1-2.3-1.6-3.8-1.6  c-1.5,0-2.8,0.5-3.8,1.6c-1,1.1-1.6,2.3-1.6,3.9c0,1.5,0.5,2.8,1.6,3.9c1.1,1.1,2.3,1.6,3.8,1.6C200.6,84.2,201.5,84,202.3,83.5z"></path>	<path class="st7" d="M216.2,75.7h1.7v10h-1.7v-1.4c-0.7,1.1-1.8,1.7-3.2,1.7c-2.3,0-3.9-1.6-3.9-4.1v-6.1h1.7v6  c0,1.6,0.9,2.6,2.5,2.6c1.7,0,2.9-1.1,2.9-3.3V75.7z"></path>	<path class="st7" d="M228.8,75.7h1.7v10h-1.7V84c-0.9,1.3-2.1,2-3.8,2c-1.4,0-2.6-0.5-3.6-1.5c-1-1-1.5-2.3-1.5-3.7  s0.5-2.7,1.5-3.7c1-1,2.2-1.5,3.6-1.5c1.7,0,2.9,0.7,3.8,2V75.7z M227.8,83.3c0.7-0.7,1-1.5,1-2.6s-0.3-1.9-1-2.5  c-0.7-0.7-1.5-1-2.5-1c-1,0-1.8,0.3-2.5,1c-0.7,0.7-1,1.5-1,2.5s0.3,1.9,1,2.6c0.7,0.7,1.5,1,2.5,1C226.2,84.3,227.1,84,227.8,83.3  z M225.8,74.4c0-0.9,0-1.1,0.4-1.4c0,0,0.3-0.2,0.3-0.2c0.1-0.1,0.4-0.2,0.4-0.5c0-0.2-0.2-0.3-0.5-0.3c-0.4,0-0.8,0.1-0.9,0.6  l-1.1-0.5c0.4-0.9,1.2-1.3,2-1.3c0.9,0,1.7,0.5,1.7,1.5c0,0.8-0.4,1.2-0.7,1.4c-0.3,0.1-0.4,0.2-0.4,0.7H225.8z"></path>	<path class="st7" d="M242,79.6v6.1h-1.7v-6c0-1.6-0.9-2.6-2.5-2.6c-1.7,0-2.9,1.1-2.9,3.3v5.3h-1.7v-10h1.7v1.4  c0.7-1.1,1.8-1.7,3.2-1.7C240.4,75.5,242,77.1,242,79.6z"></path>	<path class="st7" d="M249.4,85.7V71.1h1.7v14.6H249.4z"></path>	<path class="st7" d="M260.7,75.7h1.9l-4.1,10.6c-0.9,2.3-2.4,3.5-4.4,3.4v-1.6c1.2,0.1,2.1-0.6,2.7-2l0.2-0.4l-4.4-10h1.9l3.4,7.8  L260.7,75.7z M260.3,71.7l-2,2.6h-1.7l1.6-2.6H260.3z"></path>	<path class="st7" d="M283.6,79.5v6.2h-1.7v-6.2c0-1.5-0.9-2.4-2.2-2.4c-1.5,0-2.5,1-2.5,3v5.6h-1.7v-6.2c0-1.5-0.8-2.4-2.1-2.4  c-1.5,0-2.6,1-2.6,3v5.6H269v-10h1.7v1.3c0.7-1.1,1.7-1.6,3-1.6c1.3,0,2.3,0.6,2.9,1.7c0.7-1.1,1.7-1.7,3.1-1.7  C282.1,75.5,283.6,77,283.6,79.5z"></path>	<path class="st7" d="M293,75.7h1.7v10H293v-1.4c-0.7,1.1-1.8,1.7-3.2,1.7c-2.3,0-3.9-1.6-3.9-4.1v-6.1h1.7v6c0,1.6,0.9,2.6,2.5,2.6  c1.7,0,2.9-1.1,2.9-3.3V75.7z"></path>	<path class="st7" d="M305.6,75.7h1.7v10h-1.7V84c-0.9,1.3-2.1,2-3.8,2c-1.4,0-2.6-0.5-3.6-1.5c-1-1-1.5-2.3-1.5-3.7  s0.5-2.7,1.5-3.7s2.2-1.5,3.6-1.5c1.7,0,2.9,0.7,3.8,2V75.7z M304.6,83.3c0.7-0.7,1-1.5,1-2.6s-0.3-1.9-1-2.5c-0.7-0.7-1.5-1-2.5-1  c-1,0-1.8,0.3-2.5,1c-0.7,0.7-1,1.5-1,2.5s0.3,1.9,1,2.6c0.7,0.7,1.5,1,2.5,1C303.1,84.3,303.9,84,304.6,83.3z"></path>	<path class="st7" d="M323.8,79.6v6.1h-1.7v-6c0-1.6-0.9-2.6-2.5-2.6c-1.7,0-2.9,1.1-2.9,3.3v5.3H315v-14h1.7v5.4  c0.7-1.1,1.8-1.7,3.2-1.7C322.3,75.5,323.8,77.1,323.8,79.6z"></path>	<path class="st7" d="M334.5,75.7h1.7v10h-1.7V84c-0.9,1.3-2.1,2-3.8,2c-1.4,0-2.6-0.5-3.6-1.5c-1-1-1.5-2.3-1.5-3.7  s0.5-2.7,1.5-3.7c1-1,2.2-1.5,3.6-1.5c1.7,0,2.9,0.7,3.8,2V75.7z M333.5,83.3c0.7-0.7,1-1.5,1-2.6s-0.3-1.9-1-2.5  c-0.7-0.7-1.5-1-2.5-1c-1,0-1.8,0.3-2.5,1c-0.7,0.7-1,1.5-1,2.5s0.3,1.9,1,2.6c0.7,0.7,1.5,1,2.5,1C332,84.3,332.8,84,333.5,83.3z   M333.3,74.4h-1.7l-2-2.6h2.1L333.3,74.4z"></path>	<path class="st7" d="M347.7,79.6v6.1H346v-6c0-1.6-0.9-2.6-2.5-2.6c-1.7,0-2.9,1.1-2.9,3.3v5.3h-1.7v-10h1.7v1.4  c0.7-1.1,1.8-1.7,3.2-1.7C346.2,75.5,347.7,77.1,347.7,79.6z"></path>	<path class="st7" d="M358.5,75.7h1.7v9.6c0,1.5-0.5,2.6-1.5,3.4c-1,0.8-2.2,1.2-3.6,1.2c-2.2,0-3.9-0.9-4.7-2.4l1.5-0.9  c0.5,1.1,1.6,1.7,3.3,1.7c2.1,0,3.3-1.2,3.3-3.1v-1.4c-0.9,1.3-2.1,2-3.8,2c-1.4,0-2.6-0.5-3.6-1.5c-1-1-1.5-2.2-1.5-3.7  c0-1.5,0.5-2.7,1.5-3.7c1-1,2.2-1.5,3.6-1.5c1.6,0,2.9,0.7,3.8,2V75.7z M357.4,78.2c-0.7-0.7-1.5-1-2.5-1c-1,0-1.9,0.3-2.5,1  c-0.7,0.7-1,1.5-1,2.5c0,1,0.3,1.9,1,2.5c0.7,0.7,1.5,1,2.5,1c1,0,1.9-0.3,2.5-1c0.7-0.7,1-1.5,1-2.5  C358.5,79.7,358.1,78.8,357.4,78.2z"></path></g><g>	<path class="st17" d="M270.4,15.3c4,0,7.4,1.4,10.2,4.1c2.8,2.7,4.1,6.1,4.1,10c0,4-1.4,7.3-4.1,10c-2.8,2.7-6.2,4.1-10.2,4.1H263  v13.8h-8.3v-42H270.4z M270.4,35.7c3.5,0,6.1-2.8,6.1-6.4c0-3.7-2.6-6.4-6.1-6.4H263v12.7H270.4z"></path>	<path class="st17" d="M294.1,54.2c-3-2.6-4.5-6.2-4.5-10.6V15.3h8.2v27.6c0,4.4,2.5,7.1,7.8,7.1s7.8-2.8,7.8-7.1V15.3h8.3v28.3  c0,4.4-1.5,8-4.5,10.6c-3,2.6-6.8,4-11.6,4C300.9,58.1,297.1,56.8,294.1,54.2z"></path>	<path class="st17" d="M351.9,57.3l-8.5-14.6h-6.3v14.6h-8.3v-42h16.8c3.9,0,7.2,1.4,9.9,4.1c2.7,2.7,4.1,6,4.1,9.8  c0,5.2-3.2,10-8.1,12.2l9.3,15.8H351.9z M337.2,23v12.4h8.5c3.1,0,5.7-2.8,5.7-6.2s-2.6-6.2-5.7-6.2H337.2z"></path>	<path class="st17" d="M369.3,51.8c-4.1-4.2-6.2-9.4-6.2-15.5s2-11.4,6.2-15.5c4.1-4.2,9.4-6.3,15.7-6.3c7.6,0,14.5,3.8,18.1,9.9  l-7.1,4.1c-2.1-3.8-6.1-6-10.9-6c-4.1,0-7.4,1.3-9.9,3.8c-2.5,2.6-3.7,5.9-3.7,10c0,4,1.3,7.3,3.7,9.9c2.5,2.6,5.8,3.8,9.9,3.8  c4.8,0,8.9-2.3,10.9-5.9l7.1,4.1c-3.6,6.1-10.4,9.9-18.1,9.9C378.7,58.1,373.5,56,369.3,51.8z"></path>	<path class="st17" d="M431.9,15.3h8.2v42h-8.2V39.9h-15.6v17.4H408v-42h8.3V32h15.6V15.3z"></path>	<path class="st17" d="M474.6,57.3l-2.5-7.6h-16.7l-2.5,7.6h-8.9l14.7-42h10.3l14.8,42H474.6z M458,42h11.5l-5.8-17.2L458,42z"></path>	<path class="st17" d="M484.4,47.7l7.1-4.1c1.6,4.3,4.9,6.4,9.7,6.4c4.6,0,6.7-1.9,6.7-4.4c0-1.5-0.7-2.6-2-3.4  c-1.3-0.8-3.7-1.7-7.1-2.7c-3.8-1.1-6.1-2-8.7-3.9c-2.6-1.9-4-4.8-4-8.6c0-3.8,1.3-6.8,4-9.1c2.7-2.3,6-3.4,9.8-3.4  c6.8,0,12.1,3.5,15,9.4l-7,4c-1.7-3.6-4.4-5.4-8-5.4c-3.4,0-5.5,1.7-5.5,4.2c0,1.3,0.5,2.4,1.6,3.2c1.1,0.8,3.2,1.7,6.4,2.6l2.9,1  c0.7,0.2,1.6,0.5,2.7,1c1.1,0.4,2,0.8,2.6,1.3c1.3,0.8,3.2,2.3,4,3.7c0.9,1.4,1.6,3.5,1.6,5.9c0,3.9-1.4,7-4.3,9.2  c-2.8,2.3-6.5,3.4-11,3.4C492.6,58.1,486.8,54.2,484.4,47.7z"></path>	<path class="st17" d="M529.4,49.4h17.7v7.9h-26v-42h25.7v7.9h-17.4v8.9h15.9v7.8h-15.9V49.4z"></path></g></svg>