<svg xmlns="http://www.w3.org/2000/svg" xmlns:xlink="http://www.w3.org/1999/xlink" id="Layer_1" x="0px" y="0px" viewBox="0 0 425.2 425.2" style="enable-background:new 0 0 425.2 425.2;" xml:space="preserve"><style type="text/css">	.st0{opacity:0.16;fill:url(#SVGID_1_);enable-background:new    ;}	.st1{fill:#F4F4FA;}	.st2{enable-background:new    ;}	.st3{fill:#BFBEED;}	.st4{clip-path:url(#SVGID_00000111912565894138900420000005388142704550414014_);enable-background:new    ;}	.st5{clip-path:url(#SVGID_00000162336179355935843500000002409594913233346484_);enable-background:new    ;}	.st6{fill:#3A2C99;}	.st7{fill:#231869;}	.st8{fill:#F9D5C3;}	.st9{fill:#6E4CB3;}	.st10{fill:#DADAF9;}	.st11{clip-path:url(#SVGID_00000045580197583156840470000011047644975641109383_);enable-background:new    ;}	.st12{fill:#7F89A6;}	.st13{fill:#FFBFA2;}	.st14{fill:#D3D3F5;}	.st15{fill:#302534;}	.st16{fill:#E3E2F2;}	.st17{fill:#19121B;}	.st18{fill:#3E3544;}	.st19{opacity:0.2;}	.st20{clip-path:url(#SVGID_00000135688872813755100470000013101648277967974552_);}	.st21{fill:#FE8786;}	.st22{clip-path:url(#SVGID_00000098899585924672600900000010920440766546184065_);enable-background:new    ;}	.st23{fill:#FF6661;}	.st24{clip-path:url(#SVGID_00000000909000391239984230000016344297441842752390_);enable-background:new    ;}	.st25{fill:#F3F2FC;}	.st26{fill:#FE4340;}	.st27{fill:#FFFFFF;}	.st28{fill:#F22B38;}	.st29{clip-path:url(#SVGID_00000111163941251779120000000014369991310697077943_);enable-background:new    ;}	.st30{fill:#FFB700;}	.st31{clip-path:url(#SVGID_00000006701187548179167630000009817880881864486047_);enable-background:new    ;}	.st32{fill:#FFDE38;}	.st33{clip-path:url(#SVGID_00000119078366740723376770000007642574141583811771_);enable-background:new    ;}	.st34{fill:#FFC400;}	.st35{fill:#262028;}</style><linearGradient id="SVGID_1_" gradientUnits="userSpaceOnUse" x1="40.6219" y1="215.8368" x2="401.4829" y2="215.8368" gradientTransform="matrix(1 0 0 -1 0 425.1024)">	<stop offset="0" style="stop-color:#159AFD"></stop>	<stop offset="1" style="stop-color:#159AFD"></stop></linearGradient><path class="st0" d="M114.2,81.5c-20.7,16.3-35.3,3.7-47.8,21c-39,53.8,10.4,74.2-12.5,82.5c-24.9,9-9.4,48.5,4.6,60 s24.5,18.3,4.5,30s-23.4,24.6-15.1,45.7s24.2,27.7,90,28.9s193.3-1.4,228.1-13.4s9.4-42.8,24-65.8s17.5-36.5-4.9-58.8 s-9.6-45.4-2.9-61.7c6.7-16.3,11.9-45.8-15.1-54.3c-27-8.4-58.4,25.2-71.9,8.1s-7.6-39.7-37.2-34c-29.6,5.7-39.6,49.8-65.4,47.4 C166.7,114.6,158.1,46.9,114.2,81.5z"></path><g>	<g>		<g>			<path class="st1" d="M114.5,84.2l3.4,2L114.5,84.2c0.7-0.6,1.5-1.2,2.3-1.6l88.4-51l7.8,4.5l-88.4,51c-0.8,0.5-1.5,1-2.3,1.6    c-1.5,1.3-2.8,2.9-3.9,4.7l-7.8-4.5C111.6,87.1,113,85.5,114.5,84.2z"></path>			<path class="st1" d="M124.5,87.1l-7.8-4.5c-5.1,2.9-9.1,10-9.1,15.8l7.8,4.5C115.4,97.1,119.4,90,124.5,87.1z"></path>			<g>				<g class="st2">					<g class="st2">						<g class="st2">							<path class="st3" d="M215.3,273.5l-1.8,2.5c5.1-2.9,9.1-10,9.1-15.8l-1.3,2.8C221.4,266.9,218.7,271.6,215.3,273.5z"></path>						</g>					</g>					<g>						<polygon class="st3" points="127,324.6 125.2,327 213.6,276 215.3,273.5       "></polygon>					</g>					<g class="st2">						<g class="st2">							<path class="st1" d="M120.9,322.2l-4.8,1.3c0.3,1.8,1.1,3.2,2.3,4l4-2.6C121.7,324.4,121.1,323.5,120.9,322.2z"></path>							<path class="st3" d="M122.4,324.9l-4,2.6c1.7,1.1,4.1,1.1,6.8-0.5l1.8-2.5C125.2,325.6,123.6,325.6,122.4,324.9z"></path>						</g>					</g>					<g class="st2">						<defs>							<path id="SVGID_00000000903017993910528730000005399732581394759087_" class="st2" d="M110.9,323.1l7.8,4.5        c-1.6-1-2.7-3-2.7-5.9l-7.8-4.5C108.2,320.2,109.2,322.2,110.9,323.1z"></path>						</defs>						<use xlink:href="#SVGID_00000000903017993910528730000005399732581394759087_" style="overflow:visible;fill:#BFBEED;"></use>						<clipPath id="SVGID_00000054230745018653214610000011290122547717117581_">							<use xlink:href="#SVGID_00000000903017993910528730000005399732581394759087_" style="overflow:visible;"></use>						</clipPath>						<g style="clip-path:url(#SVGID_00000054230745018653214610000011290122547717117581_);enable-background:new    ;">							<path class="st3" d="M116,321.8l-7.8-4.5c0,2.9,1,4.9,2.7,5.9l7.8,4.5C117,326.7,116,324.7,116,321.8z"></path>						</g>					</g>					<g>						<polygon class="st3" points="221.4,263 222.7,260.2 222.1,41.3 220.8,44.1       "></polygon>					</g>					<g class="st2">						<g class="st2">							<path class="st3" d="M220.8,44.1l1.3-2.8c0-0.9-0.1-1.7-0.3-2.5l-1.2,3.6C220.7,42.9,220.8,43.5,220.8,44.1z"></path>							<path class="st1" d="M220.6,42.4l1.2-3.6c-0.5-1.7-1.4-2.9-2.6-3.5l-0.3,4.8C219.7,40.5,220.3,41.3,220.6,42.4z"></path>							<path class="st1" d="M218.8,40.1l0.3-4.8c-1.1-0.6-2.6-0.6-4.2-0.1l1.1,4.8C217.1,39.7,218.1,39.7,218.8,40.1z"></path>							<path class="st1" d="M216.1,40l-1.1-4.8c-0.7,0.2-1.4,0.5-2.1,0.9l1.8,4.5C215.2,40.3,215.6,40.1,216.1,40z"></path>						</g>					</g>					<g class="st2">						<defs>							<path id="SVGID_00000168093433134063652870000012707673989239307191_" class="st2" d="M219.4,35.4l-7.8-4.5        c-1.7-1-4-0.8-6.5,0.6l7.8,4.5C215.4,34.6,217.7,34.5,219.4,35.4z"></path>						</defs>						<use xlink:href="#SVGID_00000168093433134063652870000012707673989239307191_" style="overflow:visible;fill:#F4F4FA;"></use>						<clipPath id="SVGID_00000022555461687782242710000011917759094313106334_">							<use xlink:href="#SVGID_00000168093433134063652870000012707673989239307191_" style="overflow:visible;"></use>						</clipPath>						<g style="clip-path:url(#SVGID_00000022555461687782242710000011917759094313106334_);enable-background:new    ;">							<path class="st1" d="M219.4,35.4l-7.8-4.5c-1-0.6-2.3-0.8-3.6-0.5l7.8,4.5C217.2,34.7,218.4,34.9,219.4,35.4z"></path>							<path class="st1" d="M215.8,34.9l-7.8-4.5c-0.9,0.2-1.9,0.6-2.9,1.1l7.8,4.5C213.9,35.5,214.9,35.1,215.8,34.9z"></path>						</g>					</g>					<path class="st1" d="M120.2,102.2l0.6,218.9c0,0.4,0,0.8,0.1,1.2l-4.8,1.3c-0.1-0.5-0.1-1.1-0.1-1.7l-0.6-218.9L120.2,102.2z"></path>					<g>						<polygon class="st3" points="115.4,102.9 107.6,98.4 108.2,317.3 116,321.8       "></polygon>					</g>					<g>						<polygon class="st1" points="214.7,40.6 212.9,36.1 124.5,87.1 126.3,91.7       "></polygon>					</g>					<g>						<path class="st1" d="M126.3,91.7c-3.4,1.9-6.1,6.7-6.1,10.5l0.6,218.9c0,3.9,2.8,5.4,6.1,3.5l88.4-51       c3.4-1.9,6.1-6.7,6.1-10.5l-0.6-218.9c0-3.9-2.8-5.4-6.1-3.5L126.3,91.7z"></path>					</g>					<g class="st2">						<g class="st2">							<path class="st1" d="M126.3,91.7l-1.8-4.5c-4,2.3-7.3,7.1-8.6,11.9l4.7,0.6C121.4,96.4,123.7,93.2,126.3,91.7z"></path>							<path class="st1" d="M120.6,99.6l-4.7-0.6c-0.3,1.3-0.5,2.6-0.5,3.9l4.8-0.7C120.2,101.3,120.3,100.5,120.6,99.6z"></path>						</g>					</g>					<g class="st2">						<g class="st2">							<path class="st1" d="M118.3,93.5l-7.8-4.5c-1.3,2.1-2.2,4.3-2.6,6.6l7.8,4.5C116.1,97.8,117.1,95.5,118.3,93.5z"></path>							<path class="st3" d="M115.7,100l-7.8-4.5c-0.2,1-0.3,1.9-0.3,2.9l7.8,4.5C115.4,102,115.5,101,115.7,100z"></path>						</g>					</g>				</g>			</g>			<g>				<path class="st6" d="M120.6,314.3c0,1.2,0.2,2.1,0.7,2.8c1,1.7,3.1,2,5.4,0.7c0,0,89.3-51.6,89.7-52c2.7-2.3,4.8-6.2,4.7-9.6     l-0.6-212.1c0-3.9-2.7-5.4-6.1-3.5l-88.4,51c-2.6,1.5-4.8,4.6-5.7,7.8c-0.2,0.6-0.3,1.1-0.3,1.7     C120,101.4,120.6,314.3,120.6,314.3z"></path>			</g>		</g>		<g>			<path class="st1" d="M152,89.3l37.6-21.7c2.1-1.2,4-3.7,5-6.4l4.1-12L143,81.3l4.1,7.3C148,90.2,149.9,90.5,152,89.3z"></path>			<g>				<g>					<g class="st2">						<g>							<path class="st1" d="M156.2,80.2c-0.1,2.6-2,5.7-4.3,7c-0.6,0.3-1.2,0.5-1.7,0.5c-0.5,0-0.8-0.2-1.1-0.4        c-0.4-0.4-0.7-1.2-0.7-2.1c0.1-2.6,2-5.7,4.3-7c0.6-0.3,1.2-0.5,1.7-0.5c0.2,0,0.5,0.1,0.7,0.1        C155.8,78.1,156.2,79,156.2,80.2z"></path>							<path class="st3" d="M155.7,79.9c-0.1,2.6-2,5.7-4.3,7c-0.6,0.3-1.2,0.5-1.7,0.5c-0.2,0-0.5-0.1-0.7-0.1        c-0.4-0.4-0.7-1.2-0.7-2.1c0.1-2.6,2-5.7,4.3-7c0.6-0.3,1.2-0.5,1.7-0.5c0.2,0,0.5,0.1,0.7,0.1        C155.5,78.2,155.8,78.9,155.7,79.9z"></path>							<path class="st6" d="M149.8,87c-0.2,0-0.3,0-0.5-0.1c-0.3-0.4-0.5-1-0.5-1.8c0.1-2.5,1.9-5.5,4.1-6.7        c0.5-0.3,1.1-0.4,1.5-0.4c0.2,0,0.3,0,0.5,0.1c0.3,0.4,0.5,1,0.5,1.8c-0.1,2.5-1.9,5.5-4.1,6.7C150.7,86.9,150.2,87,149.8,87        z"></path>							<g>								<path class="st6" d="M152.6,79.7c0,0.3-0.2,0.7-0.5,0.8c-0.3,0.1-0.5,0-0.5-0.3c0-0.3,0.2-0.7,0.5-0.8         C152.4,79.2,152.7,79.3,152.6,79.7z"></path>								<path class="st6" d="M151.4,80.4c0.1,0.2,0,0.6-0.2,0.9c-0.2,0.3-0.5,0.4-0.7,0.2c-0.1-0.2,0-0.6,0.2-0.9         C151,80.3,151.3,80.2,151.4,80.4z"></path>								<path class="st6" d="M150.4,81.7c0.2,0,0.3,0.3,0.2,0.7c-0.1,0.3-0.4,0.6-0.7,0.6c-0.2,0-0.3-0.3-0.2-0.7         C149.9,81.9,150.2,81.6,150.4,81.7z"></path>								<path class="st6" d="M149.8,83.2c0.3-0.1,0.5,0,0.5,0.3c0,0.3-0.2,0.7-0.5,0.8c-0.3,0.1-0.5,0-0.5-0.3         C149.3,83.7,149.6,83.3,149.8,83.2z"></path>								<path class="st6" d="M149.9,84.5c0.2-0.3,0.5-0.4,0.7-0.2c0.1,0.2,0,0.6-0.2,0.9c-0.2,0.3-0.5,0.4-0.7,0.2         C149.5,85.2,149.6,84.8,149.9,84.5z"></path>								<path class="st6" d="M150.5,85.3c0.1-0.3,0.4-0.6,0.7-0.6c0.2,0,0.3,0.3,0.2,0.7c-0.1,0.3-0.4,0.6-0.7,0.6         C150.4,86,150.3,85.7,150.5,85.3z"></path>								<path class="st6" d="M151.5,85.4c0-0.3,0.2-0.7,0.5-0.8c0.3-0.1,0.5,0,0.5,0.3c0,0.3-0.2,0.7-0.5,0.8         C151.7,85.8,151.5,85.7,151.5,85.4z"></path>								<path class="st6" d="M152.7,84.6c-0.1-0.2,0-0.6,0.2-0.9c0.2-0.3,0.5-0.4,0.7-0.2c0.1,0.2,0,0.6-0.2,0.9         C153.2,84.8,152.9,84.8,152.7,84.6z"></path>								<path class="st6" d="M153.8,83.4c-0.2,0-0.3-0.3-0.2-0.7c0.1-0.3,0.4-0.6,0.7-0.6c0.2,0,0.3,0.3,0.2,0.7         C154.3,83.1,154,83.4,153.8,83.4z"></path>								<path class="st6" d="M154.3,81.8c-0.3,0.1-0.5,0-0.5-0.3c0-0.3,0.2-0.7,0.5-0.8c0.3-0.1,0.5,0,0.5,0.3         C154.8,81.3,154.6,81.7,154.3,81.8z"></path>								<path class="st6" d="M154.3,80.5c-0.2,0.3-0.5,0.4-0.7,0.2c-0.1-0.2,0-0.6,0.2-0.9c0.2-0.3,0.5-0.4,0.7-0.2         C154.6,79.8,154.6,80.2,154.3,80.5z"></path>								<path class="st6" d="M153.7,79.7c-0.1,0.3-0.4,0.6-0.7,0.6c-0.2,0-0.3-0.3-0.2-0.7c0.1-0.3,0.4-0.6,0.7-0.6         C153.8,79.1,153.8,79.4,153.7,79.7z"></path>								<path class="st6" d="M153.2,81.9c0,0.7-0.6,1.6-1.2,1.9c-0.6,0.3-1.1,0-1.1-0.7c0-0.7,0.6-1.6,1.2-1.9         C152.8,80.8,153.3,81.2,153.2,81.9z"></path>							</g>						</g>					</g>				</g>			</g>			<g>				<g>					<g class="st2">						<g>							<path class="st1" d="M168.4,73.1c-0.1,2.6-2,5.7-4.3,7c-0.6,0.3-1.2,0.5-1.7,0.5c-0.5,0-0.8-0.2-1.1-0.4        c-0.4-0.4-0.7-1.2-0.7-2.1c0.1-2.6,2-5.7,4.3-7c0.6-0.3,1.2-0.5,1.7-0.5c0.2,0,0.5,0.1,0.7,0.1        C168.1,71,168.5,71.8,168.4,73.1z"></path>							<path class="st3" d="M168,72.8c-0.1,2.6-2,5.7-4.3,7c-0.6,0.3-1.2,0.5-1.7,0.5c-0.2,0-0.5-0.1-0.7-0.1        c-0.4-0.4-0.7-1.2-0.7-2.1c0.1-2.6,2-5.7,4.3-7c0.6-0.3,1.2-0.5,1.7-0.5c0.2,0,0.5,0.1,0.7,0.1C167.8,71.1,168,71.8,168,72.8        z"></path>							<path class="st6" d="M162,79.9c-0.2,0-0.3,0-0.5-0.1c-0.3-0.4-0.5-1-0.5-1.8c0.1-2.5,1.9-5.5,4.1-6.7        c0.5-0.3,1.1-0.4,1.5-0.4c0.2,0,0.3,0,0.5,0.1c0.3,0.4,0.5,1,0.5,1.8c-0.1,2.5-1.9,5.5-4.1,6.7C163,79.7,162.5,79.9,162,79.9        z"></path>							<g>								<path class="st6" d="M164.9,72.5c0,0.3-0.2,0.7-0.5,0.8c-0.3,0.1-0.5,0-0.5-0.3c0-0.3,0.2-0.7,0.5-0.8         C164.7,72.1,164.9,72.2,164.9,72.5z"></path>								<path class="st6" d="M163.7,73.2c0.1,0.2,0,0.6-0.2,0.9c-0.2,0.3-0.5,0.4-0.7,0.2c-0.1-0.2,0-0.6,0.2-0.9         C163.3,73.1,163.6,73,163.7,73.2z"></path>								<path class="st6" d="M162.7,74.5c0.2,0,0.3,0.3,0.2,0.7c-0.1,0.3-0.4,0.6-0.7,0.6c-0.2,0-0.3-0.3-0.2-0.7         C162.1,74.8,162.4,74.5,162.7,74.5z"></path>								<path class="st6" d="M162.1,76.1c0.3-0.1,0.5,0,0.5,0.3c0,0.3-0.2,0.7-0.5,0.8s-0.5,0-0.5-0.3         C161.6,76.6,161.8,76.2,162.1,76.1z"></path>								<path class="st6" d="M162.1,77.4c0.2-0.3,0.5-0.4,0.7-0.2c0.1,0.2,0,0.6-0.2,0.9c-0.2,0.3-0.5,0.4-0.7,0.2         C161.8,78.1,161.9,77.7,162.1,77.4z"></path>								<path class="st6" d="M162.7,78.2c0.1-0.3,0.4-0.6,0.7-0.6c0.2,0,0.3,0.3,0.2,0.7c-0.1,0.3-0.4,0.6-0.7,0.6         C162.7,78.8,162.6,78.5,162.7,78.2z"></path>								<path class="st6" d="M163.8,78.2c0-0.3,0.2-0.7,0.5-0.8c0.3-0.1,0.5,0,0.5,0.3c0,0.3-0.2,0.7-0.5,0.8         C164,78.7,163.8,78.5,163.8,78.2z"></path>								<path class="st6" d="M165,77.5c-0.1-0.2,0-0.6,0.2-0.9c0.2-0.3,0.5-0.4,0.7-0.2c0.1,0.2,0,0.6-0.2,0.9         C165.4,77.6,165.1,77.7,165,77.5z"></path>								<path class="st6" d="M166,76.2c-0.2,0-0.3-0.3-0.2-0.7c0.1-0.3,0.4-0.6,0.7-0.6c0.2,0,0.3,0.3,0.2,0.7         C166.6,76,166.3,76.2,166,76.2z"></path>								<path class="st6" d="M166.6,74.7c-0.3,0.1-0.5,0-0.5-0.3c0-0.3,0.2-0.7,0.5-0.8c0.3-0.1,0.5,0,0.5,0.3         C167.1,74.2,166.9,74.6,166.6,74.7z"></path>								<path class="st6" d="M166.6,73.4c-0.2,0.3-0.5,0.4-0.7,0.2c-0.1-0.2,0-0.6,0.2-0.9c0.2-0.3,0.5-0.4,0.7-0.2         C166.9,72.7,166.8,73.1,166.6,73.4z"></path>								<path class="st6" d="M166,72.6c-0.1,0.3-0.4,0.6-0.7,0.6c-0.2,0-0.3-0.3-0.2-0.7c0.1-0.3,0.4-0.6,0.7-0.6         C166,71.9,166.1,72.2,166,72.6z"></path>								<path class="st6" d="M165.5,74.7c0,0.7-0.6,1.6-1.2,1.9c-0.6,0.3-1.1,0-1.1-0.7c0-0.7,0.6-1.6,1.2-1.9         C165,73.7,165.5,74,165.5,74.7z"></path>							</g>						</g>					</g>				</g>			</g>			<path class="st7" d="M174.5,71l4.7-2.7c0.9-0.5,1.6-1.7,1.6-2.7c0-1-0.7-1.4-1.6-0.9l-4.7,2.7c-0.9,0.5-1.6,1.7-1.6,2.7    C172.9,71.1,173.6,71.5,174.5,71z"></path>		</g>	</g>	<g>		<g id="man_56_">			<path class="st8" d="M234.9,239.7c0.2-0.1,0.4-0.1,0.6,0c0.2,0.1,0.3,0.2,0.5,0.3c1.4,1.2,2.9,2.8,4.1,4.2l-0.1-0.1    c0.2,0.2,0.3,0.4,0.5,0.6c0,0,0.1,0.1,0.1,0.1c0.6,0.1,1.1,0.3,1.5,0.7c0.3,0.3,0.4,0.6,0.5,1c0.2,0.6,0.3,2.4,0.3,3    c0,0.2-0.4,0.6-0.6,0.7c0,0,0,0-0.1-0.1l0,0.1c-0.4,0.3-0.8,0.7-1,1.2c-0.2,0.4-0.6,0.3-1.1,0.4c-1.6-2-3.7-3-4.9-5.3    c-0.2-0.3-0.3-0.6-0.2-0.9c0.1-0.3,0.4-0.6,0.7-0.5c-0.1-0.3-0.1-0.6,0.2-0.9c0.2-0.2,0.6-0.3,0.9-0.1c-0.1-0.3,0.1-0.6,0.4-0.7    c0.1-0.1,0.3-0.1,0.4-0.1c-0.8-0.7-1.5-1.5-2.2-2.4c-0.2-0.3-0.6-0.7-0.6-1.1C234.7,239.9,234.8,239.8,234.9,239.7z"></path>			<g id="man_57_">				<g>					<g>						<g>							<path class="st3" d="M282.7,352.1c-0.1-0.4-0.3-0.5-1-0.6c-0.8-0.1-1.5-0.1-2.3-0.1c-1-0.1-2-0.1-3.1-0.2        c0.1-0.8,0.1-1.7,0.2-2.5c-1.1,0.2-1.7-0.1-2.7-0.5c-1.2-0.5-2.5-0.9-3.7-1.2c-0.5-0.2-1.1-0.3-1.6-0.2        c-1.4,0.3-2.1,2.6-1.9,3.7c0.1,0.8,0.7,1.6,1.4,2.1c1,0.8,2.4,1.4,3.7,1.6c1.4,0.2,2.6,0.6,3.7,1.5c1.4,1.1,2.4,2.3,4.3,2.4        c1.9,0.1,3.4-1,3.5-3c0-0.7-0.1-1.4-0.2-2.1C282.8,352.7,282.7,352.3,282.7,352.1z"></path>							<path class="st3" d="M273.1,355.5c0-0.1,0-0.3,0-0.4c0.1-1.5-0.5-2.8-1-4.2c-0.2-0.5-0.4-1.1-0.9-1.4c-1-0.8-2.6-0.1-3.3,1        c-0.3,0.5-0.5,1.1-0.7,1.6c-0.5,1-1.5,2.2-2.8,2.3c-1.7,0.1-3.5-0.5-5.2-0.6c-0.7,0-1.3-0.1-1.9,0.2        c-1.4,0.6-1.8,2.9-1.3,4.2c0.3,0.8,1,1.4,1.8,1.7c1.2,0.6,2.7,0.9,4,0.8c1.4-0.1,2.7,0,3.9,0.6c2.2,1,4.7,2.5,6.8,0.5        c0.6-0.5,0.9-1.3,0.9-2.1C273.6,358.2,273.1,356.9,273.1,355.5z"></path>						</g>					</g>				</g>			</g>			<path class="st7" d="M279.4,291.9c-1,1.1-5-0.8-5-1.3c-4.8-3.5-3.8,10.9-2.4,16.6c0.8,3.1,0.7,6.3,1.2,9.4    c0.6,3.5,1.4,6.9,2.5,10.3c0.2,0.7,0.5,1.5,1,2c1.1,1.1,2.9,1,4.5,0.7c1.3-0.3,2.8-0.7,3.5-1.9c0.4-0.7,0.4-1.6,0.3-2.5    c-0.1-2.2-0.1-4.5,0.3-6.7c0.4-2.3,0.8-4.7,1.2-7c0.4-2,0.7-4.1,0.9-6.2c0.3-3.7-0.1-7.5-0.8-11.2c-0.3-1.9,0.2-5.6-2.6-5.9    C281.4,288.1,280,291.2,279.4,291.9z"></path>			<path class="st9" d="M274.2,324.1l-0.8-3.2C273.8,321.9,274,323,274.2,324.1z"></path>			<path class="st7" d="M276.1,325.7c0.8-1.1,2.8-1.1,3.4-0.8c0.5,0.2,4.3-2,5.3-2.9c-0.1,0.1,0.1,1,0.1,1.1c0,0.4,0.1,0.8,0.1,1.2    c0.1,0.8,0.1,1.5,0.2,2.3c0.1,1.5,0.2,3,0.2,4.5c0,10.8-2,20.1-2.2,21.2c-0.1,0.5-0.2,1.1-0.6,1.5c-0.5,0.6-1.9,1.2-4,0.9    c-1.3-0.2-2.4-1.1-2.9-2.4c-0.4-1.1-0.3-2.3-0.2-3.5c0.3-4.6,0.6-9.3,0.5-13.9c-0.1-3.7-0.4-7.5-1.2-11.2L276.1,325.7z"></path>			<path class="st6" d="M263.2,302.3c-0.2,4.5-0.2,9.1,0.2,13.6c0.2,2.7,0.6,5.5,1,8.2c0.2,1.4,0.5,2.7,0.7,4    c0.3,1.3,0.5,1.7,1.6,2.4c2.3,1.5,6.4,1.4,8.2-1.1c1.9-2.8,1.2-7.2,1.9-10.3c0.9-4.6,4.1-7.9,5.6-12.2c0.5-1.6,0.8-3.1,0.9-4.6    H263.2z"></path>			<g>				<g>					<g>						<g>							<g>								<g>									<path class="st10" d="M288,280.7c0.1-0.8,0.2-1.6,0.4-2.4c0.7-3.9,1.8-7.6,2.3-11.5c0.4-3,0.6-6.8-1.7-9.1          c-0.4-0.4-0.8-0.7-1.3-1c-4.7-2.6-9.1,0.6-13.5,2.1c-2.9,1-5.6,2.4-8.2,4c-0.9,0.6-1.8,1-2.4,1.9c-0.6,0.9-1,2-1,3.1          c-0.1,1.3,0.2,2.6,0.4,3.9c1.3,7.4,1.8,15,0.9,22.5c-0.4,3.2-0.8,12-0.8,12c1.1,0.5,1.8,0.9,7,1          c10.7,0.2,16.7-2.5,17.3-3.1c0.6-0.6,0.4-1.9,0.4-2.7c0.1-2.3,0-4.7,0-7C287.6,289.9,287.4,285.3,288,280.7z"></path>								</g>							</g>						</g>					</g>				</g>			</g>			<path class="st6" d="M265.2,330.3c0.1,2.4,0.3,4.7,0.4,7.1c0.1,1.9,0.2,3.7,0.2,5.6c0,1.4,0.1,2.9,0.1,4.3    c0.1,7.9-0.8,9.6,2.9,10.7c0.8,0.2,1.7,0.3,2.6,0.2c2.4-0.5,2.9-2.6,3.3-5.3c0.2-1.5,0.3-3.3,0.4-4.8c0.1-1.3,0.1-2.5,0.2-3.8    c0.1-1.7,0.1-3.4,0.2-5.1c0.1-2.3,0.2-4.5,0.2-6.8c0.1-2.9,0.4-5.8,0.5-8.7c0-0.4-0.2-0.9-0.6-1.1c-0.4-0.3-9.2,2.7-10.1,3.6    C265.4,326.3,265.1,327.4,265.2,330.3z"></path>			<path class="st1" d="M264.7,261c-2.9-0.4-9.7-1.7-11.2-2.6c-3.9-2.4-8.1-7.2-9.8-9.5c-0.6-0.8-5.4,2.3-5.4,3    c0,0.6,3.8,6.4,4.4,7.3c3,4.4,5.9,6.8,6.9,7.4c2.7,1.5,13.2,5.8,13.9,6c1.9,0.4,5.2-1.4,6-2.8C274.3,261.2,265.8,261.2,264.7,261    z"></path>			<path class="st8" d="M273,255.1c-0.2-1.2-1-0.9-0.6-1.9c0.4-0.9,0.9-1.7,1.7-2.3c0.8-0.6,1.7-0.9,2.7-0.9c0.3,0,0.6,0.2,0.9,0.2    c0.9,0,1.8-0.2,2.7,0c0.9,0.1,1.7,0.2,1.7,1.2c0,1.4-0.1,2.7,0.4,4c0.2,0.7,0.6,1.4,0.6,2.1c0.1,1.5-1,2.8-2.3,3.5    c-1.6,0.8-3.5,0.7-5.2,0.5c-0.9-0.1-2.1-0.3-2.6-1.1c-0.4-0.6-0.2-1.4-0.1-2.1C273,257.1,273.1,256.1,273,255.1z"></path>			<g>				<g>					<g class="st2">						<g class="st2">							<defs>								<path id="SVGID_00000058561518537132078540000005384682830059970980_" class="st2" d="M274.9,237.7l3.8,2.2         c-0.3-0.2-0.6-0.1-1,0.1l-3.8-2.2C274.3,237.6,274.6,237.6,274.9,237.7z"></path>							</defs>							<use xlink:href="#SVGID_00000058561518537132078540000005384682830059970980_" style="overflow:visible;fill:#3A2C99;"></use>							<clipPath id="SVGID_00000142895754014227174580000002486594816304427425_">								<use xlink:href="#SVGID_00000058561518537132078540000005384682830059970980_" style="overflow:visible;"></use>							</clipPath>							<g style="clip-path:url(#SVGID_00000142895754014227174580000002486594816304427425_);enable-background:new    ;">								<path class="st12" d="M277.6,240l-3.8-2.2c0.4-0.2,0.8-0.3,1-0.1l3.8,2.2C278.4,239.8,278.1,239.8,277.6,240z"></path>							</g>						</g>					</g>				</g>				<g>					<g>						<path class="st8" d="M269.1,240.3c-0.5,0.7-1,1.4-1.1,2.3c-0.3,2,0.5,4,0.1,5.9c-0.4,1.9,0.4,6.2,4.1,7.3       c1.9,0.6,5.6-0.1,6.8-0.7c1.6-0.8,2.7-2.3,3.6-3.8C290.3,239,274.3,233.9,269.1,240.3z"></path>					</g>				</g>				<path class="st6" d="M286.1,245.8c-0.1,0.4-0.1,0.7-0.2,1.1c-0.1,0.3-0.1,0.5-0.2,0.8c-0.1,0.2-0.2,0.5-0.3,0.7     c-0.4,0.8-0.9,1.6-1.4,2.3c-0.7,1-1.5,2.1-2.6,2.6c-0.5,0.2-1,0.4-1.6,0.5c-1.5,0.3-3.6,0.4-4.8-0.8c-0.5-0.5-0.7-1.3-0.8-2     c-0.1-0.7-0.1-1.3-0.3-2c0-0.2-0.1-0.3-0.1-0.5c-0.1-0.3-0.2-0.5-0.3-0.8c-0.2-0.4-0.6-0.8-1-0.9c-0.8-0.2-1.7,0.2-2.4-0.2     c-0.3-0.2-0.5-0.6-0.7-1c-0.2-0.4-0.3-0.8-0.4-1.2c-0.2-0.5-0.4-1.1-0.8-1.5c-0.2-0.2-0.4-0.4-0.5-0.7c-0.2-0.3-0.4-0.7-0.4-1.1     c-0.1-1.8,1.4-3.6,2.7-4.7c0.7-0.6,1.4-1.2,2.3-1.5c0.7-0.3,1.5-0.5,2.3-0.6c2.3-0.3,4.9-0.3,6.9,0.9c0.5,0.3,1.1,0.7,1.3,1.3     c0.1,0.1,0.1,0.3,0.2,0.4c0.1,0.1,0.3,0.2,0.5,0.3c0.6,0.3,1,0.6,1.4,1C286.7,239.8,286.4,243.2,286.1,245.8z"></path>				<path class="st8" d="M273.3,245.9c1.5-0.1,1.9,1.7,0.9,3.2c-0.3,0.4-0.8,0.8-1.2,1.1c-2.6,2.3-3.3-0.1-2.5-0.9     C272.4,247.4,271.4,246,273.3,245.9z"></path>				<path class="st13" d="M272.9,248.7c0.2-0.2,1.9-1.2,0.7-1.9c-0.3-0.2-0.7,0.1-0.7,0.4c0,0.2,0,0.4,0,0.5c0,0.1-0.1,0.2-0.1,0.3     c-0.1,0.2-0.7,0.5-0.6,0.9C272.3,249.3,272.8,248.8,272.9,248.7z"></path>			</g>		</g>		<g>			<path class="st8" d="M265,216.8c-0.2-0.1-0.3-0.3-0.3-0.5c0-0.3,0.4-0.4,0.6-0.4c0.4-0.1,0.8,0,1.1,0.2c0.5,0.2,0.9,0.5,1.4,0.6    c0.1,0,0.3,0.1,0.4,0c0.1,0,0.3-0.2,0.3-0.3c0-0.3-0.4-0.5-0.6-0.6c-0.3-0.2-0.6-0.4-0.9-0.6c-0.5-0.3-1.1-0.6-1.6-0.6    c-0.6-0.1-1.3,0-1.9,0c-0.1,0-0.3,0-0.4-0.1c-0.2-0.1-0.3-0.3-0.4-0.4c-0.1-0.2-0.2-0.4-0.3-0.6c0,0,0-0.1,0-0.1    c0,0,0.1-0.1,0.1-0.1c0.7-0.5,1.6-0.7,2.4-1c0.6-0.2,1.1-0.4,1.7-0.6c0.1,0,0.3-0.1,0.4-0.1c0.1,0,0.3,0.1,0.4,0.2    c0.4,0.2,0.8,0.3,1.2,0.5c1.5,0.6,2.7,1.6,3.8,2.7c0.8,0.7,1.6,1.4,2.3,2.1c0.6,0.6,0.2,1.7-0.3,2.2c-0.1,0.1-0.3,0.2-0.4,0.3    c-0.5,0.3-1.2,0.3-1.8,0.1c-0.3-0.1-1.7-0.6-2.1-0.7c-1.7-0.5-3.4-1.1-5-2C265.2,216.9,265.1,216.9,265,216.8z"></path>			<path class="st14" d="M297.8,220.4c4.5-2.9,6.2-7.6,4.6-9.2c-2.8-2.7-5.2-0.9-11.6,4.7c-0.1,0.1-0.3,0.2-0.4,0.4    c-1.6,1.3-3.1,2.7-4.5,4.1c-0.8,0.8-1.6,1.7-2.3,2.6c-0.2,0.2-0.3,0.4-0.5,0.7c-0.1,0.2-0.2,0.5-0.3,0.8    c-0.2,0.7-0.4,1.3-0.4,2.1c0,0.9,0.3,1.8,0.9,2.4c0.8,0.6,1.9,0.7,2.8,0.4c1.1-0.4,4.9-1.1,7.7-3.8    C295.7,223.7,292.1,224.2,297.8,220.4z"></path>			<path class="st14" d="M273.2,217.1c0.3-0.4,0.5-0.7,1-0.6c0.5,0.1,0.9,0.3,1.4,0.5c0.9,0.5,1.7,1.1,2.5,1.7    c1.1,0.8,2.2,1.4,3.3,2.1c0.8,0.5,1.6,1,2.4,1.6c1.4,1,4.6,3.4,3.1,5.5c-0.5,0.8-1.8,1.5-2.8,1.4c-0.8-0.1-1.7-1-2.2-1.4    c-1.4-1-2.7-2-4-3c-1.6-1.3-3.2-2.7-4.8-4c-0.7-0.5-1.1-0.6-0.9-1.5c0.2-0.8,0.6-1.5,1-2.1C273.2,217.2,273.2,217.2,273.2,217.1z    "></path>			<path class="st15" d="M317.7,214c0-0.9,0.1-1.8,0.1-2.7c0.1-1.9,0-3.7-0.3-5.6c-0.4-2.2-1.2-4.3-2.4-6.2    c-0.2-0.3-0.4-0.6-0.6-0.8c-0.6,0.1-1.4-0.1-2,0.2c-0.8,0.4-1.4,1.9-1.8,2.7c-1,2.2-1.3,4.7-0.8,7.1c0.2,0.9,0.6,1.6,0.9,2.4    c0.4,1,0.7,2,1.3,3c0.7,1.1,1.9,2.1,3.2,2.4c0.7,0.1,1.4,0,1.9-0.5C317.7,215.5,317.7,214.8,317.7,214    C317.7,214.1,317.7,214.1,317.7,214z"></path>			<g>				<path class="st13" d="M317.2,213.6c-2-0.9-5.7-2.7-7.7-4.1c-0.3-0.2-1.6,0.7-2,0.6c-2.6-0.5-5.4-0.4-7.8,0.6c0,0-0.1,0-0.1,0     v15.9h15.2L317.2,213.6z"></path>				<path class="st13" d="M311.5,212.4c0,0-9.5,4.8-9-0.5c0.6-7.3,1.1-8.2,4.4-9.1c0.9-0.3,1.3-1,2.2-1c3.4,0.1,2,1.9,1.8,3.2     C310.2,208.8,311.6,210.4,311.5,212.4z"></path>				<g>					<path class="st16" d="M302.9,209.6c0,0-0.1,0-0.1,0C303.2,209.5,303.4,209.5,302.9,209.6z"></path>					<path class="st1" d="M322.1,219.1c0,0.3,0,0.6,0,0.9c0,0.9-0.3,1.7-0.5,2.6c-0.2,1-0.7,1.9-1.3,2.8c-0.6,0.9-1,1.9-1.6,2.8      c-0.6,0.9-0.9,1.9-1.3,2.9c-1,2.2-1.9,4.5-2.3,7c-0.3,2-0.3,3.9-0.2,5.9c0.1,0.9,0.2,1.9,0.2,2.8c0,0.3,0,0.7,0,0.9      c-0.1,0.3-0.2,0.5-0.6,0.7c-1.7,1.3-3.7,2.1-5.8,2.4c-2.2,0.4-4.7,0.2-6.8-0.1c-0.6-0.1-1.2-0.2-1.8-0.4      c-2.6-0.6-4.5-1.4-4.8-1.6c-0.5-0.4-0.3-0.3,0.1-3.7c1.6-14.1-4.6-14.3-2.1-21.7c0.4-1.3,1.3-2.4,1.8-3.7      c1.9-4.6,0.7-9.8,7.8-10c-0.4,0.1-4.5,7,0.4,9c3.2,1.3,9.5-2.2,10.9-6.5c2.1,1,4,1.6,5.7,2.9      C321.3,216.1,322,217.4,322.1,219.1z"></path>				</g>				<g>					<path class="st17" d="M309.1,313c-0.2,0.4-0.4,0.8-0.6,1.3c-0.6,1.6-1.1,3.1-1.7,4.7c-0.5,1.4-0.6,2.9-0.8,4.3      c-0.1,1.1-0.6,2.5,0.2,3.5c0.8,0.9,2.2,1.2,3.4,0.7c1.2-0.4,2-1.4,2.6-2.5c0.7-1.3,0.8-2.7,1-4.1c0.2-1.6,0.5-3.2,0.7-4.8      c0.1-0.6,0.2-1.3,0-1.9c-0.4-1.7-3.4-2.9-4.7-1.5C309.3,312.8,309.2,312.9,309.1,313z"></path>					<path class="st17" d="M296.3,316.2c0-0.8,0.4-1.6,0.8-2.3c0.8-1.1,1.8-1.9,2.6-2.9c0.4-0.5,0.7-1,1-1.6c0.3-0.6,1-1.1,1.4-1.6      c0.1-0.1,0.1-0.2,0.2-0.2c0.7-0.8,1.7-1.4,2.8-1.7c0.9-0.2,2.3-0.3,2.9,0.5c0.9,1.1,0.7,2.3,0.4,3.5c-0.4,1.3-1.5,1.7-2.4,2.6      c-0.5,0.5-0.8,1-1.2,1.4c-0.6,0.6-1.2,1.2-1.7,1.8c-0.8,0.8-1.7,1.6-2.8,2.1C298.7,318.5,296.4,318.4,296.3,316.2      C296.3,316.3,296.3,316.2,296.3,316.2z"></path>					<path class="st13" d="M292.7,283.4c0.8,1.9,6.6,16.2,7.9,20.8c0.6,2.1,1.2,4.8-0.3,6.6c-0.3,0.4-0.7,0.8-0.9,1.3      c-0.2,0.5-0.2,1.1,0.2,1.5c0.3,0.3,0.9,0.4,1.3,0.2c0.4-0.2,0.8-0.5,1.2-0.8c1.1-1,2.2-1.9,3.1-3c0.5-0.6,1-1.3,1.4-2.1      c0.4-0.8,0.7-1.4,0.3-2.1c-0.8-1.6-1.2-3.6-1.3-5.4c-0.1-1.2-0.1-2.3-0.1-3.5c0-1.1,0.2-2.2,0.1-3.2c-0.1-2.2-0.2-4.3-0.8-6.4      c-0.4-1.4-1-2.7-1.9-3.8c-0.9-1.2-2.2-1.9-3.2-2.9c-0.6-0.6-1.4-1.2-2.3-1.1L292.7,283.4z"></path>					<path class="st8" d="M318,259c0-2.7-0.1-4.2-0.5-6.9c-0.2-1.7-1.6-6.4-1.6-6.4s-7,3-9.3,3.2c-2.7,0.3-3.8,0.3-5.9-0.1      c-1-0.2-1-0.1-1,0.8c0,1.3,0.5,2.9,0.8,4.2c1,5.1,2.5,10.3,3.3,15.4c0.7,4.2,0.5,8.7,1,12.9c0.2,1.8,1.2,3.6,2,5.2      c1,1.8,1.9,2.8,3.7,2.6c0.8-0.1,2.2-1,2.6-1.7c0.3-0.4,0.3-1.3,0.5-1.8c0.5-1.5,0.9-3,1.2-4.5c0.1-0.3,0.1-0.6,0.2-0.9      c0,0,0-0.1,0-0.1c0.8-4,1.2-8.2,1.9-12.2C317.5,265.6,318.1,262.3,318,259z"></path>					<path class="st8" d="M304.4,279.4c0.4,5,2.4,8.6,3.2,13.6c0.9,5.4,1,11,1.1,16.5c0,2.3,0.2,4.9-0.2,7.2      c-0.2,1.4-1.5,3.8-0.4,5.1c0.4,0.5,1,0.7,1.7,0.8c0.5,0,1.1-0.1,1.5-0.4c0.8-0.5,0.9-1.9,1.2-2.8c1-3,1.5-6,2.3-9      c0.9-3.3,2.3-6.5,2.8-9.9c0.3-2,0.3-3.9,0.2-5.9c-0.1-3.9-1.4-9.3-3-12.8c-0.4-0.9-0.5,0.2-1.4,0L304.4,279.4z"></path>				</g>				<path class="st6" d="M291.1,279.4c-0.4,1.8-0.5,3.4,0.8,5.3c1.6,2.1,4.2,3.3,6.8,3.6c2.6,0.3,5.3-0.1,7.9-0.5     c3-0.5,5.9-1,8.9-1.4c0.7-0.1,1.4-0.3,1.9-0.8c0.5-0.6,0.5-1.4,0.4-2.2c-0.3-3.6-0.5-7.1-0.3-10.6c0.2-4.1,0.9-8.2,0.9-12.2     c0.2-3.8,0-7.8-1.4-11.4c-0.3-0.8-0.7-3.2-1.6-3.6c-1.3-0.6-3.8,1.2-5.1,1.6c-1.7,0.6-7.6,1.7-9,1.8c-2.7,0.1-3.2-2.1-6.6-2.1     c-0.9,0-1.5,6.7-1.6,7.6c-0.4,2.3-0.6,4.6-0.8,6.9c-0.1,2.1,0.2,4.1,0.1,6.2c0,3.2-0.3,6.5-0.8,9.6     C291.5,277.9,291.3,278.6,291.1,279.4z"></path>				<path class="st7" d="M294.8,246.8c0.4-1.2,0.7-2.3,0.7-2.3s4.3,3.8,10.1,3.4c5.5-0.4,9.5-3.6,9.4-3.9c0.4,0.5,0.7,1.1,1,1.6     C309.9,250.9,301.1,250.7,294.8,246.8z"></path>				<g>					<path class="st8" d="M308,207.8c0.3-0.2,0.5-0.4,0.8-0.6c0.1-0.1,0.2-0.2,0.3-0.3c0.9-0.9,1.5-2.1,2.2-3.1      c0.7-1.1,1.1-2.5,1.3-3.7c0.4-2.6-0.3-5.2-2.1-7.1c-2-2.1-5.3-3-8.1-2.2c-0.8,0.2-1.5,0.5-2.2,0.9c-0.6,0.3-1.2,0.7-1.7,1.2      c-0.3,0.3-0.5,0.7-0.8,1.1c-0.4,0.7-0.6,1.4-0.8,2.2c-0.1,0.4-0.1,0.9-0.1,1.3c0,0.8,0.1,1.5,0.2,2.3c0.1,0.6,0.2,1.3,0.2,1.9      c0,0.6-0.3,1.2-0.5,1.8c-0.1,0.4-0.3,0.9-0.2,1.3c0.1,0.4,0.6,0.7,0.8,1.1c0.2,0.4,0.3,0.7,0.3,1.2c0,0.3,0.1,0.5,0.2,0.7      c0.1,0.2,0,0.4,0.1,0.6c0,0.3,0.2,0.5,0.3,0.7c0.1,0.3,0.2,0.5,0.3,0.8c0.8,1.5,2.1,1.6,3.6,1c1.2-0.5,2.3-1.1,3.4-1.7      C306.3,208.8,307.2,208.4,308,207.8z"></path>					<path class="st18" d="M315.3,197.5c0-0.7-0.2-1.4-0.4-2.1c-0.2-0.7-0.5-1.3-0.9-1.9c-0.2-0.3-0.4-0.6-0.6-0.9      c-0.2-0.2-0.7-0.5-0.8-0.8c0,0-1.2-3.1-6.8-3.1c-2.1,0-4.2,0.8-6,1.9c-1.3,0.8-2,1.5-2.7,2.9c-0.6,1.4-0.9,2.9-0.9,4.4      c0,0.2,0,0.5,0.2,0.6c0.2,0.2,0.6,0.2,1,0.1c1.2-0.3,2.3-0.7,3.4-1.4c0.5-0.3,1.9-0.9,2.5-0.6c0.5,0.2,0.1,1.5,0.3,2.1      c0.2,0.7,0.7,1.4,1.3,1.8c0.6,0.4,1.2,0.6,1.8,0.9c0.6,0.3,1.2,0.8,1.3,1.5c0.2,0.7-0.1,1.6,0.6,2c0.7,0.4,2.8-1.2,2.7-1.1      c-0.5,0.8-0.4,0.7-0.6,2.1c2.3-1.4,4.1-3.9,4.5-6.6C315.4,198.8,315.4,198.2,315.3,197.5z"></path>					<path class="st8" d="M310.6,201.1c1.5-0.1,1.8,1.7,0.8,3.1c-0.3,0.4-0.8,0.8-1.2,1.1c-2.7,2.2-3.3-0.2-2.5-1      C309.7,202.7,308.7,201.3,310.6,201.1z"></path>					<path class="st13" d="M309.6,204.5c0.2-0.2,1.9-1.1,0.7-1.8c-0.3-0.2-0.7,0.1-0.7,0.4c0,0.2,0,0.4,0,0.5c0,0.1-0.1,0.2-0.1,0.3      c-0.2,0.2-0.7,0.5-0.6,0.8C309,205.1,309.5,204.6,309.6,204.5z"></path>				</g>			</g>			<path class="st8" d="M318.1,239.9c-0.1,0.1-0.3,0.3-0.5,0.4c-0.3,0.1-0.7,0.2-1,0.1c-0.4-0.1-0.7-0.5-1-0.8    c-0.5-0.5-0.9-1.1-1.5-1.6c-0.1-0.1-0.3-0.3-0.5-0.3c-0.2,0-0.3,0.2-0.3,0.3c0,0.1,0.1,0.6,0,0.6c-0.1,0-0.5-0.2-0.6-0.2    c-0.2-0.1-0.5-0.1-0.7-0.2c-0.5-0.1-1-0.2-1.5-0.3c-1-0.1-2-0.1-3,0c-0.1,0-0.2,0-0.3,0.1c-0.1,0-0.1,0.1-0.1,0.2    c0,0.1,0.1,0.2,0.2,0.2c0.7,0.4,1.4,0.4,2.2,0.6c0.3,0.1,0.6,0.2,0.9,0.3c0.4,0.1,0.8,0.3,1.2,0.4c-1.2-0.3-2.5-0.4-3.7-0.4    c-0.3,0-0.9,0-1,0.3c-0.2,0.3,0.3,0.6,0.6,0.6c0.7,0.2,1.4,0.5,2,0.7c-0.7-0.3-1.6-0.3-2.4-0.3c-0.4,0-0.7,0-0.6,0.5    c0.1,0.3,0.3,0.6,0.6,0.6c0.5,0.1,0.9,0.1,1.4,0.3c0.7,0.1,1.3,0.3,1.9,0.6c-0.5,0-1.1,0.1-1.6,0.2c-0.4,0.1-0.9,0.4-1.1,0.8    c-0.2,0.3-0.2,0.8,0.2,0.8c0.4,0,0.8,0,1.3,0c0.9,0,1.8-0.2,2.6,0c1.3,0.2,2.4,0.9,3.7,1.1c1.2,0.2,2.3-0.2,3.3-0.7    c1-0.5,1.7-1.3,2.6-1.9c0.5-0.3,1.1-0.5,1.6-1c0.5-0.5,1-1,1.4-1.6c0.2-0.3,0.5-0.6,0.5-0.9c0-0.5-0.3-0.9-0.7-1.2    c-0.5-0.4-1.1-0.6-1.7-0.8c-0.6-0.1-1.2-0.2-1.8,0c-0.7,0.3-1.4,1.1-2,1.6C318.4,239.5,318.2,239.7,318.1,239.9z"></path>			<g>				<path class="st1" d="M320.2,215.1c-0.1-0.1-0.3-0.2-0.4-0.3c-0.5-0.4-1.1-0.7-1.6-0.5c-0.4,0.2-0.7,0.6-0.9,1     c-0.5,1.1-0.6,2.3-0.7,3.5c-0.1,1.2-0.1,2.4,0.1,3.6c0.2,1.1,0.6,2.5,1.5,3.2c0.9,0.7,1.7,1.4,2.6,2.1c1.7,1.4,3.4,2.8,5.2,4.2     c0.8,0.6,1.7,1.5,2.7,1.9c2.7,1.1,5.4-0.3,5.9-2.4c0.2-0.8-0.1-1.6-0.5-2.3c-0.5-1-1.3-1.8-2.1-2.6c-0.8-0.9-1.7-1.9-2.6-2.8     c-2.3-2.5-4.6-5-7.2-7.1C321.5,216,320.8,215.6,320.2,215.1z"></path>			</g>			<path class="st1" d="M320.7,243.5c1.2,0.3,2.1-0.6,2.9-1.2c1.9-1.5,9-6.3,10.8-10.6c0.4-1-2.1-2-3.3-3c-0.8-0.7-2.2-0.3-3.1,0    c-1.1,0.4-9.8,10.5-10,11C317.6,240.9,319.7,243.3,320.7,243.5z"></path>		</g>	</g>	<g>		<g class="st19">			<path class="st3" d="M283.3,147.9c0,5.7-4,12.7-9,15.6l-130,75.1c-5,2.9-9,0.6-9.1-5.2l-0.3-96.2l0-9.4c0-5.7,4-12.7,9-15.6    l130-75.1c5-2.9,9-0.6,9.1,5.2l0,9.4L283.3,147.9z"></path>		</g>		<g class="st19">			<path class="st3" d="M290.3,154.6c0,5.7-4,12.7-9,15.6l-130,75.1c-5,2.9-9,0.6-9.1-5.2l-0.3-96.2l0-9.4c0-5.7,4-12.7,9-15.6    l130-75.1c5-2.9,9-0.6,9.1,5.2l0,9.4L290.3,154.6z"></path>		</g>		<g>			<g>				<g class="st2">					<g class="st2">						<defs>							<path id="SVGID_00000089560159809545932570000009417390119610009750_" class="st2" d="M294,48.4l2.3,1.3        c-1.6-0.9-3.9-0.8-6.3,0.6l-2.3-1.3C290.1,47.6,292.4,47.5,294,48.4z"></path>						</defs>						<use xlink:href="#SVGID_00000089560159809545932570000009417390119610009750_" style="overflow:visible;fill:#F4F4FA;"></use>						<clipPath id="SVGID_00000119117054674512342480000000274405655391397035_">							<use xlink:href="#SVGID_00000089560159809545932570000009417390119610009750_" style="overflow:visible;"></use>						</clipPath>						<g style="clip-path:url(#SVGID_00000119117054674512342480000000274405655391397035_);">							<path class="st21" d="M289.9,50.4l-2.3-1.3c2.5-1.4,4.7-1.6,6.3-0.6l2.3,1.3C294.7,48.8,292.4,48.9,289.9,50.4z"></path>						</g>					</g>					<g>						<defs>							<path id="SVGID_00000153700908789933788900000007009658461639626130_" d="M155.8,249.5l-2.3-1.3c-1.6-0.9-2.6-2.9-2.6-5.7        l2.3,1.3C153.2,246.6,154.2,248.5,155.8,249.5z"></path>						</defs>						<use xlink:href="#SVGID_00000153700908789933788900000007009658461639626130_" style="overflow:visible;fill:#BFBEED;"></use>						<clipPath id="SVGID_00000099624635712543396900000005904520701392043400_">							<use xlink:href="#SVGID_00000153700908789933788900000007009658461639626130_" style="overflow:visible;"></use>						</clipPath>						<g style="clip-path:url(#SVGID_00000099624635712543396900000005904520701392043400_);enable-background:new    ;">							<path class="st3" d="M155.8,249.5l-2.3-1.3c-1.6-0.9-2.6-2.9-2.6-5.7l2.3,1.3C153.2,246.6,154.2,248.5,155.8,249.5z"></path>						</g>					</g>					<g>						<polygon class="st23" points="152.9,139.7 150.7,138.4 150.7,147.6 153,149       "></polygon>						<polygon class="st3" points="150.7,147.6 151,242.4 153.2,243.8 153,149       "></polygon>					</g>					<g>						<polygon class="st21" points="161.8,124.3 159.5,123 287.7,49.1 289.9,50.4       "></polygon>					</g>					<g class="st2">						<defs>							<path id="SVGID_00000139263355110596573610000017261147061089683881_" class="st2" d="M152.9,139.7l-2.3-1.3        c0-5.6,4-12.5,8.9-15.4l2.3,1.3C156.9,127.2,152.9,134.1,152.9,139.7z"></path>						</defs>						<use xlink:href="#SVGID_00000139263355110596573610000017261147061089683881_" style="overflow:visible;fill:#F4F4FA;"></use>						<clipPath id="SVGID_00000168799235411978311730000017492279610877925044_">							<use xlink:href="#SVGID_00000139263355110596573610000017261147061089683881_" style="overflow:visible;"></use>						</clipPath>						<g style="clip-path:url(#SVGID_00000168799235411978311730000017492279610877925044_);enable-background:new    ;">							<path class="st23" d="M152.9,139.7l-2.3-1.3c0-5.6,4-12.5,8.9-15.4l2.3,1.3C156.9,127.2,152.9,134.1,152.9,139.7z"></path>						</g>					</g>					<g>						<path class="st25" d="M299.2,159.5c0,5.7-4,12.5-8.9,15.4l-128.1,74c-4.9,2.8-8.9,0.6-8.9-5.1L153,149l0-9.2       c0-5.7,4-12.5,8.9-15.4l128.1-74c4.9-2.8,8.9-0.6,8.9,5.1l0,9.2L299.2,159.5z"></path>					</g>					<path class="st26" d="M298.9,64.7L153,149l0-9.2c0-5.7,4-12.5,8.9-15.4l128.1-74c4.9-2.8,8.9-0.6,8.9,5.1L298.9,64.7z"></path>				</g>			</g>		</g>		<g>			<path class="st6" d="M248.2,123.2c0-12.6-8.7-17.7-19.5-11.5c-10.8,6.2-19.5,21.5-19.5,34c0,12.6,8.7,17.7,19.5,11.5    C239.4,151,248.2,135.8,248.2,123.2z"></path>			<g>				<path class="st27" d="M234.7,118.5c0,3.9-2.7,8.6-6.1,10.5c-3.3,1.9-6,0.3-6-3.6c0-3.9,2.7-8.6,6.1-10.5     C232,113,234.7,114.6,234.7,118.5z"></path>				<g>					<path class="st27" d="M238.1,145.5v-11.6c0-5.1-3.6-7.2-7.9-4.7l-3.1,1.8c-4.4,2.5-7.9,8.7-7.9,13.8v11.6L238.1,145.5z"></path>					<path class="st3" d="M229.9,129.4l-2.6,1.5L229.9,129.4z"></path>				</g>			</g>		</g>		<polygon class="st27" points="259.1,155 198.2,190.1 198.2,179.9 259.1,144.7   "></polygon>		<polygon class="st6" points="240.3,188 217.6,201.1 217.6,207.7 240.3,194.6   "></polygon>		<polygon class="st27" points="259.1,170.8 198.2,206 198.2,195.7 259.1,160.6   "></polygon>		<g>			<path class="st28" d="M202.8,198.4l-1.1,0.3l0.2-0.7l1.1-0.2l0-1.4l0.6-0.3l0,1.5l1.1-1.1l0.2,0.5l-1.1,1l0.7,0.7l-0.5,0.7    l-0.7-0.8l-0.7,1.6L202,200L202.8,198.4z"></path>			<path class="st28" d="M206,196.6l-1.1,0.3l0.2-0.7l1.1-0.2l0-1.4l0.6-0.3l0,1.5l1.1-1.1l0.2,0.5l-1.1,1l0.7,0.7l-0.5,0.7    l-0.7-0.8l-0.7,1.6l-0.5-0.1L206,196.6z"></path>			<path class="st28" d="M209.2,194.7l-1.1,0.3l0.2-0.7l1.1-0.2l0-1.4l0.6-0.3l0,1.5l1.1-1.1l0.2,0.5l-1.1,1l0.7,0.7l-0.5,0.7    l-0.7-0.8l-0.7,1.6l-0.5-0.1L209.2,194.7z"></path>			<path class="st28" d="M212.5,192.8l-1.1,0.3l0.2-0.7l1.1-0.2l0-1.4l0.6-0.3l0,1.5l1.1-1.1l0.2,0.5l-1.1,1l0.7,0.7l-0.5,0.7    l-0.7-0.8l-0.7,1.6l-0.5-0.1L212.5,192.8z"></path>			<path class="st28" d="M215.7,191l-1.1,0.3l0.2-0.7l1.1-0.2l0-1.4l0.6-0.3l0,1.5l1.1-1.1l0.2,0.5l-1.1,1l0.7,0.7l-0.5,0.7    l-0.7-0.8l-0.7,1.6l-0.5-0.1L215.7,191z"></path>		</g>		<g>			<path class="st1" d="M284.8,63.4c0,1.2,0.8,1.7,1.9,1.1c1-0.6,1.9-2.1,1.9-3.3c0-1.2-0.8-1.7-1.9-1.1    C285.7,60.7,284.8,62.2,284.8,63.4z"></path>			<path class="st1" d="M278.9,66.9c0,1.2,0.8,1.7,1.9,1.1c1-0.6,1.9-2.1,1.9-3.3s-0.8-1.7-1.9-1.1    C279.7,64.2,278.9,65.6,278.9,66.9z"></path>			<path class="st1" d="M272.9,70.3c0,1.2,0.8,1.7,1.9,1.1c1-0.6,1.9-2.1,1.9-3.3c0-1.2-0.8-1.7-1.9-1.1    C273.7,67.6,272.9,69.1,272.9,70.3z"></path>		</g>	</g>	<g>		<g>			<g class="st2">				<g class="st2">					<defs>						<path id="SVGID_00000021102346839130286670000010379902160430363554_" class="st2" d="M113,364l22.7,13.1       c-2.7-1.6-4.4-5-4.4-9.7l-22.7-13.1C108.5,359.1,110.2,362.5,113,364z"></path>					</defs>					<use xlink:href="#SVGID_00000021102346839130286670000010379902160430363554_" style="overflow:visible;fill:#FFB700;"></use>					<clipPath id="SVGID_00000114034636479327644650000011348564214962740901_">						<use xlink:href="#SVGID_00000021102346839130286670000010379902160430363554_" style="overflow:visible;"></use>					</clipPath>					<g style="clip-path:url(#SVGID_00000114034636479327644650000011348564214962740901_);enable-background:new    ;">						<path class="st30" d="M131.2,367.4l-22.7-13.1c0,4.8,1.7,8.1,4.4,9.7l22.7,13.1C132.9,375.6,131.2,372.2,131.2,367.4z"></path>					</g>				</g>				<g class="st2">					<defs>						<path id="SVGID_00000060732129596983762510000003675768361786806196_" class="st2" d="M208.7,250.9L186,237.7       c-2.8-1.6-6.6-1.4-10.8,1l22.7,13.1C202.1,249.5,205.9,249.3,208.7,250.9z"></path>					</defs>					<use xlink:href="#SVGID_00000060732129596983762510000003675768361786806196_" style="overflow:visible;fill:#FFDE38;"></use>					<clipPath id="SVGID_00000122701125679878529120000000752191527933816740_">						<use xlink:href="#SVGID_00000060732129596983762510000003675768361786806196_" style="overflow:visible;"></use>					</clipPath>					<g style="clip-path:url(#SVGID_00000122701125679878529120000000752191527933816740_);enable-background:new    ;">						<path class="st32" d="M208.7,250.9L186,237.7c-2.7-1.6-6.5-1.4-10.6,0.9l22.7,13.1C202.2,249.5,206,249.3,208.7,250.9z"></path>						<path class="st32" d="M198.1,251.8l-22.7-13.1c-0.1,0-0.1,0.1-0.2,0.1l22.7,13.1C198,251.9,198,251.8,198.1,251.8z"></path>					</g>				</g>				<g>					<polygon class="st30" points="131,308 108.4,294.9 108.5,354.3 131.2,367.4      "></polygon>				</g>				<g>					<polygon class="st32" points="197.9,251.9 175.2,238.8 123.5,268.6 146.2,281.8      "></polygon>				</g>				<g class="st2">					<defs>						<path id="SVGID_00000101063491147227494590000005619038960994224538_" class="st2" d="M146.2,281.8l-22.7-13.1       c-8.4,4.8-15.2,16.7-15.2,26.3L131,308C131,298.4,137.8,286.6,146.2,281.8z"></path>					</defs>					<use xlink:href="#SVGID_00000101063491147227494590000005619038960994224538_" style="overflow:visible;fill:#FFDE38;"></use>					<clipPath id="SVGID_00000151533891752348693150000010008218250197150865_">						<use xlink:href="#SVGID_00000101063491147227494590000005619038960994224538_" style="overflow:visible;"></use>					</clipPath>					<g style="clip-path:url(#SVGID_00000151533891752348693150000010008218250197150865_);enable-background:new    ;">						<path class="st32" d="M146.2,281.8l-22.7-13.1c-1.8,1-3.5,2.4-5.1,4l22.7,13.1C142.7,284.2,144.4,282.8,146.2,281.8z"></path>						<path class="st32" d="M141.1,285.8l-22.7-13.1c-5.9,5.8-10.1,14.7-10,22.3L131,308C131,300.5,135.2,291.6,141.1,285.8z"></path>					</g>				</g>				<g>					<path class="st34" d="M146.2,281.8c-8.4,4.8-15.2,16.7-15.2,26.3l0.2,59.4c0,9.6,6.9,13.5,15.3,8.7l51.7-29.9      c8.4-4.8,15.2-16.6,15.2-26.3l-0.2-59.4c0-9.6-6.9-13.5-15.3-8.7L146.2,281.8z"></path>				</g>			</g>		</g>		<path class="st35" d="M182.1,331.8c0-4-2.8-5.6-6.2-3.6c-3.5,2-6.3,6.8-6.3,10.8c0,2.6,1.2,4.2,3,4.4l0,11.3l6.4-3.7l0-11.3   C180.9,337.5,182.1,334.5,182.1,331.8z"></path>		<g>			<path class="st10" d="M197.9,214.3l-0.1,31.6c0,1.1-0.7,2.2-2.2,3c-2.9,1.7-7.5,1.6-10.4,0c-1.4-0.8-2.2-2-2.1-3.1l0.1-31.6    c0-5.5-1.5-9.6-4.2-11.2c-2.7-1.6-7-0.9-11.8,1.8l-8.1,4.6c-12.7,7.3-23.5,25.8-23.6,40.5l-0.1,31.6c0,1.1-0.7,2.2-2.2,3    c-1.8,1.1-4.4,1.4-6.8,1.1c-1.3-0.2-2.6-0.6-3.6-1.2c-0.4-0.2-0.7-0.5-1-0.7c-0.8-0.7-1.1-1.5-1.1-2.3l0.1-31.6    c0-9.6,3.3-20.4,9.1-30.4c5.8-10,13.6-18.1,21.9-22.9l8.1-4.7c4.6-2.6,9.2-4.1,13.6-4.5c4.7-0.4,9.2,0.6,12.9,2.8    c3.8,2.2,6.8,5.6,8.8,9.9C197,204.3,197.9,209,197.9,214.3z"></path>			<path class="st3" d="M183,204.8c-0.8-0.5-1.8-0.8-2.9-0.8c2,2,3.1,5.6,3.1,10.2l-0.1,31.6c0,1.1,0.7,2.2,2.1,3.1    c0.6,0.3,1.2,0.6,1.9,0.8l0.1-33.7C187.3,210.5,185.7,206.4,183,204.8z"></path>			<path class="st1" d="M187.3,192.2c-2.6-0.7-5.3-1-8.2-0.7c-4.4,0.4-9,1.9-13.6,4.5l-8.1,4.7c-8.3,4.8-16.1,12.9-21.9,22.9    c-5.8,10-9,20.8-9.1,30.4l-0.1,31.9c-1.3-0.2-2.6-0.6-3.6-1.2c-0.4-0.2-0.7-0.5-1-0.7l0.1-31.9c0-9.6,3.3-20.4,9.1-30.4    c5.8-10,13.6-18.1,21.9-22.9l8.1-4.7c4.6-2.6,9.2-4.1,13.6-4.5C179.2,189.2,183.6,190.1,187.3,192.2z"></path>		</g>	</g></g></svg>