<svg xmlns="http://www.w3.org/2000/svg" xmlns:xlink="http://www.w3.org/1999/xlink" id="Layer_1" x="0px" y="0px" viewBox="0 0 425.2 425.2" style="enable-background:new 0 0 425.2 425.2;" xml:space="preserve"><style type="text/css">	.Graphic_x0020_Style_x0020_183{fill:url(#SVGID_1_);}	.Graphic_x0020_Style_x0020_184{fill:url(#SVGID_00000112609524223072239080000004365609538564368828_);}	.st0{opacity:0.16;fill:url(#SVGID_00000175319720158819250720000015586986861766736280_);enable-background:new    ;}	.st1{opacity:0.16;fill:url(#SVGID_00000023998203500620226290000015742458859727406231_);enable-background:new    ;}	.st2{fill:#45108A;}	.st3{opacity:0.2;}	.st4{fill:url(#SVGID_00000017504386121170715080000015094125115374404248_);}	.st5{fill:url(#SVGID_00000135651857366199232860000016371635133062033805_);}	.st6{fill:url(#SVGID_00000072244693153027472270000004720610933130193558_);}	.st7{fill:url(#SVGID_00000170242198717426983510000007608867535212843192_);}	.st8{fill:url(#SVGID_00000002370743266879374440000012650094220252663700_);}	.st9{fill:#1F0D3D;}	.st10{fill:#3D065F;}	.st11{fill:url(#SVGID_00000030469511863372623170000003827365394475919800_);}	.st12{fill:url(#SVGID_00000030449104386888306010000015855729673840382598_);}	.st13{fill:url(#SVGID_00000098899071352596192520000005612697134016505009_);}	.st14{fill:url(#SVGID_00000182530041056193139480000010064138137628374717_);}	.st15{fill:url(#SVGID_00000132784294938602896620000002534422407449902015_);}	.st16{fill:url(#SVGID_00000118394174140066192450000016978885312050722457_);}	.st17{fill:url(#SVGID_00000002349156945844874350000005107213915966257828_);}	.st18{fill:url(#SVGID_00000135679230196029587350000016821723348294170528_);}	.st19{fill:url(#SVGID_00000168115992477085887990000010035574509124548259_);}	.st20{fill:#A56EF4;}	.st21{fill:#FFFFFF;}	.st22{fill:#7C1DC9;}	.st23{fill:url(#SVGID_00000105384692153534031510000006816706036266190489_);}	.st24{fill:url(#SVGID_00000088133531106610846600000014557068747356050325_);}	.st25{fill:url(#SVGID_00000129205545915693895660000014445415804467064763_);}	.st26{fill:url(#SVGID_00000031905901190898122840000005541444555531866267_);}	.st27{fill:url(#SVGID_00000097461462507808418070000011760239271166148997_);}	.st28{fill:#D1B4E3;}	.st29{fill:url(#SVGID_00000075883713266133489390000014516442616564916926_);}	.st30{fill:#E6E7E8;}	.st31{fill:url(#SVGID_00000101096560753839515800000008434859519719893635_);}	.st32{fill:url(#SVGID_00000059285677501185759500000000340853081282782862_);}	.st33{fill:#F1E8F6;}	.st34{fill:url(#SVGID_00000071520216630263171960000011763216720464393654_);}	.st35{fill:url(#SVGID_00000002381757096753967870000007939448797309732993_);}	.st36{fill:url(#SVGID_00000101786821416040993570000012026682630207484089_);}	.st37{opacity:0.5;fill:url(#SVGID_00000173159803817060215620000005494033523367477177_);}	.st38{opacity:0.5;fill:url(#SVGID_00000022545781930644929630000005857087384184696960_);}	.st39{fill:url(#SVGID_00000067939967503147576350000009510861654042480303_);}	.st40{fill:url(#SVGID_00000106868173716327608890000007722563671418840487_);}	.st41{fill:url(#SVGID_00000134220118237304684700000002507817987203371654_);}	.st42{fill:url(#SVGID_00000160154976695920815920000012126228278802393511_);}	.st43{opacity:0.5;fill:url(#SVGID_00000117675714807563016890000014731860351993344905_);}	.st44{fill:url(#SVGID_00000015341397126149229940000016956809000736226228_);}	.st45{opacity:0.5;fill:url(#SVGID_00000132057585115401022260000013528192094681153425_);}	.st46{fill:url(#SVGID_00000060723133288948826860000015993676487505406337_);}	.st47{opacity:0.5;fill:url(#SVGID_00000098937270546447623520000007494469954799216277_);}	.st48{opacity:0.5;fill:url(#SVGID_00000016063105715894011210000014906480811591463354_);}	.st49{fill:url(#SVGID_00000169520915034114024660000009526706479743234442_);}	.st50{fill:url(#SVGID_00000018915462154179874060000009145962734473270403_);}	.st51{opacity:0.5;fill:url(#SVGID_00000010995433819740944890000015228013955746285747_);}	.st52{fill:url(#SVGID_00000136395310201554258500000014716682263730026117_);}	.st53{fill:url(#SVGID_00000065765754099854542280000016719014150750328755_);}	.st54{fill:url(#SVGID_00000008145555584078801380000004160420767349644186_);}	.st55{fill:url(#SVGID_00000115503096477778932080000006696878421768635305_);}	.st56{fill:url(#SVGID_00000154408379927352943630000005980842413022029968_);}	.st57{fill:url(#SVGID_00000106833384313903070130000008404663387978054288_);}	.st58{fill:url(#SVGID_00000030465082738738804180000007807901240138626435_);}	.st59{fill:#1BB0D4;}	.st60{opacity:0.4;fill:#1BB0D4;}	.st61{opacity:0.1;fill:#1BB0D4;}	.st62{fill:#D1C1B2;}	.st63{fill:#E5DBD1;}	.st64{fill:#A68D39;}	.st65{fill:#F8F5EE;}	.st66{fill:#826B2A;}	.st67{fill:#EDE3D9;}	.st68{fill:#E8C8A6;}	.st69{fill:#F0D047;}	.st70{fill:#FCDBBE;}	.st71{fill:#3F4042;}	.st72{fill:#58595B;}	.st73{fill:#282828;}	.st74{fill:#F3F8F4;}	.st75{fill:#C1C1C1;}	.st76{fill:#050505;}	.st77{fill:#BCBEC0;}	.st78{fill:#D1D3D4;}	.st79{fill:#2B2B2B;}	.st80{fill:#333333;}	.st81{clip-path:url(#SVGID_00000145772185796413469060000011203353944033727415_);}	.st82{fill:#414042;}	.st83{opacity:9.000000e-02;fill:#FFFFFF;}	.st84{fill:#231F20;}	.st85{fill:#6D6E71;}	.st86{fill:#A7A9AC;}	.st87{clip-path:url(#SVGID_00000060709515062453899800000001703391701554223504_);}	.st88{fill:#212121;}	.st89{fill:#2D2D2D;}	.st90{fill:#3A3A3A;}	.st91{fill:#53AFF4;}	.st92{fill:#7EE1FC;}	.st93{fill:#52CCF7;}	.st94{fill:#3C2415;}	.st95{fill:#808285;}	.st96{fill:#020202;}	.st97{fill:#727272;}	.st98{fill:#939598;}	.st99{fill:#B1B1B2;}	.st100{fill:#D8B49A;}	.st101{fill:#A58974;}	.st102{fill:#BC9982;}	.st103{fill:#776251;}	.st104{fill:#F8F5EC;}	.st105{fill:#FCFBFA;}	.st106{fill:#E5E5E5;}	.st107{fill:url(#SVGID_00000016076574597499581890000006762201656011213198_);}	.st108{fill:#9E9E9E;}	.st109{opacity:0.65;fill:#414042;}	.st110{opacity:0.65;fill:#231F20;}	.st111{fill:#897160;}	.st112{fill:#3D3D3D;}	.st113{clip-path:url(#SVGID_00000109004558227368109240000013094834588874332066_);}	.st114{opacity:0.3;fill:#231F20;}	.st115{opacity:0.59;fill:#D1D3D4;}	.st116{opacity:0.59;fill:#6D6E71;}	.st117{clip-path:url(#SVGID_00000022552452027281687290000014540973184289849486_);}	.st118{fill:#99DEFD;}	.st119{fill:#77CBEF;}	.st120{fill:#969696;}	.st121{fill:#DDCEC7;}	.st122{enable-background:new    ;}	.st123{fill:#AEAEAF;}	.st124{fill:url(#SVGID_00000106859989392042246340000012988936430054031031_);}	.st125{fill:#252525;}	.st126{fill:#444444;}	.st127{fill:#41BEE5;}	.st128{fill:#B2192C;}	.st129{fill:#F15A29;}	.st130{fill:#BE1E2D;}	.st131{fill:#5E5E5E;}	.st132{fill:#595959;}	.st133{fill:#666666;}	.st134{clip-path:url(#SVGID_00000016062505942551845970000001691236665740502962_);}	.st135{clip-path:url(#SVGID_00000132798146988426427240000005453824927311973771_);}	.st136{fill:#232323;}	.st137{clip-path:url(#SVGID_00000007428998397237625730000017602417142332356736_);}	.st138{clip-path:url(#SVGID_00000176751696540427431520000016145567459516015751_);}	.st139{clip-path:url(#SVGID_00000030482000301294642960000002648890971435728561_);}	.st140{clip-path:url(#SVGID_00000107574245456548495770000013559603161259983744_);}	.st141{clip-path:url(#SVGID_00000047018921025019547890000015852162425529656200_);}	.st142{fill:#9B081A;}	.st143{fill:#685345;}	.st144{fill:#9E8472;}	.st145{fill:#754C29;}	.st146{fill:#544034;}	.st147{fill:#6F9E25;}	.st148{fill:#8DC63F;}	.st149{clip-path:url(#SVGID_00000166661643898862302070000000184795000773799308_);}	.st150{clip-path:url(#SVGID_00000042012512918600128710000007476092925876227235_);}	.st151{clip-path:url(#SVGID_00000073703605151281775520000009412637248657628049_);}	.st152{fill:#2F3338;}	.st153{fill:#303438;}	.st154{opacity:0.7;}	.st155{fill:#424951;}	.st156{fill:#C9BBB5;}	.st157{fill:#684229;}	.st158{fill:#C2B59B;}	.st159{fill:#5CD5FF;}	.st160{fill:#27AAE1;}	.st161{clip-path:url(#SVGID_00000103975040260559143790000004640914175759705787_);}	.st162{clip-path:url(#SVGID_00000102521626816040191890000017104041802702373799_);}	.st163{clip-path:url(#SVGID_00000127747475111548997340000006229911144763694002_);}	.st164{clip-path:url(#SVGID_00000106833873410264389390000015022975931549340592_);}	.st165{fill:#B79E8A;}	.st166{fill:#E0CCC3;}	.st167{fill:#F5FBF7;}	.st168{fill:#E52E55;}	.st169{fill:#FF6666;}	.st170{fill:#CC1B4A;}	.st171{fill:#B7093F;}	.st172{fill:#C5BEAE;}	.st173{fill:#BAB1A0;}	.st174{fill:#DCD4C7;}	.st175{fill:#F4ECDF;}	.st176{fill:#F1F2F2;}	.st177{fill:#E2AF93;}	.st178{clip-path:url(#SVGID_00000139980620570196815210000002115056354510629270_);}	.st179{fill:#DD2824;}	.st180{clip-path:url(#SVGID_00000139980620570196815210000002115056354510629270_);fill:#DD2824;}	.st181{fill:url(#SVGID_00000032632630589661911750000003746420735630364090_);}	.st182{clip-path:url(#SVGID_00000063605829048976980870000012685692031866925739_);}	.st183{clip-path:url(#SVGID_00000060017136786754382690000012956352298688987298_);}	.st184{clip-path:url(#SVGID_00000124876159155165542440000014578958343640633782_);}	.st185{clip-path:url(#SVGID_00000029038207422319255990000001955612031641531824_);}	.st186{clip-path:url(#SVGID_00000134226908711684262340000000578894894582268091_);}	.st187{clip-path:url(#SVGID_00000142168674371355440970000004136341376532254390_);}	.st188{fill:#F1BB95;}	.st189{fill:#DAA07A;}	.st190{fill:#F6CBA1;}	.st191{opacity:0.6;}	.st192{fill:#3B3B3B;}	.st193{fill:#0C0C0C;}	.st194{fill:#46C5F2;}	.st195{opacity:0.18;fill:#FFFFFF;}	.st196{clip-path:url(#SVGID_00000031890506376957785870000002894968791394861496_);}	.st197{fill:#303030;}	.st198{fill:#1E1E1E;}	.st199{clip-path:url(#SVGID_00000089557851234618360660000013694528698800867486_);}	.st200{fill:#7A7A7A;}	.st201{clip-path:url(#SVGID_00000129171003213254762740000004880762687964117419_);}	.st202{fill:#F0BB94;}	.st203{clip-path:url(#SVGID_00000022546842500952307170000004243560975453395365_);}	.st204{clip-path:url(#SVGID_00000095338345371186539820000018058193901342139816_);}</style><linearGradient id="SVGID_1_" gradientUnits="userSpaceOnUse" x1="0" y1="425.2" x2="0.958" y2="424.9131">	<stop offset="3.535350e-02" style="stop-color:#138BBD"></stop>	<stop offset="0.2257" style="stop-color:#169AC7"></stop>	<stop offset="0.5946" style="stop-color:#1FC3DF"></stop>	<stop offset="1" style="stop-color:#2AF6FF"></stop></linearGradient><linearGradient id="SVGID_00000059283263753664665240000001776650883482453680_" gradientUnits="userSpaceOnUse" x1="0" y1="425.2" x2="0.9758" y2="424.9813">	<stop offset="3.535350e-02" style="stop-color:#138BBD"></stop>	<stop offset="0.2257" style="stop-color:#169AC7"></stop>	<stop offset="0.5946" style="stop-color:#1FC3DF"></stop>	<stop offset="1" style="stop-color:#2AF6FF"></stop></linearGradient><linearGradient id="SVGID_00000129200610643384932730000004730350542500570273_" gradientUnits="userSpaceOnUse" x1="40.6219" y1="215.8368" x2="401.4829" y2="215.8368" gradientTransform="matrix(1 0 0 -1 0 425.1024)">	<stop offset="0" style="stop-color:#159AFD"></stop>	<stop offset="1" style="stop-color:#159AFD"></stop></linearGradient><path style="opacity:0.16;fill:url(#SVGID_00000129200610643384932730000004730350542500570273_);enable-background:new    ;" d=" M114.2,81.5c-20.7,16.3-35.3,3.7-47.8,21c-39,53.8,10.4,74.2-12.5,82.5c-24.9,9-9.4,48.5,4.6,60s24.5,18.3,4.5,30 s-23.4,24.6-15.1,45.7s24.2,27.7,90,28.9s193.3-1.4,228.1-13.4s9.4-42.8,24-65.8s17.5-36.5-4.9-58.8s-9.6-45.4-2.9-61.7 c6.7-16.3,11.9-45.8-15.1-54.3c-27-8.4-58.4,25.2-71.9,8.1s-7.6-39.7-37.2-34c-29.6,5.7-39.6,49.8-65.4,47.4 C166.7,114.6,158.1,46.9,114.2,81.5z"></path><g>	<path class="st2" d="M353.3,267.6l-2-1.2c-0.3-0.2-0.4-0.5-0.2-0.8c0.2-0.3,0.5-0.4,0.8-0.2l2,1.2c0.3,0.2,0.4,0.5,0.2,0.8  c-0.1,0.2-0.3,0.3-0.5,0.3C353.5,267.6,353.4,267.6,353.3,267.6z M349.3,265.2l-2-1.2c-0.3-0.2-0.4-0.5-0.2-0.8  c0.2-0.3,0.5-0.4,0.8-0.2l2,1.2c0.3,0.2,0.4,0.5,0.2,0.8c-0.1,0.2-0.3,0.3-0.5,0.3C349.5,265.3,349.4,265.2,349.3,265.2z   M345.3,262.8l-2-1.2c-0.3-0.2-0.4-0.5-0.2-0.8c0.2-0.3,0.5-0.4,0.8-0.2l2,1.2c0.3,0.2,0.4,0.5,0.2,0.8c-0.1,0.2-0.3,0.3-0.5,0.3  C345.5,262.9,345.4,262.9,345.3,262.8z M341.2,260.4l-2-1.2c-0.3-0.2-0.4-0.5-0.2-0.8c0.2-0.3,0.5-0.4,0.8-0.2l2,1.2  c0.3,0.2,0.4,0.5,0.2,0.8c-0.1,0.2-0.3,0.3-0.5,0.3C341.4,260.5,341.3,260.5,341.2,260.4z M337.2,258.1l-2-1.2  c-0.3-0.2-0.4-0.5-0.2-0.8c0.2-0.3,0.5-0.4,0.8-0.2l2,1.2c0.3,0.2,0.4,0.5,0.2,0.8c-0.1,0.2-0.3,0.3-0.5,0.3  C337.4,258.2,337.3,258.1,337.2,258.1z M333.2,255.7l-2-1.2c-0.3-0.2-0.4-0.5-0.2-0.8c0.2-0.3,0.5-0.4,0.8-0.2l2,1.2  c0.3,0.2,0.4,0.5,0.2,0.8c-0.1,0.2-0.3,0.3-0.5,0.3C333.4,255.8,333.3,255.8,333.2,255.7z"></path>	<path class="st2" d="M290.6,302.6l-2-1.2c-0.3-0.2-0.4-0.5-0.2-0.8c0.2-0.3,0.5-0.4,0.8-0.2l2,1.2c0.3,0.2,0.4,0.5,0.2,0.8  c-0.1,0.2-0.3,0.3-0.5,0.3C290.8,302.6,290.7,302.6,290.6,302.6z M286.6,300.2l-2-1.2c-0.3-0.2-0.4-0.5-0.2-0.8  c0.2-0.3,0.5-0.4,0.8-0.2l2,1.2c0.3,0.2,0.4,0.5,0.2,0.8c-0.1,0.2-0.3,0.3-0.5,0.3C286.8,300.3,286.7,300.2,286.6,300.2z   M282.6,297.8l-2-1.2c-0.3-0.2-0.4-0.5-0.2-0.8c0.2-0.3,0.5-0.4,0.8-0.2l2,1.2c0.3,0.2,0.4,0.5,0.2,0.8c-0.1,0.2-0.3,0.3-0.5,0.3  C282.8,297.9,282.7,297.9,282.6,297.8z M278.5,295.4l-2-1.2c-0.3-0.2-0.4-0.5-0.2-0.8c0.2-0.3,0.5-0.4,0.8-0.2l2,1.2  c0.3,0.2,0.4,0.5,0.2,0.8c-0.1,0.2-0.3,0.3-0.5,0.3C278.7,295.5,278.6,295.5,278.5,295.4z M274.5,293.1l-2-1.2  c-0.3-0.2-0.4-0.5-0.2-0.8c0.2-0.3,0.5-0.4,0.8-0.2l2,1.2c0.3,0.2,0.4,0.5,0.2,0.8c-0.1,0.2-0.3,0.3-0.5,0.3  C274.7,293.2,274.6,293.1,274.5,293.1z M270.5,290.7l-2-1.2c-0.3-0.2-0.4-0.5-0.2-0.8c0.2-0.3,0.5-0.4,0.8-0.2l2,1.2  c0.3,0.2,0.4,0.5,0.2,0.8c-0.1,0.2-0.3,0.3-0.5,0.3C270.7,290.8,270.6,290.8,270.5,290.7z"></path>	<path class="st2" d="M232.8,336.2l-2-1.2c-0.3-0.2-0.4-0.5-0.2-0.8c0.2-0.3,0.5-0.4,0.8-0.2l2,1.2c0.3,0.2,0.4,0.5,0.2,0.8  c-0.1,0.2-0.3,0.3-0.5,0.3C233,336.2,232.9,336.2,232.8,336.2z M228.8,333.8l-2-1.2c-0.3-0.2-0.4-0.5-0.2-0.8  c0.2-0.3,0.5-0.4,0.8-0.2l2,1.2c0.3,0.2,0.4,0.5,0.2,0.8c-0.1,0.2-0.3,0.3-0.5,0.3C229,333.9,228.9,333.8,228.8,333.8z   M224.8,331.4l-2-1.2c-0.3-0.2-0.4-0.5-0.2-0.8c0.2-0.3,0.5-0.4,0.8-0.2l2,1.2c0.3,0.2,0.4,0.5,0.2,0.8c-0.1,0.2-0.3,0.3-0.5,0.3  C225,331.5,224.9,331.5,224.8,331.4z M220.8,329.1l-2-1.2c-0.3-0.2-0.4-0.5-0.2-0.8c0.2-0.3,0.5-0.4,0.8-0.2l2,1.2  c0.3,0.2,0.4,0.5,0.2,0.8c-0.1,0.2-0.3,0.3-0.5,0.3C221,329.1,220.9,329.1,220.8,329.1z M216.7,326.7l-2-1.2  c-0.3-0.2-0.4-0.5-0.2-0.8c0.2-0.3,0.5-0.4,0.8-0.2l2,1.2c0.3,0.2,0.4,0.5,0.2,0.8c-0.1,0.2-0.3,0.3-0.5,0.3  C216.9,326.8,216.8,326.7,216.7,326.7z M212.7,324.3l-2-1.2c-0.3-0.2-0.4-0.5-0.2-0.8c0.2-0.3,0.5-0.4,0.8-0.2l2,1.2  c0.3,0.2,0.4,0.5,0.2,0.8c-0.1,0.2-0.3,0.3-0.5,0.3C212.9,324.4,212.8,324.4,212.7,324.3z"></path>	<g>		<g>			<g>				<path class="st2" d="M298.6,214.9l-32.2,18.6L234.3,215l32.2-18.6L298.6,214.9L298.6,214.9z M301,214.9L266.5,195L231.9,215     l34.5,19.9L301,214.9L301,214.9z"></path>				<polygon class="st2" points="261.6,237.5 227.2,217.7 228.6,216.9 263,236.7     "></polygon>				<polygon class="st2" points="257.6,239.8 223.2,220 224.6,219.2 259,239     "></polygon>				<polygon class="st2" points="237.5,232.9 219.2,222.3 220.6,221.5 238.9,232.1     "></polygon>			</g>			<g>				<path class="st2" d="M343.1,240.6L311,259.2l-32.1-18.5l32.2-18.6L343.1,240.6L343.1,240.6z M345.5,240.6L311,220.7l-34.5,19.9     l34.5,19.9L345.5,240.6L345.5,240.6z"></path>				<polygon class="st2" points="306.1,263.2 271.8,243.4 273.1,242.6 307.5,262.4     "></polygon>				<polygon class="st2" points="302.1,265.5 267.8,245.7 269.2,244.9 303.5,264.7     "></polygon>				<polygon class="st2" points="282,258.6 263.7,248 265.1,247.2 283.4,257.8     "></polygon>			</g>		</g>		<g>			<g>				<path class="st2" d="M238.8,249.4L206.6,268l-32.1-18.5l32.2-18.6L238.8,249.4L238.8,249.4z M241.2,249.5l-34.5-19.9l-34.5,19.9     l34.5,19.9L241.2,249.5L241.2,249.5z"></path>				<polygon class="st2" points="201.8,272 167.4,252.2 168.8,251.4 203.2,271.2     "></polygon>				<polygon class="st2" points="197.8,274.3 163.4,254.5 164.8,253.7 199.2,273.5     "></polygon>				<polygon class="st2" points="177.7,267.4 159.4,256.8 160.8,256 179.1,266.6     "></polygon>			</g>			<g>				<path class="st2" d="M283.3,275.2l-32.2,18.6l-32.1-18.5l32.2-18.6L283.3,275.2L283.3,275.2z M285.7,275.2l-34.5-19.9     l-34.5,19.9l34.5,19.9L285.7,275.2L285.7,275.2z"></path>				<polygon class="st2" points="246.3,297.7 212,277.9 213.4,277.1 247.7,296.9     "></polygon>				<polygon class="st2" points="242.3,300.1 208,280.2 209.4,279.4 243.7,299.2     "></polygon>				<polygon class="st2" points="222.2,293.1 203.9,282.6 205.3,281.7 223.6,292.3     "></polygon>			</g>		</g>		<g>			<g>				<path class="st2" d="M178.7,284.1l-32.2,18.6l-32.1-18.5l32.2-18.6L178.7,284.1L178.7,284.1z M181.1,284.1l-34.5-19.9     l-34.5,19.9l34.5,19.9L181.1,284.1L181.1,284.1z"></path>				<polygon class="st2" points="141.7,306.7 107.4,286.9 108.8,286.1 143.1,305.9     "></polygon>				<polygon class="st2" points="137.8,309 103.4,289.2 104.8,288.4 139.1,308.2     "></polygon>				<polygon class="st2" points="117.7,302.1 99.3,291.5 100.7,290.7 119.1,301.3     "></polygon>			</g>			<g>				<path class="st2" d="M223.3,309.8l-32.2,18.6L159,309.9l32.2-18.6L223.3,309.8L223.3,309.8z M225.7,309.8l-34.5-19.9l-34.5,19.9     l34.5,19.9L225.7,309.8L225.7,309.8z"></path>				<polygon class="st2" points="186.3,332.4 151.9,312.6 153.3,311.8 187.7,331.6     "></polygon>				<polygon class="st2" points="182.3,334.7 147.9,314.9 149.3,314.1 183.7,333.9     "></polygon>				<polygon class="st2" points="162.2,327.8 143.9,317.2 145.3,316.4 163.6,327     "></polygon>			</g>		</g>		<g>			<path class="st2" d="M284.1,180.4l11.7,6.8c0.5,0.3,1.3,0.3,1.8,0c0.5-0.3,0.5-0.7,0-1l-11.7-6.8c-0.5-0.3-1.3-0.3-1.8,0    C283.6,179.6,283.6,180.1,284.1,180.4z M294.7,187.8l-11.7-6.8c-0.5-0.3-1.3-0.3-1.8,0c-0.5,0.3-0.5,0.7,0,1l11.7,6.8    c0.5,0.3,1.3,0.3,1.8,0C295.2,188.6,295.2,188.1,294.7,187.8z M291.7,189.5l-11.7-6.8c-0.5-0.3-1.3-0.3-1.8,0    c-0.5,0.3-0.5,0.7,0,1l11.7,6.8c0.5,0.3,1.3,0.3,1.8,0C292.2,190.3,292.2,189.8,291.7,189.5z"></path>			<path class="st2" d="M162.5,349.2l-84-48.5c-5.5-3.2-5.6-8.4-0.1-11.5L276.2,175c5.5-3.2,14.5-3.2,20,0l84,48.5    c5.5,3.2,5.6,8.4,0.1,11.5L182.5,349.2C177,352.4,168,352.4,162.5,349.2z M295.4,175.5c-5.1-2.9-13.3-3-18.4,0L79.3,289.6    c-5.1,2.9-5,7.7,0.1,10.6l84,48.5c5.1,2.9,13.3,3,18.4,0l197.7-114.2c5.1-2.9,5-7.7-0.1-10.6L295.4,175.5z"></path>			<path class="st2" d="M364.4,229.3c0,0.4-0.5,0.7-1.1,0.7c-0.6,0-1.1-0.3-1.1-0.7c0-0.4,0.5-0.7,1.1-0.7    C363.9,228.6,364.4,228.9,364.4,229.3z"></path>			<g>				<path class="st2" d="M362.7,224.1c-0.1,0-0.1,0-0.2,0l0,0.7c0.1,0,0.1,0,0.2,0c4.7,0,8.5,2.2,8.5,4.9c0,0,0,0,0,0l1.1,0     c0,0,0,0,0,0C372.3,226.6,368,224.1,362.7,224.1z"></path>				<path class="st2" d="M362.7,226.7c-0.1,0-0.1,0-0.2,0l0,0.7c0.1,0,0.1,0,0.2,0c2.2,0,4,1,4,2.3c0,0,0,0,0,0l1.1,0l0,0     C367.8,228,365.5,226.7,362.7,226.7z"></path>				<path class="st2" d="M362.7,225.4c-0.1,0-0.1,0-0.2,0l0,0.7c0.1,0,0.1,0,0.2,0c3.4,0,6.2,1.6,6.2,3.6c0,0,0,0,0,0l1.1,0     c0,0,0,0,0,0C370.1,227.3,366.8,225.4,362.7,225.4z"></path>			</g>			<polygon class="st2" points="340.9,217.3 307,197.7 309.2,196.4 343.1,216    "></polygon>		</g>	</g>	<g>		<g class="st3">			<path d="M160.9,318.5l213.9-123.1c6.4-3.7,5.6-10.2-1.8-14.5l-92.3-53.3c-7.4-4.3-18.6-4.7-25-1L41.8,249.7    c-6.4,3.7-5.6,10.2,1.8,14.5l92.3,53.3C143.3,321.7,154.5,322.2,160.9,318.5z"></path>		</g>					<linearGradient id="SVGID_00000101081547318870100730000011179159219823160745_" gradientUnits="userSpaceOnUse" x1="7018.3652" y1="200.6835" x2="7361.3203" y2="200.6835" gradientTransform="matrix(-1 0 0 1 7399.6768 0)">			<stop offset="0" style="stop-color:#2F054A"></stop>			<stop offset="1" style="stop-color:#5824B0"></stop>		</linearGradient>		<path style="fill:url(#SVGID_00000101081547318870100730000011179159219823160745_);" d="M131.2,295.9l-86.3-49.8   c-9.7-5.6-8.5-15.4,2.7-21.9L250.5,107c11.2-6.5,28.2-7.2,38-1.6l86.3,49.8c9.7,5.6,8.5,15.4-2.7,21.9L169.2,294.3   C157.9,300.8,140.9,301.5,131.2,295.9z"></path>					<linearGradient id="SVGID_00000022535477191677628020000018340672221052667808_" gradientUnits="userSpaceOnUse" x1="7063.4556" y1="199.2051" x2="7406.4111" y2="199.2051" gradientTransform="matrix(-1 0 0 1 7399.6768 0)">			<stop offset="5.555560e-02" style="stop-color:#2F0D5E"></stop>			<stop offset="0.2777" style="stop-color:#2F105F"></stop>			<stop offset="0.4697" style="stop-color:#311B61"></stop>			<stop offset="0.482" style="stop-color:#351F65"></stop>			<stop offset="0.4954" style="stop-color:#422C73"></stop>			<stop offset="0.5093" style="stop-color:#584188"></stop>			<stop offset="0.5235" style="stop-color:#765FA7"></stop>			<stop offset="0.5303" style="stop-color:#8770B8"></stop>			<stop offset="0.5366" style="stop-color:#7E67AE"></stop>			<stop offset="0.5617" style="stop-color:#5C468D"></stop>			<stop offset="0.5857" style="stop-color:#442E75"></stop>			<stop offset="0.6078" style="stop-color:#362066"></stop>			<stop offset="0.6263" style="stop-color:#311B61"></stop>			<stop offset="0.6724" style="stop-color:#2A1155"></stop>			<stop offset="0.7491" style="stop-color:#230446"></stop>			<stop offset="0.8131" style="stop-color:#200041"></stop>			<stop offset="1" style="stop-color:#200041"></stop>		</linearGradient>		<path style="fill:url(#SVGID_00000022535477191677628020000018340672221052667808_);" d="M131.2,294.4l-86.3-49.8   c-4.3-2.5-6.5-5.9-6.6-9.4c0-0.3,0-7.1,0-7.4c0.4-4.1,3.5-1.8,9.3-5.2l202.9-117.1c11.2-6.5,28.2-7.2,38-1.6l86.3,49.8   c4.3,2.5,6.5-1.9,6.6,1.6c0,0.3,0,8.4,0,8.7c-0.3,4.1-3.5,8.3-9.3,11.6L169.2,292.8C157.9,299.3,140.9,300,131.2,294.4z"></path>					<linearGradient id="SVGID_00000033326750354614385980000001345308314924633248_" gradientUnits="userSpaceOnUse" x1="7018.3652" y1="191.8132" x2="7361.3203" y2="191.8132" gradientTransform="matrix(-1 0 0 1 7399.6768 0)">			<stop offset="0" style="stop-color:#58098A"></stop>			<stop offset="1" style="stop-color:#9E3BDB"></stop>		</linearGradient>		<path style="fill:url(#SVGID_00000033326750354614385980000001345308314924633248_);" d="M131.2,287l-86.3-49.8   c-9.7-5.6-8.5-15.4,2.7-21.9L250.5,98.2c11.2-6.5,28.2-7.2,38-1.6l86.3,49.8c9.7,5.6,8.5,15.4-2.7,21.9L169.2,285.4   C157.9,291.9,140.9,292.6,131.2,287z"></path>					<radialGradient id="SVGID_00000016768926222998033320000005332445488721054108_" cx="186.8786" cy="229.7462" r="130.3538" gradientUnits="userSpaceOnUse">			<stop offset="0" style="stop-color:#FFFFFF"></stop>			<stop offset="1" style="stop-color:#000000"></stop>		</radialGradient>		<path style="fill:url(#SVGID_00000016768926222998033320000005332445488721054108_);" d="M44.9,236.2l86.3,49.8   c9.7,5.6,26.7,4.9,38-1.6L372,167.4c5.9-3.4,9.1-7.8,9.3-11.9c0.2,4.4-2.9,9.2-9.3,12.9L169.2,285.4c-11.2,6.5-28.2,7.2-38,1.6   l-86.3-49.8c-4.6-2.7-6.8-6.3-6.6-10C38.6,230.6,40.7,233.8,44.9,236.2z"></path>					<linearGradient id="SVGID_00000137122896543928178920000010146387518651625102_" gradientUnits="userSpaceOnUse" x1="7021.792" y1="191.8132" x2="7357.8931" y2="191.8132" gradientTransform="matrix(-1 0 0 1 7399.6768 0)">			<stop offset="0" style="stop-color:#2F054A"></stop>			<stop offset="1" style="stop-color:#5E1D9A"></stop>		</linearGradient>		<path style="fill:url(#SVGID_00000137122896543928178920000010146387518651625102_);" d="M49.9,216.8L253,99.5   c9.9-5.7,24.8-6.3,33.3-1.4l85.8,49.5c8.5,4.9,7.5,13.5-2.4,19.2L166.6,284.1c-9.9,5.7-24.8,6.3-33.3,1.4L47.5,236   C39,231,40.1,222.4,49.9,216.8z"></path>		<path class="st9" d="M53.9,218.4L256,101.8c8.2-4.8,20.7-5.3,27.9-1.2l84,48.5c7.1,4.1,6.2,11.3-2,16.1L163.7,281.9   c-8.2,4.8-20.7,5.3-27.9,1.2l-84-48.5C44.7,230.4,45.6,223.2,53.9,218.4z"></path>		<path class="st10" d="M283.1,102.2c-6.7-3.9-17.6-3.9-24.3,0l-204.3,118c-6.7,3.9-6.7,10.1,0.1,14l82,47.4   c6.7,3.9,17.6,3.9,24.3,0l204.3-118c6.7-3.9,6.7-10.1-0.1-14L283.1,102.2z"></path>					<linearGradient id="SVGID_00000097458675378399249370000006401535058611750065_" gradientUnits="userSpaceOnUse" x1="226.9399" y1="106.2857" x2="167.414" y2="403.916">			<stop offset="0" style="stop-color:#861EB2"></stop>			<stop offset="0.4293" style="stop-color:#5F27BD"></stop>			<stop offset="0.904" style="stop-color:#3D065F"></stop>		</linearGradient>		<path style="fill:url(#SVGID_00000097458675378399249370000006401535058611750065_);" d="M148.8,282.7c4.3,0,8.3-0.9,11.2-2.7   l204.3-118c2.7-1.5,4.2-3.5,4.2-5.5c0-2-1.5-4-4.2-5.6l-82-47.4c-3-1.7-7.1-2.7-11.4-2.7c-4.3,0-8.3,0.9-11.2,2.7l-204.3,118   c-2.7,1.5-4.2,3.5-4.2,5.5c0,2,1.5,4,4.2,5.6l82,47.4C140.4,281.8,144.5,282.7,148.8,282.7z"></path>					<linearGradient id="SVGID_00000048480668253913258970000016703716825079278523_" gradientUnits="userSpaceOnUse" x1="9459.9199" y1="-929.6091" x2="9476.4463" y2="-929.6091" gradientTransform="matrix(-0.866 0.5 -0.5 1.4434 8073.0474 -3200.9158)">			<stop offset="0" style="stop-color:#3D065F"></stop>			<stop offset="1" style="stop-color:#5F27BD"></stop>		</linearGradient>		<path style="fill:url(#SVGID_00000048480668253913258970000016703716825079278523_);" d="M333.7,196.9l9.4-5.4   c1.2-0.7,2.1-2.5,2.1-4.1l0,0c0-1.6-1-2.3-2.1-1.6l-9.4,5.4c-1.2,0.7-2.1,2.5-2.1,4.1l0,0C331.6,196.9,332.5,197.6,333.7,196.9z"></path>					<linearGradient id="SVGID_00000116933074065388585350000013977610387188752826_" gradientUnits="userSpaceOnUse" x1="9459.9199" y1="-929.6091" x2="9476.4463" y2="-929.6091" gradientTransform="matrix(-0.866 0.5 -0.5 1.4434 8073.0474 -3200.9158)">			<stop offset="0" style="stop-color:#2F054A"></stop>			<stop offset="1" style="stop-color:#5824B0"></stop>		</linearGradient>		<path style="fill:url(#SVGID_00000116933074065388585350000013977610387188752826_);" d="M333.7,196.9l9.4-5.4   c1.2-0.7,2.1-2.5,2.1-4.1l0,0c0-1.6-1-2.3-2.1-1.6l-9.4,5.4c-1.2,0.7-2.1,2.5-2.1,4.1l0,0C331.6,196.9,332.5,197.6,333.7,196.9z"></path>					<linearGradient id="SVGID_00000088842429368539719900000002242875418658433213_" gradientUnits="userSpaceOnUse" x1="9441.9209" y1="-880.6333" x2="9435.083" y2="-867.8818" gradientTransform="matrix(-0.866 0.5 -0.5 1.4434 8073.0474 -3200.9158)">			<stop offset="5.555560e-02" style="stop-color:#9F79B8"></stop>			<stop offset="0.2575" style="stop-color:#A17BBA"></stop>			<stop offset="0.3569" style="stop-color:#A783BF"></stop>			<stop offset="0.4338" style="stop-color:#B290C9"></stop>			<stop offset="0.4949" style="stop-color:#C1A1D5"></stop>			<stop offset="0.5067" style="stop-color:#C4A5D7"></stop>			<stop offset="0.5196" style="stop-color:#CDB3DD"></stop>			<stop offset="0.5329" style="stop-color:#DBC8E7"></stop>			<stop offset="0.5466" style="stop-color:#EFE7F4"></stop>			<stop offset="0.5556" style="stop-color:#FFFFFF"></stop>			<stop offset="0.5678" style="stop-color:#ECE0F3"></stop>			<stop offset="0.5801" style="stop-color:#DDC8EA"></stop>			<stop offset="0.5915" style="stop-color:#D4B9E5"></stop>			<stop offset="0.601" style="stop-color:#D1B4E3"></stop>			<stop offset="0.658" style="stop-color:#B395D6"></stop>			<stop offset="0.7155" style="stop-color:#9C7DCB"></stop>			<stop offset="0.7687" style="stop-color:#8E6EC5"></stop>			<stop offset="0.8131" style="stop-color:#8969C3"></stop>			<stop offset="1" style="stop-color:#B086CC"></stop>		</linearGradient>		<path style="fill:url(#SVGID_00000088842429368539719900000002242875418658433213_);" d="M332.9,196.6c0.2,0,0.4-0.1,0.6-0.2   l9.4-5.4c1-0.6,1.8-2.2,1.8-3.6c0-0.6-0.2-1.3-0.7-1.3c-0.2,0-0.4,0.1-0.6,0.2l-9.4,5.4c-1,0.6-1.8,2.2-1.8,3.6   C332.1,195.9,332.3,196.6,332.9,196.6z"></path>					<linearGradient id="SVGID_00000144311244620008266710000008180772146666915215_" gradientUnits="userSpaceOnUse" x1="9479.3047" y1="-929.6094" x2="9495.832" y2="-929.6094" gradientTransform="matrix(-0.866 0.5 -0.5 1.4434 8073.0474 -3200.9158)">			<stop offset="0" style="stop-color:#3D065F"></stop>			<stop offset="1" style="stop-color:#5F27BD"></stop>		</linearGradient>		<path style="fill:url(#SVGID_00000144311244620008266710000008180772146666915215_);" d="M316.9,206.6l9.4-5.4   c1.2-0.7,2.1-2.5,2.1-4.1l0,0c0-1.6-1-2.3-2.1-1.6l-9.4,5.4c-1.2,0.7-2.1,2.5-2.1,4.1l0,0C314.8,206.6,315.7,207.3,316.9,206.6z"></path>					<linearGradient id="SVGID_00000018226001856185776090000009526213599208869306_" gradientUnits="userSpaceOnUse" x1="9479.3047" y1="-929.6094" x2="9495.832" y2="-929.6094" gradientTransform="matrix(-0.866 0.5 -0.5 1.4434 8073.0474 -3200.9158)">			<stop offset="0" style="stop-color:#2F054A"></stop>			<stop offset="1" style="stop-color:#5824B0"></stop>		</linearGradient>		<path style="fill:url(#SVGID_00000018226001856185776090000009526213599208869306_);" d="M316.9,206.6l9.4-5.4   c1.2-0.7,2.1-2.5,2.1-4.1l0,0c0-1.6-1-2.3-2.1-1.6l-9.4,5.4c-1.2,0.7-2.1,2.5-2.1,4.1l0,0C314.8,206.6,315.7,207.3,316.9,206.6z"></path>					<linearGradient id="SVGID_00000060728009261211648380000002042532411334785204_" gradientUnits="userSpaceOnUse" x1="9456.9766" y1="-872.5606" x2="9450.1387" y2="-859.8093" gradientTransform="matrix(-0.866 0.5 -0.5 1.4434 8073.0474 -3200.9158)">			<stop offset="5.555560e-02" style="stop-color:#9F79B8"></stop>			<stop offset="0.2575" style="stop-color:#A17BBA"></stop>			<stop offset="0.3569" style="stop-color:#A783BF"></stop>			<stop offset="0.4338" style="stop-color:#B290C9"></stop>			<stop offset="0.4949" style="stop-color:#C1A1D5"></stop>			<stop offset="0.5067" style="stop-color:#C4A5D7"></stop>			<stop offset="0.5196" style="stop-color:#CDB3DD"></stop>			<stop offset="0.5329" style="stop-color:#DBC8E7"></stop>			<stop offset="0.5466" style="stop-color:#EFE7F4"></stop>			<stop offset="0.5556" style="stop-color:#FFFFFF"></stop>			<stop offset="0.5678" style="stop-color:#ECE0F3"></stop>			<stop offset="0.5801" style="stop-color:#DDC8EA"></stop>			<stop offset="0.5915" style="stop-color:#D4B9E5"></stop>			<stop offset="0.601" style="stop-color:#D1B4E3"></stop>			<stop offset="0.658" style="stop-color:#B395D6"></stop>			<stop offset="0.7155" style="stop-color:#9C7DCB"></stop>			<stop offset="0.7687" style="stop-color:#8E6EC5"></stop>			<stop offset="0.8131" style="stop-color:#8969C3"></stop>			<stop offset="1" style="stop-color:#B086CC"></stop>		</linearGradient>		<path style="fill:url(#SVGID_00000060728009261211648380000002042532411334785204_);" d="M316.1,206.3c0.2,0,0.4-0.1,0.6-0.2   l9.4-5.4c1-0.6,1.8-2.2,1.8-3.6c0-0.6-0.2-1.3-0.7-1.3c-0.2,0-0.4,0.1-0.6,0.2l-9.4,5.4c-1,0.6-1.8,2.2-1.8,3.6   C315.3,205.6,315.5,206.3,316.1,206.3z"></path>		<path class="st10" d="M235,247.6l137-79.5c5.8-3.3,8.9-7.6,9.3-11.6c0-0.1,0-1.8,0-3.6c0,0,0,8.5,0,8.8c-0.3,4.1-3.5,8.3-9.3,11.6   L235,247.6z"></path>					<linearGradient id="SVGID_00000124141458985023274570000014131958201397369778_" gradientUnits="userSpaceOnUse" x1="72.944" y1="224.5592" x2="138.1833" y2="224.5592">			<stop offset="3.535350e-02" style="stop-color:#138BBD"></stop>			<stop offset="0.2257" style="stop-color:#169AC7"></stop>			<stop offset="0.5946" style="stop-color:#1FC3DF"></stop>			<stop offset="1" style="stop-color:#2AF6FF"></stop>		</linearGradient>		<path style="fill:url(#SVGID_00000124141458985023274570000014131958201397369778_);" d="M101,242.4l-26.3-15.2   c-2.6-1.5-2.3-4.1,0.7-5.8l24.6-14.2c3-1.7,7.5-1.9,10.1-0.4l26.3,15.2c2.6,1.5,2.3,4.1-0.7,5.8L111.1,242   C108.1,243.7,103.6,243.9,101,242.4z"></path>					<radialGradient id="SVGID_00000169546870967516305540000017382207118006423986_" cx="105.5712" cy="233.6716" r="24.0616" gradientUnits="userSpaceOnUse">			<stop offset="0" style="stop-color:#FFFFFF"></stop>			<stop offset="1" style="stop-color:#000000"></stop>		</radialGradient>		<path style="fill:url(#SVGID_00000169546870967516305540000017382207118006423986_);" d="M135.7,226.8L111.1,241   c-3,1.7-7.5,1.9-10.1,0.4l-26.3-15.2c-1-0.6-1.5-1.3-1.7-2c-0.2,1.1,0.3,2.2,1.7,3l26.3,15.2c2.6,1.5,7.1,1.3,10.1-0.4l24.6-14.2   c1.9-1.1,2.7-2.5,2.4-3.8C137.9,225,137.1,226,135.7,226.8z"></path>		<path d="M80.2,264.4l15.4,8.9l0,0c0-2.8-1.7-6.1-3.8-7.3l-7.8-4.5C81.9,260.2,80.2,261.5,80.2,264.4L80.2,264.4z"></path>		<g>			<path class="st20" d="M193.5,235.6l-14.3-8.3c-1.6-0.9-1.6-2.4,0-3.3l11-6.4c1.5-0.9,3.9-0.9,5.5-0.2l4-2.3    c3.1-1.8,8.2-1.8,11.3,0l3.6,2.1c3.1,1.8,3.1,4.7,0,6.5l-4,2.3c1.3,0.9,1.2,2.3-0.3,3.2l-11,6.4    C197.7,236.5,195.1,236.5,193.5,235.6z M195,218.2c-1.1-0.6-2.8-0.6-3.8,0l-11,6.4c-1.1,0.6-1,1.6,0,2.2l14.3,8.3    c1.1,0.6,2.8,0.6,3.8,0l11-6.4c1.1-0.6,1-1.6,0-2.2l-0.7-0.4l4.9-2.8c2.6-1.5,2.6-3.9,0-5.4l-3.6-2.1c-2.6-1.5-6.8-1.5-9.4,0    l-4.9,2.8L195,218.2z M206.7,224.9l-8.9-5.1l4-2.3c1.9-1.1,5-1.1,6.9,0l2,1.2c1.9,1.1,1.9,2.9,0,4L206.7,224.9z M199.7,219.8l7,4    l3.1-1.8c1.3-0.8,1.3-2.1,0-2.8l-2-1.2c-1.4-0.8-3.6-0.8-4.9,0L199.7,219.8z"></path>			<path class="st20" d="M191.8,230l-2.8-1.6l2.8-1.6c-0.3-0.7,0.1-1.4,1-2c1.4-0.8,3.7-0.8,5.2,0c1.4,0.8,1.4,2.2,0,3    c-0.9,0.5-2.2,0.7-3.4,0.6L191.8,230z"></path>		</g>		<path class="st21" d="M117.8,216.1c-4.5-2.1-11.1-2.1-15.6-0.1c-3.4,1.5-5.3,3.9-5,6.4c0.1,1.1-0.5,2.2-1.9,3l-1.9,1.1   c-1,0.6-1.2,1.4-0.5,2.1l-1.8,1.1c-1.1,0.6-1.1,1.7,0,2.3l1.5,0.9c1.1,0.6,2.9,0.6,4,0l1.8-1.1c1.2,0.4,2.7,0.3,3.7-0.3l1.9-1.1   c1.3-0.8,3.2-1.2,5.3-1.1c3.6,0.1,7.2-0.6,9.8-2.1C124.3,224,123.9,218.9,117.8,216.1z M109.2,228.4c-2.4-0.1-4.7,0.4-6.3,1.3   l-1.9,1.1c-0.7,0.4-1.8,0.4-2.5,0l-1.5-0.9l8.6-5l5.1,0c0.3,0,0.5-0.1,0.6-0.2c0.1-0.1,0-0.3-0.2-0.4l-5.6-3.3   c-0.2-0.1-0.5-0.1-0.8-0.1c-0.3,0.1-0.4,0.2-0.4,0.4l0,3.2l-8.4,4.8l-1.7-1c-0.7-0.4-0.7-1,0-1.4l1.9-1.1c1.6-0.9,2.4-2.2,2.3-3.6   c-0.3-2.2,1.4-4.3,4.5-5.7c4-1.8,9.9-1.7,13.9,0.1c0.4,0.2,0.7,0.3,1,0.5c4.5,2.6,4.5,6.7,0.1,9.3   C115.7,227.9,112.5,228.5,109.2,228.4z"></path>		<g>			<path class="st20" d="M166.9,244.4l-1.8-1.1c-1.6-0.9-4.3-0.9-5.9,0l-12.4,7.1c-3-0.3-6.1,0.2-8.3,1.5c-3.7,2.1-3.7,5.6,0,7.8    c3.7,2.1,9.7,2.2,13.4,0c2.2-1.3,3.1-3,2.6-4.8l12.4-7.1C168.6,246.8,168.6,245.3,166.9,244.4z M166,247.2l-12.9,7.4l0.1,0.2    c0.6,1.6-0.2,3.2-2.2,4.3c-3.2,1.8-8.3,1.8-11.5,0c-3.2-1.8-3.2-4.8,0-6.6c1.9-1.1,4.7-1.6,7.4-1.3l0.4,0l12.9-7.4    c1.1-0.6,2.9-0.6,4,0l1.8,1.1C167.1,245.5,167.1,246.6,166,247.2z"></path>			<path class="st20" d="M160.4,248.2l-1.8-1.1c-0.4-0.2-1.1-0.2-1.5,0l-9.2,5.3l-1.3-0.2c-2.1-0.3-4.3,0.1-5.8,1    c-2.5,1.4-2.5,3.7,0,5.2c2.5,1.4,6.5,1.4,9,0c1.5-0.9,2.1-2.1,1.7-3.3l-0.3-0.8l9.2-5.3C160.8,248.8,160.8,248.4,160.4,248.2z"></path>		</g>		<g>			<path class="st20" d="M168.2,192.3l-1.4-0.8l1-0.6c0.7-0.4,0.7-1.1,0-1.5l-2.1-1.2c-0.7-0.4-1.8-0.4-2.5,0l-1,0.6l-2-1.2    c-1.3-0.8-3.7-0.7-5.2,0.2l-16.6,9.6c-0.9,0.5-1.4,1.2-1.4,2c0,0.7,0.4,1.2,1.1,1.6l1.4,0.8l-1.1,0.6c-0.7,0.4-0.7,1.1,0,1.5    l2.1,1.2c0.7,0.4,1.8,0.4,2.5,0l1.1-0.6l2,1.2c0.6,0.4,1.4,0.5,2.3,0.5c1,0,2.1-0.3,2.9-0.7l16.6-9.6c0.9-0.5,1.4-1.2,1.4-2    C169.3,193.3,168.9,192.7,168.2,192.3z M167.3,195l-16.6,9.6c-1.1,0.7-3.1,0.7-4,0.2l-8.1-4.7c-0.2-0.1-0.5-0.3-0.5-0.7    c0-0.3,0.3-0.7,0.8-1l16.6-9.6c0.6-0.4,1.5-0.6,2.3-0.6c0.7,0,1.3,0.1,1.7,0.4l8.1,4.7c0.2,0.1,0.5,0.3,0.5,0.7    C168.2,194.3,167.8,194.7,167.3,195z"></path>			<polygon class="st20" points="148,194.6 153.1,197.6 143.8,200 158.6,198.1 154.1,195.4 162.6,193.5    "></polygon>		</g>		<g>			<path class="st20" d="M152.5,216.8c-1.8,0-3.5-0.4-4.7-1.1l-26.3-15.2c-1.3-0.8-2-1.8-2-3c0-1.4,1-2.8,2.8-3.8l24.6-14.2    c1.7-1,3.8-1.5,6-1.5c1.8,0,3.5,0.4,4.7,1.1l26.3,15.2c1.3,0.8,2,1.8,2,3c0,1.4-1,2.8-2.8,3.8l-24.6,14.2    C156.9,216.3,154.7,216.8,152.5,216.8z M152.9,179.1c-2,0-4,0.5-5.5,1.4l-24.6,14.2c-1.4,0.8-2.2,1.8-2.2,2.8    c0,0.8,0.5,1.5,1.5,2.1l26.3,15.2c1,0.6,2.5,0.9,4.1,0.9c2,0,4-0.5,5.5-1.4l24.6-14.2c1.4-0.8,2.2-1.8,2.2-2.8    c0-0.8-0.5-1.5-1.5-2.1l-26.3-15.2C156,179.5,154.5,179.1,152.9,179.1z"></path>		</g>		<g>			<path class="st20" d="M199.3,243.6c-1.8,0-3.5-0.4-4.7-1.1l-26.3-15.2c-1.3-0.8-2-1.8-2-3c0-1.4,1-2.8,2.8-3.8l24.6-14.2    c1.7-1,3.8-1.5,6-1.5c1.8,0,3.5,0.4,4.7,1.1l26.3,15.2c1.3,0.8,2,1.8,2,3c0,1.4-1,2.8-2.8,3.8l-24.6,14.2    C203.7,243.1,201.5,243.6,199.3,243.6z M199.7,206c-2,0-4,0.5-5.5,1.4l-24.6,14.2c-1.4,0.8-2.2,1.8-2.2,2.8    c0,0.8,0.5,1.5,1.5,2.1l26.3,15.2c1.1,0.6,2.5,0.9,4.1,0.9c2,0,4-0.5,5.5-1.4l24.6-14.2c1.4-0.8,2.2-1.8,2.2-2.8    c0-0.8-0.5-1.5-1.5-2.1l-26.3-15.2C202.8,206.3,201.3,206,199.7,206z"></path>		</g>		<g>			<path class="st20" d="M152.2,270.8c-1.8,0-3.5-0.4-4.7-1.1l-26.3-15.2c-1.3-0.8-2-1.8-2-3c0-1.4,1-2.8,2.8-3.8l24.6-14.2    c1.7-1,3.8-1.5,6-1.5c1.8,0,3.5,0.4,4.7,1.1l26.3,15.2c1.3,0.8,2,1.8,2,3c0,1.4-1,2.8-2.8,3.8l-24.6,14.2    C156.5,270.2,154.3,270.8,152.2,270.8z M152.5,233.1c-2,0-4,0.5-5.5,1.4l-24.6,14.2c-1.4,0.8-2.2,1.8-2.2,2.8    c0,0.8,0.5,1.5,1.5,2.1l26.3,15.2c1.1,0.6,2.5,0.9,4.1,0.9c2,0,4-0.5,5.5-1.4l24.6-14.2c1.4-0.8,2.2-1.8,2.2-2.8    c0-0.8-0.5-1.5-1.5-2.1L156.7,234C155.6,233.4,154.2,233.1,152.5,233.1z"></path>		</g>	</g>	<path class="st22" d="M108.4,221.4c-0.3,0-0.5-0.2-0.5-0.5v-0.1c0-0.3,0.2-0.5,0.5-0.5c0.3,0,0.5,0.2,0.5,0.5v0.1  C108.9,221.2,108.7,221.4,108.4,221.4z M108.4,219.1c-0.3,0-0.5-0.2-0.5-0.5v-2.2c0-0.3,0.2-0.5,0.5-0.5c0.3,0,0.5,0.2,0.5,0.5v2.2  C108.9,218.9,108.7,219.1,108.4,219.1z M108.4,214.8c-0.3,0-0.5-0.2-0.5-0.5v-2.2c0-0.3,0.2-0.5,0.5-0.5c0.3,0,0.5,0.2,0.5,0.5v2.2  C108.9,214.6,108.7,214.8,108.4,214.8z M108.4,210.5c-0.3,0-0.5-0.2-0.5-0.5v-2.2c0-0.3,0.2-0.5,0.5-0.5c0.3,0,0.5,0.2,0.5,0.5v2.2  C108.9,210.3,108.7,210.5,108.4,210.5z M108.4,206.2c-0.3,0-0.5-0.2-0.5-0.5v-2.2c0-0.3,0.2-0.5,0.5-0.5c0.3,0,0.5,0.2,0.5,0.5v2.2  C108.9,205.9,108.7,206.2,108.4,206.2z M108.4,201.9c-0.3,0-0.5-0.2-0.5-0.5v-2.2c0-0.3,0.2-0.5,0.5-0.5c0.3,0,0.5,0.2,0.5,0.5v2.2  C108.9,201.6,108.7,201.9,108.4,201.9z M108.4,197.5c-0.3,0-0.5-0.2-0.5-0.5v-2.2c0-0.3,0.2-0.5,0.5-0.5c0.3,0,0.5,0.2,0.5,0.5v2.2  C108.9,197.3,108.7,197.5,108.4,197.5z M108.4,193.2c-0.3,0-0.5-0.2-0.5-0.5v-2.2c0-0.3,0.2-0.5,0.5-0.5c0.3,0,0.5,0.2,0.5,0.5v2.2  C108.9,193,108.7,193.2,108.4,193.2z M108.4,188.9c-0.3,0-0.5-0.2-0.5-0.5v-2.2c0-0.3,0.2-0.5,0.5-0.5c0.3,0,0.5,0.2,0.5,0.5v2.2  C108.9,188.6,108.7,188.9,108.4,188.9z M108.4,184.6c-0.3,0-0.5-0.2-0.5-0.5v-2.2c0-0.3,0.2-0.5,0.5-0.5c0.3,0,0.5,0.2,0.5,0.5v2.2  C108.9,184.3,108.7,184.6,108.4,184.6z M108.4,180.2c-0.3,0-0.5-0.2-0.5-0.5v-2.2c0-0.3,0.2-0.5,0.5-0.5c0.3,0,0.5,0.2,0.5,0.5v2.2  C108.9,180,108.7,180.2,108.4,180.2z M108.4,175.9c-0.3,0-0.5-0.2-0.5-0.5v-2.2c0-0.3,0.2-0.5,0.5-0.5c0.3,0,0.5,0.2,0.5,0.5v2.2  C108.9,175.7,108.7,175.9,108.4,175.9z M108.4,171.6c-0.3,0-0.5-0.2-0.5-0.5v-2.2c0-0.3,0.2-0.5,0.5-0.5c0.3,0,0.5,0.2,0.5,0.5v2.2  C108.9,171.3,108.7,171.6,108.4,171.6z M108.4,167.3c-0.3,0-0.5-0.2-0.5-0.5v-2.2c0-0.3,0.2-0.5,0.5-0.5c0.3,0,0.5,0.2,0.5,0.5v2.2  C108.9,167,108.7,167.3,108.4,167.3z M108.4,162.9c-0.3,0-0.5-0.2-0.5-0.5v-2.2c0-0.3,0.2-0.5,0.5-0.5c0.3,0,0.5,0.2,0.5,0.5v2.2  C108.9,162.7,108.7,162.9,108.4,162.9z M108.4,158.6c-0.3,0-0.5-0.2-0.5-0.5v-2.2c0-0.3,0.2-0.5,0.5-0.5c0.3,0,0.5,0.2,0.5,0.5v2.2  C108.9,158.4,108.7,158.6,108.4,158.6z"></path>			<radialGradient id="SVGID_00000059279264898547252750000006313963131445118848_" cx="108.3747" cy="222.1585" r="11.6723" gradientUnits="userSpaceOnUse">		<stop offset="0.101" style="stop-color:#FFFFFF"></stop>		<stop offset="0.1302" style="stop-color:#C778CE"></stop>		<stop offset="0.1515" style="stop-color:#9F19AB"></stop>		<stop offset="0.1654" style="stop-color:#93179E"></stop>		<stop offset="0.2118" style="stop-color:#711279"></stop>		<stop offset="0.2635" style="stop-color:#520D58"></stop>		<stop offset="0.3205" style="stop-color:#38093D"></stop>		<stop offset="0.3845" style="stop-color:#230626"></stop>		<stop offset="0.4588" style="stop-color:#130315"></stop>		<stop offset="0.5496" style="stop-color:#080109"></stop>		<stop offset="0.675" style="stop-color:#020002"></stop>		<stop offset="1" style="stop-color:#000000"></stop>	</radialGradient>	<circle style="fill:url(#SVGID_00000059279264898547252750000006313963131445118848_);" cx="108.4" cy="222.2" r="11.7"></circle>	<g>					<linearGradient id="SVGID_00000021798830825920704700000010051189777330789015_" gradientUnits="userSpaceOnUse" x1="353.6854" y1="229.0481" x2="181.8546" y2="92.8221">			<stop offset="0" style="stop-color:#FFFFFF"></stop>			<stop offset="1" style="stop-color:#939598"></stop>		</linearGradient>		<polygon style="fill:url(#SVGID_00000021798830825920704700000010051189777330789015_);" points="173.5,163.2 194.1,175    194.3,181.7 221.7,197.6 261.1,213.3 336.4,195.3 329.8,192.2 356.5,152.3 274.5,102.9   "></polygon>		<g>							<linearGradient id="SVGID_00000143606498752593797160000007859971585619252395_" gradientUnits="userSpaceOnUse" x1="277.8812" y1="98.7497" x2="306.8595" y2="63.057">				<stop offset="9.595960e-02" style="stop-color:#45108A"></stop>				<stop offset="1" style="stop-color:#7C1DC9"></stop>			</linearGradient>			<polygon style="fill:url(#SVGID_00000143606498752593797160000007859971585619252395_);" points="219.3,67.1 299,113.5     344.9,120.1 265.1,74.6    "></polygon>							<linearGradient id="SVGID_00000111901200070938155240000017026318709351102619_" gradientUnits="userSpaceOnUse" x1="328.7754" y1="171.2555" x2="378.2398" y2="282.2491">				<stop offset="0" style="stop-color:#9F79C8"></stop>				<stop offset="0.1367" style="stop-color:#A580CB"></stop>				<stop offset="0.3288" style="stop-color:#B492D3"></stop>				<stop offset="0.5529" style="stop-color:#CDB0E1"></stop>				<stop offset="0.5808" style="stop-color:#D1B4E3"></stop>				<stop offset="0.7644" style="stop-color:#DBC4E9"></stop>				<stop offset="1" style="stop-color:#EBDEF3"></stop>			</linearGradient>			<polygon style="fill:url(#SVGID_00000111901200070938155240000017026318709351102619_);" points="299,113.5 299,191.8     307.2,187.1 307.3,185.4 336.6,168 338.3,168.7 344.9,164.8 344.9,120.1    "></polygon>							<linearGradient id="SVGID_00000145050789789691672330000007698662922608374171_" gradientUnits="userSpaceOnUse" x1="233.9423" y1="115.6255" x2="297.0447" y2="150.2104">				<stop offset="0" style="stop-color:#9F79C8"></stop>				<stop offset="0.1367" style="stop-color:#A580CB"></stop>				<stop offset="0.3288" style="stop-color:#B492D3"></stop>				<stop offset="0.5529" style="stop-color:#CDB0E1"></stop>				<stop offset="0.5808" style="stop-color:#D1B4E3"></stop>				<stop offset="0.7644" style="stop-color:#DBC4E9"></stop>				<stop offset="1" style="stop-color:#EBDEF3"></stop>			</linearGradient>			<polygon style="fill:url(#SVGID_00000145050789789691672330000007698662922608374171_);" points="299,113.5 299,191.8     219.3,145.3 219.3,67.1    "></polygon>		</g>		<polygon class="st28" points="305.4,147 340.3,126 340.3,167.6 338.3,168.7 336.6,168 307.3,185.4 307.2,187.1 305.4,188.2   "></polygon>					<linearGradient id="SVGID_00000058553770534947259540000009658925479910289803_" gradientUnits="userSpaceOnUse" x1="302.4893" y1="167.5754" x2="397.6932" y2="120.1968">			<stop offset="9.595960e-02" style="stop-color:#45108A"></stop>			<stop offset="1" style="stop-color:#7C1DC9"></stop>		</linearGradient>		<polygon style="fill:url(#SVGID_00000058553770534947259540000009658925479910289803_);" points="336.6,168 336.6,130.4    307.3,148 307.3,185.4   "></polygon>		<polygon class="st30" points="336.6,133.3 336.6,130.4 307.3,148 307.3,150.6   "></polygon>		<g>			<polygon class="st30" points="336.6,133.8 336.6,132.3 307.3,149.9 307.3,151.2    "></polygon>			<polygon class="st30" points="336.6,136.8 336.6,135.3 307.3,152.9 307.3,154.2    "></polygon>			<polygon class="st30" points="336.6,139.8 336.6,138.3 307.3,155.9 307.3,157.1    "></polygon>			<polygon class="st30" points="336.6,142.7 336.6,141.2 307.3,158.8 307.3,160.1    "></polygon>			<polygon class="st30" points="336.6,145.7 336.6,144.2 307.3,161.8 307.3,163.1    "></polygon>			<polygon class="st30" points="336.6,148.7 336.6,147.2 307.3,164.8 307.3,166    "></polygon>			<polygon class="st30" points="336.6,151.6 336.6,150.1 307.3,167.7 307.3,169    "></polygon>			<polygon class="st30" points="336.6,154.6 336.6,153.1 307.3,170.7 307.3,172    "></polygon>			<polygon class="st30" points="336.6,157.6 336.6,156.1 307.3,173.7 307.3,174.9    "></polygon>			<polygon class="st30" points="336.6,160.5 336.6,159 307.3,176.6 307.3,177.9    "></polygon>			<polygon class="st30" points="336.6,163.5 336.6,162 307.3,179.6 307.3,180.9    "></polygon>			<polygon class="st30" points="336.6,166.5 336.6,164.9 307.3,182.6 307.3,183.8    "></polygon>		</g>		<g>							<linearGradient id="SVGID_00000135657577668672141990000008638750194525074595_" gradientUnits="userSpaceOnUse" x1="201.6774" y1="95.2225" x2="225.4774" y2="220.6844">				<stop offset="0" style="stop-color:#9F79C8"></stop>				<stop offset="0.1367" style="stop-color:#A580CB"></stop>				<stop offset="0.3288" style="stop-color:#B492D3"></stop>				<stop offset="0.5529" style="stop-color:#CDB0E1"></stop>				<stop offset="0.5808" style="stop-color:#D1B4E3"></stop>				<stop offset="0.7644" style="stop-color:#DBC4E9"></stop>				<stop offset="1" style="stop-color:#EBDEF3"></stop>			</linearGradient>			<polygon style="fill:url(#SVGID_00000135657577668672141990000008638750194525074595_);" points="255.1,159.9 255.1,209.7     173.5,163.2 173.5,113    "></polygon>							<linearGradient id="SVGID_00000160170275497339749400000003193373450333952898_" gradientUnits="userSpaceOnUse" x1="216.4753" y1="221.5126" x2="239.8025" y2="59.4833">				<stop offset="9.595960e-02" style="stop-color:#45108A"></stop>				<stop offset="1" style="stop-color:#7C1DC9"></stop>			</linearGradient>			<polygon style="fill:url(#SVGID_00000160170275497339749400000003193373450333952898_);" points="255.1,160.4 293.3,94.5     211.7,48 173.5,113.5    "></polygon>			<polygon class="st33" points="179.2,166.2 179.2,122.5 196.6,132.7 196.6,176.3    "></polygon>			<polygon class="st28" points="194.7,133.8 194.7,173 181.1,165.1 181.1,125.8    "></polygon>							<linearGradient id="SVGID_00000041986693819679520660000013757662977906883516_" gradientUnits="userSpaceOnUse" x1="251.0772" y1="165.6625" x2="352.1414" y2="106.9716">				<stop offset="0" style="stop-color:#9F79C8"></stop>				<stop offset="0.1367" style="stop-color:#A580CB"></stop>				<stop offset="0.3288" style="stop-color:#B492D3"></stop>				<stop offset="0.5529" style="stop-color:#CDB0E1"></stop>				<stop offset="0.5808" style="stop-color:#D1B4E3"></stop>				<stop offset="0.7644" style="stop-color:#DBC4E9"></stop>				<stop offset="1" style="stop-color:#EBDEF3"></stop>			</linearGradient>			<polygon style="fill:url(#SVGID_00000041986693819679520660000013757662977906883516_);" points="255.1,209.7 255.1,160.4     293.2,94 293.2,188.4    "></polygon>							<linearGradient id="SVGID_00000063595988292710848360000006390114637680809118_" gradientUnits="userSpaceOnUse" x1="224.9027" y1="156.1834" x2="291.5742" y2="89.7485">				<stop offset="0" style="stop-color:#9F79C8"></stop>				<stop offset="0.1367" style="stop-color:#A580CB"></stop>				<stop offset="0.3288" style="stop-color:#B492D3"></stop>				<stop offset="0.5529" style="stop-color:#CDB0E1"></stop>				<stop offset="0.5808" style="stop-color:#D1B4E3"></stop>				<stop offset="0.7644" style="stop-color:#DBC4E9"></stop>				<stop offset="1" style="stop-color:#EBDEF3"></stop>			</linearGradient>			<polygon style="fill:url(#SVGID_00000063595988292710848360000006390114637680809118_);" points="256.9,98.2 221.7,118.8     221.7,197.6 227.4,194.3 227.4,144.4    "></polygon>							<linearGradient id="SVGID_00000069370470357917908510000018136594299054288284_" gradientUnits="userSpaceOnUse" x1="160.173" y1="155.4107" x2="218.5706" y2="142.3198">				<stop offset="3.535350e-02" style="stop-color:#138BBD"></stop>				<stop offset="0.2257" style="stop-color:#169AC7"></stop>				<stop offset="0.5946" style="stop-color:#1FC3DF"></stop>				<stop offset="1" style="stop-color:#2AF6FF"></stop>			</linearGradient>			<polygon style="fill:url(#SVGID_00000069370470357917908510000018136594299054288284_);" points="182.8,164.2 194.7,171.2     194.7,133.8 182.8,126.8    "></polygon>							<linearGradient id="SVGID_00000054262901639669205540000012702049288148575153_" gradientUnits="userSpaceOnUse" x1="207.95" y1="113.7351" x2="182.8891" y2="145.4159">				<stop offset="3.535350e-02" style="stop-color:#138BBD"></stop>				<stop offset="0.2257" style="stop-color:#169AC7"></stop>				<stop offset="0.5946" style="stop-color:#1FC3DF"></stop>				<stop offset="1" style="stop-color:#2AF6FF"></stop>			</linearGradient>			<polygon style="opacity:0.5;fill:url(#SVGID_00000054262901639669205540000012702049288148575153_);" points="182.8,164.2     194.7,133.8 182.8,126.8    "></polygon>							<linearGradient id="SVGID_00000132768278065511296690000013577588621616005302_" gradientUnits="userSpaceOnUse" x1="160.173" y1="155.4107" x2="218.5706" y2="142.3198">				<stop offset="9.595960e-02" style="stop-color:#45108A"></stop>				<stop offset="1" style="stop-color:#7C1DC9"></stop>			</linearGradient>			<path style="opacity:0.5;fill:url(#SVGID_00000132768278065511296690000013577588621616005302_);" d="M182.8,126.8v37.4l11.9,6.9    v-37.3L182.8,126.8z M193.8,169.5l-10-5.8v-35.2l10,5.9V169.5z"></path>							<linearGradient id="SVGID_00000063629120334426432420000000941694046522257585_" gradientUnits="userSpaceOnUse" x1="176.3809" y1="143.5799" x2="237.7852" y2="156.393">				<stop offset="0" style="stop-color:#9F79C8"></stop>				<stop offset="0.1367" style="stop-color:#A580CB"></stop>				<stop offset="0.3288" style="stop-color:#B492D3"></stop>				<stop offset="0.5529" style="stop-color:#CDB0E1"></stop>				<stop offset="0.5808" style="stop-color:#D1B4E3"></stop>				<stop offset="0.7644" style="stop-color:#DBC4E9"></stop>				<stop offset="1" style="stop-color:#EBDEF3"></stop>			</linearGradient>			<polygon style="fill:url(#SVGID_00000063629120334426432420000000941694046522257585_);" points="221.7,118.8 221.7,197.6     194.3,181.7 194.3,102.7    "></polygon>			<polygon class="st33" points="199.3,184.4 199.3,140.7 216.7,150.9 216.7,194.5    "></polygon>			<polygon class="st28" points="214.8,152 214.8,191.2 201.2,183.3 201.2,144    "></polygon>			<polygon class="st33" points="232.2,196.4 232.2,152.7 249.7,162.9 249.7,206.5    "></polygon>			<polygon class="st28" points="247.8,164 247.8,203.2 234.1,195.3 234.1,156    "></polygon>			<polygon class="st33" points="199.3,135 199.3,111.4 216.7,121.6 216.7,145.1    "></polygon>			<polygon class="st28" points="214.8,122.7 214.8,141.8 201.2,133.9 201.2,114.7    "></polygon>							<linearGradient id="SVGID_00000040572664499434475830000007358378066581972359_" gradientUnits="userSpaceOnUse" x1="180.2691" y1="173.6152" x2="238.6664" y2="160.5244">				<stop offset="3.535350e-02" style="stop-color:#138BBD"></stop>				<stop offset="0.2257" style="stop-color:#169AC7"></stop>				<stop offset="0.5946" style="stop-color:#1FC3DF"></stop>				<stop offset="1" style="stop-color:#2AF6FF"></stop>			</linearGradient>			<polygon style="fill:url(#SVGID_00000040572664499434475830000007358378066581972359_);" points="202.9,182.4 214.8,189.4     214.8,152 202.9,145    "></polygon>							<linearGradient id="SVGID_00000125581578160378948470000005401532891946082450_" gradientUnits="userSpaceOnUse" x1="187.5192" y1="140.1243" x2="214.7867" y2="174.7997">				<stop offset="3.535350e-02" style="stop-color:#138BBD"></stop>				<stop offset="0.2257" style="stop-color:#169AC7"></stop>				<stop offset="0.5946" style="stop-color:#1FC3DF"></stop>				<stop offset="1" style="stop-color:#2AF6FF"></stop>			</linearGradient>			<polygon style="fill:url(#SVGID_00000125581578160378948470000005401532891946082450_);" points="202.9,182.4 214.8,152     202.9,145    "></polygon>							<linearGradient id="SVGID_00000097488159662371083930000010600656834124180138_" gradientUnits="userSpaceOnUse" x1="213.2502" y1="185.594" x2="271.6474" y2="172.5032">				<stop offset="3.535350e-02" style="stop-color:#138BBD"></stop>				<stop offset="0.2257" style="stop-color:#169AC7"></stop>				<stop offset="0.5946" style="stop-color:#1FC3DF"></stop>				<stop offset="1" style="stop-color:#2AF6FF"></stop>			</linearGradient>			<polygon style="fill:url(#SVGID_00000097488159662371083930000010600656834124180138_);" points="235.9,194.4 247.8,201.4     247.8,164 235.9,157    "></polygon>							<linearGradient id="SVGID_00000044162847292321244320000015181503312008319922_" gradientUnits="userSpaceOnUse" x1="260.6079" y1="126.1114" x2="230.8186" y2="185.8477">				<stop offset="3.535350e-02" style="stop-color:#138BBD"></stop>				<stop offset="0.2257" style="stop-color:#169AC7"></stop>				<stop offset="0.5946" style="stop-color:#1FC3DF"></stop>				<stop offset="1" style="stop-color:#2AF6FF"></stop>			</linearGradient>			<polygon style="opacity:0.5;fill:url(#SVGID_00000044162847292321244320000015181503312008319922_);" points="235.9,194.4     247.8,164 235.9,157    "></polygon>							<linearGradient id="SVGID_00000044883708261967716620000006838557429263519366_" gradientUnits="userSpaceOnUse" x1="187.1396" y1="132.7121" x2="231.4911" y2="122.77">				<stop offset="3.535350e-02" style="stop-color:#138BBD"></stop>				<stop offset="0.2257" style="stop-color:#169AC7"></stop>				<stop offset="0.5946" style="stop-color:#1FC3DF"></stop>				<stop offset="1" style="stop-color:#2AF6FF"></stop>			</linearGradient>			<polygon style="fill:url(#SVGID_00000044883708261967716620000006838557429263519366_);" points="202.9,133 214.8,140     214.8,122.7 202.9,115.7    "></polygon>							<linearGradient id="SVGID_00000144330001762141932120000013729458442195308223_" gradientUnits="userSpaceOnUse" x1="213.2502" y1="185.594" x2="271.6474" y2="172.5032">				<stop offset="9.595960e-02" style="stop-color:#45108A"></stop>				<stop offset="1" style="stop-color:#7C1DC9"></stop>			</linearGradient>			<path style="opacity:0.5;fill:url(#SVGID_00000144330001762141932120000013729458442195308223_);" d="M235.9,157v37.4l11.9,6.9    V164L235.9,157z M246.8,199.7l-10-5.8v-35.2l10,5.9V199.7z"></path>							<linearGradient id="SVGID_00000140696092146988184540000006652510298278365857_" gradientUnits="userSpaceOnUse" x1="191.6559" y1="128.2001" x2="215.7711" y2="120.0041">				<stop offset="3.535350e-02" style="stop-color:#138BBD"></stop>				<stop offset="0.2257" style="stop-color:#169AC7"></stop>				<stop offset="0.5946" style="stop-color:#1FC3DF"></stop>				<stop offset="1" style="stop-color:#2AF6FF"></stop>			</linearGradient>			<polygon style="fill:url(#SVGID_00000140696092146988184540000006652510298278365857_);" points="202.9,133 214.8,122.7     202.9,115.7    "></polygon>							<linearGradient id="SVGID_00000123415865494958786940000011568240532204071565_" gradientUnits="userSpaceOnUse" x1="187.1396" y1="132.7121" x2="231.4911" y2="122.77">				<stop offset="9.595960e-02" style="stop-color:#45108A"></stop>				<stop offset="1" style="stop-color:#7C1DC9"></stop>			</linearGradient>			<path style="opacity:0.5;fill:url(#SVGID_00000123415865494958786940000011568240532204071565_);" d="M202.9,115.7V133l11.9,6.9    v-17.3L202.9,115.7z M213.8,138.3l-10-5.8v-15.1l10,5.9V138.3z"></path>							<linearGradient id="SVGID_00000012448115108372355430000011635440537665783698_" gradientUnits="userSpaceOnUse" x1="180.2691" y1="173.6152" x2="238.6664" y2="160.5244">				<stop offset="9.595960e-02" style="stop-color:#45108A"></stop>				<stop offset="1" style="stop-color:#7C1DC9"></stop>			</linearGradient>			<path style="opacity:0.5;fill:url(#SVGID_00000012448115108372355430000011635440537665783698_);" d="M202.9,145v37.4l11.9,6.9    V152L202.9,145z M213.8,187.7l-10-5.8v-35.2l10,5.9V187.7z"></path>			<polygon class="st28" points="265.3,155.1 268.3,153.4 285.8,143.2 285.8,117.7    "></polygon>			<polygon class="st33" points="270.3,150 283.9,142.1 283.9,125.3    "></polygon>			<polygon class="st28" points="265.6,160.3 285.8,148.7 285.8,192.4 265.6,203.9    "></polygon>			<polygon class="st33" points="267.5,161.4 267.5,200.6 283.9,191.3 283.9,152    "></polygon>							<linearGradient id="SVGID_00000168831743579998682200000013421128820171872683_" gradientUnits="userSpaceOnUse" x1="267.4715" y1="178.1274" x2="317.8782" y2="163.0339">				<stop offset="9.595960e-02" style="stop-color:#45108A"></stop>				<stop offset="1" style="stop-color:#7C1DC9"></stop>			</linearGradient>			<polygon style="fill:url(#SVGID_00000168831743579998682200000013421128820171872683_);" points="282.4,190.4 282.4,153     267.5,161.4 267.5,198.8    "></polygon>			<path class="st30" d="M267.5,161.4v37.4l14.9-8.4V153L267.5,161.4z M281.4,189.9l-13,7.3v-35.3l13-7.4V189.9z"></path>							<linearGradient id="SVGID_00000147186965261955158510000009447193640686639786_" gradientUnits="userSpaceOnUse" x1="272.7881" y1="139.0532" x2="301.6559" y2="130.4092">				<stop offset="3.535350e-02" style="stop-color:#138BBD"></stop>				<stop offset="0.2257" style="stop-color:#169AC7"></stop>				<stop offset="0.5946" style="stop-color:#1FC3DF"></stop>				<stop offset="1" style="stop-color:#2AF6FF"></stop>			</linearGradient>			<polygon style="fill:url(#SVGID_00000147186965261955158510000009447193640686639786_);" points="282.4,128.1 271.7,147.4     282.4,141.2    "></polygon>							<linearGradient id="SVGID_00000018212957102754063270000010531618698037954239_" gradientUnits="userSpaceOnUse" x1="272.788" y1="139.0532" x2="301.6558" y2="130.4091">				<stop offset="9.595960e-02" style="stop-color:#45108A"></stop>				<stop offset="1" style="stop-color:#7C1DC9"></stop>			</linearGradient>			<path style="opacity:0.5;fill:url(#SVGID_00000018212957102754063270000010531618698037954239_);" d="M271.7,147.4l10.6-6.2    v-13.1L271.7,147.4z M281.4,140.7l-7.2,4.2l7.2-13.1V140.7z"></path>							<linearGradient id="SVGID_00000020376399641360562370000000112185999345019315_" gradientUnits="userSpaceOnUse" x1="233.6576" y1="194.1164" x2="223.5702" y2="76.8508">				<stop offset="9.595960e-02" style="stop-color:#45108A"></stop>				<stop offset="1" style="stop-color:#7C1DC9"></stop>			</linearGradient>			<polygon style="fill:url(#SVGID_00000020376399641360562370000000112185999345019315_);" points="221.7,118.8 256.9,98.2     229.5,82.2 194.3,102.7    "></polygon>		</g>		<g>							<linearGradient id="SVGID_00000153670532567927357290000004394741325585762455_" gradientUnits="userSpaceOnUse" x1="281.1199" y1="203.7163" x2="285.4949" y2="213.5334">				<stop offset="0" style="stop-color:#9F79C8"></stop>				<stop offset="0.1367" style="stop-color:#A580CB"></stop>				<stop offset="0.3288" style="stop-color:#B492D3"></stop>				<stop offset="0.5529" style="stop-color:#CDB0E1"></stop>				<stop offset="0.5808" style="stop-color:#D1B4E3"></stop>				<stop offset="0.7644" style="stop-color:#DBC4E9"></stop>				<stop offset="1" style="stop-color:#EBDEF3"></stop>			</linearGradient>			<polygon style="fill:url(#SVGID_00000153670532567927357290000004394741325585762455_);" points="261.1,211 261.1,213.3     299.1,191.7 299.1,189.4    "></polygon>							<linearGradient id="SVGID_00000169518056349866004340000010777627883536528289_" gradientUnits="userSpaceOnUse" x1="238.4361" y1="123.4649" x2="259.5567" y2="216.931">				<stop offset="0" style="stop-color:#9F79C8"></stop>				<stop offset="0.1367" style="stop-color:#A580CB"></stop>				<stop offset="0.3288" style="stop-color:#B492D3"></stop>				<stop offset="0.5529" style="stop-color:#CDB0E1"></stop>				<stop offset="0.5808" style="stop-color:#D1B4E3"></stop>				<stop offset="0.7644" style="stop-color:#DBC4E9"></stop>				<stop offset="1" style="stop-color:#EBDEF3"></stop>			</linearGradient>			<polygon style="fill:url(#SVGID_00000169518056349866004340000010777627883536528289_);" points="261.1,211 261.1,213.3     255,209.7 255,207.4    "></polygon>							<linearGradient id="SVGID_00000137099731864467223060000003262882317878210973_" gradientUnits="userSpaceOnUse" x1="310.6633" y1="134.3811" x2="270.4459" y2="211.0271">				<stop offset="0" style="stop-color:#9F79C8"></stop>				<stop offset="0.1367" style="stop-color:#A580CB"></stop>				<stop offset="0.3288" style="stop-color:#B492D3"></stop>				<stop offset="0.5529" style="stop-color:#CDB0E1"></stop>				<stop offset="0.5808" style="stop-color:#D1B4E3"></stop>				<stop offset="0.7644" style="stop-color:#DBC4E9"></stop>				<stop offset="1" style="stop-color:#EBDEF3"></stop>			</linearGradient>			<polygon style="fill:url(#SVGID_00000137099731864467223060000003262882317878210973_);" points="255,207.4 261.1,211     299.1,189.4 293.1,186    "></polygon>		</g>					<linearGradient id="SVGID_00000116203654545717072360000002077898869064816778_" gradientUnits="userSpaceOnUse" x1="283.4993" y1="168.9012" x2="269.5507" y2="177.4123">			<stop offset="2.020200e-02" style="stop-color:#45108A"></stop>			<stop offset="0.2929" style="stop-color:#3D065F"></stop>			<stop offset="1" style="stop-color:#12054E"></stop>			<stop offset="1" style="stop-color:#10054D"></stop>		</linearGradient>		<path style="fill:url(#SVGID_00000116203654545717072360000002077898869064816778_);" d="M270.9,176.6c0,0.6-0.4,1.4-1,1.7   c-0.5,0.3-1,0.1-1-0.6c0-0.6,0.4-1.4,1-1.7C270.5,175.7,270.9,176,270.9,176.6z"></path>					<linearGradient id="SVGID_00000001630268435888589980000009724199998062643878_" gradientUnits="userSpaceOnUse" x1="251.6126" y1="128.753" x2="234.1172" y2="114.8828">			<stop offset="0" style="stop-color:#FFFFFF"></stop>			<stop offset="1" style="stop-color:#BCBEC0"></stop>		</linearGradient>		<polygon style="fill:url(#SVGID_00000001630268435888589980000009724199998062643878_);" points="227.4,144.4 256.9,98.2    235.7,149.1   "></polygon>					<linearGradient id="SVGID_00000049202695040384623810000017750475930247553727_" gradientUnits="userSpaceOnUse" x1="277.834" y1="165.9303" x2="276.7307" y2="211.6389">			<stop offset="0" style="stop-color:#9F79C8"></stop>			<stop offset="0.1367" style="stop-color:#A580CB"></stop>			<stop offset="0.3288" style="stop-color:#B492D3"></stop>			<stop offset="0.5529" style="stop-color:#CDB0E1"></stop>			<stop offset="0.5808" style="stop-color:#D1B4E3"></stop>			<stop offset="0.7644" style="stop-color:#DBC4E9"></stop>			<stop offset="1" style="stop-color:#EBDEF3"></stop>		</linearGradient>		<polygon style="fill:url(#SVGID_00000049202695040384623810000017750475930247553727_);" points="255,207.4 299.1,189.4    293.1,186   "></polygon>		<polygon class="st33" points="336.6,130.4 336.6,168 338.3,168.7 338.3,129.5   "></polygon>	</g>	<path class="st20" d="M262.3,277.3l-14.1-8.1l-12.2,7.1l14.1,8.1L262.3,277.3z M250,283.4l-12.5-7.2l10.6-6.1l12.5,7.2L250,283.4z   M270.1,273.6l-15.5-9c-1.6-0.9-4.1-0.9-5.7,0l-19.2,11.1l21.2,12.3l19.2-11.1C271.7,276,271.7,274.5,270.1,273.6z M250.9,287.1  l-19.6-11.3l16.3-9.4l19.6,11.3L250.9,287.1z M268,277.2l-19.6-11.3l1.4-0.8c1.1-0.6,3-0.6,4.1,0l15.5,9c1.1,0.7,1.1,1.7,0,2.4  L268,277.2z M266.2,273.4c-0.5-0.3-1.2-0.3-1.7,0c-0.5,0.3-0.5,0.7,0,1c0.5,0.3,1.2,0.3,1.7,0C266.7,274.1,266.7,273.7,266.2,273.4  z M262.4,271.2c-0.5-0.3-1.2-0.3-1.7,0c-0.5,0.3-0.5,0.7,0,1c0.5,0.3,1.2,0.3,1.7,0C262.9,271.9,262.9,271.5,262.4,271.2z   M258.7,269.1c-0.5-0.3-1.2-0.3-1.7,0c-0.5,0.3-0.5,0.7,0,1c0.5,0.3,1.2,0.3,1.7,0C259.2,269.8,259.2,269.3,258.7,269.1z   M255,266.9c-0.5-0.3-1.2-0.3-1.7,0c-0.5,0.3-0.5,0.7,0,1c0.5,0.3,1.2,0.3,1.7,0C255.4,267.6,255.4,267.2,255,266.9z"></path>	<path class="st20" d="M200.8,315.5l3.2-1.8c1.5-0.9,1.5-2.3,0-3.1l-13.8-8c-1.5-0.9-4-0.9-5.4,0l-3.2,1.8c-1.5-0.2-3.1,0-4.2,0.6  l-7.3,4.2l0.8,0.4l3.2-1.9l20.9,12.1l-3.2,1.9l0.8,0.4l7.3-4.2C200.8,317.2,201.1,316.3,200.8,315.5z M185.4,302.9  c1.1-0.6,2.9-0.6,3.9,0l13.8,8c1.1,0.6,1.1,1.7,0,2.3l-2.9,1.7c-0.2-0.2-0.4-0.4-0.7-0.5l-0.3-0.1l0.6-0.3c1.1-0.6,1.1-1.7,0-2.3  l-3.9-2.3c-0.9-0.5-2.3-0.6-3.4-0.3c0.6-0.6,0.4-1.4-0.5-1.9l-3.9-2.3c-1.1-0.6-2.9-0.6-4,0l-0.6,0.3l-0.3-0.1  c-0.3-0.2-0.6-0.3-0.9-0.4L185.4,302.9z M190.9,309.2l-6.4-3.7l0.6-0.3c0.7-0.4,1.8-0.4,2.5,0l3.9,2.3c0.7,0.4,0.7,1,0,1.4  L190.9,309.2z M198.6,313.7l-6.4-3.7l0.6-0.3c0.7-0.4,1.8-0.4,2.5,0l3.9,2.3c0.7,0.4,0.7,1,0,1.4L198.6,313.7z M174.6,307.3l3.4-2  c1.3-0.8,3.4-0.7,4.7,0l16.2,9.3c1.3,0.8,1.3,2,0,2.7l-3.4,2L174.6,307.3z"></path>	<path class="st20" d="M325.3,243.8l-1.2-8.7c-0.1-1.1-1.8-2.1-3.7-2.1l-15.1-0.7c-1.2-0.1-2.3,0.2-3.1,0.7l-12.4,7.2l22,12.7  l12.4-7.2C325,245.2,325.4,244.5,325.3,243.8z M318.3,244.6l-14.3-8.2l1-0.6l14.3,8.2L318.3,244.6z M303.3,236.8l14.3,8.2l-8.9,5.1  l-14.3-8.2L303.3,236.8z M311.7,251.9l-2.4-1.4l11.4-6.6l-15.8-9.1l-11.4,6.6l-2.4-1.4l11.7-6.7c0.6-0.3,1.4-0.5,2.3-0.5l15.1,0.7  c1.4,0.1,2.6,0.8,2.7,1.6l1.2,8.7c0.1,0.5-0.2,1-0.8,1.3L311.7,251.9z"></path>	<g>		<path class="st20" d="M359.7,274.9c-1.5,0-2.6-0.2-3.5-0.7c-0.5-0.3-0.9-0.7-1.1-1.1c-0.2-0.4-0.3-0.8-0.3-1.2   c0-0.4,0.2-0.8,0.5-1.2c0.3-0.4,0.7-0.7,1.2-1c0.5-0.3,1.1-0.5,1.8-0.7c0.7-0.2,1.3-0.3,2-0.3c0.7,0,1.4,0,2,0.2   c0.7,0.1,1.3,0.4,1.8,0.7c0.8,0.4,1.2,0.9,1.4,1.4c0.2,0.5,0.1,0.9-0.1,1.4l-1.3-0.1c0.2-0.4,0.2-0.8,0.1-1.1   c-0.2-0.4-0.5-0.7-1-1c-0.4-0.2-0.9-0.4-1.4-0.5c-0.5-0.1-1-0.1-1.5-0.1c-0.5,0-1,0.1-1.5,0.3c-0.5,0.1-1,0.3-1.4,0.6   c-0.4,0.2-0.8,0.5-1,0.8c-0.2,0.3-0.4,0.6-0.4,0.9c0,0.3,0,0.6,0.2,0.9c0.2,0.3,0.5,0.5,0.9,0.8c0.9,0.5,2.1,0.7,3.6,0.6l1.1-0.6   l-1.7-1l0.8-0.4l2.6,1.5l-3.9,2.3l-0.9-0.5L359.7,274.9z"></path>		<path class="st20" d="M362.5,277.9c-0.3-0.2-0.5-0.3-0.6-0.5c-0.1-0.2-0.2-0.4-0.2-0.6c0-0.2,0-0.4,0.2-0.6   c0.1-0.2,0.3-0.4,0.6-0.5c0.3-0.2,0.6-0.3,0.9-0.3c0.3-0.1,0.7-0.1,1.1,0c0.4,0,0.8,0.1,1.2,0.2c0.4,0.1,0.8,0.3,1.1,0.5   c0.3,0.2,0.5,0.3,0.8,0.5c0.2,0.2,0.4,0.4,0.6,0.6l0.5-0.3c0.5-0.3,0.7-0.6,0.7-0.9c0-0.3-0.2-0.6-0.7-0.9   c-0.6-0.3-1.4-0.6-2.5-0.7l0.3-0.6c1.3,0.1,2.3,0.4,3,0.9c0.8,0.4,1.2,0.9,1.2,1.4c0,0.5-0.3,0.9-1.1,1.4l-2.4,1.4   c-0.2,0.1-0.2,0.3,0,0.4l-0.8,0.5c-0.1-0.1-0.2-0.1-0.3-0.1c-0.1,0-0.1-0.1-0.2-0.1c-0.2-0.1-0.3-0.2-0.3-0.4   c0-0.1,0.1-0.3,0.2-0.4l0.4-0.3c-0.6,0.1-1.2,0-1.8-0.1C363.5,278.4,363,278.2,362.5,277.9z M363.5,277.6c0.4,0.2,0.7,0.4,1.2,0.5   c0.4,0.1,0.8,0.1,1.2,0.1c0.3,0,0.5,0,0.6-0.1l0.9-0.5c-0.3-0.4-0.7-0.7-1.2-1c-0.5-0.3-1-0.5-1.5-0.5c-0.5-0.1-0.9,0-1.3,0.2   c-0.2,0.1-0.3,0.2-0.4,0.3c-0.1,0.1-0.1,0.2-0.1,0.4c0,0.1,0.1,0.3,0.2,0.4C363.2,277.4,363.3,277.5,363.5,277.6z"></path>		<path class="st20" d="M375.6,279.6c-0.5-0.3-1.1-0.5-1.7-0.5c-0.6-0.1-1.2,0-1.8,0.1l-3.6,2.1l-1-0.6l5.8-3.4l0.9,0.5l-1.3,0.8   c0.6-0.1,1.2-0.2,1.8-0.1c0.6,0,1.1,0.2,1.5,0.4c0.1,0,0.1,0.1,0.2,0.1c0.1,0,0.1,0.1,0.1,0.1L375.6,279.6z"></path>		<path class="st20" d="M373.3,284.2c-0.3-0.2-0.5-0.3-0.6-0.5c-0.1-0.2-0.2-0.4-0.2-0.6c0-0.2,0-0.4,0.2-0.6   c0.1-0.2,0.3-0.4,0.6-0.5c0.3-0.2,0.6-0.3,0.9-0.3c0.3-0.1,0.7-0.1,1.1,0c0.4,0,0.8,0.1,1.2,0.2c0.4,0.1,0.8,0.3,1.1,0.5   c0.3,0.2,0.5,0.3,0.8,0.5c0.2,0.2,0.4,0.4,0.6,0.6l0.5-0.3c0.5-0.3,0.7-0.6,0.7-0.9c0-0.3-0.2-0.6-0.7-0.9   c-0.6-0.3-1.4-0.6-2.5-0.7l0.3-0.6c1.3,0.1,2.3,0.4,3,0.9c0.8,0.4,1.2,0.9,1.2,1.4c0,0.5-0.3,0.9-1.1,1.4l-2.4,1.4   c-0.2,0.1-0.2,0.3,0,0.4l-0.8,0.5c-0.1-0.1-0.2-0.1-0.3-0.1c-0.1,0-0.1-0.1-0.2-0.1c-0.2-0.1-0.3-0.2-0.3-0.4   c0-0.1,0.1-0.3,0.2-0.4l0.4-0.3c-0.6,0.1-1.2,0-1.8-0.1C374.3,284.6,373.8,284.4,373.3,284.2z M374.3,283.9   c0.4,0.2,0.7,0.4,1.2,0.5c0.4,0.1,0.8,0.1,1.2,0.1c0.3,0,0.5,0,0.6-0.1l0.9-0.5c-0.3-0.4-0.7-0.7-1.2-1c-0.5-0.3-1-0.5-1.5-0.5   c-0.5-0.1-0.9,0-1.3,0.2c-0.2,0.1-0.3,0.2-0.4,0.3c-0.1,0.1-0.1,0.2-0.1,0.4c0,0.1,0.1,0.3,0.2,0.4   C374,283.7,374.1,283.8,374.3,283.9z"></path>		<path class="st20" d="M380.7,288.3c-0.4-0.2-0.7-0.5-0.8-0.8c-0.2-0.3-0.2-0.6-0.2-0.9c0-0.3,0.2-0.6,0.4-0.9   c0.2-0.3,0.5-0.5,0.9-0.8c0.4-0.2,0.9-0.4,1.4-0.6c0.5-0.1,1-0.2,1.5-0.2c0.5,0,1,0,1.5,0.1c0.5,0.1,0.9,0.3,1.3,0.5   c0.5,0.3,0.8,0.6,0.9,0.9c0.1,0.3,0.1,0.7,0,1l1.2-0.7l0.9,0.5l-5.7,3.3c-0.4,0.2-0.9,0.4-1.3,0.5c-0.5,0.1-1,0.1-1.4,0.1   s-1-0.1-1.4-0.3c-0.5-0.1-0.9-0.3-1.3-0.6c-0.7-0.4-1.1-0.8-1.3-1.1c-0.2-0.4-0.2-0.8-0.1-1.1l1.1,0c-0.1,0.3-0.1,0.7,0.1,1   c0.2,0.3,0.5,0.6,0.9,0.8c0.3,0.2,0.6,0.3,0.9,0.4c0.3,0.1,0.6,0.2,1,0.2c0.3,0,0.7,0,1-0.1c0.3-0.1,0.6-0.2,1-0.4l1-0.6   c-0.3,0-0.6,0.1-0.9,0.1c-0.3,0-0.6,0-0.9-0.1c-0.3,0-0.5-0.1-0.8-0.2C381.1,288.6,380.9,288.5,380.7,288.3z M381.8,288.1   c0.2,0.1,0.4,0.2,0.7,0.3c0.3,0.1,0.5,0.1,0.8,0.1c0.3,0,0.6,0,0.8,0c0.3,0,0.5-0.1,0.7-0.1l1.7-1c0.1-0.2,0.2-0.3,0.2-0.5   c0-0.2,0-0.3,0-0.5c0-0.2-0.1-0.3-0.2-0.5c-0.1-0.1-0.3-0.3-0.5-0.4c-0.3-0.2-0.6-0.3-1-0.4c-0.4-0.1-0.7-0.1-1.1-0.1   c-0.4,0-0.7,0.1-1.1,0.2c-0.4,0.1-0.7,0.2-0.9,0.4c-0.3,0.2-0.5,0.4-0.7,0.6c-0.2,0.2-0.2,0.4-0.3,0.6c0,0.2,0,0.4,0.2,0.6   C381.3,287.7,381.5,287.9,381.8,288.1z"></path>		<path class="st20" d="M388.2,292.7c-0.4-0.3-0.8-0.5-1-0.8c-0.2-0.3-0.3-0.6-0.3-0.9c0-0.3,0.1-0.6,0.4-0.9   c0.2-0.3,0.5-0.6,0.9-0.8c0.4-0.2,0.9-0.4,1.4-0.5c0.5-0.1,1-0.2,1.6-0.2c0.5,0,1.1,0.1,1.6,0.2c0.5,0.1,1,0.3,1.5,0.6   c0.4,0.3,0.8,0.5,1,0.8c0.2,0.3,0.3,0.6,0.3,0.9c0,0.3-0.1,0.6-0.4,0.9c-0.2,0.3-0.5,0.5-0.9,0.8c-0.1,0-0.2,0.1-0.2,0.1   c-0.1,0-0.1,0.1-0.2,0.1l-4.9-2.8c-0.3,0.2-0.5,0.4-0.6,0.6c-0.1,0.2-0.2,0.4-0.2,0.6c0,0.2,0.1,0.4,0.2,0.6   c0.1,0.2,0.3,0.4,0.6,0.5c0.2,0.1,0.4,0.2,0.6,0.3c0.2,0.1,0.4,0.1,0.7,0.2c0.2,0,0.5,0.1,0.7,0.1c0.2,0,0.5,0,0.7-0.1l0.6,0.6   c-0.3,0.1-0.6,0.1-1,0.1c-0.3,0-0.7,0-1-0.1c-0.4-0.1-0.7-0.1-1-0.2C388.8,293,388.5,292.9,388.2,292.7z M393.6,291.9   c0.3-0.2,0.4-0.4,0.6-0.6c0.1-0.2,0.2-0.4,0.2-0.6c0-0.2-0.1-0.4-0.2-0.6c-0.1-0.2-0.3-0.4-0.6-0.5c-0.3-0.2-0.6-0.3-0.9-0.3   c-0.3-0.1-0.7-0.1-1-0.1c-0.3,0-0.7,0-1,0.1c-0.3,0.1-0.7,0.2-1,0.3L393.6,291.9z"></path>		<path class="st20" d="M291.8,307.7l7.9-4.6l1,0.6l-4.4,2.5l8.5-0.2l1.1,0.6l-6.7,0.2l-1,4.5l-1.1-0.6l1-3.9l-2.8,0l-2.4,1.4   L291.8,307.7z"></path>		<path class="st20" d="M299.2,312l5.8-3.4l1,0.6l-5.8,3.4L299.2,312z M306.1,308l1.2-0.7l1,0.6l-1.2,0.7L306.1,308z"></path>		<path class="st20" d="M305.4,315.3c-0.1,0-0.2,0-0.3-0.1c-0.1,0-0.3-0.1-0.5-0.1c-0.2,0-0.3-0.1-0.5-0.2c-0.2-0.1-0.3-0.1-0.5-0.2   c-0.4-0.2-0.6-0.4-0.6-0.7c-0.1-0.3,0.1-0.5,0.5-0.8l3.9-2.3l-0.8-0.5l0.8-0.4l0.8,0.5l1.9-1.1l1,0.6l-1.9,1.1l1.3,0.8l-0.8,0.4   l-1.3-0.8l-3.6,2.1c-0.2,0.1-0.3,0.3-0.3,0.4c0,0.1,0.1,0.2,0.3,0.3c0.2,0.1,0.4,0.2,0.6,0.3c0.2,0.1,0.4,0.1,0.5,0.1L305.4,315.3   z"></path>		<path class="st20" d="M308.7,314.2c0.4-0.2,0.9-0.4,1.4-0.5c0.5-0.1,1-0.2,1.6-0.2c0.5,0,1.1,0.1,1.6,0.2c0.5,0.1,1,0.3,1.5,0.6   c0.6,0.3,1,0.7,1.1,1.1c0.2,0.4,0.1,0.8-0.1,1.1l-1.3-0.4c0.1-0.2,0.1-0.5,0-0.7c-0.1-0.2-0.3-0.5-0.7-0.7   c-0.3-0.2-0.6-0.3-0.9-0.3c-0.3-0.1-0.7-0.1-1.1-0.1c-0.4,0-0.7,0.1-1.1,0.2c-0.4,0.1-0.7,0.2-1,0.4c-0.3,0.2-0.5,0.4-0.7,0.6   c-0.2,0.2-0.3,0.4-0.3,0.6c0,0.2,0,0.4,0.2,0.6c0.1,0.2,0.3,0.4,0.6,0.5c0.2,0.1,0.4,0.2,0.6,0.3c0.2,0.1,0.4,0.1,0.7,0.2   c0.2,0,0.4,0,0.6,0c0.2,0,0.4,0,0.6-0.1l0.7,0.7c-0.3,0.1-0.6,0.1-1,0.1c-0.3,0-0.7,0-1-0.1c-0.3-0.1-0.7-0.1-1-0.2   c-0.3-0.1-0.7-0.2-0.9-0.4c-0.4-0.3-0.8-0.5-1-0.8c-0.2-0.3-0.3-0.6-0.3-0.9c0-0.3,0.1-0.6,0.4-0.9   C308,314.7,308.3,314.4,308.7,314.2z"></path>		<path class="st20" d="M317.8,322.8l-1-0.6l3.3-1.9c0.6-0.3,0.9-0.7,1-1c0.1-0.3-0.1-0.6-0.5-0.8c-0.2-0.1-0.4-0.2-0.7-0.3   c-0.3-0.1-0.6-0.1-0.9-0.1c-0.3,0-0.6,0-0.9,0c-0.3,0-0.6,0.1-0.9,0.2l-3.5,2l-1-0.6l8.1-4.7l1,0.6l-3.6,2.1   c0.7-0.1,1.3-0.1,1.9,0c0.6,0.1,1.2,0.3,1.7,0.5c0.3,0.2,0.6,0.4,0.7,0.6c0.1,0.2,0.1,0.4,0.1,0.6c-0.1,0.2-0.2,0.4-0.5,0.6   c-0.2,0.2-0.5,0.4-0.9,0.6L317.8,322.8z"></path>		<path class="st20" d="M322.1,325.4c-0.4-0.3-0.8-0.5-1-0.8c-0.2-0.3-0.3-0.6-0.3-0.9c0-0.3,0.1-0.6,0.4-0.9   c0.2-0.3,0.5-0.6,0.9-0.8c0.4-0.2,0.9-0.4,1.4-0.5c0.5-0.1,1-0.2,1.6-0.2c0.5,0,1.1,0.1,1.6,0.2c0.5,0.1,1,0.3,1.4,0.6   c0.4,0.3,0.8,0.5,1,0.8c0.2,0.3,0.3,0.6,0.3,0.9c0,0.3-0.1,0.6-0.4,0.9c-0.2,0.3-0.5,0.5-0.9,0.8c-0.1,0-0.2,0.1-0.2,0.1   c-0.1,0-0.1,0.1-0.2,0.1l-4.9-2.8c-0.3,0.2-0.5,0.4-0.6,0.6c-0.1,0.2-0.2,0.4-0.2,0.6c0,0.2,0.1,0.4,0.2,0.6   c0.1,0.2,0.3,0.4,0.6,0.5c0.2,0.1,0.4,0.2,0.6,0.3c0.2,0.1,0.4,0.1,0.7,0.2c0.2,0,0.5,0.1,0.7,0.1c0.2,0,0.5,0,0.7-0.1l0.6,0.6   c-0.3,0.1-0.6,0.1-1,0.1c-0.3,0-0.7,0-1-0.1c-0.4-0.1-0.7-0.1-1-0.2C322.7,325.7,322.4,325.5,322.1,325.4z M327.5,324.6   c0.3-0.2,0.4-0.4,0.6-0.6c0.1-0.2,0.2-0.4,0.2-0.6c0-0.2-0.1-0.4-0.2-0.6c-0.1-0.2-0.3-0.4-0.6-0.5c-0.3-0.2-0.6-0.3-0.9-0.3   c-0.3-0.1-0.7-0.1-1-0.1c-0.3,0-0.7,0-1,0.1c-0.3,0.1-0.7,0.2-1,0.3L327.5,324.6z"></path>		<path class="st20" d="M331.6,330.7l-1-0.6l3.3-1.9c0.6-0.4,1-0.7,1.1-0.9c0.1-0.3-0.1-0.5-0.4-0.7c-0.2-0.1-0.4-0.2-0.7-0.3   c-0.3-0.1-0.6-0.1-0.9-0.1c-0.3,0-0.6,0-0.9,0c-0.3,0-0.6,0.1-0.9,0.2l-3.5,2l-1-0.6l5.8-3.4l0.9,0.5l-1.2,0.7   c0.6-0.1,1.3-0.1,2,0c0.7,0.1,1.3,0.3,1.8,0.6c0.3,0.2,0.6,0.4,0.7,0.6c0.1,0.2,0.1,0.4,0,0.6c-0.1,0.2-0.2,0.4-0.5,0.6   c-0.2,0.2-0.5,0.4-0.9,0.6L331.6,330.7z"></path>		<path class="st20" d="M241.6,343.7c-0.3,0.2-0.6,0.3-1,0.4c-0.4,0.1-0.8,0.1-1.2,0.1c-0.4,0-0.8-0.1-1.2-0.2   c-0.4-0.1-0.7-0.3-1-0.4l-3.8-2.2l7.9-4.6l4,2.3c0.3,0.2,0.5,0.3,0.6,0.5c0.1,0.2,0.1,0.4,0.1,0.6c0,0.2-0.1,0.4-0.3,0.6   c-0.2,0.2-0.4,0.4-0.6,0.5c-0.4,0.2-0.9,0.4-1.4,0.5c-0.5,0.1-1.1,0.1-1.6-0.1c0.3,0.3,0.4,0.7,0.3,1.1   C242.4,343.1,242.1,343.5,241.6,343.7z M240.7,343.1c0.2-0.1,0.3-0.2,0.4-0.4c0.1-0.1,0.2-0.3,0.2-0.4c0-0.1,0-0.3-0.1-0.4   c-0.1-0.1-0.2-0.2-0.4-0.3l-2.8-1.6l-2.7,1.6l2.8,1.6c0.2,0.1,0.4,0.2,0.6,0.2c0.2,0,0.5,0.1,0.7,0.1c0.2,0,0.5,0,0.7-0.1   C240.4,343.2,240.6,343.2,240.7,343.1z M241.5,337.9l-2.6,1.5l2.5,1.5c0.2,0.1,0.4,0.2,0.6,0.2c0.2,0,0.4,0.1,0.7,0.1   c0.2,0,0.5,0,0.7-0.1c0.2-0.1,0.4-0.1,0.6-0.2c0.2-0.1,0.3-0.2,0.4-0.4c0.1-0.1,0.2-0.3,0.2-0.4c0-0.1,0-0.3-0.1-0.4   c-0.1-0.1-0.2-0.2-0.4-0.3L241.5,337.9z"></path>		<path class="st20" d="M243.6,347.4c-0.4-0.3-0.8-0.5-1-0.8c-0.2-0.3-0.3-0.6-0.3-0.9c0-0.3,0.1-0.6,0.4-0.9   c0.2-0.3,0.5-0.6,0.9-0.8c0.4-0.2,0.9-0.4,1.4-0.5c0.5-0.1,1-0.2,1.6-0.2c0.5,0,1.1,0.1,1.6,0.2c0.5,0.1,1,0.3,1.5,0.6   c0.4,0.3,0.8,0.5,1,0.8c0.2,0.3,0.3,0.6,0.3,0.9c0,0.3-0.1,0.6-0.4,0.9c-0.2,0.3-0.5,0.5-0.9,0.8c-0.1,0-0.2,0.1-0.2,0.1   c-0.1,0-0.1,0.1-0.2,0.1l-4.9-2.8c-0.3,0.2-0.5,0.4-0.6,0.6c-0.1,0.2-0.2,0.4-0.2,0.6c0,0.2,0.1,0.4,0.2,0.6   c0.1,0.2,0.3,0.4,0.6,0.5c0.2,0.1,0.4,0.2,0.6,0.3c0.2,0.1,0.4,0.1,0.7,0.2c0.2,0,0.5,0.1,0.7,0.1c0.2,0,0.5,0,0.7-0.1l0.6,0.6   c-0.3,0.1-0.6,0.1-1,0.1c-0.3,0-0.7,0-1-0.1c-0.4-0.1-0.7-0.1-1-0.2C244.2,347.7,243.9,347.5,243.6,347.4z M249,346.6   c0.3-0.2,0.4-0.4,0.6-0.6c0.1-0.2,0.2-0.4,0.2-0.6c0-0.2-0.1-0.4-0.2-0.6c-0.1-0.2-0.3-0.4-0.6-0.5c-0.3-0.2-0.6-0.3-0.9-0.3   c-0.3-0.1-0.7-0.1-1-0.1c-0.3,0-0.7,0-1,0.1c-0.3,0.1-0.7,0.2-1,0.3L249,346.6z"></path>		<path class="st20" d="M250.3,351.3c-0.4-0.2-0.7-0.5-0.9-0.8c-0.2-0.3-0.3-0.6-0.2-0.9c0-0.3,0.2-0.6,0.4-0.9   c0.2-0.3,0.5-0.5,0.9-0.8c0.4-0.2,0.9-0.4,1.4-0.6c0.5-0.1,1-0.2,1.5-0.2c0.5,0,1,0,1.5,0.1c0.5,0.1,0.9,0.3,1.3,0.5   c0.5,0.3,0.8,0.6,0.9,0.9c0.1,0.4,0.1,0.7,0,1l3.5-2l1,0.6l-6.9,4c-0.2,0.1-0.2,0.3,0,0.4l-0.8,0.5c-0.1-0.1-0.2-0.1-0.3-0.1   c-0.1,0-0.1-0.1-0.2-0.1c-0.2-0.1-0.3-0.2-0.3-0.4c0-0.2,0.1-0.3,0.2-0.4l0.5-0.3c-0.6,0.1-1.2,0.1-1.8,0   C251.2,351.7,250.7,351.5,250.3,351.3z M251.4,350.9c0.2,0.1,0.4,0.2,0.7,0.3c0.3,0.1,0.5,0.1,0.8,0.1c0.3,0,0.6,0,0.9,0   c0.3,0,0.5-0.1,0.7-0.2l1.7-1c0.1-0.1,0.2-0.3,0.2-0.5c0-0.2,0-0.3,0-0.5c0-0.2-0.1-0.3-0.2-0.5c-0.1-0.2-0.3-0.3-0.5-0.4   c-0.3-0.2-0.6-0.3-1-0.3c-0.4-0.1-0.7-0.1-1.1-0.1c-0.4,0-0.7,0.1-1.1,0.2c-0.4,0.1-0.7,0.2-0.9,0.4c-0.3,0.2-0.5,0.4-0.7,0.6   c-0.2,0.2-0.2,0.4-0.3,0.6c0,0.2,0,0.4,0.2,0.6C250.9,350.5,251.1,350.7,251.4,350.9z"></path>		<path class="st20" d="M263.4,352.9c-0.5-0.3-1.1-0.5-1.7-0.5c-0.6-0.1-1.2,0-1.8,0.1l-3.6,2.1l-1-0.6l5.8-3.4l0.9,0.5l-1.3,0.8   c0.6-0.1,1.2-0.1,1.8-0.1c0.6,0,1.1,0.2,1.5,0.4c0.1,0,0.1,0.1,0.2,0.1c0.1,0,0.1,0.1,0.1,0.1L263.4,352.9z"></path>		<path class="st20" d="M262,358c-0.4-0.3-0.8-0.5-1-0.8c-0.2-0.3-0.3-0.6-0.3-0.9c0-0.3,0.1-0.6,0.4-0.9c0.2-0.3,0.5-0.6,0.9-0.8   c0.4-0.2,0.9-0.4,1.4-0.5c0.5-0.1,1-0.2,1.6-0.2c0.5,0,1.1,0,1.6,0.2c0.5,0.1,1,0.3,1.4,0.5c0.4,0.3,0.8,0.5,1,0.8   c0.2,0.3,0.3,0.6,0.3,0.9c0,0.3-0.1,0.6-0.4,0.9c-0.2,0.3-0.5,0.6-0.9,0.8c-0.4,0.2-0.9,0.4-1.4,0.5c-0.5,0.1-1,0.2-1.6,0.2   c-0.5,0-1.1,0-1.6-0.2C262.9,358.4,262.4,358.3,262,358z M263,355.1c-0.3,0.2-0.5,0.4-0.7,0.6c-0.2,0.2-0.2,0.4-0.3,0.6   c0,0.2,0,0.4,0.2,0.6c0.1,0.2,0.3,0.4,0.6,0.5c0.3,0.2,0.6,0.3,0.9,0.3c0.3,0.1,0.7,0.1,1.1,0.1c0.4,0,0.7-0.1,1.1-0.2   c0.4-0.1,0.7-0.2,1-0.4c0.3-0.2,0.5-0.4,0.7-0.6c0.2-0.2,0.3-0.4,0.3-0.6c0-0.2,0-0.4-0.2-0.6c-0.1-0.2-0.3-0.4-0.6-0.5   c-0.3-0.2-0.6-0.3-0.9-0.3c-0.4-0.1-0.7-0.1-1.1-0.1c-0.4,0-0.7,0.1-1.1,0.2C263.7,354.8,263.3,355,263,355.1z"></path>		<path class="st20" d="M269,362c-0.4-0.3-0.8-0.5-1-0.8c-0.2-0.3-0.3-0.6-0.3-0.9c0-0.3,0.1-0.6,0.4-0.9c0.2-0.3,0.5-0.6,0.9-0.8   c0.4-0.2,0.9-0.4,1.4-0.5c0.5-0.1,1-0.2,1.6-0.2c0.5,0,1.1,0,1.6,0.2c0.5,0.1,1,0.3,1.4,0.5c0.4,0.3,0.8,0.5,1,0.8   c0.2,0.3,0.3,0.6,0.3,0.9c0,0.3-0.1,0.6-0.4,0.9c-0.2,0.3-0.5,0.6-0.9,0.8c-0.4,0.2-0.9,0.4-1.4,0.5c-0.5,0.1-1,0.2-1.6,0.2   c-0.5,0-1.1,0-1.6-0.2C269.9,362.5,269.4,362.3,269,362z M270,359.2c-0.3,0.2-0.5,0.4-0.7,0.6c-0.2,0.2-0.2,0.4-0.3,0.6   c0,0.2,0,0.4,0.2,0.6c0.1,0.2,0.3,0.4,0.6,0.5c0.3,0.2,0.6,0.3,0.9,0.3c0.3,0.1,0.7,0.1,1.1,0.1c0.4,0,0.7-0.1,1.1-0.2   c0.4-0.1,0.7-0.2,1-0.4c0.3-0.2,0.5-0.4,0.7-0.6c0.2-0.2,0.3-0.4,0.3-0.6c0-0.2,0-0.4-0.2-0.6c-0.1-0.2-0.3-0.4-0.6-0.5   c-0.3-0.2-0.6-0.3-0.9-0.3c-0.4-0.1-0.7-0.1-1.1-0.1c-0.4,0-0.7,0.1-1.1,0.2C270.7,358.9,270.3,359,270,359.2z"></path>		<path class="st20" d="M282.3,369.6l-1-0.6l3.3-1.9c0.6-0.4,1-0.7,1-1c0.1-0.3-0.1-0.5-0.4-0.8c-0.4-0.2-0.9-0.4-1.5-0.4   c-0.6,0-1.2,0.1-1.8,0.2l-3.5,2l-1-0.6l3.3-1.9c0.6-0.4,1-0.7,1.1-1c0.1-0.3-0.1-0.5-0.5-0.7c-0.4-0.2-0.9-0.4-1.5-0.4   c-0.6,0-1.2,0.1-1.8,0.2l-3.5,2l-1-0.6l5.8-3.4l0.9,0.5l-1.2,0.7c0.7-0.1,1.3-0.1,1.9,0c0.6,0.1,1.2,0.3,1.6,0.5   c0.5,0.3,0.8,0.6,0.8,0.9c0,0.3-0.1,0.6-0.5,0.9c1.5-0.2,2.7-0.1,3.6,0.5c0.3,0.2,0.6,0.4,0.7,0.6c0.1,0.2,0.1,0.4,0,0.6   c-0.1,0.2-0.2,0.4-0.5,0.6c-0.2,0.2-0.5,0.4-0.9,0.6L282.3,369.6z"></path>	</g>	<g>		<path class="st20" d="M37.1,151.2c-0.3,0.2-0.6,0.3-0.9,0.3c-0.3,0.1-0.7,0.1-1,0.1c-0.4,0-0.7-0.1-1-0.2   c-0.3-0.1-0.7-0.2-0.9-0.4l-3.4-2l7.1-4.1l3.6,2.1c0.3,0.1,0.4,0.3,0.5,0.5c0.1,0.2,0.1,0.4,0.1,0.5c0,0.2-0.1,0.4-0.3,0.5   c-0.1,0.2-0.3,0.3-0.5,0.4c-0.4,0.2-0.8,0.3-1.3,0.4c-0.5,0.1-1,0.1-1.4-0.1c0.3,0.3,0.4,0.6,0.3,1   C37.8,150.6,37.5,150.9,37.1,151.2z M36.3,150.5c0.2-0.1,0.3-0.2,0.4-0.3c0.1-0.1,0.1-0.2,0.2-0.4c0-0.1,0-0.2-0.1-0.4   c-0.1-0.1-0.2-0.2-0.3-0.3l-2.6-1.5l-2.5,1.4l2.5,1.4c0.2,0.1,0.4,0.2,0.6,0.2c0.2,0,0.4,0.1,0.6,0.1c0.2,0,0.4,0,0.6-0.1   C36,150.7,36.2,150.6,36.3,150.5z M37,145.9l-2.4,1.4l2.3,1.3c0.2,0.1,0.3,0.2,0.5,0.2c0.2,0,0.4,0.1,0.6,0.1c0.2,0,0.4,0,0.6-0.1   c0.2-0.1,0.4-0.1,0.5-0.2c0.2-0.1,0.3-0.2,0.4-0.3c0.1-0.1,0.1-0.2,0.2-0.3c0-0.1,0-0.2-0.1-0.3c-0.1-0.1-0.2-0.2-0.3-0.3   L37,145.9z"></path>		<path class="st20" d="M43.9,152.1c-0.5-0.2-1-0.4-1.5-0.5c-0.6-0.1-1.1,0-1.6,0.1l-3.2,1.9l-0.9-0.5l5.2-3l0.8,0.5l-1.2,0.7   c0.5-0.1,1.1-0.1,1.6-0.1c0.5,0,1,0.2,1.3,0.3c0.1,0,0.1,0.1,0.2,0.1c0,0,0.1,0.1,0.1,0.1L43.9,152.1z"></path>		<path class="st20" d="M40.6,155.3l5.2-3l0.9,0.5l-5.2,3L40.6,155.3z M46.8,151.7l1.1-0.6l0.9,0.5l-1.1,0.6L46.8,151.7z"></path>		<path class="st20" d="M45.2,158c-0.4-0.2-0.6-0.4-0.8-0.7c-0.2-0.3-0.2-0.5-0.2-0.8c0-0.3,0.2-0.5,0.4-0.8   c0.2-0.3,0.5-0.5,0.8-0.7c0.4-0.2,0.8-0.4,1.2-0.5c0.5-0.1,0.9-0.2,1.4-0.2c0.5,0,0.9,0,1.4,0.1c0.4,0.1,0.8,0.2,1.2,0.5   c0.4,0.3,0.7,0.5,0.8,0.9c0.1,0.3,0.1,0.6,0,0.9l1-0.6l0.8,0.5l-5.2,3c-0.4,0.2-0.8,0.4-1.2,0.4c-0.4,0.1-0.9,0.1-1.3,0.1   c-0.4,0-0.9-0.1-1.3-0.2c-0.4-0.1-0.8-0.3-1.2-0.5c-0.6-0.3-1-0.7-1.2-1c-0.2-0.3-0.2-0.7-0.1-1l1,0c-0.1,0.3-0.1,0.6,0.1,0.9   c0.2,0.3,0.5,0.5,0.8,0.8c0.2,0.1,0.5,0.3,0.8,0.3c0.3,0.1,0.6,0.1,0.9,0.2c0.3,0,0.6,0,0.9-0.1c0.3-0.1,0.6-0.2,0.9-0.3l0.9-0.5   c-0.3,0-0.5,0-0.8,0c-0.3,0-0.5,0-0.8-0.1c-0.3,0-0.5-0.1-0.7-0.2C45.6,158.2,45.4,158.1,45.2,158z M46.2,157.8   c0.2,0.1,0.4,0.2,0.6,0.3c0.2,0.1,0.5,0.1,0.8,0.1c0.3,0,0.5,0,0.8,0c0.2,0,0.5-0.1,0.6-0.1l1.5-0.9c0.1-0.1,0.2-0.3,0.2-0.5   c0-0.2,0-0.3,0-0.5c0-0.2-0.1-0.3-0.2-0.4c-0.1-0.1-0.3-0.3-0.4-0.4c-0.3-0.2-0.6-0.3-0.9-0.3c-0.3-0.1-0.7-0.1-1-0.1   c-0.3,0-0.7,0.1-1,0.2c-0.3,0.1-0.6,0.2-0.8,0.3c-0.3,0.2-0.5,0.3-0.6,0.5c-0.1,0.2-0.2,0.4-0.2,0.6c0,0.2,0,0.4,0.2,0.6   C45.8,157.5,45.9,157.6,46.2,157.8z"></path>		<path class="st20" d="M54.3,163.2l-0.9-0.5l2.9-1.7c0.5-0.3,0.9-0.6,0.9-0.9c0.1-0.3-0.1-0.5-0.4-0.7c-0.2-0.1-0.4-0.2-0.6-0.2   c-0.2-0.1-0.5-0.1-0.8-0.1c-0.3,0-0.6,0-0.8,0c-0.3,0-0.6,0.1-0.8,0.2l-3.2,1.8l-0.9-0.5l7.3-4.2l0.9,0.5l-3.2,1.9   c0.6-0.1,1.2-0.1,1.7,0c0.6,0.1,1.1,0.2,1.5,0.5c0.3,0.2,0.5,0.4,0.6,0.6c0.1,0.2,0.1,0.4,0.1,0.6c-0.1,0.2-0.2,0.4-0.4,0.6   c-0.2,0.2-0.5,0.4-0.8,0.6L54.3,163.2z"></path>		<path class="st20" d="M58.9,165.6c-0.1,0-0.2,0-0.3-0.1c-0.1,0-0.3-0.1-0.4-0.1c-0.1,0-0.3-0.1-0.5-0.2c-0.2-0.1-0.3-0.1-0.4-0.2   c-0.3-0.2-0.5-0.4-0.6-0.6c-0.1-0.2,0.1-0.5,0.5-0.7l3.5-2l-0.7-0.4l0.7-0.4l0.7,0.4l1.7-1l0.9,0.5l-1.7,1l1.2,0.7l-0.7,0.4   l-1.2-0.7l-3.3,1.9c-0.2,0.1-0.3,0.2-0.2,0.4c0,0.1,0.1,0.2,0.3,0.3c0.2,0.1,0.4,0.2,0.6,0.2c0.2,0.1,0.3,0.1,0.4,0.1L58.9,165.6z   "></path>		<path class="st20" d="M64.3,169l-0.9-0.5l2.9-1.7c0.6-0.3,0.9-0.6,1-0.9c0.1-0.2-0.1-0.5-0.4-0.7c-0.2-0.1-0.4-0.2-0.7-0.3   c-0.3-0.1-0.5-0.1-0.8-0.1c-0.3,0-0.6,0-0.9,0c-0.3,0-0.6,0.1-0.8,0.2l-3.2,1.8l-0.9-0.5l5.2-3l0.8,0.5l-1.1,0.7   c0.6-0.1,1.2-0.1,1.8,0c0.6,0.1,1.2,0.3,1.6,0.6c0.3,0.2,0.5,0.4,0.6,0.5c0.1,0.2,0.1,0.4,0,0.5c-0.1,0.2-0.2,0.4-0.4,0.6   c-0.2,0.2-0.5,0.4-0.8,0.5L64.3,169z"></path>		<path class="st20" d="M68.2,171.3c-0.4-0.2-0.7-0.5-0.9-0.8c-0.2-0.3-0.3-0.6-0.3-0.8c0-0.3,0.1-0.6,0.3-0.8   c0.2-0.3,0.5-0.5,0.9-0.7c0.4-0.2,0.8-0.4,1.2-0.5c0.5-0.1,0.9-0.2,1.4-0.2c0.5,0,1,0,1.4,0.2c0.5,0.1,0.9,0.3,1.3,0.5   c0.4,0.2,0.7,0.5,0.9,0.8c0.2,0.3,0.3,0.5,0.2,0.8c0,0.3-0.1,0.5-0.3,0.8c-0.2,0.3-0.5,0.5-0.8,0.7c-0.1,0-0.1,0.1-0.2,0.1   c-0.1,0-0.1,0.1-0.2,0.1l-4.4-2.5c-0.2,0.2-0.4,0.3-0.5,0.5c-0.1,0.2-0.2,0.4-0.2,0.5c0,0.2,0.1,0.4,0.2,0.5   c0.1,0.2,0.3,0.3,0.5,0.5c0.2,0.1,0.3,0.2,0.5,0.2c0.2,0.1,0.4,0.1,0.6,0.2c0.2,0,0.4,0.1,0.6,0.1c0.2,0,0.4,0,0.6-0.1l0.6,0.6   c-0.3,0.1-0.6,0.1-0.9,0.1c-0.3,0-0.6,0-0.9-0.1c-0.3,0-0.6-0.1-0.9-0.2C68.7,171.6,68.4,171.5,68.2,171.3z M73.1,170.6   c0.2-0.2,0.4-0.3,0.5-0.5c0.1-0.2,0.2-0.4,0.1-0.5c0-0.2-0.1-0.3-0.2-0.5c-0.1-0.2-0.3-0.3-0.5-0.5c-0.2-0.1-0.5-0.2-0.8-0.3   c-0.3-0.1-0.6-0.1-0.9-0.1c-0.3,0-0.6,0-0.9,0.1c-0.3,0.1-0.6,0.2-0.9,0.3L73.1,170.6z"></path>		<path class="st20" d="M73.9,174.7c-0.4-0.2-0.8-0.5-1.1-0.8c-0.3-0.3-0.4-0.6-0.5-0.9l1-0.1c0.1,0.3,0.2,0.6,0.4,0.8   c0.2,0.2,0.5,0.5,0.8,0.7c0.4,0.2,0.8,0.4,1.1,0.4c0.4,0,0.7,0,1-0.2c0.1-0.1,0.2-0.2,0.2-0.2c0-0.1,0-0.2,0-0.3   c-0.1-0.1-0.1-0.2-0.3-0.4c-0.1-0.1-0.3-0.3-0.5-0.5c-0.2-0.2-0.4-0.4-0.6-0.6c-0.2-0.2-0.3-0.3-0.3-0.5c0-0.1,0-0.3,0-0.4   c0.1-0.1,0.2-0.2,0.4-0.4c0.3-0.2,0.5-0.3,0.9-0.3c0.3-0.1,0.6-0.1,0.9,0c0.3,0,0.6,0.1,1,0.2c0.3,0.1,0.6,0.2,0.9,0.4   c0.4,0.2,0.7,0.5,0.9,0.8c0.2,0.3,0.3,0.5,0.4,0.8l-0.9,0.1c0-0.2-0.1-0.5-0.3-0.7c-0.2-0.2-0.4-0.4-0.7-0.6   c-0.3-0.2-0.7-0.3-1-0.4c-0.4-0.1-0.7,0-1,0.2c-0.1,0.1-0.2,0.1-0.2,0.2c0,0.1,0,0.2,0,0.2c0,0.1,0.1,0.2,0.2,0.3   c0.1,0.1,0.3,0.3,0.4,0.4c0.3,0.2,0.5,0.5,0.7,0.7c0.2,0.2,0.3,0.4,0.4,0.5c0.1,0.2,0.1,0.3,0,0.5c-0.1,0.1-0.2,0.3-0.4,0.4   c-0.5,0.3-1.1,0.4-1.7,0.3C75.2,175.2,74.6,175,73.9,174.7z"></path>		<path class="st20" d="M79.2,177.7c-0.4-0.2-0.8-0.5-1.1-0.8c-0.3-0.3-0.4-0.6-0.5-0.9l1-0.1c0.1,0.3,0.2,0.6,0.4,0.8   c0.2,0.2,0.5,0.5,0.8,0.7c0.4,0.2,0.8,0.4,1.1,0.4c0.4,0,0.7,0,1-0.2c0.1-0.1,0.2-0.2,0.2-0.2c0-0.1,0-0.2,0-0.3   c-0.1-0.1-0.1-0.2-0.3-0.4c-0.1-0.1-0.3-0.3-0.5-0.5c-0.2-0.2-0.4-0.4-0.6-0.6c-0.2-0.2-0.3-0.3-0.3-0.5c0-0.1,0-0.3,0-0.4   c0.1-0.1,0.2-0.2,0.4-0.4c0.3-0.2,0.5-0.3,0.9-0.3c0.3-0.1,0.6-0.1,0.9,0c0.3,0,0.6,0.1,1,0.2c0.3,0.1,0.6,0.2,0.9,0.4   c0.4,0.2,0.7,0.5,0.9,0.8c0.2,0.3,0.3,0.5,0.4,0.8l-0.9,0.1c0-0.2-0.1-0.5-0.3-0.7c-0.2-0.2-0.4-0.4-0.7-0.6   c-0.3-0.2-0.7-0.3-1-0.4c-0.4-0.1-0.7,0-1,0.2c-0.1,0.1-0.2,0.1-0.2,0.2c0,0.1,0,0.2,0,0.2c0,0.1,0.1,0.2,0.2,0.3   c0.1,0.1,0.3,0.3,0.4,0.4c0.3,0.2,0.5,0.5,0.7,0.7c0.2,0.2,0.3,0.4,0.4,0.5c0.1,0.2,0.1,0.3,0,0.5c-0.1,0.1-0.2,0.3-0.4,0.4   c-0.5,0.3-1.1,0.4-1.7,0.3C80.5,178.3,79.8,178.1,79.2,177.7z"></path>	</g>	<g>		<path class="st59" d="M85.9,145.9c-13.2-7.6-13.3-20-0.1-27.6c13.1-7.6,34.6-7.5,47.8,0.1c13.2,7.6,13.3,20,0.1,27.6   C120.6,153.5,99.1,153.5,85.9,145.9z M132,119.2c-12.3-7.1-32.4-7.2-44.6-0.1c-12.3,7.1-12.2,18.6,0.1,25.8   c12.3,7.1,32.4,7.2,44.6,0.1C144.4,137.9,144.3,126.4,132,119.2z"></path>		<path class="st60" d="M79.2,149.7c-17-9.8-17-25.7-0.2-35.4c16.9-9.7,44.4-9.7,61.3,0.1c17,9.8,17,25.7,0.2,35.4   C123.6,159.6,96.1,159.5,79.2,149.7z M137.9,115.8c-15.6-9-41-9.1-56.5-0.1c-15.5,9-15.5,23.6,0.2,32.6c15.6,9,41,9.1,56.5,0.1   C153.6,139.5,153.5,124.8,137.9,115.8z"></path>		<path class="st61" d="M72,153.9c-20.9-12.1-21-31.7-0.2-43.7c20.8-12,54.8-12,75.7,0.1s21,31.7,0.2,43.7   C126.9,166,92.9,166,72,153.9z M144.3,112.1C125.1,101.1,94,101,75,112c-19,11-19,29,0.2,40c19.2,11.1,50.3,11.1,69.3,0.1   C163.5,141.2,163.4,123.2,144.3,112.1z"></path>		<path class="st59" d="M116.3,134.8c3.6-2.1,3.3-5.6-0.8-7.5c-3-1.4-7.5-1.4-10.6-0.1c-2.5,1.1-3.6,2.7-3.4,4.3   c0.1,0.9-0.4,1.7-1.5,2.4l-1.3,0.8c-0.7,0.4-0.7,1,0,1.4l3,1.7c0.7,0.4,1.8,0.4,2.5,0l1.3-0.8c1.1-0.6,2.6-0.9,4.2-0.9   C112,136.3,114.5,135.8,116.3,134.8z"></path>		<path class="st59" d="M97.5,138.5L97.5,138.5c-0.9-0.5-0.8-1.4,0.2-2l0.2-0.1l3.2,1.9l-0.2,0.1C100,138.9,98.4,139,97.5,138.5z"></path>		<g>			<path class="st59" d="M109.4,124.9c0.5,0,1,0,1.5,0l0-3.1c0-0.2-0.3-0.4-0.7-0.4c-0.4,0-0.7,0.2-0.7,0.4L109.4,124.9z"></path>			<path class="st59" d="M103,126.4l-3.8-2.2c-0.3-0.2-0.8-0.2-1.1,0s-0.3,0.4,0,0.6l3.8,2.2C102.2,126.8,102.6,126.6,103,126.4z"></path>			<path class="st59" d="M121,131.6l5.4,0c0.4,0,0.7-0.2,0.7-0.4s-0.3-0.4-0.7-0.4l-5.4,0C121,131.1,121,131.4,121,131.6z"></path>			<path class="st59" d="M117.8,126.8c0.2,0.1,0.3,0.2,0.5,0.3l3.8-2.2c0.3-0.2,0.3-0.4,0-0.6c-0.3-0.2-0.8-0.2-1.1,0l-3.8,2.2    C117.5,126.6,117.6,126.7,117.8,126.8z"></path>			<path class="st59" d="M122.2,137.5l-3.8-2.2c-0.2,0.1-0.3,0.2-0.5,0.3c-0.2,0.1-0.4,0.2-0.6,0.3l3.8,2.2c0.3,0.2,0.8,0.2,1.1,0    C122.5,138,122.5,137.7,122.2,137.5z"></path>			<path class="st59" d="M98.1,137.6c-0.2,0.2-0.2,0.4,0.1,0.5c0.3,0.2,0.7,0.2,0.9,0L98.1,137.6z"></path>		</g>	</g></g></svg>