<svg xmlns="http://www.w3.org/2000/svg" xmlns:xlink="http://www.w3.org/1999/xlink" id="Layer_1" x="0px" y="0px" viewBox="0 0 425.2 425.2" style="enable-background:new 0 0 425.2 425.2;" xml:space="preserve"><style type="text/css">	.st0{opacity:0.16;fill:url(#SVGID_1_);enable-background:new    ;}	.st1{fill:#91B3FA;}	.st2{fill:#BDD0FB;}	.st3{fill:url(#SVGID_00000142158563130577756540000007568152165330914178_);}	.st4{fill:url(#SVGID_00000033362699245313543280000011270928193919561401_);}	.st5{fill:url(#SVGID_00000155858111956187012040000009176454625370629261_);}	.st6{fill:url(#SVGID_00000035502472769851855530000007882588426323301299_);}	.st7{fill:url(#SVGID_00000100352130797988722810000007242202944033821359_);}	.st8{fill:url(#SVGID_00000138574027215861543370000001006979375209633691_);}	.st9{fill:url(#SVGID_00000005955198989154199650000011162317252859127998_);}	.st10{fill:url(#SVGID_00000026842371881858357350000000311596967475295413_);}	.st11{opacity:0.29;fill:#FFFFFF;}	.st12{fill:#7D97F4;}	.st13{fill:url(#SVGID_00000075859352784893503750000004708454722086787733_);}	.st14{fill:url(#SVGID_00000183960201486655975630000009167998084552632714_);}	.st15{fill:#FFFFFF;}	.st16{opacity:0.19;fill:url(#SVGID_00000150087047300961604360000018049607984824929453_);}	.st17{fill:url(#SVGID_00000075148562355517895200000011487398140477298865_);}	.st18{fill:url(#SVGID_00000077305436946918077890000012583419384170987150_);}	.st19{fill:url(#SVGID_00000122716430460954643930000006091002570345333926_);}	.st20{fill:url(#SVGID_00000023280213341086284070000017788202516742324904_);}	.st21{opacity:0.8;fill:#FFFFFF;}	.st22{fill:url(#SVGID_00000134236141149238316500000009017230754851451270_);}	.st23{fill:url(#SVGID_00000052808402888715222570000013518345312678708137_);}	.st24{fill:url(#SVGID_00000114063594844475949810000016794286110235625883_);}	.st25{fill:url(#SVGID_00000057119374666077527110000002287120277883192716_);}	.st26{fill:url(#SVGID_00000183960805947721389520000015095374159317825417_);}	.st27{fill:url(#SVGID_00000033333975931214609380000016196080236425044386_);}	.st28{fill:url(#SVGID_00000129181380632975113710000000928569772609648290_);}	.st29{fill:url(#SVGID_00000023995123927132091780000005027670737144899255_);}	.st30{fill:url(#SVGID_00000152979230826624233330000001801246322585364130_);}	.st31{fill:url(#SVGID_00000000906613896840983420000013899007652081354677_);}	.st32{fill:url(#SVGID_00000164487919459977567310000008958087437504822713_);}	.st33{fill:url(#SVGID_00000160152278642382565850000011579090588751180939_);}	.st34{fill:url(#SVGID_00000003783088848757904890000003486883691351243967_);}	.st35{fill:url(#SVGID_00000019651912180156697080000016258845001708240284_);}	.st36{fill:url(#SVGID_00000045592527836262581820000002071632272857642165_);}	.st37{fill:url(#SVGID_00000039098177304015855720000001095428234604981168_);}	.st38{fill:url(#SVGID_00000157997910521342955860000003274339418763491464_);}	.st39{fill:url(#SVGID_00000137815214394433453990000017252761353689894560_);}	.st40{fill:url(#SVGID_00000178164812683244987240000006437442942320160384_);}	.st41{fill:url(#SVGID_00000170994497869687058220000017056451959580855179_);}	.st42{fill:url(#SVGID_00000075124635798971998080000012410751657378368665_);}	.st43{fill:url(#SVGID_00000099658154035588936290000018005639684568628872_);}	.st44{fill:url(#SVGID_00000041286691950464919410000013794732491248874940_);}	.st45{fill:url(#SVGID_00000076592495896401080020000005396506470927996553_);}	.st46{fill:url(#SVGID_00000031179501320741231020000012589666483556194694_);}	.st47{fill:url(#SVGID_00000002366447412851623140000008150737334191051162_);}	.st48{fill:url(#SVGID_00000118382749067921384210000007537552289820334211_);}	.st49{fill:url(#SVGID_00000127762150203954565460000016892972107107030973_);}	.st50{fill:url(#SVGID_00000143582606777683202550000003888886730897115060_);}	.st51{fill:url(#SVGID_00000118365345101548869380000004354097336700896922_);}	.st52{fill:url(#SVGID_00000057142637390038680100000015607831030598692742_);}	.st53{fill:url(#SVGID_00000059285498636251641290000013738365999736991876_);}	.st54{fill:url(#SVGID_00000178164089508371206690000002180703334505587379_);}	.st55{fill:url(#SVGID_00000088114215729580068440000016816636022704503968_);}	.st56{fill:url(#SVGID_00000178912630173669099750000018383983216172438201_);}	.st57{fill:url(#SVGID_00000044162317537916265880000011747453063621293440_);}	.st58{fill:url(#SVGID_00000101818372715232388980000012848873479863799971_);}	.st59{fill:url(#SVGID_00000094598716091477265240000014584900352049302957_);}	.st60{fill:url(#SVGID_00000002353374309734488720000017685259952758271376_);}	.st61{fill:url(#SVGID_00000102505873901479967050000007307145275364567741_);}	.st62{fill:url(#SVGID_00000064342691736274119610000010534694471943446660_);}	.st63{fill:url(#SVGID_00000155826213458166038390000013036432141385269689_);}	.st64{fill:url(#SVGID_00000108293964623561271000000017362416091676294786_);}	.st65{fill:url(#SVGID_00000108307090350048080570000000335572775493953209_);}	.st66{fill:url(#SVGID_00000050623354582239094550000007717571570408318848_);}	.st67{fill:url(#SVGID_00000073721217204100879410000004067678993525856445_);}	.st68{fill:url(#SVGID_00000120548916611775857260000007207644573215205031_);}	.st69{fill:url(#SVGID_00000127724585152617771420000009838280607968289939_);}</style><linearGradient id="SVGID_1_" gradientUnits="userSpaceOnUse" x1="40.6219" y1="215.8368" x2="401.4829" y2="215.8368" gradientTransform="matrix(1 0 0 -1 0 425.1024)">	<stop offset="0" style="stop-color:#159AFD"></stop>	<stop offset="1" style="stop-color:#159AFD"></stop></linearGradient><path class="st0" d="M114.2,81.5c-20.7,16.3-35.3,3.7-47.8,21c-39,53.8,10.4,74.2-12.5,82.5c-24.9,9-9.4,48.5,4.6,60 s24.5,18.3,4.5,30s-23.4,24.6-15.1,45.7s24.2,27.7,90,28.9s193.3-1.4,228.1-13.4s9.4-42.8,24-65.8s17.5-36.5-4.9-58.8 s-9.6-45.4-2.9-61.7c6.7-16.3,11.9-45.8-15.1-54.3c-27-8.4-58.4,25.2-71.9,8.1s-7.6-39.7-37.2-34c-29.6,5.7-39.6,49.8-65.4,47.4 C166.7,114.6,158.1,46.9,114.2,81.5z"></path><g>	<g>		<path class="st1" d="M379.6,242.8c0.8-0.2,1.5,0.6,1.2,1.4c-3.9,11.9-29.2,80.2-97.5,67.9C283.3,312.1,288.4,262.8,379.6,242.8z"></path>		<path class="st2" d="M370.7,251.5c-2.5,3.3-5.2,6.4-8,9.5c-2.8,3-5.7,5.9-8.7,8.8c-3,2.8-6.1,5.5-9.3,8.2   c-3.2,2.6-6.5,5.1-9.9,7.5c-3.4,2.4-6.8,4.6-10.3,6.8c-1.8,1.1-3.5,2.1-5.4,3.1c-1.8,1-3.6,2-5.5,2.9c-7.4,3.8-15,7-22.9,9.6   c-0.4,0.1-0.9-0.1-1.1-0.5c-0.1-0.4,0.1-0.9,0.5-1.1l0,0l0,0c7.8-2.5,15.4-5.6,22.7-9.3c1.8-0.9,3.7-1.9,5.4-2.9   c1.8-1,3.6-2,5.3-3c3.5-2.1,7-4.3,10.3-6.7c3.4-2.3,6.7-4.8,9.9-7.4c3.2-2.6,6.3-5.2,9.3-8c3-2.8,6-5.7,8.8-8.6   c2.8-3,5.5-6.1,8-9.3l0,0c0.1-0.2,0.3-0.2,0.5-0.1C370.8,251.2,370.8,251.4,370.7,251.5z"></path>	</g>	<g>		<path class="st1" d="M333.4,133.5c4.8,18.3,28.2,125.9-65.5,167.9c0,0-33.1-66.5,62.9-168.6C331.7,131.9,333.1,132.3,333.4,133.5z   "></path>		<path class="st2" d="M327.3,149.9c-0.8,6.1-1.8,12.1-2.7,18.2c-1,6-2,12.1-3.2,18.1c-2.2,12.1-4.8,24.1-7.6,36   c-2.9,11.9-6.1,23.8-9.9,35.4c-1.9,5.8-4,11.6-6.3,17.3c-2.3,5.7-4.9,11.3-7.8,16.6c-0.2,0.3-0.6,0.4-0.9,0.3   c-0.3-0.2-0.4-0.6-0.2-0.9l0,0l0,0c3-5.3,5.5-10.8,7.8-16.5c2.3-5.6,4.4-11.4,6.4-17.2c3.9-11.6,7.1-23.4,10.1-35.3   c2.9-11.9,5.5-23.9,7.8-35.9c1.2-6,2.2-12,3.3-18.1c1-6,2-12.1,2.8-18.2l0,0c0-0.2,0.2-0.3,0.3-0.2   C327.2,149.6,327.3,149.7,327.3,149.9z"></path>	</g>	<g>		<path class="st2" d="M285.3,309.5c0,0-1.7-21.2,17.4-44.9c17.8-21.9,61.8-72.9,70.4-99.6c0.4-1.2,2.1-1,2.2,0.2   c1.5,13.2,2.6,46.6-16.9,81.9C333.3,292.7,285.3,309.5,285.3,309.5z"></path>					<linearGradient id="SVGID_00000008834920935448223720000006312979074611985536_" gradientUnits="userSpaceOnUse" x1="290.693" y1="247.2581" x2="367.8391" y2="247.2581">			<stop offset="0" style="stop-color:#DAE3FE"></stop>			<stop offset="1" style="stop-color:#E9EFFD"></stop>		</linearGradient>		<path style="fill:url(#SVGID_00000008834920935448223720000006312979074611985536_);" d="M367.8,189.5c-0.1,2.9-0.5,5.9-1.1,8.7   c-0.1,0.4-0.1,0.7-0.2,1.1l-0.3,1.1l-0.5,2.1l-0.6,2.1c-0.2,0.7-0.4,1.4-0.6,2.1c-1.8,5.6-4.1,11.1-6.9,16.3   c-0.6,1.3-1.4,2.6-2.1,3.9l-1.1,1.9c-0.2,0.3-0.4,0.6-0.6,1l-0.6,0.9l-2.4,3.7c-0.4,0.6-0.8,1.2-1.3,1.8l-1.3,1.8l-1.3,1.8   l-0.6,0.9l-0.7,0.9l-2.8,3.5c-0.5,0.6-0.9,1.2-1.4,1.7l-1.4,1.7l-2.9,3.4l-2.9,3.3c-1,1.1-1.9,2.2-2.9,3.3c-2,2.2-3.9,4.4-5.9,6.5   c-2,2.2-4,4.3-6,6.5l-6.1,6.4c-4,4.3-8.1,8.5-12,12.9c-1,1.1-1.9,2.2-2.9,3.3c-0.5,0.6-0.9,1.1-1.4,1.7c-0.5,0.6-0.9,1.1-1.4,1.7   c-0.9,1.2-1.8,2.3-2.5,3.6l-0.6,0.9c-0.1,0.2-0.2,0.3-0.3,0.5l-0.3,0.5l-1.1,1.9l0,0c0,0.1-0.1,0.1-0.2,0.1   c-0.1,0-0.1-0.1-0.1-0.2c1.3-2.7,2.9-5.2,4.6-7.6c0.4-0.6,0.9-1.2,1.3-1.8c0.4-0.6,0.9-1.2,1.4-1.7c0.9-1.1,1.8-2.3,2.8-3.4   l1.4-1.7c0.5-0.6,1-1.1,1.5-1.6l1.5-1.6l1.5-1.6c2-2.2,4-4.3,6-6.5c4-4.3,8-8.6,11.9-13c3.9-4.3,7.8-8.8,11.7-13.2l2.8-3.4   l1.4-1.7c0.5-0.6,0.9-1.1,1.4-1.7l2.7-3.4l0.7-0.9l0.6-0.9l1.3-1.8c3.5-4.7,6.6-9.7,9.4-14.8c2.8-5.1,5.2-10.5,7.2-16   c0.3-0.7,0.5-1.4,0.7-2.1l0.7-2.1l0.6-2.1l0.3-1.1c0.1-0.4,0.2-0.7,0.3-1.1c0.2-0.7,0.3-1.4,0.5-2.1l0.4-2.2   C367.5,192.4,367.7,191,367.8,189.5C367.8,189.5,367.8,189.5,367.8,189.5C367.8,189.5,367.8,189.5,367.8,189.5z"></path>	</g></g><g>	<g>		<path class="st2" d="M81.8,138.7c-5,17.9-28.5,121.6,79.8,169.5c3.4,1.5,7.3-0.2,8.4-3.6c5.9-18.6,13.5-78.4-85.1-166.4   C83.9,137.2,82.2,137.5,81.8,138.7z"></path>					<linearGradient id="SVGID_00000006667420509551285110000013847850888855229344_" gradientUnits="userSpaceOnUse" x1="90.7325" y1="229.0204" x2="153.2035" y2="229.0204">			<stop offset="0" style="stop-color:#DAE3FE"></stop>			<stop offset="1" style="stop-color:#E9EFFD"></stop>		</linearGradient>		<path style="fill:url(#SVGID_00000006667420509551285110000013847850888855229344_);" d="M90.7,157c1,6.5,2.3,13,3.7,19.4   c1.4,6.4,3,12.8,4.7,19.2c3.4,12.7,7.5,25.3,12.3,37.6c2.4,6.1,5,12.2,7.8,18.2c2.8,6,5.9,11.9,9.2,17.6   c3.3,5.7,6.9,11.3,10.8,16.8c3.9,5.4,8.2,10.6,12.8,15.5c0.3,0.3,0.7,0.3,1,0c0.3-0.2,0.3-0.7,0-0.9l0,0l0,0   c-4.6-4.8-8.8-9.9-12.7-15.3c-3.9-5.4-7.5-10.9-10.8-16.6c-3.3-5.7-6.4-11.6-9.2-17.5c-2.8-6-5.4-12-7.9-18.1   c-4.8-12.2-9-24.7-12.5-37.4c-1.8-6.3-3.4-12.7-4.8-19.1c-1.4-6.4-2.7-12.9-3.8-19.3l0,0c0-0.2-0.2-0.3-0.3-0.2   C90.8,156.7,90.7,156.8,90.7,157z"></path>	</g>	<g>		<path class="st1" d="M139.1,132.6c-9.3,16-58.5,110.1,34.6,171.4c2.9,1.9,6.8,1.1,8.6-1.8c10.3-16,34-71.2-40.1-169.6   C141.5,131.5,139.7,131.6,139.1,132.6z"></path>		<path class="st2" d="M143.1,151.1c-0.4,3.2-0.7,6.3-0.9,9.5c-0.3,3.2-0.4,6.3-0.6,9.5c-0.3,6.3-0.4,12.7-0.4,19   c0.1,12.7,1,25.4,2.8,37.9c1.8,12.6,4.6,25,8.9,37c2.1,6,4.7,11.9,7.7,17.5c1.5,2.8,3.1,5.6,4.9,8.3c1.8,2.7,3.6,5.3,5.6,7.8   c0.2,0.2,0.5,0.3,0.8,0.1c0.2-0.2,0.3-0.5,0.1-0.7l0,0l0,0c-2-2.5-3.8-5-5.6-7.7c-1.7-2.6-3.3-5.4-4.9-8.2   c-3-5.6-5.5-11.4-7.7-17.3c-4.3-11.9-7.2-24.3-9-36.8c-1.9-12.5-2.8-25.2-3-37.8c-0.1-6.3,0-12.7,0.3-19c0.1-3.2,0.3-6.3,0.6-9.5   c0.2-3.2,0.5-6.3,0.9-9.5l0,0c0-0.1-0.1-0.2-0.2-0.3C143.3,150.9,143.2,151,143.1,151.1z"></path>	</g>	<g>		<path class="st1" d="M25.4,205.9c-0.3-1,1-1.7,1.7-0.9c6.8,7.3,25.2,25.9,42,32.1c27.4,10.1,55.1,35.3,52.2,57.2   C121.3,294.2,54.8,314.4,25.4,205.9z"></path>		<path class="st2" d="M33.8,217c0.1,0.2,0.3,0.4,0.5,0.6l0.5,0.6l1,1.3l2.1,2.6c1.4,1.7,2.8,3.4,4.3,5c2.9,3.3,5.8,6.6,8.8,9.9   c6,6.4,12.1,12.7,18.6,18.7c3.3,3,6.5,5.9,9.9,8.7c3.4,2.8,6.8,5.5,10.4,8.1c7.1,5.2,14.6,9.9,22.5,13.7c0.1,0.1,0.2,0.2,0.1,0.3   c0,0.1-0.2,0.2-0.3,0.1c-4.1-1.7-8-3.7-11.9-5.9c-3.8-2.2-7.5-4.7-11.1-7.2c-7.2-5.1-14-10.8-20.5-16.8c-3.2-3-6.4-6.1-9.5-9.2   c-3.1-3.1-6.1-6.4-9.1-9.7c-2.9-3.3-5.8-6.6-8.6-10c-1.4-1.7-2.8-3.4-4.1-5.2c-0.7-0.9-1.3-1.7-2-2.6l-1-1.3l-0.5-0.7   c-0.2-0.2-0.3-0.4-0.5-0.7c-0.1-0.1,0-0.2,0.1-0.3C33.5,216.9,33.7,216.9,33.8,217L33.8,217z"></path>	</g>	<g>		<path class="st2" d="M184.5,308.3c0,0-12.6-9.2-41.1-11.4c-26.4-2.1-89.7-5.9-112.9-13.3c-1-0.3-2.1,0.4-1.4,0.9   c7.6,5.9,28.5,19.8,64.8,26.6C140.8,319.8,184.5,308.3,184.5,308.3z"></path>					<linearGradient id="SVGID_00000067229307276159519900000005437111609955058049_" gradientUnits="userSpaceOnUse" x1="50.0964" y1="298.9053" x2="178.1636" y2="298.9053">			<stop offset="0" style="stop-color:#DAE3FE"></stop>			<stop offset="1" style="stop-color:#E9EFFD"></stop>		</linearGradient>		<path style="fill:url(#SVGID_00000067229307276159519900000005437111609955058049_);" d="M50.2,290.2c2.1,1.1,4.4,2,6.8,2.8   c1.2,0.4,2.4,0.8,3.6,1.2c1.2,0.4,2.4,0.8,3.7,1.1c1.3,0.3,2.5,0.7,3.7,1c1.3,0.3,2.5,0.6,3.8,0.9l3.9,0.9   c1.3,0.3,2.6,0.5,3.9,0.8c5.2,1,10.6,1.7,16,2.3c2.7,0.3,5.4,0.5,8.1,0.7c2.7,0.2,5.5,0.4,8.2,0.6c5.5,0.3,11,0.6,16.5,0.9   c5.5,0.3,11,0.5,16.6,0.7c2.8,0.1,5.5,0.2,8.3,0.4c1.4,0.1,2.8,0.1,4.2,0.2c1.4,0.1,2.8,0.2,4.2,0.3c5.5,0.4,11.1,0.9,16.3,2.2   c0.2,0,0.3,0.2,0.2,0.3c-0.1,0.1-0.3,0.2-0.4,0.1l0,0c-2.6-0.5-5.3-0.8-8-1c-2.7-0.2-5.5-0.4-8.2-0.5c-5.5-0.2-11-0.3-16.6-0.5   l-8.3-0.2c-2.8-0.1-5.5-0.2-8.3-0.3c-5.5-0.2-11.1-0.5-16.6-0.8c-5.5-0.3-11.1-0.7-16.6-1.4c-1.4-0.2-2.8-0.3-4.1-0.5l-4.1-0.6   c-1.4-0.2-2.7-0.5-4-0.7c-1.3-0.2-2.7-0.5-4-0.8c-5.3-1.1-10.4-2.5-15.3-4.1c-1.2-0.4-2.4-0.9-3.6-1.3c-1.2-0.5-2.3-0.9-3.4-1.4   C54.2,292.5,52,291.5,50.2,290.2C50.1,290.3,50.1,290.2,50.2,290.2C50.1,290.2,50.2,290.2,50.2,290.2z"></path>	</g></g><g>	<g>		<g>			<g>									<linearGradient id="SVGID_00000173139175759311136060000006822525995980503448_" gradientUnits="userSpaceOnUse" x1="299.0597" y1="199.6716" x2="306.0509" y2="199.6716">					<stop offset="0" style="stop-color:#DAE3FE"></stop>					<stop offset="1" style="stop-color:#E9EFFD"></stop>				</linearGradient>				<path style="fill:url(#SVGID_00000173139175759311136060000006822525995980503448_);" d="M299.6,193.6c0.9,1.1,7.8,5.6-0.4,12.1     c-0.4,0.7,0.6,2.6,1.3,2.4c11.8-7.5,1.3-17.7,0.1-16.7C299.4,192.2,298.6,192.3,299.6,193.6z"></path>			</g>			<g>									<linearGradient id="SVGID_00000150096323776774396710000011752261352873638332_" gradientUnits="userSpaceOnUse" x1="303.6793" y1="200.3102" x2="314.4965" y2="200.3102">					<stop offset="0" style="stop-color:#DAE3FE"></stop>					<stop offset="1" style="stop-color:#E9EFFD"></stop>				</linearGradient>				<path style="fill:url(#SVGID_00000150096323776774396710000011752261352873638332_);" d="M303.7,212.9c0.1,1.5,1.1,2.9,2.4,2.5     c1.3-0.4,18.2-13.8,0.3-30.1c-0.2-0.2-0.5-0.3-0.8-0.3c-0.3,0-0.6,0.1-0.8,0.4c-0.6,0.7-1,1.3-1,2.1     C319.5,202.4,303.6,211.5,303.7,212.9z"></path>			</g>			<g>									<linearGradient id="SVGID_00000088132329051284396400000016588455506609755810_" gradientUnits="userSpaceOnUse" x1="308.2632" y1="200.1772" x2="322.8999" y2="200.1772">					<stop offset="0" style="stop-color:#DAE3FE"></stop>					<stop offset="1" style="stop-color:#E9EFFD"></stop>				</linearGradient>				<path style="fill:url(#SVGID_00000088132329051284396400000016588455506609755810_);" d="M308.3,220.4c-0.2,1,0.5,3.2,2.2,2.7     c27.8-23.7,0.4-46.7-0.8-46c-1.2,0.8-1.3,2.4-0.9,3.1C333.3,200.8,308.6,219.4,308.3,220.4z"></path>			</g>		</g>	</g>	<g>		<g>							<linearGradient id="SVGID_00000155849747776150191190000012976649040461680261_" gradientUnits="userSpaceOnUse" x1="233.1447" y1="338.3383" x2="236.2449" y2="107.8766">				<stop offset="0" style="stop-color:#09005D"></stop>				<stop offset="1" style="stop-color:#1A0F91"></stop>			</linearGradient>			<path style="fill:url(#SVGID_00000155849747776150191190000012976649040461680261_);" d="M186.1,148.4c-4.5,0.3-8.1,4-8.2,8.6    c-0.7,27.8-2.9,123.6-1.9,157.6c0.1,3.6,3,6.5,6.6,6.6c17.8,0.6,69,2.1,98.1,0.8c6.1-0.3,10.9-5.2,11-11.2    c0.6-29.2,1.9-111.2-1.2-148.8c-0.4-4.5-3.9-8.1-8.4-8.5C262.7,151.5,211.2,146.8,186.1,148.4z"></path>							<linearGradient id="SVGID_00000174565983583614694050000012146663948559275953_" gradientUnits="userSpaceOnUse" x1="219.0454" y1="299.5815" x2="267.6179" y2="66.0196">				<stop offset="0" style="stop-color:#FE7062"></stop>				<stop offset="1" style="stop-color:#FF928E"></stop>			</linearGradient>			<path style="fill:url(#SVGID_00000174565983583614694050000012146663948559275953_);" d="M185.1,165.6c-1,22.8-4,98.5-3.1,126.5    c0.1,4.1,3.4,7.4,7.5,7.6c16.8,1,60,3.2,84.7,1.2c4.4-0.4,7.9-4,8.2-8.4c1.3-23.2,4.8-93.7,3.9-121.4c-0.1-4.4-3.6-8-8-8.4    c-18.2-1.6-65-5.5-85.9-4.4C188.4,158.5,185.3,161.7,185.1,165.6z"></path>			<path class="st11" d="M192.1,170.1c-0.8,21.4-3.5,92.6-2.6,118.9c0.1,3.8,2.9,7,6.4,7.2c14.4,0.9,51.4,3,72.5,1.1    c3.8-0.3,6.8-3.7,7-7.9c1.1-21.8,4.1-88.1,3.3-114.2c-0.1-4.2-3.1-7.5-6.8-7.9c-15.6-1.5-55.6-5.2-73.6-4.1    C195,163.4,192.3,166.4,192.1,170.1z"></path>			<path class="st12" d="M230.1,153.3L230.1,153.3c0,0.9,0.7,1.6,1.5,1.6c4.2,0.2,16,0.8,21.3,1.2c1,0.1,1.9-0.9,1.7-1.9l0-0.2    c-0.1-0.7-0.7-1.2-1.4-1.3c-3.6-0.3-14.4-1.2-21.5-1C230.8,151.7,230.1,152.4,230.1,153.3z"></path>		</g>		<g>			<g>									<linearGradient id="SVGID_00000140012902439461627480000008600868101759669646_" gradientUnits="userSpaceOnUse" x1="113.714" y1="407.977" x2="323.4135" y2="143.4694">					<stop offset="0" style="stop-color:#4042E2"></stop>					<stop offset="1" style="stop-color:#4F52FF"></stop>				</linearGradient>				<path style="fill:url(#SVGID_00000140012902439461627480000008600868101759669646_);" d="M267,294.8h-70c-1.4,0-2.6-1.2-2.6-2.6     v-67.7h75.1v67.7C269.5,293.7,268.4,294.8,267,294.8z"></path>									<linearGradient id="SVGID_00000183928560144223915570000015631005420255722396_" gradientUnits="userSpaceOnUse" x1="105.4521" y1="389.4406" x2="307.1497" y2="135.0262">					<stop offset="0" style="stop-color:#4042E2"></stop>					<stop offset="1" style="stop-color:#4F52FF"></stop>				</linearGradient>				<path style="fill:url(#SVGID_00000183928560144223915570000015631005420255722396_);" d="M184.5,227.1l48.7-55.2     c1.4-1.6,3.9-1.5,5.1,0.2l42.7,55.4c1.3,1.7,0.1,4-2,4h-92.5C184.2,231.6,183,228.8,184.5,227.1z"></path>			</g>			<g>				<g>					<circle class="st15" cx="232.7" cy="259.7" r="31.3"></circle>					<circle class="st15" cx="232.7" cy="259.7" r="31.3"></circle>											<linearGradient id="SVGID_00000030477216945966382330000006173288509667141282_" gradientUnits="userSpaceOnUse" x1="201.8906" y1="259.8085" x2="264.4463" y2="259.8085">						<stop offset="0" style="stop-color:#FF928E"></stop>						<stop offset="1" style="stop-color:#FEB3B1"></stop>					</linearGradient>											<circle style="opacity:0.19;fill:url(#SVGID_00000030477216945966382330000006173288509667141282_);" cx="233.2" cy="259.8" r="31.3"></circle>											<linearGradient id="SVGID_00000171691651278278875350000015049247937682779547_" gradientUnits="userSpaceOnUse" x1="254.3167" y1="235.6936" x2="211.1689" y2="283.678">						<stop offset="0" style="stop-color:#E1473D"></stop>						<stop offset="1" style="stop-color:#E9605A"></stop>					</linearGradient>					<path style="fill:url(#SVGID_00000171691651278278875350000015049247937682779547_);" d="M232.7,292      c-17.8,0-32.3-14.5-32.3-32.3s14.5-32.3,32.3-32.3s32.3,14.5,32.3,32.3S250.5,292,232.7,292z M232.7,229.4      c-16.7,0-30.3,13.6-30.3,30.3S216,290,232.7,290c16.7,0,30.3-13.6,30.3-30.3S249.4,229.4,232.7,229.4z"></path>				</g>									<linearGradient id="SVGID_00000119826190560800963980000012440701532005888424_" gradientUnits="userSpaceOnUse" x1="239.384" y1="179.2395" x2="233.2055" y2="262.3064">					<stop offset="0" style="stop-color:#E1473D"></stop>					<stop offset="1" style="stop-color:#E9605A"></stop>				</linearGradient>				<path style="fill:url(#SVGID_00000119826190560800963980000012440701532005888424_);" d="M235.7,282     c12.9-2.5,18.1-8.3,17.3-16.9c-0.7,3.2-2.8,4.4-5.8,4.4c3.7-4.9,5.1-9.3,4.3-13.3l-0.8,0.7c0-2.5,0.3-4.7,1-6.6     c-3.6,0-6.5,1.7-9.1,4.1c1.6-5.2-10.3-12.4-1.4-17.8c-4.3-0.4-9,1.1-13.8,4l1.2-2c-5.1,2.7-6.5,8.2-6.1,15     c-3.8,0.3-5-1.8-4.5-5.5c-2.4,1.6-3.4,4.2-3.3,7.7l-1.2-1.2c-0.8,5.5,1.4,10.6,5.5,14.5c-2.8,0.9-4.8-0.7-5.8-3     c-0.3,9.8,6.8,15,19.9,16.4c0.1,0,0.1,0,0.2,0c-0.1,0-0.2,0-0.3,0c-4.6-0.2-13.5-8.4-10.7-20.2c0.5,2.8,2.1,2.2,3.8,4.9     c0.6-11.4,8.1-10.7,6.9-16.4c3.6,5.8,5.9,10.3,4.6,15.8c2.7-4.5,5.1-2.1,6.6-5C245.1,271.1,241.8,280.1,235.7,282z"></path>			</g>		</g>	</g>	<g>		<g>			<g>									<linearGradient id="SVGID_00000083060922035529152840000012087403231258312592_" gradientUnits="userSpaceOnUse" x1="223.8356" y1="96.8196" x2="214.1882" y2="124.5561">					<stop offset="0" style="stop-color:#4042E2"></stop>					<stop offset="1" style="stop-color:#4F52FF"></stop>				</linearGradient>				<circle style="fill:url(#SVGID_00000083060922035529152840000012087403231258312592_);" cx="206.8" cy="145.9" r="13.7"></circle>									<linearGradient id="SVGID_00000132799791661962690060000010298121685030846342_" gradientUnits="userSpaceOnUse" x1="224.2048" y1="96.9478" x2="214.5573" y2="124.6845">					<stop offset="0" style="stop-color:#4042E2"></stop>					<stop offset="1" style="stop-color:#4F52FF"></stop>				</linearGradient>				<path style="fill:url(#SVGID_00000132799791661962690060000010298121685030846342_);" d="M220.5,145.2h-13.7H193     c0,0-1.1,7.6,11.2,28.5c0.5,0.9,1.5,1.5,2.6,1.5c1.1,0,2-0.5,2.6-1.4C221.6,152.8,220.5,145.2,220.5,145.2z"></path>			</g>			<g>				<g>					<path class="st12" d="M206.7,175.6L206.7,175.6L206.7,175.6c-1.2,0.1-2.3-0.6-2.9-1.6c-7.2-12.2-9.8-19.9-10.7-24.3      c-0.3-1-0.4-2-0.5-3c-0.1-1,0-1.5,0-1.5l0-0.2c0.6-7.4,6.7-13.1,14.1-13.1c7.5,0,13.7,5.8,14.1,13.3c0,0.1,0,0.3,0,0.8l0,0.1      c0,1.3-0.2,2.7-0.6,4c-1,4.3-3.6,12-10.7,24C209.1,175,208,175.6,206.7,175.6z M193.4,145.8c0,0.2,0,0.5,0,0.9l0,0      c0,0.9,0.2,1.9,0.4,2.8l0,0c0.9,4.3,3.5,11.9,10.6,24c0.5,0.8,1.3,1.3,2.2,1.3l0,0.4v-0.4c0.8,0,1.8-0.5,2.2-1.3      c7-11.9,9.6-19.5,10.6-23.8l0,0c0.4-1.2,0.5-2.5,0.5-3.8l-0.1-0.1v0c0-0.4,0.1-0.6,0.1-0.7l0,0c-0.4-7-6.2-12.5-13.3-12.5      c-7.1,0-12.9,5.6-13.3,12.7L193.4,145.8L193.4,145.8z"></path>				</g>			</g>							<ellipse transform="matrix(0.8457 -0.5337 0.5337 0.8457 -45.9483 132.8819)" class="st21" cx="206.8" cy="145.9" rx="7.9" ry="7.9"></ellipse>			<g>				<g>					<path class="st12" d="M206.8,154.3c-4.6,0-8.4-3.8-8.4-8.4c0-4.6,3.8-8.4,8.4-8.4c4.6,0,8.4,3.8,8.4,8.4      C215.2,150.5,211.4,154.3,206.8,154.3z M206.8,138.4c-4.1,0-7.5,3.4-7.5,7.5c0,4.1,3.4,7.5,7.5,7.5c4.1,0,7.5-3.4,7.5-7.5      C214.3,141.8,210.9,138.4,206.8,138.4z"></path>				</g>			</g>		</g>		<g>			<path class="st1" d="M199.3,137.6c0,0-0.1,0-0.1,0c0-0.1,0-0.1,0-0.2c2.2-1.9,5.1-3,8-3c0.1,0,0.1,0.1,0.1,0.1    c0,0.1-0.1,0.1-0.1,0.1C204.3,134.7,201.5,135.7,199.3,137.6C199.3,137.6,199.3,137.6,199.3,137.6z"></path>		</g>		<g>			<path class="st1" d="M195,146.9c-0.1,0-0.1-0.1-0.1-0.1c0-2.3,0.6-4.5,1.8-6.5c0-0.1,0.1-0.1,0.2,0c0.1,0,0.1,0.1,0,0.2    c-1.2,1.9-1.8,4.1-1.8,6.3C195.2,146.8,195.1,146.9,195,146.9z"></path>		</g>	</g></g><g>			<linearGradient id="SVGID_00000101806498322239262050000018293910434989347470_" gradientUnits="userSpaceOnUse" x1="14.3815" y1="-523.9561" x2="-10.3437" y2="-492.6859" gradientTransform="matrix(0.986 0.1665 -0.1665 0.986 -3.5281 821.1354)">		<stop offset="0" style="stop-color:#E1473D"></stop>		<stop offset="1" style="stop-color:#E9605A"></stop>	</linearGradient>	<path style="fill:url(#SVGID_00000101806498322239262050000018293910434989347470_);" d="M95.9,281.8c-0.2,18.8,3.8,31.7,21.9,34  l0.5-2.7c-15.4-1.7-19.5-13.2-20-32.3L95.9,281.8z"></path>			<linearGradient id="SVGID_00000060753266108522748570000012407224176030517129_" gradientUnits="userSpaceOnUse" x1="97.7082" y1="281.7483" x2="83.1857" y2="300.115">		<stop offset="0" style="stop-color:#E1473D"></stop>		<stop offset="1" style="stop-color:#E9605A"></stop>	</linearGradient>	<circle style="fill:url(#SVGID_00000060753266108522748570000012407224176030517129_);" cx="97.5" cy="282" r="4.6"></circle>			<linearGradient id="SVGID_00000031885535572146606690000003830339881238349475_" gradientUnits="userSpaceOnUse" x1="134.8297" y1="274.7844" x2="133.5376" y2="309.6689">		<stop offset="0" style="stop-color:#E1473D"></stop>		<stop offset="1" style="stop-color:#E9605A"></stop>	</linearGradient>	<path style="fill:url(#SVGID_00000031885535572146606690000003830339881238349475_);" d="M149.6,320.4h-32.2c-1.1,0-2-0.9-2-2  v-15.9c0-1.1,0.9-2,2-2h32.2c1.1,0,2,0.9,2,2v15.9C151.6,319.5,150.7,320.4,149.6,320.4z"></path>			<linearGradient id="SVGID_00000141422231583374777230000004017069601741611652_" gradientUnits="userSpaceOnUse" x1="144.2672" y1="282.5885" x2="311.8173" y2="293.5514">		<stop offset="0" style="stop-color:#E1473D"></stop>		<stop offset="1" style="stop-color:#E9605A"></stop>	</linearGradient>	<circle style="fill:url(#SVGID_00000141422231583374777230000004017069601741611652_);" cx="133.6" cy="281.9" r="28.6"></circle>	<g>					<linearGradient id="SVGID_00000111160000660769328560000016299983802617307533_" gradientUnits="userSpaceOnUse" x1="157.576" y1="282.2504" x2="167.7117" y2="282.2504">			<stop offset="0" style="stop-color:#DAE3FE"></stop>			<stop offset="1" style="stop-color:#E9EFFD"></stop>		</linearGradient>		<path style="fill:url(#SVGID_00000111160000660769328560000016299983802617307533_);" d="M157.9,304.7c-0.1,0-0.2,0-0.2-0.1   c-0.1-0.1-0.1-0.3,0-0.5c6-5.9,9.4-13.8,9.4-22.2c0-8.1-3.1-15.7-8.7-21.5c-0.1-0.1-0.1-0.3,0-0.5c0.1-0.1,0.3-0.1,0.5,0   c5.7,5.9,8.9,13.7,8.9,22c0,8.6-3.4,16.7-9.6,22.7C158.1,304.7,158,304.7,157.9,304.7z"></path>					<linearGradient id="SVGID_00000041284879002752808240000015552649926857636542_" gradientUnits="userSpaceOnUse" x1="100.5751" y1="266.4798" x2="112.4735" y2="266.4798">			<stop offset="0" style="stop-color:#DAE3FE"></stop>			<stop offset="1" style="stop-color:#E9EFFD"></stop>		</linearGradient>		<path style="fill:url(#SVGID_00000041284879002752808240000015552649926857636542_);" d="M100.9,276   C100.9,276,100.9,276,100.9,276c-0.2,0-0.4-0.2-0.3-0.4c1.5-7.3,5.5-13.9,11.3-18.5c0.1-0.1,0.4-0.1,0.5,0.1   c0.1,0.1,0.1,0.4-0.1,0.5c-5.7,4.6-9.7,11-11.1,18.1C101.2,275.9,101.1,276,100.9,276z"></path>					<linearGradient id="SVGID_00000087398318131313631730000008160960193056818834_" gradientUnits="userSpaceOnUse" x1="100.7067" y1="297.5405" x2="112.2838" y2="297.5405">			<stop offset="0" style="stop-color:#DAE3FE"></stop>			<stop offset="1" style="stop-color:#E9EFFD"></stop>		</linearGradient>		<path style="fill:url(#SVGID_00000087398318131313631730000008160960193056818834_);" d="M111.9,306.6c-0.1,0-0.1,0-0.2-0.1   c-5.6-4.5-9.5-10.8-11-17.7c0-0.2,0.1-0.4,0.3-0.4c0.2,0,0.4,0.1,0.4,0.3c1.5,6.8,5.4,13,10.8,17.4c0.1,0.1,0.2,0.3,0,0.5   C112.1,306.6,112,306.6,111.9,306.6z"></path>					<linearGradient id="SVGID_00000151546000603807903870000013874867616562259646_" gradientUnits="userSpaceOnUse" x1="152.7399" y1="280.8726" x2="164.7401" y2="280.8726">			<stop offset="0" style="stop-color:#DAE3FE"></stop>			<stop offset="1" style="stop-color:#E9EFFD"></stop>		</linearGradient>		<path style="fill:url(#SVGID_00000151546000603807903870000013874867616562259646_);" d="M155.3,303.5c-0.1,0-0.2,0-0.2-0.1   c-0.1-0.1-0.1-0.3,0-0.5c5.8-5.6,9-13,9-21.1c0-9-4.1-17.4-11.2-23c-0.1-0.1-0.2-0.3-0.1-0.5c0.1-0.1,0.3-0.2,0.5-0.1   c7.3,5.7,11.5,14.3,11.5,23.5c0,8.2-3.3,15.9-9.2,21.6C155.5,303.5,155.4,303.5,155.3,303.5z"></path>					<linearGradient id="SVGID_00000112607488185769950940000015306479585191790250_" gradientUnits="userSpaceOnUse" x1="102.7466" y1="280.5982" x2="117.8822" y2="280.5982">			<stop offset="0" style="stop-color:#DAE3FE"></stop>			<stop offset="1" style="stop-color:#E9EFFD"></stop>		</linearGradient>		<path style="fill:url(#SVGID_00000112607488185769950940000015306479585191790250_);" d="M114,305.1c-0.1,0-0.1,0-0.2-0.1   c-7-5.7-11.1-14.1-11.1-23.2c0-5.3,1.4-10.5,4-15c2.6-4.4,6.2-8.1,10.6-10.7c0.2-0.1,0.4,0,0.5,0.1c0.1,0.2,0,0.4-0.1,0.5   c-4.3,2.5-7.9,6.2-10.4,10.5c-2.6,4.4-3.9,9.5-3.9,14.7c0,8.8,3.9,17.1,10.8,22.7c0.1,0.1,0.2,0.3,0,0.5   C114.2,305,114.1,305.1,114,305.1z"></path>					<linearGradient id="SVGID_00000042704529253366294140000007787964625542789045_" gradientUnits="userSpaceOnUse" x1="99.1655" y1="298.5177" x2="107.0728" y2="298.5177">			<stop offset="0" style="stop-color:#DAE3FE"></stop>			<stop offset="1" style="stop-color:#E9EFFD"></stop>		</linearGradient>		<path style="fill:url(#SVGID_00000042704529253366294140000007787964625542789045_);" d="M106.7,305.1c-0.1,0-0.2,0-0.2-0.1   c-3.3-3.7-5.8-7.9-7.3-12.6c-0.1-0.2,0-0.4,0.2-0.4c0.2-0.1,0.4,0,0.4,0.2c1.5,4.6,3.9,8.8,7.2,12.4c0.1,0.1,0.1,0.3,0,0.5   C106.9,305.1,106.8,305.1,106.7,305.1z"></path>					<linearGradient id="SVGID_00000081616811988043731850000016107322831685245843_" gradientUnits="userSpaceOnUse" x1="163.3308" y1="282.4905" x2="170.3925" y2="282.4905">			<stop offset="0" style="stop-color:#DAE3FE"></stop>			<stop offset="1" style="stop-color:#E9EFFD"></stop>		</linearGradient>		<path style="fill:url(#SVGID_00000081616811988043731850000016107322831685245843_);" d="M163.7,302.1c-0.1,0-0.1,0-0.2-0.1   c-0.1-0.1-0.2-0.3-0.1-0.5c4.1-5.7,6.3-12.5,6.3-19.6c0-6.6-1.9-13-5.5-18.5c-0.1-0.2-0.1-0.4,0.1-0.5c0.2-0.1,0.4-0.1,0.5,0.1   c3.7,5.6,5.6,12.1,5.6,18.8c0,7.2-2.2,14.2-6.5,20C163.9,302,163.8,302.1,163.7,302.1z"></path>					<linearGradient id="SVGID_00000175296322563964037730000010769443575006383533_" gradientUnits="userSpaceOnUse" x1="98.0382" y1="267.3448" x2="107.487" y2="267.3448">			<stop offset="0" style="stop-color:#DAE3FE"></stop>			<stop offset="1" style="stop-color:#E9EFFD"></stop>		</linearGradient>		<path style="fill:url(#SVGID_00000175296322563964037730000010769443575006383533_);" d="M98.4,276.4   C98.4,276.4,98.3,276.4,98.4,276.4c-0.2,0-0.4-0.2-0.3-0.4c1.1-6.6,4.2-12.8,8.9-17.7c0.1-0.1,0.3-0.1,0.5,0   c0.1,0.1,0.1,0.3,0,0.5c-4.6,4.8-7.6,10.8-8.7,17.3C98.7,276.3,98.5,276.4,98.4,276.4z"></path>	</g>			<linearGradient id="SVGID_00000133488804040825289300000009062699853741339313_" gradientUnits="userSpaceOnUse" x1="57.2736" y1="276.9272" x2="207.6738" y2="286.768">		<stop offset="0" style="stop-color:#FE7062"></stop>		<stop offset="1" style="stop-color:#FF928E"></stop>	</linearGradient>	<circle style="fill:url(#SVGID_00000133488804040825289300000009062699853741339313_);" cx="133.6" cy="281.9" r="25.6"></circle>			<linearGradient id="SVGID_00000011736229126731191580000001868974687901693096_" gradientUnits="userSpaceOnUse" x1="133.2298" y1="283.4695" x2="122.3769" y2="340.3181">		<stop offset="0" style="stop-color:#FE7062"></stop>		<stop offset="1" style="stop-color:#FF928E"></stop>	</linearGradient>	<circle style="fill:url(#SVGID_00000011736229126731191580000001868974687901693096_);" cx="133.5" cy="282" r="13.3"></circle>			<linearGradient id="SVGID_00000157992728090792412640000007311743008730409653_" gradientUnits="userSpaceOnUse" x1="128.0084" y1="297.6028" x2="116.1218" y2="331.4537">		<stop offset="0" style="stop-color:#E1473D"></stop>		<stop offset="1" style="stop-color:#E9605A"></stop>	</linearGradient>	<circle style="fill:url(#SVGID_00000157992728090792412640000007311743008730409653_);" cx="133.5" cy="281.9" r="11.9"></circle>	<g>					<linearGradient id="SVGID_00000165232420892307745560000009327877336857704353_" gradientUnits="userSpaceOnUse" x1="124.8002" y1="281.3147" x2="149.2015" y2="282.9113">			<stop offset="0" style="stop-color:#FE7062"></stop>			<stop offset="1" style="stop-color:#FF928E"></stop>		</linearGradient>		<circle style="fill:url(#SVGID_00000165232420892307745560000009327877336857704353_);" cx="133.6" cy="281.9" r="4.2"></circle>					<linearGradient id="SVGID_00000047045867558499735120000003040288958802763936_" gradientUnits="userSpaceOnUse" x1="135.4274" y1="235.5899" x2="134.6522" y2="255.7453">			<stop offset="0" style="stop-color:#E1473D"></stop>			<stop offset="1" style="stop-color:#E9605A"></stop>		</linearGradient>		<circle style="fill:url(#SVGID_00000047045867558499735120000003040288958802763936_);" cx="133.6" cy="281.9" r="2.8"></circle>	</g></g><g>	<g>					<linearGradient id="SVGID_00000108297929884325767760000006243329102519051196_" gradientUnits="userSpaceOnUse" x1="283.4055" y1="221.2729" x2="301.8392" y2="247.6312">			<stop offset="0" style="stop-color:#FF928E"></stop>			<stop offset="1" style="stop-color:#FEB3B1"></stop>		</linearGradient>		<path style="fill:url(#SVGID_00000108297929884325767760000006243329102519051196_);" d="M290.3,233.2c-0.1,0.3,0.9,0.7,1.4-0.4   c0-0.5,0.3-2.7,0-3.1c-1.6-2.2-4.8-5-4.8-5c-0.5,0.5-0.1,1.1-0.1,1.1l1.5,1.6c-0.3,0.6-0.7,1.1-0.9,1.8c-0.1,0.5-0.1,1.1,0.2,1.6   c0.3,0.5,0.6,1.1,1,1.6C289.3,233.2,290.3,233.2,290.3,233.2z"></path>					<linearGradient id="SVGID_00000151523906630544112500000006744678606426252679_" gradientUnits="userSpaceOnUse" x1="294.0251" y1="217.0306" x2="291.2687" y2="225.2999">			<stop offset="0" style="stop-color:#FF928E"></stop>			<stop offset="1" style="stop-color:#FEB3B1"></stop>		</linearGradient>		<path style="fill:url(#SVGID_00000151523906630544112500000006744678606426252679_);" d="M289,228.3l1.4,1.2l0.4,1.2l-1.3,1.4   c0,0-0.4-2.4-0.7-2.9C288.6,228.7,288.7,228.5,289,228.3z"></path>	</g>	<g>					<linearGradient id="SVGID_00000157994182875476995970000009675564455521579430_" gradientUnits="userSpaceOnUse" x1="4751.7446" y1="318.2254" x2="4717.4482" y2="355.5302" gradientTransform="matrix(-1 0 0 1 5058.7852 0)">			<stop offset="0" style="stop-color:#09005D"></stop>			<stop offset="1" style="stop-color:#1A0F91"></stop>		</linearGradient>		<path style="fill:url(#SVGID_00000157994182875476995970000009675564455521579430_);" d="M317.9,321c0,0,0.4,2,0.5,4   c0.1,0.8-0.5,1.5-1.3,1.5c-2.7,0.1-8.3,0.3-10.4,0.2c-0.3,0-0.5-0.3-0.4-0.6l0,0c0.1-0.2,0.3-0.4,0.5-0.5l9.4-4.3L317.9,321z"></path>					<linearGradient id="SVGID_00000158746971569600837460000006286773680611761561_" gradientUnits="userSpaceOnUse" x1="3655.679" y1="645.0732" x2="3714.595" y2="627.5017" gradientTransform="matrix(-1 0 0 1 5058.7852 0)">			<stop offset="0" style="stop-color:#FE7062"></stop>			<stop offset="1" style="stop-color:#FF928E"></stop>		</linearGradient>		<path style="fill:url(#SVGID_00000158746971569600837460000006286773680611761561_);" d="M318.2,319.8l-0.3,2.4   c0,0-1.6,0.8-2.8-0.1l0.7-2.7L318.2,319.8z"></path>					<linearGradient id="SVGID_00000023970153112739116560000001346523823693808011_" gradientUnits="userSpaceOnUse" x1="4754.4453" y1="276.0377" x2="4725.2622" y2="315.5913" gradientTransform="matrix(-1 0 0 1 5058.7852 0)">			<stop offset="0" style="stop-color:#09005D"></stop>			<stop offset="1" style="stop-color:#1A0F91"></stop>		</linearGradient>		<path style="fill:url(#SVGID_00000023970153112739116560000001346523823693808011_);" d="M318,274.6c0.1,0.6,0.7,31.3-2.6,45.1   c-0.1,0.2,0.1,0.5,0.3,0.5c0.5,0.2,1.5,0.5,2.7,0.5c0.4,0,0.7-0.2,0.8-0.6c0.9-3.2,5.4-19.2,6-34.5c0.7-17.1,0-0.6,0-0.6   l-0.4-10.6L318,274.6z"></path>					<linearGradient id="SVGID_00000034074693842135968410000017363217004704056999_" gradientUnits="userSpaceOnUse" x1="4744.0508" y1="311.1522" x2="4709.7544" y2="348.4567" gradientTransform="matrix(-1 0 0 1 5058.7852 0)">			<stop offset="0" style="stop-color:#09005D"></stop>			<stop offset="1" style="stop-color:#1A0F91"></stop>		</linearGradient>		<path style="fill:url(#SVGID_00000034074693842135968410000017363217004704056999_);" d="M328.7,322.1c0,0,0.6,1,1.1,3.7   c0.1,0.5-0.2,1-0.7,1c-0.9,0.1-2.2,0.2-3.3,0.2c-0.5,0-0.9-0.4-0.8-0.9c0.1-1,0.5-2.6,1.6-3.9L328.7,322.1z"></path>					<linearGradient id="SVGID_00000091014875390583509130000009990358826409403029_" gradientUnits="userSpaceOnUse" x1="3654.7124" y1="641.829" x2="3713.6284" y2="624.2576" gradientTransform="matrix(-1 0 0 1 5058.7852 0)">			<stop offset="0" style="stop-color:#FE7062"></stop>			<stop offset="1" style="stop-color:#FF928E"></stop>		</linearGradient>		<path style="fill:url(#SVGID_00000091014875390583509130000009990358826409403029_);" d="M329.2,319l-0.7,3.6c0,0-0.7,0.5-2,0.1   l0.3-3.9L329.2,319z"></path>					<linearGradient id="SVGID_00000070108738145968965940000016372086960099105686_" gradientUnits="userSpaceOnUse" x1="4749.2441" y1="272.2003" x2="4720.061" y2="311.7539" gradientTransform="matrix(-1 0 0 1 5058.7852 0)">			<stop offset="0" style="stop-color:#09005D"></stop>			<stop offset="1" style="stop-color:#1A0F91"></stop>		</linearGradient>		<path style="fill:url(#SVGID_00000070108738145968965940000016372086960099105686_);" d="M331,275.5c2.7,16.2-0.6,40.1-1.7,44.7   c-0.1,0.3-0.3,0.5-0.6,0.6c-0.5,0.1-1.3,0.1-2.1-0.1c-0.3-0.1-0.5-0.3-0.5-0.6c-0.1-3.8,0.1-26.9-2.4-36.1   c-0.1-0.5-0.4-0.9-0.8-1.1l-4.9-3.5l-0.4-5.6L331,275.5z"></path>		<g>							<linearGradient id="SVGID_00000106140620565287608890000015117384950188686998_" gradientUnits="userSpaceOnUse" x1="327.2549" y1="249.2067" x2="282.451" y2="305.472">				<stop offset="0" style="stop-color:#FE7062"></stop>				<stop offset="1" style="stop-color:#FF928E"></stop>			</linearGradient>			<path style="fill:url(#SVGID_00000106140620565287608890000015117384950188686998_);" d="M313.8,244.8c8-0.1,16.9,2.1,16.9,2.1    c2.4,14,0.4,30.1,0.4,30.1c-6.2,1.6-13.3-1-13.3-1c-1-5.9-5.9-22.3-5.9-22.3c-3.9-0.5-7.2-1.6-9.8-3.1c2-2.4,3-5.4,3.4-7.1    C308.5,244.4,311.4,244.9,313.8,244.8z"></path>							<linearGradient id="SVGID_00000139284208126301277330000006743256959342958012_" gradientUnits="userSpaceOnUse" x1="284.1219" y1="220.7719" x2="302.5556" y2="247.1303">				<stop offset="0" style="stop-color:#FF928E"></stop>				<stop offset="1" style="stop-color:#FEB3B1"></stop>			</linearGradient>			<path style="fill:url(#SVGID_00000139284208126301277330000006743256959342958012_);" d="M290.1,233c0.8-1,1.7-0.5,1.7-0.5    c1.2,5,7.5,9.1,13.9,11.1c-0.4,1.8-1.4,4.8-3.4,7.1C291.6,244.7,290.1,233,290.1,233z"></path>		</g>					<linearGradient id="SVGID_00000128449687284560245850000005286587842712466064_" gradientUnits="userSpaceOnUse" x1="333.8083" y1="254.4252" x2="289.0044" y2="310.6906">			<stop offset="0" style="stop-color:#FE7062"></stop>			<stop offset="1" style="stop-color:#FF928E"></stop>		</linearGradient>		<path style="fill:url(#SVGID_00000128449687284560245850000005286587842712466064_);" d="M327.7,254.7l3.1-7.8   c0,0,7.5,5.1,8.8,11.6c-1.4,0.1-4,0.5-6.5,1.8C332.4,257.2,327.7,254.7,327.7,254.7z"></path>					<linearGradient id="SVGID_00000021804089353983511790000014193237112735244183_" gradientUnits="userSpaceOnUse" x1="320.3001" y1="236.7952" x2="321.6783" y2="256.0902">			<stop offset="0" style="stop-color:#FF928E"></stop>			<stop offset="1" style="stop-color:#FEB3B1"></stop>		</linearGradient>		<path style="fill:url(#SVGID_00000021804089353983511790000014193237112735244183_);" d="M322,238.3l2.6,7.4c0,0.1,0,0.3-0.1,0.3   c-0.7,0.4-3.2,1.5-6.2-0.4c-0.3-0.2-0.5-0.5-0.6-0.9l-0.8-6.4H322z"></path>		<g>							<linearGradient id="SVGID_00000055690395652378831050000001352784027957144730_" gradientUnits="userSpaceOnUse" x1="-2747.4819" y1="1199.0176" x2="-2737.1455" y2="1198.8453" gradientTransform="matrix(-0.746 -0.6659 -0.6659 0.746 -744.4879 -2313.8765)">				<stop offset="0" style="stop-color:#FF928E"></stop>				<stop offset="1" style="stop-color:#FEB3B1"></stop>			</linearGradient>			<path style="fill:url(#SVGID_00000055690395652378831050000001352784027957144730_);" d="M316.4,231.5c0,0-2.8,5.3-2.5,7.4    c0.4,2.1,3.8,2,6.9,0.2l2.1-5.7L316.4,231.5z"></path>							<linearGradient id="SVGID_00000029765731088134026450000007548755689158509232_" gradientUnits="userSpaceOnUse" x1="-2492.1021" y1="1181.2529" x2="-2489.668" y2="1195.1364" gradientTransform="matrix(-0.746 -0.6659 -0.6659 0.746 -744.4879 -2313.8765)">				<stop offset="0" style="stop-color:#09005D"></stop>				<stop offset="1" style="stop-color:#1A0F91"></stop>			</linearGradient>			<path style="fill:url(#SVGID_00000029765731088134026450000007548755689158509232_);" d="M320.7,236.3c-0.1-0.1-0.2-0.2-0.1-0.3    c0.2-0.3,0.6-1,0.8-1.7c0,0,0.5-0.3-1.3-0.8c-1.8-0.4-4.5-1.1-5-2.6c-0.5-1.5,0.9-5.2,3.2-2.2c0.1,0.1,0.3,0.1,0.3,0    c0.4-0.5,1.4-1.5,2.7-0.9c1.3,0.6,1.4,1.5,1.4,2c0,0.1,0.1,0.2,0.3,0.2c0.6-0.1,2.2-0.2,2.9,1.4c0.6,1.3,0.2,2.1-0.1,2.4    c-0.1,0.1-0.1,0.3,0.1,0.4c0.4,0.1,1,0.5,0.9,1.5c-0.1,1.4-1.6,1.3-2.1,1.2c-0.1,0-0.1,0-0.2,0.1c-0.4,0.4-2.1,2.2-3.9,2.4    c-0.2,0-0.3-0.1-0.2-0.3l0.8-2.3c0-0.1,0-0.2-0.1-0.3L320.7,236.3z"></path>							<linearGradient id="SVGID_00000012441741694651826530000010200635668393652388_" gradientUnits="userSpaceOnUse" x1="-2747.5034" y1="1197.6052" x2="-2737.167" y2="1197.4329" gradientTransform="matrix(-0.746 -0.6659 -0.6659 0.746 -744.4879 -2313.8765)">				<stop offset="0" style="stop-color:#FF928E"></stop>				<stop offset="1" style="stop-color:#FEB3B1"></stop>			</linearGradient>			<path style="fill:url(#SVGID_00000012441741694651826530000010200635668393652388_);" d="M320.4,236.7c0,0,2-1.4,2.1-0.2    c0.1,1.2-1.8,1.7-2.8,1.2L320.4,236.7z"></path>		</g>					<linearGradient id="SVGID_00000019679180054595805020000000521999450146178969_" gradientUnits="userSpaceOnUse" x1="-1512.7815" y1="293.3901" x2="-1493.4865" y2="289.9445" gradientTransform="matrix(-1 0 0 1 -1039.8949 0)">			<stop offset="0" style="stop-color:#FF928E"></stop>			<stop offset="1" style="stop-color:#FEB3B1"></stop>		</linearGradient>		<path style="fill:url(#SVGID_00000019679180054595805020000000521999450146178969_);" d="M333,260.3c0,0,2.6,11.9,0.2,18.5   c2.9,1.4,2.4,1.1,2.4,1.1s5.8-16.9,3.9-21.4C335.8,258.1,334,259.1,333,260.3z"></path>					<linearGradient id="SVGID_00000180363715402834411890000012475062516200957095_" gradientUnits="userSpaceOnUse" x1="-1510.411" y1="306.6646" x2="-1491.116" y2="303.2191" gradientTransform="matrix(-1 0 0 1 -1039.8949 0)">			<stop offset="0" style="stop-color:#FF928E"></stop>			<stop offset="1" style="stop-color:#FEB3B1"></stop>		</linearGradient>		<path style="fill:url(#SVGID_00000180363715402834411890000012475062516200957095_);" d="M333.2,278.8c0,0-1.5,1.9-1.4,2.7   c0.1,0.8,0.1,1.1,0.1,1.1s0.8-0.5,0.7-1.2c-0.1,2.1-0.8,4.5-0.2,4.4c0.6-0.1,3.9-3.2,3.2-6.4C334,278.2,333.6,278.4,333.2,278.8z"></path>	</g></g><g>	<g>		<path class="st12" d="M88.7,107.7L88.7,107.7c-0.9,0-1.5-0.7-1.5-1.5V101c0-0.8,0.7-1.5,1.5-1.5h0c0.8,0,1.5,0.7,1.5,1.5v5.2   C90.2,107,89.5,107.7,88.7,107.7z"></path>		<path class="st12" d="M102.5,107.7L102.5,107.7c-0.9,0-1.5-0.7-1.5-1.5V101c0-0.8,0.7-1.5,1.5-1.5h0c0.8,0,1.5,0.7,1.5,1.5v5.2   C104,107,103.3,107.7,102.5,107.7z"></path>		<path class="st12" d="M117.7,107.5L117.7,107.5c-0.9,0-1.5-0.7-1.5-1.5v-5.2c0-0.8,0.7-1.5,1.5-1.5h0c0.8,0,1.5,0.7,1.5,1.5v5.2   C119.2,106.8,118.5,107.5,117.7,107.5z"></path>		<path class="st12" d="M131.4,107.5L131.4,107.5c-0.9,0-1.5-0.7-1.5-1.5v-5.2c0-0.8,0.7-1.5,1.5-1.5h0c0.8,0,1.5,0.7,1.5,1.5v5.2   C132.9,106.8,132.2,107.5,131.4,107.5z"></path>					<linearGradient id="SVGID_00000177444605370285455030000009337719228810345394_" gradientUnits="userSpaceOnUse" x1="114.1775" y1="127.819" x2="122.1023" y2="177.4349">			<stop offset="0" style="stop-color:#4042E2"></stop>			<stop offset="1" style="stop-color:#4F52FF"></stop>		</linearGradient>		<path style="fill:url(#SVGID_00000177444605370285455030000009337719228810345394_);" d="M132.9,100.9H86.1c-1.1,0-2-0.9-2-2v-0.8   c0-1.1,0.9-2,2-2h46.8c1.1,0,2,0.9,2,2V99C134.9,100.1,134,100.9,132.9,100.9z"></path>					<linearGradient id="SVGID_00000135666328968001195040000007507184311089556119_" gradientUnits="userSpaceOnUse" x1="110.628" y1="87.4719" x2="112.9536" y2="52.3292">			<stop offset="0" style="stop-color:#4042E2"></stop>			<stop offset="1" style="stop-color:#4F52FF"></stop>		</linearGradient>		<path style="fill:url(#SVGID_00000135666328968001195040000007507184311089556119_);" d="M143.7,98.9H76.3c-0.9,0-1.6-0.7-1.6-1.6   v-0.1c0-0.9,0.7-1.6,1.6-1.6h67.5c0.9,0,1.6,0.7,1.6,1.6v0.1C145.4,98.1,144.6,98.9,143.7,98.9z"></path>					<linearGradient id="SVGID_00000034057521976488726580000013896373536179961217_" gradientUnits="userSpaceOnUse" x1="111.7347" y1="87.5236" x2="110.1842" y2="115.4311">			<stop offset="0" style="stop-color:#4042E2"></stop>			<stop offset="1" style="stop-color:#4F52FF"></stop>		</linearGradient>		<path style="fill:url(#SVGID_00000034057521976488726580000013896373536179961217_);" d="M87.7,114.9l4.2,10.9   c0.3,0.8,1,1.3,1.9,1.3h34.9c0.9,0,1.8-0.7,2-1.6l2.3-10.9c0.3-1.2-0.7-2.4-2-2.4H89.5C88.1,112.2,87.2,113.6,87.7,114.9z"></path>					<linearGradient id="SVGID_00000058589174194478258190000000760864842767513528_" gradientUnits="userSpaceOnUse" x1="97.2085" y1="113.5466" x2="100.0509" y2="75.5614">			<stop offset="0" style="stop-color:#4042E2"></stop>			<stop offset="1" style="stop-color:#4F52FF"></stop>		</linearGradient>		<path style="fill:url(#SVGID_00000058589174194478258190000000760864842767513528_);" d="M93.5,118.6h5.6c0.4,0,0.7,0.3,0.8,0.7   l0.6,4.8c0.1,0.5-0.3,0.8-0.8,0.8h-4.9c-0.3,0-0.6-0.2-0.7-0.6l-1.2-4.8C92.7,119,93,118.6,93.5,118.6z"></path>					<linearGradient id="SVGID_00000154421816781450383260000015818488353493428610_" gradientUnits="userSpaceOnUse" x1="106.4246" y1="114.2363" x2="109.2671" y2="76.251">			<stop offset="0" style="stop-color:#4042E2"></stop>			<stop offset="1" style="stop-color:#4F52FF"></stop>		</linearGradient>		<path style="fill:url(#SVGID_00000154421816781450383260000015818488353493428610_);" d="M103.5,118.8h4.5c0.6,0,1,0.4,1,1l0.1,4   c0,0.6-0.5,1.1-1,1.1h-4.4c-0.6,0-1-0.4-1-1l-0.2-4C102.5,119.3,102.9,118.8,103.5,118.8z"></path>					<linearGradient id="SVGID_00000112592541177646660850000009850976485207753149_" gradientUnits="userSpaceOnUse" x1="125.1774" y1="115.6395" x2="128.0199" y2="77.6543">			<stop offset="0" style="stop-color:#4042E2"></stop>			<stop offset="1" style="stop-color:#4F52FF"></stop>		</linearGradient>		<path style="fill:url(#SVGID_00000112592541177646660850000009850976485207753149_);" d="M127.8,118.7h-5.6   c-0.4,0-0.7,0.3-0.8,0.7l-0.6,4.8c-0.1,0.5,0.3,0.8,0.8,0.8h4.9c0.3,0,0.6-0.2,0.7-0.6l1.2-4.8   C128.6,119.1,128.3,118.7,127.8,118.7z"></path>					<linearGradient id="SVGID_00000030476333292577125080000017448127123543080892_" gradientUnits="userSpaceOnUse" x1="116.3394" y1="114.9782" x2="119.1819" y2="76.9929">			<stop offset="0" style="stop-color:#4042E2"></stop>			<stop offset="1" style="stop-color:#4F52FF"></stop>		</linearGradient>		<path style="fill:url(#SVGID_00000030476333292577125080000017448127123543080892_);" d="M118.2,118.9h-4.5c-0.6,0-1,0.4-1,1   l-0.1,4c0,0.6,0.5,1.1,1,1.1h4.4c0.6,0,1-0.4,1-1l0.2-4C119.2,119.4,118.8,118.9,118.2,118.9z"></path>					<linearGradient id="SVGID_00000048492439945565451950000003977640563477278895_" gradientUnits="userSpaceOnUse" x1="93.1282" y1="117.0866" x2="187.2477" y2="78.8162">			<stop offset="0" style="stop-color:#4042E2"></stop>			<stop offset="1" style="stop-color:#4F52FF"></stop>		</linearGradient>		<path style="fill:url(#SVGID_00000048492439945565451950000003977640563477278895_);" d="M134,114.9H86.6c-0.9,0-1.7-0.8-1.6-1.7   l0.5-6.6c0.1-0.9,0.8-1.5,1.6-1.5h46.4c0.8,0,1.5,0.6,1.6,1.5l0.6,6.6C135.7,114.1,135,114.9,134,114.9z"></path>		<path class="st12" d="M135.4,111.6c-1.4,0.1-41.7-0.1-50.3,0l-0.1,1.6c-0.1,0.9,0.7,1.7,1.6,1.7H134c1,0,1.7-0.8,1.6-1.8   L135.4,111.6z"></path>	</g>	<g>		<path class="st15" d="M79,108.8c0.6-3.3,3.5-5.5,6.7-5.6c-0.4-0.2-0.9-0.3-1.4-0.4c-3.7-0.7-7.4,1.7-8.1,5.4   c-0.7,3.7,1.7,7.4,5.4,8.1c0.5,0.1,1,0.1,1.4,0.1C80.1,115.2,78.4,112.1,79,108.8z"></path>		<path class="st15" d="M83.3,136.1c-5.4-1.1-8.9-6.4-7.9-11.8c0.9-4.3,4.4-7.4,8.5-8c-5.2-0.7-10.1,2.8-11.1,8   c-1.1,5.4,2.4,10.7,7.9,11.8c1.1,0.2,2.2,0.2,3.3,0.1C83.7,136.2,83.5,136.2,83.3,136.1z"></path>		<path class="st15" d="M84.2,143.8c-0.1-0.7-0.2-1.3-0.2-2c0-0.8,0.1-1.6,0.2-2.3c0.6-3.8,2.6-7,5.4-9.1c-5.1,1.5-8.7,6.3-8.7,11.8   c0,6.1,4.5,11.2,10.3,12.2C87.5,152.3,84.8,148.4,84.2,143.8z"></path>		<path class="st15" d="M120.9,140.1c0.1-0.6,0.2-1.3,0.2-1.9c0-0.7-0.1-1.5-0.2-2.2c-0.6-3.5-2.4-6.6-5.1-8.6   c4.7,1.5,8.2,5.9,8.2,11.1c0,5.7-4.2,10.5-9.7,11.4C117.8,148.1,120.4,144.4,120.9,140.1z"></path>		<path class="st15" d="M113.4,197.3c0.1-0.6,0.2-1.3,0.2-1.9c0-0.7-0.1-1.5-0.2-2.2c-0.6-3.5-2.4-6.6-5.1-8.6   c4.7,1.5,8.2,5.9,8.2,11.1c0,5.7-4.2,10.5-9.7,11.4C110.3,205.2,112.8,201.6,113.4,197.3z"></path>		<path class="st15" d="M142.1,107.8c-0.6-3.1-3.3-5.3-6.4-5.3c0.4-0.2,0.9-0.3,1.3-0.4c3.6-0.7,7.1,1.6,7.8,5.2   c0.7,3.6-1.6,7.1-5.2,7.8c-0.5,0.1-0.9,0.1-1.4,0.1C141.1,114,142.8,111,142.1,107.8z"></path>		<path class="st15" d="M135.5,133c5.2-1,8.6-6.1,7.5-11.3c-0.8-4.1-4.2-7.1-8.1-7.6c5-0.7,9.7,2.6,10.7,7.6   c1,5.2-2.3,10.2-7.5,11.3c-1.1,0.2-2.1,0.2-3.1,0.1C135.1,133,135.3,133,135.5,133z"></path>		<path class="st15" d="M136.2,141.7c0.1-0.7,0.2-1.5,0.2-2.3c0-0.9-0.1-1.8-0.3-2.6c-0.7-4.3-3.2-8-6.8-10.4   c6.3,1.8,10.9,7.1,10.9,13.4c0,6.9-5.6,12.7-12.9,13.8C132.1,151.3,135.5,146.9,136.2,141.7z"></path>		<path class="st15" d="M109.1,129.8c-0.5,1.3-0.9,2.6-1.3,3.8c-0.4,1.3-0.7,2.6-0.8,3.9c-0.4,2.6-0.2,5.2,0.5,7.5   c0.4,1.2,0.9,2.3,1.5,3.4c0.6,1.1,1.4,2.1,2.2,3c0.8,0.9,1.8,1.8,2.8,2.6c1,0.8,2,1.6,3.1,2.3l0.4,0.3l0.4,0.3l0.8,0.5   c0.3,0.2,0.6,0.5,1,0.7l0.4,0.4c0.1,0.1,0.3,0.2,0.4,0.4c1.1,1.1,2.1,2.3,2.7,3.7c0.7,1.4,1,3,1,4.6c0,1.6-0.4,3.1-1.1,4.5   c0,0.1-0.1,0.2-0.1,0.3l-0.1,0.3l-0.3,0.5c-0.1,0.2-0.2,0.3-0.3,0.5c-0.1,0.2-0.2,0.3-0.3,0.5l-0.4,0.4l-0.2,0.2l-0.2,0.2   l-0.4,0.4c-0.1,0.1-0.3,0.2-0.4,0.4c-1.2,0.9-2.5,1.6-3.8,2.1c-1.4,0.5-2.8,0.7-4.1,0.8c-1.4,0.1-2.8,0-4.1-0.2   c0.7-0.1,1.3-0.2,2-0.3l0.5-0.1l0.2,0l0.2-0.1l1-0.2c1.3-0.3,2.5-0.8,3.6-1.4c1.1-0.6,2.2-1.3,3-2.2c0.1-0.1,0.2-0.2,0.3-0.3   l0.3-0.3l0.1-0.2l0.1-0.2l0.3-0.4c0.1-0.1,0.2-0.3,0.2-0.4c0.1-0.1,0.2-0.3,0.2-0.4l0.2-0.4l0.1-0.2c0-0.1,0-0.1,0.1-0.2l0.1-0.4   c0-0.1,0.1-0.3,0.1-0.4l0.1-0.2c0-0.1,0-0.1,0-0.2l0.1-0.4c0-0.1,0-0.3,0-0.4c0-0.1,0-0.3,0-0.4l0-0.4l0-0.2l0-0.2   c-0.1-1.1-0.4-2.2-0.9-3.3c-0.5-1-1.2-1.9-2.1-2.7c-0.2-0.2-0.4-0.4-0.7-0.6c-0.2-0.2-0.5-0.3-0.7-0.5l-0.9-0.5l-0.4-0.3l-0.4-0.3   c-2.3-1.6-4.6-3.4-6.4-5.6c-0.9-1.1-1.8-2.3-2.4-3.6c-0.3-0.7-0.6-1.3-0.9-2c-0.1-0.2-0.1-0.3-0.2-0.5l-0.2-0.5   c-0.1-0.4-0.2-0.7-0.3-1.1c-0.1-0.4-0.1-0.7-0.2-1.1c0-0.4-0.1-0.7-0.1-1.1c0-0.4,0-0.7,0-1.1l0-0.5l0-0.3l0-0.3   c0.1-1.4,0.3-2.8,0.7-4.2c0.4-1.3,0.9-2.6,1.6-3.9C107.6,132,108.3,130.9,109.1,129.8z"></path>		<path class="st15" d="M109.1,157.4c0.6,0.8,1.2,1.7,1.7,2.6c0.5,0.9,0.9,1.9,1.3,2.9c0.3,1,0.6,2.1,0.6,3.2c0,0.1,0,0.3,0,0.4   l0,0.4c0,0.3,0,0.6,0,0.8c0,0.3-0.1,0.6-0.1,0.8c0,0.3-0.1,0.6-0.1,0.8c-0.1,0.3-0.1,0.6-0.2,0.8c-0.1,0.3-0.2,0.6-0.3,0.8   c-0.2,0.5-0.4,1.1-0.7,1.6c-0.5,1-1.2,2-1.9,2.8c-1.4,1.7-3.1,3.2-4.9,4.4l-0.3,0.2l-0.3,0.2l-0.7,0.4l-0.5,0.4   c-0.2,0.1-0.3,0.3-0.5,0.4c-0.6,0.6-1.1,1.2-1.5,1.9c-0.4,0.7-0.6,1.5-0.7,2.3l0,0.2l0,0.2l0,0.3c0,0.1,0,0.2,0,0.3   c0,0.1,0,0.2,0,0.3c0,0.2,0.1,0.4,0.1,0.6c0,0.1,0,0.2,0.1,0.3l0.1,0.3c0.6,1.6,1.9,2.9,3.5,3.9c0.8,0.5,1.8,0.8,2.7,1.1   c1,0.3,2,0.5,3,0.7c-1,0.2-2.1,0.3-3.1,0.3c-1.1,0-2.1-0.2-3.2-0.5c-1.1-0.3-2.1-0.8-3-1.6c-0.2-0.2-0.5-0.4-0.7-0.6l-0.2-0.2   l-0.2-0.2l-0.3-0.3c-0.1-0.1-0.2-0.2-0.3-0.4c-0.1-0.1-0.2-0.2-0.3-0.4l-0.2-0.4l-0.1-0.2c0-0.1-0.1-0.1-0.1-0.2   c-0.5-1.1-0.9-2.3-0.9-3.6c0-1.2,0.3-2.5,0.8-3.6c0.5-1.1,1.3-2.1,2.1-3c0.2-0.2,0.5-0.4,0.7-0.6c0.2-0.2,0.5-0.4,0.8-0.5l0.6-0.4   l0.3-0.2l0.3-0.2c0.8-0.5,1.6-1.1,2.3-1.7c0.7-0.6,1.4-1.2,2.1-1.9c0.6-0.7,1.2-1.4,1.7-2.2c0.2-0.4,0.5-0.8,0.7-1.2   c0.1-0.2,0.2-0.4,0.3-0.6c0.1-0.2,0.2-0.4,0.2-0.6c0.6-1.7,0.7-3.7,0.5-5.6c-0.1-1-0.3-2-0.5-2.9   C109.7,159.4,109.4,158.4,109.1,157.4z"></path>	</g></g><g>	<g>		<path class="st12" d="M327.7,115.9L327.7,115.9c-1,0-1.7-0.7-1.7-1.6v-7.8c0-0.9,0.7-1.6,1.6-1.6h0.1c0.9,0,1.6,0.7,1.6,1.6v7.8   C329.4,115.2,328.6,115.9,327.7,115.9z"></path>					<linearGradient id="SVGID_00000178182915452453719170000000620629038805573781_" gradientUnits="userSpaceOnUse" x1="328.7903" y1="104.2774" x2="327.7567" y2="124.1744">			<stop offset="0" style="stop-color:#4042E2"></stop>			<stop offset="1" style="stop-color:#4F52FF"></stop>		</linearGradient>		<path style="fill:url(#SVGID_00000178182915452453719170000000620629038805573781_);" d="M327.7,130.7L327.7,130.7   c-1,0-1.7-0.7-1.7-1.6v-7.8c0-0.9,0.7-1.6,1.6-1.6h0.1c0.9,0,1.6,0.7,1.6,1.6v7.8C329.4,129.9,328.6,130.7,327.7,130.7z"></path>					<linearGradient id="SVGID_00000015317394446876750920000006607522371616995759_" gradientUnits="userSpaceOnUse" x1="326.1652" y1="68.9216" x2="326.682" y2="91.4027">			<stop offset="0" style="stop-color:#4042E2"></stop>			<stop offset="1" style="stop-color:#4F52FF"></stop>		</linearGradient>		<polygon style="fill:url(#SVGID_00000015317394446876750920000006607522371616995759_);" points="341.4,103.6 341.2,115.9    333.8,121.3 320.5,121.3 313.1,115.9 312.8,103.6 311.3,103.6 311.3,117.7 320.5,123.9 333.8,123.9 343,117.7 343,103.6   "></polygon>					<linearGradient id="SVGID_00000099641062198382672540000013916168208727204254_" gradientUnits="userSpaceOnUse" x1="329.1264" y1="104.2949" x2="328.0928" y2="124.1919">			<stop offset="0" style="stop-color:#4042E2"></stop>			<stop offset="1" style="stop-color:#4F52FF"></stop>		</linearGradient>		<path style="fill:url(#SVGID_00000099641062198382672540000013916168208727204254_);" d="M350.7,133.9h-45.9c-1.1,0-2-0.9-2-2   v-0.7c0-1.1,0.9-2,2-2h45.9c1.1,0,2,0.9,2,2v0.7C352.6,133.1,351.8,133.9,350.7,133.9z"></path>					<linearGradient id="SVGID_00000070106556501686608380000007024332223190256818_" gradientUnits="userSpaceOnUse" x1="321.4538" y1="115.2901" x2="277.5716" y2="194.2782">			<stop offset="0" style="stop-color:#4042E2"></stop>			<stop offset="1" style="stop-color:#4F52FF"></stop>		</linearGradient>		<path style="fill:url(#SVGID_00000070106556501686608380000007024332223190256818_);" d="M342.9,108.9h-31.4c-1.1,0-2-0.9-2-2v-4   c0-1.1,0.9-2,2-2h31.4c1.1,0,2,0.9,2,2v4C344.9,108,344,108.9,342.9,108.9z"></path>		<path class="st12" d="M349.9,101.4H304c-1.1,0-2-0.9-2-2v-0.7c0-1.1,0.9-2,2-2h45.9c1.1,0,2,0.9,2,2v0.7   C351.9,100.5,351,101.4,349.9,101.4z"></path>					<linearGradient id="SVGID_00000114074721009563474670000008655655000743204276_" gradientUnits="userSpaceOnUse" x1="280.9745" y1="115.9442" x2="396.1478" y2="69.1131">			<stop offset="0" style="stop-color:#4042E2"></stop>			<stop offset="1" style="stop-color:#4F52FF"></stop>		</linearGradient>		<path style="fill:url(#SVGID_00000114074721009563474670000008655655000743204276_);" d="M357.3,99.1h-61c-1,0-1.8-0.8-1.8-1.8   v-0.1c0-1,0.8-1.8,1.8-1.8h61c1,0,1.8,0.8,1.8,1.8v0.1C359.1,98.3,358.3,99.1,357.3,99.1z"></path>					<linearGradient id="SVGID_00000170959856834227199910000002010939151033197740_" gradientUnits="userSpaceOnUse" x1="329.6318" y1="69.4323" x2="328.3398" y2="89.5877">			<stop offset="0" style="stop-color:#4042E2"></stop>			<stop offset="1" style="stop-color:#4F52FF"></stop>		</linearGradient>		<path style="fill:url(#SVGID_00000170959856834227199910000002010939151033197740_);" d="M309.5,106.2v1.5c0,0.6,0.5,1.2,1.2,1.2   h33.1c0.6,0,1.2-0.5,1.2-1.2v-1.8C333.1,106.2,321.5,106.4,309.5,106.2z"></path>	</g>	<g>		<path class="st15" d="M314,123.6c-14.9,2.5-26.9,6.9-33.8,15.3c-1.2,1.1,0.5,2.8,1.5,1.7C290.4,130.9,300.4,127.2,314,123.6z"></path>		<path class="st15" d="M338.8,125.1c14.6,2.4,26.4,6.8,33.3,15c1.2,1.1-0.4,2.7-1.5,1.7C362,132.3,352.2,128.7,338.8,125.1z"></path>		<path class="st15" d="M339.3,122.7c13.8,0,25.2,2.3,32.7,8.8c1.2,0.9,0,2.6-1.1,1.8C361.6,125.8,352.1,123.9,339.3,122.7z"></path>		<path class="st15" d="M317,122.1c-14.7-2.3-27.3-1.7-36.5,4.2c-1.5,0.7-0.5,2.8,0.8,2.2C292.6,121.8,303.2,121.3,317,122.1z"></path>		<path class="st15" d="M307.5,136.3c-11.8,6.2-20.6,13.2-24.1,22.2c-0.7,1.3,1.2,2.2,1.7,1.1C289.8,149,297.2,143.1,307.5,136.3z"></path>		<path class="st15" d="M354.5,133.7c0.2,2.7,1.3,6.7,1.4,8.3c0.1,3,5.4,2,3.8-0.7C358.3,139.8,356,136.2,354.5,133.7z"></path>		<path class="st15" d="M364,143.7c0.8,2.6,1.6,5.3,2.1,6.8c0.8,2.9,5.7,0.8,3.6-1.6C367.9,147.8,366,145.9,364,143.7z"></path>		<path class="st15" d="M321.2,136.2c0.8,2.6,1.5,5.3,1.9,6.8c0.9,2.9-4.4,3.7-3.9,0.7C320.2,141.8,320.8,139.1,321.2,136.2z"></path>		<path class="st15" d="M325.3,147.8c0.8,2.6,1.7,4.3,2.1,5.9c0.9,2.9-4.4,3.7-3.9,0.7C324.4,152.4,324.8,150.7,325.3,147.8z"></path>		<path class="st15" d="M338.8,138.1c-0.8,2.6-1.5,9.3-1.9,10.8c-0.9,2.9,4.4,3.7,3.9,0.7C339.9,147.7,339.3,141.1,338.8,138.1z"></path>		<path class="st15" d="M331.8,156.2c0.8,2.6,1.5,3.9,1.9,5.4c0.9,2.9-4.4,3.7-3.9,0.7C330.7,160.5,331.3,159.1,331.8,156.2z"></path>		<path class="st15" d="M348.5,176.1c0.8,2.6,1.5,3.9,1.9,5.4c0.9,2.9-4.4,3.7-3.9,0.7C347.4,180.4,348,179.1,348.5,176.1z"></path>	</g></g></svg>