<svg xmlns="http://www.w3.org/2000/svg" id="Layer_1" data-name="Layer 1" viewBox="0 0 519.83 171.24"><defs><style>.cls-1{fill:#c8252c;}.cls-1,.cls-3{fill-rule:evenodd;}.cls-2,.cls-3{fill:#159afd;}.cls-4{font-size:20px;fill:#737577;font-family:SVN-GilroySemiBold, SVN-Gilroy;font-weight:600;}.cls-5{letter-spacing:0.1em;}.cls-6{letter-spacing:0em;}.cls-7{letter-spacing:0.1em;}.cls-8{letter-spacing:0em;}.cls-9{letter-spacing:0em;}.cls-10{letter-spacing:0.1em;}</style></defs><path class="cls-1" d="M68.66,84.49a15.22,15.22,0,0,0,27.79,8.58h17.43a31.21,31.21,0,1,1,0-17.17H96.43a15.21,15.21,0,0,0-27.77,8.59Z"></path><rect class="cls-2" x="127.83" y="93" width="16.25" height="41.29"></rect><path class="cls-3" d="M38.65,84.49a45.23,45.23,0,0,0,45.23,45.22,45.28,45.28,0,0,0,28.6-10.21v18.7A60.5,60.5,0,0,1,96.34,144a59.45,59.45,0,0,1-12.46,1.28,60.82,60.82,0,1,1,60.2-69.41H128.26a45.22,45.22,0,0,0-89.61,8.59Z"></path><path class="cls-3" d="M184.08,100.83h22.21l-11.11-28.1-11.1,28.1ZM215,123l-4.9-12.54H180.28L175.38,123h-12.5l25.4-62.25h13.81L227.39,123Z"></path><path class="cls-3" d="M237.2,114.88a29.82,29.82,0,0,1-10.4-23A29.51,29.51,0,0,1,237.2,68.9c6.9-6.22,15.71-9.33,26.21-9.33,12.7,0,24.11,5.69,30.11,14.85l-10,5.15c-3.7-6.13-11.3-10-20.1-10-7.5,0-13.5,2.13-18.2,6.31a20.64,20.64,0,0,0-6.91,16,20.63,20.63,0,0,0,6.91,16c4.7,4.18,10.7,6.32,18.2,6.32,8.8,0,16.5-3.92,20.1-10l10,5.07A31.28,31.28,0,0,1,281,120.12a38.66,38.66,0,0,1-17.6,4C252.91,124.13,244.1,121,237.2,114.88Z"></path><polygon class="cls-3" points="346.04 60.72 346.04 70.5 326.33 70.5 326.33 122.97 314.83 122.97 314.83 70.5 295.02 70.5 295.02 60.72 346.04 60.72"></polygon><path class="cls-3" d="M380.65,97c-1.5-7.2-7.2-10.93-14.31-10.93-8,0-13.6,4.17-15.1,10.93Zm-29.31,7.83c1.6,6.76,7.7,10.49,16,10.49,5.7,0,10-1.87,12.9-5.51l8.9,4.62c-4.9,6.49-12.2,9.69-21.9,9.69-8.11,0-14.71-2.22-19.71-6.58a22.48,22.48,0,0,1-.1-33.43c4.9-4.54,11.3-6.76,19-6.76,7.3,0,13.3,2.31,18,6.85a22.36,22.36,0,0,1,7.1,16.63,23.24,23.24,0,0,1-.4,4Z"></path><path class="cls-3" d="M403.76,117.37a21.57,21.57,0,0,1-7.5-16.63,21.3,21.3,0,0,1,7.5-16.63c5.1-4.54,11.4-6.76,18.9-6.76,9.71,0,18.31,4.45,22.31,11.47l-9.3,4.8c-2.3-4.26-7.1-6.84-13.11-6.84a16.09,16.09,0,0,0-11.1,4,13.47,13.47,0,0,0,0,19.92,16.09,16.09,0,0,0,11.1,4c5.9,0,10.91-2.67,13.31-6.85l9.3,4.71c-4.3,7.12-12.8,11.57-22.51,11.57C415.16,124.13,408.86,121.9,403.76,117.37Z"></path><path class="cls-3" d="M496.79,95.67V123H486V96.65c0-6.67-4.3-10.32-11.2-10.32-7.6,0-12.7,4.18-12.7,12.81V123h-10.8V60.72h10.8V84.2c3.3-4.54,8.4-6.85,15.5-6.85C489.08,77.35,496.79,84.29,496.79,95.67Z"></path><text class="cls-4" transform="translate(164.03 147.57)"><tspan class="cls-5">Côn</tspan><tspan class="cls-6" x="43.79" y="0">g</tspan><tspan class="cls-7" x="56.39" y="0" xml:space="preserve"> ngh</tspan><tspan class="cls-8" x="104.53" y="0">ệ</tspan><tspan class="cls-5" x="116.17" y="0" xml:space="preserve"> quả</tspan><tspan x="165.48" y="0">n</tspan><tspan class="cls-5" x="176.9" y="0" xml:space="preserve"> tr</tspan><tspan class="cls-9" x="202.16" y="0">ị</tspan><tspan class="cls-10" x="206.81" y="0" xml:space="preserve"> thôn</tspan><tspan x="263.88" y="0">g</tspan><tspan class="cls-5" x="276.47" y="0" xml:space="preserve"> min</tspan><tspan x="322.27" y="0">h </tspan></text></svg>